<?xml version="1.0" encoding="UTF-8"?>
<svg id="Layer_1" xmlns="http://www.w3.org/2000/svg" version="1.1" viewBox="0 0 900 754.73">
  <!-- Generator: Adobe Illustrator 30.3.0, SVG Export Plug-In . SVG Version: 2.1.3 Build 182)  -->
  <defs>
    <style>
      .st0 {
        fill: none;
      }

      .st1 {
        fill: #ebc293;
      }

      .st2 {
        fill: #ecb375;
      }

      .st3 {
        fill: #e9b070;
      }

      .st4 {
        fill: #eab57c;
      }

      .st5 {
        fill: #eaba83;
      }

      .st6 {
        fill: #ebb26e;
      }

      .st7 {
        fill: #e9bc8a;
      }

      .st8 {
        fill: #f1a64c;
      }

      .st9 {
        fill: #e7c292;
      }

      .st10 {
        fill: #e8dfcd;
      }

      .st11 {
        fill: #ecbc86;
      }

      .st12 {
        stroke: #000;
        stroke-miterlimit: 10;
      }

      .st12, .st13 {
        fill: #f7931b;
      }
    </style>
  </defs>
  <rect class="st13" x="-2.57" y="-2.85" width="903" height="760.95"/>
  <path d="M894.02-.33l-.49,24.04c-1.02,10.58-5.29,20.39-12.36,28.36-6.51,7.34-14.93,12.53-23.7,14.62l-31.94,7.6c-7.49,1.78-15.07,3.18-22.39,4.54-11.23,2.07-22.84,4.22-34.2,7.78-7.03,2.2-14.3,4.47-19.66,11.39l-.25.32.28.27c2.66,2.54,5.15,5.24,5.43,7.76.39,3.59-1.28,7.37-3.8,8.61l-12.34,6.09-22.62,5.59-27.79,6.8c-5,1.22-9.25,7.04-10.43,8.79-1.77,2.63-2.56,5.65-2.28,8.72.31,3.37,1.89,6.57,4.44,9,8.48,8.07,19.14,9.88,27.51,10.56l43.48-1.6,16.46-.74h3.21l23.45,1.39c6.91.41,13.8,3.13,21.07,8.33,6.66,4.76,10.46,14.52,8.83,22.72-2.34,11.78-10.95,20.65-26.33,27.11-12.96,5.45-28.02,7.97-39.02,9.81-12.04,2.02-26.17,5.14-39.59,13.01-4.28,2.51-5.84,12.62-4.59,17.9,2.88,12.17,19.16,19.14,28.33,21.34,15.23,3.66,31.1,5.91,48.52,6.89,14.35.8,26.58,4.85,37.38,12.36,4.04,2.81,7.44,6.54,11.04,10.49l.2.22c6.72,7.37,9.96,18.46,8.66,29.68-1.23,10.61-6.02,19.46-14.24,26.28-6.78,5.63-15.86,9.78-26.25,12.01l-32.78,7.02-21.6,4.47c-5.81,1.2-11.35,4.46-14.8,8.72-6.71,8.27-6.58,20.81.3,29.16,3.84,4.66,8.66,7.96,13.56,9.28l12.89,3.46,32.21,5.65c13.42,2.35,24.58,4.57,35.8,9.77,14.89,6.91,25.08,15.67,31.14,26.79,6.59,12.08,8.18,26.65,4.87,44.56-3.48,18.85-12.28,32.92-29.4,47.02-4.68,3.85-10.2,8.16-16.6,10.51l-26.97,9.92-1.17.16-20.69,3.88c-10.28,1.93-22.36,7.89-26.17,16.86-1.57,3.7-1.54,7.54.08,11.41,4.15,9.91,11.96,13.71,17.78,15.14l10.69,2.64,21.77,1.76,1.14.62,30.59,2.28,1.22.37,25.93,6.16c6.01,1.43,11.68,5.7,17.44,10.33,11,8.83,15.74,23.02,17.78,33.41l.4,1.46.4,8.12.02,39.64h0v.79h.65l-.02-40.45-.4-8.21-.42-1.58c-2.96-15.04-9.2-26.75-18.05-33.85-5.82-4.68-11.55-8.99-17.68-10.45l-25.91-6.16-1.23-.37-30.56-2.28-1.14-.62-21.82-1.76-10.67-2.64c-5.68-1.4-13.29-5.1-17.33-14.73-1.52-3.63-1.55-7.23-.08-10.69,3.68-8.68,15.89-14.6,25.68-16.44l20.68-3.88,1.19-.17,27.06-9.94c6.48-2.38,12.06-6.73,16.78-10.61,17.05-14.04,26.2-28.69,29.68-47.51,3.35-18.12,1.72-32.9-4.97-45.17-6.14-11.27-16.43-20.13-31.46-27.1-11.28-5.23-22.48-7.45-35.94-9.81l-32.18-5.64-12.87-3.46c-4.78-1.29-9.48-4.5-13.24-9.06-6.62-8.04-6.75-20.1-.3-28.05,3.36-4.14,8.76-7.32,14.45-8.5l21.61-4.47,32.79-7.02c10.49-2.25,19.66-6.44,26.51-12.13,8.38-6.96,13.26-15.99,14.52-26.83,1.33-11.47-1.99-22.83-8.87-30.38l-.2-.22c-3.63-3.98-7.06-7.74-11.15-10.59-10.89-7.58-23.22-11.65-37.68-12.46-17.38-.97-33.22-3.22-48.42-6.87-9.02-2.17-25.03-8.98-27.82-20.78-1.06-4.47-.02-14.46,4.24-16.96,13.35-7.82,27.4-10.93,39.4-12.94,22.61-3.79,60.46-10.12,65.9-37.53,1.69-8.52-2.24-18.66-9.14-23.59-7.37-5.26-14.36-8.02-21.37-8.44l-23.47-1.39h-3.23l-16.47.73-43.45,1.6c-8.24-.67-18.78-2.45-27.12-10.39-2.42-2.3-3.91-5.3-4.2-8.46-.26-2.86.48-5.67,2.14-8.13,1.15-1.7,5.26-7.34,10.05-8.51l27.79-6.8,22.65-5.6,12.43-6.12c2.78-1.37,4.62-5.52,4.2-9.45-.29-2.71-2.73-5.44-5.39-8.01,5.21-6.5,12.27-8.71,19.1-10.85,11.33-3.54,22.92-5.69,34.14-7.76,7.33-1.35,14.91-2.76,22.42-4.54l31.94-7.6c8.89-2.12,17.43-7.38,24.03-14.82,7.19-8.1,11.53-18.08,12.57-28.88l.51-24.89"/>
  <path class="st8" d="M723.65,146.45h-3.89,3.89Z"/>
  <path class="st7" d="M699.85,147.18l1.17-.04-1.17.04Z"/>
  <path class="st11" d="M122.5,350.63l1.24.27-1.24-.27Z"/>
  <path class="st6" d="M525.45,408.02l-.5-1.42c.3-.08.49,1,.5,1.42Z"/>
  <path class="st2" d="M358.13,414.16l.47-1.47c-.06.43-.07,1.62-.47,1.47Z"/>
  <path class="st6" d="M525.78,414.24l-.2-1.19.2,1.19Z"/>
  <path class="st6" d="M536.35,488.5c-.19.2-.28-1.12-.25-1.57l.25,1.57Z"/>
  <path class="st3" d="M24.72,508.61l.14-1.15-.14,1.15Z"/>
  <path class="st11" d="M336.15,585l.22-1.38-.22,1.38Z"/>
  <path class="st5" d="M753.78,584.33l1.44-.17-1.44.17Z"/>
  <path class="st5" d="M759.38,635.86l-1.37-.62,1.37.62Z"/>
  <path class="st4" d="M797.82,638.5l-1.49-.37,1.49.37Z"/>
  <path class="st7" d="M872.54,690.18l-.5-1.51.5,1.51Z"/>
  <path class="st7" d="M568.3,712.76l-.49-1.9c-.11.05.41,1.39.49,1.9Z"/>
  <path class="st10" d="M873.25-.11l-.61,20.97c-2.63,22.65-22.91,39.19-43.92,43.32l-38.61,7.6c-23.01,4.53-45.75,6.45-68.38,12.31-8.61,2.23-17.23,4.5-23.58,11.27,3.25,2.57,6.36,5.35,6.71,8.02.46,3.56-1.47,7.66-4.83,9.03l-14.95,6.1-27.38,5.6-18.17,5.8c-4.83.98-9.46,5.07-12.38,8.65-4.66,5.71-3.09,12.72,2.55,17.16,9.3,7.32,21.02,9.67,33,10.47l37.14-.6,1.17-.04,18.74-.7h3.89l28.35,1.39c9.18.45,17.74,3.71,25.65,8.38,7.91,4.67,13.01,14.19,10.86,23.15-6.5,27.12-52.62,33.53-79.33,37.23-16.6,2.3-32.65,5.66-47.74,12.98-5.17,2.51-6.73,12.56-5.34,17.43,3.28,11.47,21.38,18.57,33.94,21.06,19.4,3.86,38.68,5.96,58.59,6.88,16.25.75,31.29,4.31,45.37,12.41,5.01,2.88,9.21,6.72,13.66,10.76,8.12,7.37,12.19,18.66,10.6,30.03-3.26,23.32-26.66,34.62-49.27,38.63l-39.63,7.02-26.12,4.47c-6.41,1.1-13.24,4.09-17.68,8.61-8.08,8.24-7.57,20.64.36,28.61,4.36,4.38,10.06,7.81,16.2,9.17l15.55,3.46,38.94,5.65c14.89,2.16,29.26,4.38,43.36,9.79,34.25,13.14,52.05,34.78,43.78,71.81-4.78,21.4-18.06,35.24-35.71,47.27-6.39,4.35-12.74,8.3-20.17,10.56l-32.64,9.93-1.44.17-25.01,3.88c-17.85,2.77-38.36,13.65-31.24,27.7,4.27,8.42,12.31,13.11,21.22,14.94l12.93,2.64,26.33,1.76,1.37.62,36.95,2.28,1.49.37,31.34,6.16c7.58,1.49,14.84,6.15,21.23,10.39,11.93,7.93,18.54,20.54,21.65,33.61l.5,1.51.48,8.18.02,40.05h-301.03l-3.7-25.67c-.07-.52-.6-1.86-.49-1.9l-4.31-31.59-5.56-41.25-5.67-36.65-2.48-16.68-1.47-14.66-3.42-22.19-8.56-58.27-.25-1.57-4.61-35.24-5.71-37.45-.2-1.19-.13-5.03c-.01-.41-.2-1.49-.5-1.42l-3-18.05-5.59-41.25-9.51-66.68-7.06-64.58c-.15-.05-1.9-.32-2.77-.58-.01,0-1.02-1.39-1.03-1.39.09-13.22.18-25.51.27-38.73,1.02-1.63-1.16-1.14-.88-5.22l.13-29.53,7.2-3.4c2.97-5.5-3.42-7.83-5.16-10.4-6.92-11.21-12.79-22.65-24.81-29.58l-18.17-7.43c-2.69-1.1-4.8-7.26-4.88-9.81,4.57-3.1,7.3-6.5,7.51-11.13l.06-1.46c.3-6.9-4.64-12.01-11.63-14.1l.64-10.09c.1-1.51-3.38-3.81-4.9-3.73s-3.75,2.85-3.78,4.52l-.22,10.73c-6.38,2.1-9.89,7.18-10.33,12.29-.53,6.18,3.7,10.23,8.4,13.53.85,5.18-4.16,9.69-8.87,10.84-18.79,4.62-31.95,18.82-38.75,36.26-2.31.76-4.87,1.61-5.93,2.75s-.84,5.58-.13,6.84l8.21,3.55v18.02c1.06,19.56-2.14-13.12-.2,42.2l-2.04,12.66-1.01,1.36c-1.4.52-3.62,2.41-3.91,4.43l-10.34,91.19-4.89,33.45-4.97,37.59-4.03,31.01-.47,1.47-4.26,31.8-3.92,34.37-6.89,48.06-3.33,27.76-3.36,26.41-.22,1.38-4.26,36-4.37,26.51-2.4,17.47-9.01,73.45-310.48-.03-.34-14.6.1-12.8c.15-19.96,5.84-39.85,21.71-53,7.83-6.49,17.54-11.74,27.32-13.85l26.62-5.73,40.31-4.17,33.25-3.99c11.22-1.57,22.53-7.39,22.73-17.28.23-11.76-18.44-19.55-32.06-22.72l-22.79-4.21c-20.19-3.45-39.74-7.04-59.07-14.22-9.16-3.4-17.18-9.48-23.99-15.96-7.45-7.09-10.61-15.06-12.88-24.77-1.69-7.23-2.68-14.2-1.82-21.42l.14-1.15c1.49-12.5,5.56-24.28,13.01-34.9,7.45-10.62,13.57-20.62,23.86-28.08,7.77-5.64,16.11-11.36,25.05-14.96,22.92-9.24,45.97-14.83,69.76-20.71,8.03-1.99,15.6-5.37,22.72-8.99,6.84-3.47,10.16-9.66,12.24-16.82,2.52-8.69-1.41-18.1-10.26-22.37-7.54-3.63-16.66-5.19-25.39-6.17l-32.11-3.58-1.24-.27c-15.28-2.33-28.66-8.14-34.62-23.21-4.88-12.34-2.52-25.29,6.79-34.76,16.78-17.06,51.61-25.43,76.15-30.78l32.09-7.01c19.53-4.27,45.83-11.28,59.28-24.49,5.34-5.25,3.81-13.52-2.13-17.23-17.16-10.72-38.54-10.64-58.86-10.87-13.09-.14-25.67-1.16-38.44-3.19-9.77-1.55-27.91-9.27-31.25-17.36s2.47-16.73,10.05-20.24,15.13-5.25,23.34-6.12l24.75-2.63c6.8-.72,13.26-2.32,19.24-5.52,3.66-1.96,5.89-8.64,2.58-11.71-16.24-15.02-66.66-25.11-92.38-30.98-16.73-3.82-32.72-8.1-48.89-13.41-16.88-5.54-33.12-12.99-45.57-25.17-10.78-10.54-19.04-24.15-19.18-39.05V-.11"/>
  <path class="st1" d="M499.79,237.05l-3.11-1.03,3.11,1.03Z"/>
  <path class="st9" d="M386.74,236.03l1.01-1.36c.01.42-.62,1.22-1.01,1.36Z"/>
  <path class="st7" d="M457.21,89.85l.06-1.46-.06,1.46Z"/>
  <path d="M28.9-1.06l.49,20.52c1.02,10.58,5.29,20.39,12.36,28.36,6.51,7.34,14.93,12.53,23.7,14.62l31.94,7.6c7.49,1.78,15.07,3.18,22.39,4.54,11.23,2.07,22.84,4.22,34.2,7.78,7.03,2.2,14.3,4.47,19.66,11.39l.25.32-.28.27c-2.66,2.54-5.15,5.24-5.43,7.76-.39,3.59,1.28,7.37,3.8,8.61l12.34,6.09,22.62,5.59,27.79,6.8c5,1.22,9.25,7.04,10.43,8.79,1.77,2.63,2.56,5.65,2.28,8.72-.31,3.37-1.89,6.57-4.44,9-8.48,8.07-19.14,9.88-27.51,10.56l-43.48-1.6-16.46-.74h-3.21l-23.45,1.39c-6.91.41-13.8,3.13-21.07,8.33-6.66,4.76-10.46,14.52-8.83,22.72,2.34,11.78,10.95,20.65,26.33,27.11,12.96,5.45,28.02,7.97,39.02,9.81,12.04,2.02,26.17,5.14,39.59,13.01,4.28,2.51,5.84,12.62,4.59,17.9-2.88,12.17-19.16,19.14-28.33,21.34-15.23,3.66-31.1,5.91-48.52,6.89-14.35.8-26.58,4.85-37.38,12.36-4.04,2.81-7.44,6.54-11.04,10.49l-.2.22c-6.72,7.37-9.96,18.46-8.66,29.68,1.23,10.61,6.02,19.46,14.24,26.28,6.78,5.63,15.86,9.78,26.25,12.01l32.78,7.02,21.6,4.47c5.81,1.2,11.35,4.46,14.8,8.72,6.71,8.27,6.58,20.81-.3,29.16-3.84,4.66-8.66,7.96-13.56,9.28l-12.89,3.46-32.21,5.65c-13.42,2.35-24.58,4.57-35.8,9.77-14.89,6.91-25.08,15.67-31.14,26.79-6.59,12.08-8.18,26.65-4.87,44.56,3.48,18.85,12.28,32.92,29.4,47.02,4.68,3.85,10.2,8.16,16.6,10.51l26.97,9.92,1.17.16,20.69,3.88c10.28,1.93,22.36,7.89,26.17,16.86,1.57,3.7,1.54,7.54-.08,11.41-4.15,9.91-11.96,13.71-17.78,15.14l-10.69,2.64-21.77,1.76-1.14.62-30.59,2.28-1.22.37-25.93,6.16c-6.01,1.43-11.68,5.7-17.44,10.33-11,8.83-15.74,23.02-17.78,33.41l-.4,1.46-.4,8.12-.02,39.64h0v2.09h-.65l.02-41.74.4-8.21.42-1.58c2.96-15.04,9.2-26.75,18.05-33.85,5.82-4.68,11.55-8.99,17.68-10.45l25.91-6.16,1.23-.37,30.56-2.28,1.14-.62,21.82-1.76,10.67-2.64c5.68-1.4,13.29-5.1,17.33-14.73,1.52-3.63,1.55-7.23.08-10.69-3.68-8.68-15.89-14.6-25.68-16.44l-20.68-3.88-1.19-.17-27.06-9.94c-6.48-2.38-12.06-6.73-16.78-10.61-17.05-14.04-26.2-28.69-29.68-47.51-3.35-18.12-1.72-32.9,4.97-45.17,6.14-11.27,16.43-20.13,31.46-27.1,11.28-5.23,22.48-7.45,35.94-9.81l32.18-5.64,12.87-3.46c4.78-1.29,9.48-4.5,13.24-9.06,6.62-8.04,6.75-20.1.3-28.05-3.36-4.14-8.76-7.32-14.45-8.5l-21.61-4.47-32.79-7.02c-10.49-2.25-19.66-6.44-26.51-12.13-8.38-6.96-13.26-15.99-14.52-26.83-1.33-11.47,1.99-22.83,8.87-30.38l.2-.22c3.63-3.98,7.06-7.74,11.15-10.59,10.89-7.58,23.22-11.65,37.68-12.46,17.38-.97,33.22-3.22,48.42-6.87,9.02-2.17,25.03-8.98,27.82-20.78,1.06-4.47.02-14.46-4.24-16.96-13.35-7.82-27.4-10.93-39.4-12.94-22.61-3.79-60.46-10.12-65.9-37.53-1.69-8.52,2.24-18.66,9.14-23.59,7.37-5.26,14.36-8.02,21.37-8.44l23.47-1.39h3.23l16.47.73,43.45,1.6c8.24-.67,18.78-2.45,27.12-10.39,2.42-2.3,3.91-5.3,4.2-8.46.26-2.86-.48-5.67-2.14-8.13-1.15-1.7-5.26-7.34-10.05-8.51l-27.79-6.8-22.65-5.6-12.43-6.12c-2.78-1.37-4.62-5.52-4.2-9.45.29-2.71,2.73-5.44,5.39-8.01-5.21-6.5-12.27-8.71-19.1-10.85-11.33-3.54-22.92-5.69-34.14-7.76-7.33-1.35-14.91-2.76-22.42-4.54l-31.94-7.6c-8.89-2.12-17.43-7.38-24.03-14.82-7.19-8.1-11.53-18.08-12.57-28.88l-.51-21.38"/>
  <path class="st0" d="M1386.34,70.07l8.35-3.61-.64-32.72-.47-32.33-1.47-1.74c-.27-.32,1.52-1.78,1.52-2.32l-.12-22.94-16.15,7.54-.93.8c-.94,1.66-.13,5.23,1.81,6.62l7.77,5.56.32,75.15h.01Z"/>
  <path class="st0" d="M1386.34,70.07l8.35-3.61-.64-32.72-.47-32.33-1.47-1.74c-.27-.32,1.52-1.78,1.52-2.32l-.12-22.94-16.15,7.54-.93.8c-.94,1.66-.13,5.23,1.81,6.62l7.77,5.56.32,75.15h.01Z"/>
  <path class="st0" d="M1386.34,70.07l8.35-3.61-.64-32.72-.47-32.33-1.47-1.74c-.27-.32,1.52-1.78,1.52-2.32l-.12-22.94-16.15,7.54-.93.8c-.94,1.66-.13,5.23,1.81,6.62l7.77,5.56.32,75.15h.01Z"/>
  <g>
    <path d="M616.37,189.64h-.62l-81.77-3.13-.07.7,81.68,3.14c.1,0,.2,0,.3.02.13,0,.26.02.37.02h.13l.02-.74h-.05.01Z"/>
    <path d="M532.49,170.2c.09.18.35.49.53.61l78.42-22.62c.28-.21.44-.43.59-.98l-78.5,22.63-1.04.37h0Z"/>
    <path d="M530.25,203.34l76.52,28.34c.1.03.19.05.27.05.18,0,.38-.07.54-.56l-77.21-28.54-.12.7h0Z"/>
    <polygon points="567.02 80.3 566.32 79.94 514.88 142.28 515.46 142.76 567.02 80.3"/>
    <path d="M526.19,155.59l68.07-45.14c-.03-.27-.11-.54-.18-.66l-1,.51-67.29,44.63.39.65h0Z"/>
    <path d="M523.53,217.71c-.15-.12-.56-.27-.77-.27h0l-.18.44,63.28,49.41.89.31c-.12-.34-.36-.84-.46-.93l-62.74-48.96h-.02,0Z"/>
    <path d="M247.04,189.64h20.79l81.77-3.13.07.7-81.68,3.14c-.1,0-.2,0-.3.02-.13,0-20.43.02-20.55.02h-.13l-.02-.74h.05Z"/>
    <path d="M351.1,170.2c-.09.18-.35.49-.53.61l-78.42-22.62c-.28-.21-.44-.43-.59-.98l78.5,22.63,1.04.37h0Z"/>
    <path d="M353.33,203.34l-76.52,28.34c-.1.03-.19.05-.27.05-.18,0-.38-.07-.54-.56l77.21-28.54.12.7h0Z"/>
    <polygon points="316.57 80.3 317.27 79.94 368.71 142.28 368.13 142.76 316.57 80.3"/>
    <path d="M357.4,155.59l-68.07-45.14c.03-.27.11-.54.18-.66l1,.51,67.29,44.63-.39.65h0Z"/>
    <path d="M360.06,217.71c.15-.12.56-.27.77-.27h0l.18.44-63.28,49.41-.89.31c.12-.34.36-.84.46-.93l62.74-48.96h.02Z"/>
    <path d="M559.94,758.6v-.67l-1.28.07-6.71-56.26-3.28-27.93-2.09-19.16h.45l-.08-.63h-.32l-.6-5.17h.31l-.13-1.07h-.66l-1.09-11.7-1.35-10.95.42.02-.15-1.24-.35-.03-4.14-32.64-1.79-15.29.59.03-.08-.7-.53-.03-2.56-20.81-17.28-151.61-8.4-73.6,16.36-9.45,2.05-2.82c2.56-2.01,5.89-3.67,8.01-6.22,2.09-2.51-.11-7.22-2.68-8.66l.22-3.04.09-42.97c.82-1.42,1.28-3.13.95-4.59-.64,1.29-1.44,2.94-2.51,3.81l-5.5,4.49-.39-11.9c2.65.92,11.14,5.4,7.34,2.51-8.08-4.49-17.19-6.76-26.19-8.74l-9.07-1.92.65,11.18c.35-2.6-.11-11.17,1-13.47l7.43-1.99c2.13-.57,3.75-3.34,2.65-5.36-1.21-2.2-3.5-4.23-5.91-5.04l-10.93-3.63.47-.2.13-30.09-.09-34.46c5.38-1.07,10-4.91,8.76-8.78-1.49-4.64-11.11-6.37-17.67-7.81-4.62-10.31-12.58-18.78-22.74-24.52-3.86-2.18-8.18-3.23-12.56-4.58l-.39-2.2c-3.03-3.27-4.34-7.54-3.34-11.98l3.76-1.86c3.91-1.94,6.53-6.37,4.97-10.66-1.78-4.9-6.43-7.56-11.61-8.01l-.09-24.66-.48.31-.14,19.39-.16,4.87c-2.36.67-5.18,1.43-7.2,2.92-4.86,3.61-6.15,10.99-1.24,14.76-1.94-3.6-3.28-6.91-1.15-10.56,3.71-6.36,12.31-7.94,18.06-3.2,3.46,2.85,4.83,7.98,1.73,11.68-1.44,1.71-4.26,2.8-6.41,4.09l-1.16-2.8c-.56,5.69-.06,10.45,2.12,15.25l-9.41.34c4.01-5.8,2.71-14.94,4.41-15.22l2.9-.48c-.78-.67-2.36-1.06-3.48-.53-.96.45-1.42,1.85-1.87,3.88l-5.75-2.41c1.32,1.66,3.38,2.56,5.9,3.44.27,5.94-2.37,8.94-4.31,13.68-11.65,2.8-21.7,9.64-28.71,19.73l-6.13,10.17c-4.57.9-8.67,1.7-12.67,3.8-2.33,1.22-5.18,4.61-3.4,7.26,1.82,2.71,5.72,4.26,8.51,6.14l.1,7.89.11,9.33.09,46.19-13.57,4.22c-1.38.43-2.71,2.2-3.1,3.29-1.7,4.79,5.12,8.59,10.31,8.05-3.15-1.03-5.6-1.86-8.71-4.02.94-1.37,2.11-2.42,3.64-3.04,6.98-2.85,14.01-4.46,21.5-5.3l16.17-1.81,5.02-.43,10.3-.33c3.99-.13,7.56-.13,11.52-.02l15.13.42c11.22.31,22.08,1.59,33.11,4.01,4.29.94,7.95,2.67,12.05,4.41-4.69-3.93-10.87-5.66-17.02-6.5l-14.86-2.03-5.98-.51-8.96-.47-33.14-.09-5.52.44-17.18,1.89c-7.7.85-15.05,2.26-22.24,5.07-1.63.64-2.92,1.93-4.15,3.33-.39-.43-.46-3.56.48-4.16,8.53-5.47,32.94-8.74,44.4-9.19l12.74-.5,14.6.02,13.45.42,6.07.47,5.92.6,16.07,2.45c6.29.96,18.64,5.1,18.03,9.61-.2,1.46-1.61,2.93-3.09,3.29l-7.2,1.75c-.65-.77-2.1-2.03-3.03-2.32l-6.81-2.1c-9.99-3.08-20.51-3.29-31.07-3.83l-26.05-.09-8.73.53-7.19.46-9.22,1.08-16.41,3.77c-1.1.25-2.76,1.33-3.42,2.14l-.1,3.86c-10.79,2.36-28.97,5.06-35.86,11.22l-.41.36c-.66.59-1.07,2.78-.4,3.37l4.31,3.8.31,13.66.26,27.66-1.61.82v-.33l-.22-11.74-.25-21.36-.33-7.65-.21-1.13c-.04-.23-.91.1-.83.32l.39,1.07.09,37.52c0,1.07.4,2.53.68,3.25.04.1.11.16.24.27-5.29,2.55-5.41,9.29-3.2,10.76l7.89,5.24c3.94,2.61,7.36,5.62,12.04,7.24l-8.9-6.16c-.18-3.59,5.93-6.2,10.47-7.44,13.41-3.66,26.93-6.36,40.87-7.13l6.65-.37,11.74-.5,27.07-.07,9.29.54,7.14.52,6,.54,5.91.59c8.98.9,17.6,2.13,26.23,4.9,6.11,1.96,17.42,6.25,13.3,8.62l-12.55,7.19-1.42.74c-.3.16-.94-.74-1.2-1.04-11.33-4.11-22.87-6.13-34.84-7.18l-7.2-.58-20.86-.48h-11.31l-15.5.47c-12.04.37-35.93,3.32-45.04,10.11l-4.01-2.25-.39.44,5.1,3.51-8.92,78.24-9.1,82.8-7.3,62.69-5.55,49.59-.03.87-2.92,26.79-.09,1.26-.84,5.22v1.1l-.79,7.35-.02.85-1.86,17.51-.09,1.06-1.8,14.09-8.16,78.36h-1.03v1.12h233l-.03.02h0ZM436.06,109.7l11.15-.29c.19.39-.45,1.95-.97,1.94l-10.22-.1.04-1.55ZM413.27,123.6c6.43-5.79,14.06-10.51,22.77-11.53l5.9-.08,6.93.3c3.81.17,7.9,1.97,11.34,3.81,9.81,5.26,17.63,13.44,22.76,23.89l-17.42-1.83-8.21-.6-27.93.11-8.19.48-5.45.58-14.8,1.86c3.18-6.09,6.91-12.15,12.31-17h0ZM384.15,151.11c-3.52-8.41,25.78-10.81,35.16-11.64l7.11-.63,34.14-.09,4.96.45,12.84,1.32,12.46,2.31c2.85.53,5.59,1.5,7.96,2.97,1.99,1.23,2.53,3.54,1.16,5.49-1.45,2.06-4.46,3.83-6.8,3.77-.49-1.54-1.4-2.96-2.94-3.42-8.18-2.45-16.35-3.71-24.9-4l-14.13-.49-17.92-.13-9.33.54-6.56.5-5.99.54c-6.48.58-12.43,2-18.73,3.6-1.06.27-2.26,1.74-3,2.83-1.7-.2-4.69-1.97-5.5-3.91h.01ZM394.7,221.18c-.03.33-1.54-.3-1.41-.37l.02-21.73c-.43-1.97-.13-3.48-.15-5.24l-.11-9.04-.09-15.48.29-11.53c1.3,4.54,1.09,8.62,1.11,13.15l.15,42.04.36,6.56-.15,1.64h-.02ZM404.36,219.24l-8.84,1.65-.02-49.96c2.03,2.4,6.52,5.74,6.77,4.95l-6.75-6.05-.2-14.48,8.81-1.81.21,22.81-3.78-1.11,3.6,2.79.18,24.91c-3.22.87-6.65,1.73-9.03,3.71l9.32-2.83-.27,15.43h0ZM404.87,181.66l2.57,9.17-1.97-12.79c5.6-.58,9.84-2.47,14.14-6.48-.59,5.91-.68,11.16.04,16.72l1.41,10.84,2.18,7.41c-3.6-1.94-6.77-3.84-9.88-6.39l-.43-.64c-5.29-7.48-8.15-19.72-6.77-13.8.33,4.84,3.73,10.77,6.42,14.4l.27.17.8,1.25-8.28,1.19-.23-12.02-.28-9.02h.01,0ZM477.31,177.4c1.4,12.69-4.96,23.86-16.71,29.95l.82-9.42.59-8.7.21-18.84,2.43,1.09-7.74-7.84c-3.74-3.79-8.41-6.51-13.58-7.61l-.18-5.37,16.3.2,6.08.35,4.98.39,6.57.83.33,7.01.06,16.82c-4.99-.37-8.76-2.3-13.25-4.94,3.33,3.93,8.06,4.83,13.09,6.09h0ZM477.54,188.8l-.05,13.46-7.03-.81c3.17-4.45,5.32-8.04,7.08-12.65h0ZM427.75,162.69c-6.28,6.59-13.07,13.88-22.47,14.26l-.16-23.91,16.6-1.75,8.22-.56,12.4-.1.14,5.4c-5.71.63-10.81,2.54-14.72,6.65h-.01ZM424.16,217.76l-6.24.38-6.54.49-6.07.5.12-15.53c8.4-2.31,10.52-.66,17.55,3.87,5.91,3.81,11.89,6.22,19.07,8.77-7.84,2.02-9.16.92-14.03,1.24h0l-3.86.28ZM441.41,214.12c-5.6-.43-10.79-2.89-15.36-5.87-2.19-1.43-3.71-6.56-4-8.04-2.38-14.98-2.55-28.51-.81-29.57,3.42-3.81,7.31-7.94,10.42-9.99,4.63-3.06,9.02-3.95,11.31-3.72,1.35.14,7.3,1.98,11.12,5.41,1.53,1.37,7.2,6.14,7.25,7.73.19,6.18-.39,25.74-1.47,35.01-.27,2.69-1.21,3.56-3.38,4.43-4.67,2.56-9.51,5.05-15.09,4.62h0ZM465.51,218.02l-6.06-.43-14.89-.34-1.75-.26c-.36-.05-.29-1.39-.21-1.73,5.62-.41,10.73-2.36,15.39-5.36l11.98-7.73,7.33,1.1.32,15.91-12.09-1.16h-.02ZM477.95,219.35c.82-5.54.9-10.43.39-16,5.82,1.84,10.03,4.63,10.84,8.16l.21-2.84-.08-.2-.14,2.75.65,2.07.2.72-.36,4.29.06,2.12-.42.36-11.34-1.42h-.01ZM489.63,155.84c-.63,4.97-.7,3.62-.18,8.46v12.52l.18,31.92.5.76c-.19-.43-2.13-2.55-3.01-3.18-2.9-2.06-8.77-3.88-8.77-3.88l-.03-13.12.17-12.06c3.23-1.1,9.05-4.62,11.39-7.76-3.54,1.99-8,6.21-11.53,6.71l.05-17.52-.29-6.12,10.14,2.46c.11.17,1.17.26,1,.6l.17.8.21-.59h0ZM492.05,221.28l-2.46-.27.28-.32.83-.2-.54-63.71.44-1.5c.42-1.43-13.06-4.15-19.01-4.57l-6.04-.42-9.52-.47-24.14.02-11.02.56c-9,.46-17.64,1.73-26.48,4.1l-.63,3.26-2.76-3.16c.84-.6,2.73-1.68,4.19-2.06,8.36-2.13,16.58-3.21,25.14-3.82l7.74-.55,28.17-.07,8.72.55,6.56.51c6.88.54,13.89,1.74,20.23,4.2l-.05,4.43.05,33.36.47,4.94.04,14.6.07,10.26-.28.32h0ZM535,309.06l-2.12-.72c-2.86-3.1-6.72-4.45-10.68-5.85-8.57-3.01-17.25-4.57-26.41-5.9l.49-3.87,20,3.74c6.7,1.25,20.16,5.95,18.74,12.6h-.02ZM530.09,273.15c.61-1.91.63-3.74.02-5.38v-10.15l1.61-1.22-.03,44.76c-.82.05-1.64-.75-1.63-1.51l.04-26.5h0ZM525.28,260.91l4.23-2.85.04,42.08-4.07-2.13.04-12.62c.01-4.27-.48-8.31-.05-12.53l.25-2.49c-.12-.36-.62-1.81-.6-2.43l.16-7.03h0ZM524.47,288.96l-.44,8.79c-9.03-2.96-18.08-4.54-27.61-6.18l.23-3.26,25.98,5.86c-8-3.44-16.72-4.82-25.51-6.66-.78-.16-.85-2.49-.41-3.27l-.08-23.96c6.15,1.2,12.5,2.53,18.85,5.71l-16.61,4.08c.02-3.21.1-5.92-.54-9.05-.37,3.83.32,6.64-1.32,10.46,7.35-1.24,13.73-2.83,20.44-5.36l7.23,4.34-.21,18.52v-.02h0ZM518.22,265.7l6.29-3.54.04,7.01-6.33-3.48h0ZM524.48,247.31l.17,13.31-7.71,4.91-7.64-3.24-12.68-3.18.11-18.67,27.75,6.87h0ZM467.17,230.34l6.15.51c7.58.89,14.85,2.19,21.98,4.78l1.74,1.5c.47.4.51,1.88.29,2.52.18.07-1.26-.38-1.75-.3l-8.22-.65-9.57-1.17-10.64-.95v-6.25h.02ZM495.43,240.34l-.03,18.62-17.84-2.51-10.41-1.05-.03-17.86,28.31,2.8h0ZM467.07,278.83l.05-22.36,28.23,3.46.12,9.59.14,17.86-20.21-2.5-8.47-.73.14-5.32h0ZM466.83,285.23l6.93.55,7.03.61,14.75,1.85-.17,3.46-15.19-1.78-6.4-.58-7.15-.55.2-3.57h0ZM472.66,290.14l8.09.62,14.48,1.71-.25,4.13-21.32-2.31-7.01-.62-.03-3.97,6.05.44h0ZM454.6,288.28l-23.81.09-12.32.37v-3.25l7.1-.59,37.77-.05c.58,0,2.46,0,2.5.57l.25,3.25-11.49-.4h0ZM465.77,289.83v3.94l-21.88-.39h-9.52l-15.99.3.11-3.84,6.61-.51,34.91-.02,5.76.52h0ZM461.94,283.77l-34.17.09-9.4.27-.05-19.03-.09-8.5,9.87-.5,28.66-.09,9.26.39.08,27.58-4.16-.21h0ZM466.06,255.23l-10.35-.33-27.09.11-10.49.59v-17.9l5.88-.29,19.03-.35h6.58l16.51.53-.08,17.64h0ZM418.58,230.07l9.38-.39,30.29-.05,7.87.74.02,6.14-7.69-.25h-32.31l-7.93.48-.13.86.51-7.54h-.01ZM394.59,287.8l10.15-1.16,12.73-1.29-.27,3.58-29.27,2.97-.25-3.18,6.91-.92h0ZM387.29,287.58l.03-27.48c.39.95,1.04,2.91,1.04,3.93v23.55h-1.08,0ZM406.42,285.42l-16.93,1.96-.14-6.4-.21-9.28-.12-11.33,10.84-1.75,17.46-1.97.09,27.64-10.99,1.12h0ZM388.95,240.94l19.76-2.42,8.63-.79v17.82l-15.05,1.65-13.2,1.84-.14-18.1h0ZM387.13,236.41c9.91-3.49,19.58-5.06,30.23-6.21v6.49l-10.96,1.05-19.1,2.45-.37-4.83.19,1.05h0ZM387.46,240.71c1.52,6.41,1.32,12.53.12,19.15-1.32-6.2-1.24-12.62-.12-19.15h0ZM386.75,289.09l-.25,3.09-25.83,5.45-.27-3.28,26.36-5.26h-.01ZM360.5,293.44l-.06-30.76,10.87,5.35,14.76,4.65.4,15.03-25.97,5.73ZM386.04,241.5l.19,17.79-16.23,4-.13.93,16.59-3.85-.22,11.32-7.62-2.31c-6.25-1.9-12.18-4.68-18.09-7.62l-.35-14.2c8.24-2.6,16.57-4.32,25.86-6.06h0ZM350.98,255.96c-1.06-.76-1.51-2.72-.99-3.62l.51-.44,8.84-4.12.07,12.55c0,.3-.98,1.1-.83,1.27l.8.95.25,17.68.35,17.9-4.57,1.98-.18-41.11-4.25-3.04h0ZM348.54,308.13c.13-2.04,1.43-3.99,3.52-5.55,4.83-2.54,9.74-4.57,15.18-5.58l24.4-4.53,12.61-1.56,4.9-.44,8.43-.5-.15,3.93-6.6.41-6.07.44-14.66,1.7-20.11,3.66c-7.77,1.41-14.79,3.9-21.45,8.02h0ZM495.18,305.5l-24.16-2.59-5.52-.39-12.82-.48h-20.27l-13.66.55-7.97.43-5.44.46-17.42,2.53c-8.47,1.23-16.24,3.48-23.95,6.29-2.52.92-4.08,2.71-4.76,5.4l-8.55-5.29c-6.4-3.96,10.21-9.84,18.91-11.41l19.38-3.49,19.12-2.21,6.61-.4,10.14-.51h34.89l28.8,2.36c11.84.97,23.15,2.9,34.31,6.8l9.92,4.75.68,1.95c.14.41-.61,1.27-.95,1.55l-5.95,4.71c-6.55-5.63-21.95-9.99-31.32-11h-.02,0ZM331.5,732.3l5.8-54.32,3.99-34.79,3.3-30.7,6.62-59.61,7.84-67.59,6.36-58.25,10.11-89.84,1.06-6.09,15.21-4.49,14.66-2.43,8.19-.69,7.12-.39,6.62-.35,25.92.08,12.18.51,25.79,3.65,8.09,1.66-.78-.73-18.71-3.82-13.71-1.58-4.41-.42-40.94.05-6.63.45-12.37,1.23c-8.83.88-17.15,2.73-25.54,6.52-.34-.37-.67-2.35-.18-2.79,3.5-3.13,14.27-5.48,20.54-6.26l18.88-2.33,10.47-.55,30.89-.08,8.77.53,8.66.53c11.63,1.3,22.84,3.23,33.83,7.01.38.4.76.86.54,1.01l-1,.65c-9.53-4-19.38-6.12-29.67-6.92l-18.05-1.62-35.32-.12-6.06.48-10.96,1.02-11.45,1.28-14.11,3.47c-1,.7-.18.87.64.48,7.68-2.22,15.02-3.81,22.92-4.45l7.98-.64,8.25-.51,10.9-.34,5.8-.25h13.97l9.84.58,5.93.53,6.1.53,5.44.53,9.87,1.53c5.52.85,16.93,4.63,16.89,5.89l-.05,1.68c-2.58-1.36-4.46-2.3-7.12-2.7l6.77,3.61c.21-.02.73-.11.75-.07l.43.79,3.11,27.53,8.75,75.98,10.62,93.81,6.02,51.49,8.48,70.79,9.91,84.7,2.5,20.33-36.12.24-10.75.29-.51-.39-1.29.09c-1.08.07-3.07-.1-4.36.09-2.78.4-5.35-.16-8.08-.15l-23.19.09h-38.85l-26.5-.03-12.65-.06-66.49-.14,2.54-25.23h0Z"/>
  </g>
  <path class="st12" d="M441.88,245.37c-61.65,0-90.53,17.11-90.53,17.11v28.26s28.88-17.11,90.53-17.11,90.41,17.11,90.41,17.11v-28.26s-28.43-17.11-90.41-17.11h0Z"/>
  <g>
    <path d="M384.28,273.6c-1.63.36-3.04.18-4.18-.53-1.14-.71-1.81-1.97-1.96-3.78-.1-1.23-.13-1.84-.22-3.07-.14-1.81.18-3.31,1.03-4.49s2.08-1.96,3.76-2.34c1.66-.37,3.01-.2,4.01.52,1,.71,1.56,1.84,1.67,3.38v.1c-.51.1-.77.16-1.28.26v-.14c-.08-1.12-.48-1.97-1.18-2.55-.7-.58-1.71-.73-3.01-.44-1.31.29-2.27.92-2.91,1.86-.64.94-.89,2.1-.78,3.49.09,1.26.13,1.89.22,3.15.1,1.39.59,2.37,1.42,2.97.83.6,1.91.75,3.2.47,1.28-.28,2.15-.83,2.67-1.67.52-.84.73-1.81.65-2.94,0-.12-.01-.18-.02-.29.51-.11.77-.16,1.28-.26,0,.1.01.15.02.25.11,1.54-.18,2.84-.91,3.91s-1.86,1.77-3.48,2.12v.02Z"/>
    <path d="M395.4,271.13c-.35-2.18-.43-3.27-.58-5.45-2.27-2.97-3.24-4.43-5.86-7.34.61-.12.91-.18,1.52-.3,2.1,2.42,2.94,3.65,4.75,6.11.1-.02.14-.03.24-.04,1.44-3.04,2.17-4.56,3.38-7.59.61-.1.91-.15,1.52-.24-1.54,3.66-2.49,5.5-4.27,9.18.16,2.18.24,3.27.58,5.45-.51.09-.77.13-1.28.22Z"/>
    <path d="M408.28,269.49c-1.65.2-3.03-.1-4.13-.91-1.1-.82-1.74-2.14-1.9-3.99-.1-1.25-.15-1.87-.25-3.12-.15-1.84.19-3.32,1.05-4.42s2.1-1.77,3.76-1.98c1.64-.21,2.97.09,3.95.9.98.81,1.54,1.99,1.68,3.56v.1c-.52.06-.78.08-1.3.14,0-.06,0-.08-.01-.14-.1-1.14-.5-2.03-1.19-2.68s-1.69-.89-2.98-.73c-1.3.17-2.27.7-2.91,1.58-.64.88-.89,2.03-.78,3.44.11,1.28.16,1.92.26,3.2.12,1.41.59,2.45,1.41,3.13s1.88.93,3.19.77c1.29-.16,2.2-.63,2.73-1.42.54-.79.75-1.75.65-2.89-.01-.12-.02-.18-.03-.3.52-.06.78-.09,1.3-.14,0,.1.01.15.02.26.14,1.56-.18,2.84-.95,3.84-.77,1-1.96,1.6-3.59,1.8h.02Z"/>
    <path d="M416.15,268.35c-.56-5.56-.7-8.35-1.26-13.91.53-.05.8-.08,1.33-.12.48,5.11.65,7.66,1.11,12.76,2.98-.27,4.48-.38,7.46-.56.03.46.04.69.07,1.16-3.49.21-5.23.35-8.71.68h0Z"/>
    <path d="M427.19,267.53c-.29-5.58-.44-8.37-.74-13.95,3.6-.19,5.39-.26,8.99-.33,0,.46.01.69.02,1.16-3.04.06-4.56.12-7.6.26.1,2.09.15,3.13.25,5.22,2.75-.13,4.13-.18,6.88-.24.01.46.02.69.03,1.16-2.74.06-4.11.11-6.85.24.1,2.11.15,3.16.25,5.26,2.95-.14,4.42-.19,7.37-.25,0,.46.01.69.02,1.16-3.45.07-5.18.13-8.63.32h.01Z"/>
    <path d="M448.46,267.54c-1.01-.03-1.91-.22-2.7-.59s-1.41-.91-1.87-1.64c-.45-.73-.68-1.65-.67-2.77v-.38c.53,0,.79,0,1.32.01v.38c-.02,1.29.35,2.25,1.09,2.88s1.69.96,2.85.99c1.18.03,2.09-.21,2.75-.72.66-.52,1.01-1.19,1.04-2.03.02-.56-.1-1.01-.37-1.36-.27-.35-.65-.64-1.15-.86-.5-.22-1.07-.43-1.73-.6-.53-.14-.79-.21-1.32-.35-.78-.22-1.48-.48-2.1-.79s-1.11-.71-1.46-1.2c-.36-.49-.53-1.11-.53-1.87s.22-1.42.64-1.97,1-.98,1.75-1.26c.74-.29,1.6-.42,2.58-.39s1.86.21,2.63.56c.77.35,1.38.84,1.81,1.48s.63,1.42.58,2.35c-.02.37-.03.56-.04.94-.53-.02-.8-.04-1.34-.06.01-.37.02-.56.04-.94.03-.73-.12-1.33-.44-1.79s-.77-.81-1.34-1.05c-.57-.23-1.22-.36-1.94-.38-1.03-.03-1.89.18-2.57.61-.68.43-1.02,1.07-1.03,1.91,0,.56.12,1.01.39,1.34.27.34.65.61,1.13.82.49.21,1.06.4,1.73.58.53.14.79.21,1.32.36.76.2,1.45.45,2.07.76s1.12.72,1.48,1.24c.36.52.53,1.18.49,1.99s-.28,1.51-.72,2.09-1.04,1.02-1.79,1.32c-.75.3-1.63.43-2.62.41l.04-.02Z"/>
    <path d="M461.27,268.19c-1.65-.12-2.94-.69-3.87-1.71-.94-1.02-1.36-2.46-1.26-4.32.07-1.26.1-1.89.17-3.15.1-1.86.69-3.25,1.79-4.15,1.09-.9,2.52-1.29,4.26-1.16,1.73.13,3,.7,3.81,1.69.81.99,1.14,2.27,1,3.83v.1c-.53-.05-.79-.07-1.32-.12,0-.06,0-.08.01-.14.1-1.14-.13-2.1-.7-2.88s-1.53-1.22-2.88-1.32c-1.37-.1-2.47.22-3.28.95s-1.26,1.82-1.35,3.24c-.08,1.29-.12,1.94-.19,3.23-.08,1.42.22,2.55.91,3.38.69.83,1.68,1.29,2.99,1.39,1.3.1,2.28-.18,2.96-.85s1.07-1.57,1.17-2.71c.01-.12.02-.18.03-.3.52.05.79.07,1.31.12,0,.1-.01.15-.02.26-.14,1.56-.69,2.76-1.64,3.59s-2.24,1.18-3.88,1.05l-.02-.02Z"/>
    <path d="M474.14,269.48c-1.65-.2-2.9-.83-3.77-1.9-.88-1.07-1.24-2.52-1.07-4.38.11-1.25.16-1.88.28-3.14.16-1.85.8-3.21,1.89-4.06,1.1-.85,2.49-1.17,4.15-.95s2.9.88,3.75,1.98c.86,1.1,1.19,2.57,1.04,4.42-.1,1.25-.15,1.87-.25,3.12-.15,1.84-.79,3.17-1.88,3.99-1.1.82-2.48,1.12-4.12.92h-.02ZM474.29,268.33c1.32.16,2.38-.09,3.19-.77.8-.68,1.27-1.72,1.39-3.13.11-1.28.16-1.92.26-3.2.12-1.41-.13-2.56-.76-3.44s-1.59-1.41-2.91-1.58c-1.3-.17-2.37.1-3.18.79-.81.7-1.28,1.75-1.41,3.17-.11,1.29-.17,1.93-.28,3.21-.13,1.42.13,2.55.78,3.41.65.86,1.61,1.37,2.92,1.53h0Z"/>
    <path d="M482.58,270.38c.83-5.52.55-8.28,1.39-13.8,2.18.36,3.27.55,5.46.96.86.16,1.6.45,2.22.87.61.42,1.07.94,1.38,1.56s.43,1.31.36,2.08c0,.08-.01.12-.02.2-.08.93-.35,1.61-.84,2.05s-1.04.69-1.67.74c0,.09,0,.14-.02.24.47.1.85.32,1.15.66s.43.81.39,1.41c-.14,1.87-.21,2.8-.54,4.66-.51-.1-.77-.15-1.28-.24.31-1.81.39-2.72.52-4.53.03-.42-.06-.76-.28-1.03s-.56-.44-1.03-.53c-2.13-.4-3.19-.58-5.32-.93-.18,2.34-.25,3.51-.61,5.85-.51-.08-.77-.12-1.28-.2l.02-.02ZM484.56,263.59c1.63.27,2.44.41,4.07.71,1.04.19,1.85.1,2.45-.27s.92-1,1-1.88v-.1c.07-.89-.13-1.63-.62-2.21-.49-.59-1.27-.98-2.33-1.18-1.62-.3-2.43-.45-4.06-.72-.29,2.26-.36,3.39-.52,5.66h0Z"/>
    <path d="M495.18,272.66c1.01-5.47.39-8.21,1.4-13.68,3.41.73,5.14,1.12,8.66,1.97-.1.45-.15.68-.23,1.13-2.97-.71-4.43-1.05-7.33-1.68-.31,2.05-.36,3.07-.48,5.12,2.66.57,3.99.87,6.68,1.51-.03.45-.05.68-.08,1.13-2.68-.64-4.01-.94-6.67-1.51-.13,2.06-.17,3.09-.49,5.16,2.9.61,4.35.94,7.24,1.63-.08.45-.13.68-.23,1.13-3.38-.81-5.08-1.19-8.48-1.89v-.02Z"/>
  </g>
  <path d="M405.01,177.58c-.23-3.76,4.62-14.28,5.22-15.3,2.47-4.23,8.36-11.52,14.8-12.02l.14.75c-6.04.47-11.87,8-14.08,11.78-.73,1.24-5.29,11.34-5.08,14.73l-1,.06Z"/>
  <path d="M477.48,176.41c-.46-10.53-6.35-20.31-15.25-25.5l.58-.68c9.2,5.36,14.97,15.05,15.44,25.92l-.77.26Z"/>
  <circle class="st12" cx="441.73" cy="181.37" r="26.49"/>
  <path class="st12" d="M433.25,185.74c-.15.38-.54.94-1.4.73.03.04-2.23-.55-2.23-.55l-1.52,3.5,3.99.99c.74.19,1.47.38,2.18.56l-1.27,5.09,3.06.76,1.26-5.03c.84.23,1.65.44,2.44.63l-1.25,5.01,3.06.76,1.27-5.08c5.22.99,9.15.59,10.8-4.13,1.33-3.8-.07-6-2.81-7.43,2-.46,3.51-1.78,3.91-4.5.55-3.71-2.27-5.71-6.14-7.04l1.25-5.03-3.06-.76-1.22,4.9c-.8-.2-1.63-.39-2.45-.58l1.23-4.93-3.06-.76-1.26,5.03-6.17-1.53-.81,3.27s2.27.52,2.22.55c1.24.31,1.46,1.13,1.43,1.78l-3.44,13.78h0ZM447.74,186.87c-.95,3.8-7.35,1.75-9.42,1.23l1.68-6.74c2.08.52,8.73,1.54,7.74,5.51h0ZM448.68,177.01c-.86,3.46-6.19,1.7-7.92,1.27l1.52-6.11c1.73.43,7.3,1.24,6.39,4.84h0Z"/>
</svg>