<?xml version="1.0" encoding="UTF-8"?>
<svg id="Layer_1" xmlns="http://www.w3.org/2000/svg" version="1.1" viewBox="0 0 900 754.73">
  <!-- Generator: Adobe Illustrator 30.3.0, SVG Export Plug-In . SVG Version: 2.1.3 Build 182)  -->
  <defs>
    <style>
      .st0 {
        fill: #ebc293;
      }

      .st1 {
        fill: #ecb375;
      }

      .st2 {
        fill: #e9b070;
      }

      .st3 {
        fill: #eab57c;
      }

      .st4 {
        fill: #eaba83;
      }

      .st5 {
        fill: #ebb26e;
      }

      .st6 {
        fill: #e9bc8a;
      }

      .st7 {
        fill: #f1a64c;
      }

      .st8 {
        fill: #e7c292;
      }

      .st9 {
        fill: #e8dfcd;
      }

      .st10 {
        fill: #ecbc86;
      }
    </style>
  </defs>
  <path d="M894.02-.33l-.49,24.04c-1.02,10.58-5.29,20.39-12.36,28.36-6.51,7.34-14.93,12.53-23.7,14.62l-31.94,7.6c-7.49,1.78-15.07,3.18-22.39,4.54-11.23,2.07-22.84,4.22-34.2,7.78-7.03,2.2-14.3,4.47-19.66,11.39l-.25.32.28.27c2.66,2.54,5.15,5.24,5.43,7.76.39,3.59-1.28,7.37-3.8,8.61l-12.34,6.09-22.62,5.59-27.79,6.8c-5,1.22-9.25,7.04-10.43,8.79-1.77,2.63-2.56,5.65-2.28,8.72.31,3.37,1.89,6.57,4.44,9,8.48,8.07,19.14,9.88,27.51,10.56l43.48-1.6,16.46-.74h3.21s23.45,1.39,23.45,1.39c6.91.41,13.8,3.13,21.07,8.33,6.66,4.76,10.46,14.52,8.83,22.72-2.34,11.78-10.95,20.65-26.33,27.11-12.96,5.45-28.02,7.97-39.02,9.81-12.04,2.02-26.17,5.14-39.59,13.01-4.28,2.51-5.84,12.62-4.59,17.9,2.88,12.17,19.16,19.14,28.33,21.34,15.23,3.66,31.1,5.91,48.52,6.89,14.35.8,26.58,4.85,37.38,12.36,4.04,2.81,7.44,6.54,11.04,10.49l.2.22c6.72,7.37,9.96,18.46,8.66,29.68-1.23,10.61-6.02,19.46-14.24,26.28-6.78,5.63-15.86,9.78-26.25,12.01l-32.78,7.02-21.6,4.47c-5.81,1.2-11.35,4.46-14.8,8.72-6.71,8.27-6.58,20.81.3,29.16,3.84,4.66,8.66,7.96,13.56,9.28l12.89,3.46,32.21,5.65c13.42,2.35,24.58,4.57,35.8,9.77,14.89,6.91,25.08,15.67,31.14,26.79,6.59,12.08,8.18,26.65,4.87,44.56-3.48,18.85-12.28,32.92-29.4,47.02-4.68,3.85-10.2,8.16-16.6,10.51l-26.97,9.92-1.17.16-20.69,3.88c-10.28,1.93-22.36,7.89-26.17,16.86-1.57,3.7-1.54,7.54.08,11.41,4.15,9.91,11.96,13.71,17.78,15.14l10.69,2.64,21.77,1.76,1.14.62,30.59,2.28,1.22.37,25.93,6.16c6.01,1.43,11.68,5.7,17.44,10.33,11,8.83,15.74,23.02,17.78,33.41l.4,1.46.4,8.12.02,39.64h0s0,.79,0,.79h.65s-.02-40.45-.02-40.45l-.4-8.21-.42-1.58c-2.96-15.04-9.2-26.75-18.05-33.85-5.82-4.68-11.55-8.99-17.68-10.45l-25.91-6.16-1.23-.37-30.56-2.28-1.14-.62-21.82-1.76-10.67-2.64c-5.68-1.4-13.29-5.1-17.33-14.73-1.52-3.63-1.55-7.23-.08-10.69,3.68-8.68,15.89-14.6,25.68-16.44l20.68-3.88,1.19-.17,27.06-9.94c6.48-2.38,12.06-6.73,16.78-10.61,17.05-14.04,26.2-28.69,29.68-47.51,3.35-18.12,1.72-32.9-4.97-45.17-6.14-11.27-16.43-20.13-31.46-27.1-11.28-5.23-22.48-7.45-35.94-9.81l-32.18-5.64-12.87-3.46c-4.78-1.29-9.48-4.5-13.24-9.06-6.62-8.04-6.75-20.1-.3-28.05,3.36-4.14,8.76-7.32,14.45-8.5l21.61-4.47,32.79-7.02c10.49-2.25,19.66-6.44,26.51-12.13,8.38-6.96,13.26-15.99,14.52-26.83,1.33-11.47-1.99-22.83-8.87-30.38l-.2-.22c-3.63-3.98-7.06-7.74-11.15-10.59-10.89-7.58-23.22-11.65-37.68-12.46-17.38-.97-33.22-3.22-48.42-6.87-9.02-2.17-25.03-8.98-27.82-20.78-1.06-4.47-.02-14.46,4.24-16.96,13.35-7.82,27.4-10.93,39.4-12.94,22.61-3.79,60.46-10.12,65.9-37.53,1.69-8.52-2.24-18.66-9.14-23.59-7.37-5.26-14.36-8.02-21.37-8.44l-23.47-1.39h-3.23s-16.47.73-16.47.73l-43.45,1.6c-8.24-.67-18.78-2.45-27.12-10.39-2.42-2.3-3.91-5.3-4.2-8.46-.26-2.86.48-5.67,2.14-8.13,1.15-1.7,5.26-7.34,10.05-8.51l27.79-6.8,22.65-5.6,12.43-6.12c2.78-1.37,4.62-5.52,4.2-9.45-.29-2.71-2.73-5.44-5.39-8.01,5.21-6.5,12.27-8.71,19.1-10.85,11.33-3.54,22.92-5.69,34.14-7.76,7.33-1.35,14.91-2.76,22.42-4.54l31.94-7.6c8.89-2.12,17.43-7.38,24.03-14.82,7.19-8.1,11.53-18.08,12.57-28.88l.51-24.89"/>
  <path class="st7" d="M723.65,166.45h-3.89s3.89,0,3.89,0Z"/>
  <path class="st6" d="M699.85,167.18l1.17-.04-1.17.04Z"/>
  <path class="st10" d="M122.5,370.63l1.24.27-1.24-.27Z"/>
  <path class="st5" d="M525.45,428.02l-.5-1.42c.3-.08.49,1,.5,1.42Z"/>
  <path class="st1" d="M358.13,434.16l.47-1.47c-.06.43-.07,1.62-.47,1.47Z"/>
  <path class="st5" d="M525.78,434.24l-.2-1.19.2,1.19Z"/>
  <path class="st5" d="M536.35,508.5c-.19.2-.28-1.12-.25-1.57l.25,1.57Z"/>
  <path class="st2" d="M24.72,528.61l.14-1.15-.14,1.15Z"/>
  <path class="st10" d="M336.15,605l.22-1.38-.22,1.38Z"/>
  <path class="st4" d="M753.78,604.33l1.44-.17-1.44.17Z"/>
  <path class="st4" d="M759.38,655.86l-1.37-.62,1.37.62Z"/>
  <path class="st3" d="M797.82,658.5l-1.49-.37,1.49.37Z"/>
  <path class="st6" d="M872.54,710.18l-.5-1.51.5,1.51Z"/>
  <path class="st6" d="M568.3,732.76l-.49-1.9c-.11.05.41,1.39.49,1.9Z"/>
  <path class="st9" d="M873.25-.11l-.61,20.97c-2.63,22.65-22.91,39.19-43.92,43.32l-38.61,7.6c-23.01,4.53-45.75,6.45-68.38,12.31-8.61,2.23-17.23,4.5-23.58,11.27,3.25,2.57,6.36,5.35,6.71,8.02.46,3.56-1.47,7.66-4.83,9.03l-14.95,6.1-27.38,5.6-33.59,6.8c-4.83.98-9.46,5.07-12.38,8.65-4.66,5.71-3.09,12.72,2.55,17.16,9.3,7.32,21.02,9.67,33,10.47l52.56-1.6,1.17-.04,18.74-.7h3.89s28.35,1.39,28.35,1.39c9.18.45,17.74,3.71,25.65,8.38,7.68,4.54,13.01,14.19,10.86,23.15-6.5,27.12-52.62,33.53-79.33,37.23-16.6,2.3-32.65,5.66-47.74,12.98-5.17,2.51-6.73,12.56-5.34,17.43,3.28,11.47,21.38,18.57,33.94,21.06,19.4,3.86,38.68,5.96,58.59,6.88,16.25.75,31.29,4.31,45.37,12.41,5.01,2.88,9.21,6.72,13.66,10.76,8.12,7.37,12.19,18.66,10.6,30.03-3.26,23.32-26.66,34.62-49.27,38.63l-39.63,7.02-26.12,4.47c-6.41,1.1-13.24,4.09-17.68,8.61-8.08,8.24-7.57,20.64.36,28.61,4.36,4.38,10.06,7.81,16.2,9.17l15.55,3.46,38.94,5.65c14.89,2.16,29.26,4.38,43.36,9.79,34.25,13.14,52.05,34.78,43.78,71.81-4.78,21.4-18.06,35.24-35.71,47.27-6.39,4.35-12.74,8.3-20.17,10.56l-32.64,9.93-1.44.17-25.01,3.88c-17.85,2.77-38.36,13.65-31.24,27.7,4.27,8.42,12.31,13.11,21.22,14.94l12.93,2.64,26.33,1.76,1.37.62,36.95,2.28,1.49.37,31.34,6.16c7.58,1.49,14.84,6.15,21.23,10.39,11.93,7.93,18.54,20.54,21.65,33.61l.5,1.51.48,8.18.02,40.05h-301.03s-3.7-25.67-3.7-25.67c-.07-.52-.6-1.86-.49-1.9l-4.31-31.59-5.56-41.25-5.67-36.65-2.48-16.68-1.47-14.66-3.42-22.19-8.56-58.27-.25-1.57-4.61-35.24-5.71-37.45-.2-1.19-.13-5.03c-.01-.41-.2-1.49-.5-1.42l-3-18.05-5.59-41.25-9.51-66.68-7.06-43.58-3.11-1.03-.3-11.44c1.02-1.63,5.39-3.07,7.32-3.14,5.7-.2,8.96-4.38,8.37-9.86l-1.84-17.14c-.83-7.72-11.07-4.92-15.68-11.76l-.32-20.41,8.47-4.07c2.97-5.5-3.42-7.83-5.16-10.4-6.92-11.21-12.79-22.65-24.81-29.58l-18.17-7.43c-2.69-1.1-4.8-7.26-4.88-9.81,4.57-3.1,7.3-6.5,7.51-11.13l.06-1.46c.3-6.9-4.64-12.01-11.63-14.1l.64-10.09c.1-1.51-3.38-3.81-4.9-3.73s-3.75,2.85-3.78,4.52l-.22,10.73c-6.38,2.1-9.89,7.18-10.33,12.29-.53,6.18,3.7,10.23,8.4,13.53.85,5.18-4.16,9.69-8.87,10.84-18.79,4.62-31.95,18.82-38.75,36.26-2.31.76-4.87,1.61-5.93,2.75s-.84,5.58-.13,6.84l8.21,3.55v18.02c.02,9.28-14.58,7.39-15.21,13.04l-2.23,19.82c-1.07,9.55,8.67,7.51,14.88,11.16l.33,10.84-1.01,1.36c-1.4.52-3.62,2.41-3.91,4.43l-10.34,70.19-4.89,33.45-4.97,37.59-4.03,31.01-.47,1.47-4.26,31.8-3.92,34.37-6.89,48.06-3.33,27.76-3.36,26.41-.22,1.38-4.26,36-4.37,26.51-2.4,17.47-9.01,73.45-310.48-.03-.34-14.6.1-12.8c.15-19.96,5.84-39.85,21.71-53,7.83-6.49,17.54-11.74,27.32-13.85l26.62-5.73,40.31-4.17,33.25-3.99c11.22-1.57,22.53-7.39,22.73-17.28.23-11.76-18.44-19.55-32.06-22.72l-22.79-4.21c-20.19-3.45-39.74-7.04-59.07-14.22-9.16-3.4-17.18-9.48-23.99-15.96-7.45-7.09-10.61-15.06-12.88-24.77-1.69-7.23-2.68-14.2-1.82-21.42l.14-1.15c1.49-12.5,5.56-24.28,13.01-34.9s13.57-20.62,23.86-28.08c7.77-5.64,16.11-11.36,25.05-14.96,22.92-9.24,45.97-14.83,69.76-20.71,8.03-1.99,15.6-5.37,22.72-8.99,6.84-3.47,10.16-9.66,12.24-16.82,2.52-8.69-1.41-18.1-10.26-22.37-7.54-3.63-16.66-5.19-25.39-6.17l-32.11-3.58-1.24-.27c-15.28-2.33-28.66-8.14-34.62-23.21-4.88-12.34-2.52-25.29,6.79-34.76,16.78-17.06,51.61-25.43,76.15-30.78l32.09-7.01c19.53-4.27,45.83-11.28,59.28-24.49,5.34-5.25,3.81-13.52-2.13-17.23-17.16-10.72-38.54-10.64-58.86-10.87-13.09-.14-25.67-1.16-38.44-3.19-9.77-1.55-27.91-9.27-31.25-17.36s2.47-16.73,10.05-20.24,15.13-5.25,23.34-6.12l24.75-2.63c6.8-.72,13.26-2.32,19.24-5.52,3.66-1.96,5.89-8.64,2.58-11.71-16.24-15.02-66.66-25.11-92.38-30.98-16.73-3.82-32.72-8.1-48.89-13.41-16.88-5.54-33.12-12.99-45.57-25.17-10.78-10.54-19.04-24.15-19.18-39.05V-.11"/>
  <path class="st0" d="M499.79,257.05l-3.11-1.03,3.11,1.03Z"/>
  <path class="st8" d="M386.74,256.03l1.01-1.36c.01.42-.62,1.22-1.01,1.36Z"/>
  <path class="st6" d="M457.21,109.85l.06-1.46-.06,1.46Z"/>
  <g>
    <path d="M616.37,209.64c-.07,0-.15,0-.23,0-.09,0-.19,0-.28,0-.04,0-.07,0-.11,0l-81.77-3.13-.07.7,81.68,3.14c.1,0,.2.01.3.02.13,0,.26.02.37.02.06,0,.1,0,.13,0l.02-.74s-.03,0-.05,0Z"/>
    <path d="M532.49,190.2c.09.18.35.49.53.61l78.42-22.62c.28-.21.44-.43.59-.98l-78.5,22.63-1.04.37Z"/>
    <path d="M530.25,223.34l76.52,28.34c.1.03.19.05.27.05.18,0,.38-.07.54-.56l-77.21-28.54-.12.7Z"/>
    <polygon points="567.02 100.3 566.32 99.94 514.88 162.28 515.46 162.76 567.02 100.3"/>
    <path d="M526.19,175.59l68.07-45.14c-.03-.27-.11-.54-.18-.66l-1,.51-67.29,44.63.39.65Z"/>
    <path d="M523.53,237.71c-.15-.12-.56-.27-.77-.27,0,0,0,0,0,0l-.18.44,63.28,49.41.89.31c-.12-.34-.36-.84-.46-.93l-62.74-48.96Z"/>
  </g>
  <g>
    <path d="M247.04,209.64c.07,0,.15,0,.23,0,.09,0,20.36,0,20.45,0,.04,0,.07,0,.11,0l81.77-3.13.07.7-81.68,3.14c-.1,0-.2.01-.3.02-.13,0-20.43.02-20.55.02-.06,0-.1,0-.13,0l-.02-.74s.03,0,.05,0Z"/>
    <path d="M351.1,190.2c-.09.18-.35.49-.53.61l-78.42-22.62c-.28-.21-.44-.43-.59-.98l78.5,22.63,1.04.37Z"/>
    <path d="M353.33,223.34l-76.52,28.34c-.1.03-.19.05-.27.05-.18,0-.38-.07-.54-.56l77.21-28.54.12.7Z"/>
    <polygon points="316.57 100.3 317.27 99.94 368.71 162.28 368.13 162.76 316.57 100.3"/>
    <path d="M357.4,175.59l-68.07-45.14c.03-.27.11-.54.18-.66l1,.51,67.29,44.63-.39.65Z"/>
    <path d="M360.06,237.71c.15-.12.56-.27.77-.27,0,0,0,0,0,0l.18.44-63.28,49.41-.89.31c.12-.34.36-.84.46-.93l62.74-48.96Z"/>
  </g>
  <path d="M28.9-1.06l.49,20.52c1.02,10.58,5.29,20.39,12.36,28.36,6.51,7.34,14.93,12.53,23.7,14.62l31.94,7.6c7.49,1.78,15.07,3.18,22.39,4.54,11.23,2.07,22.84,4.22,34.2,7.78,7.03,2.2,14.3,4.47,19.66,11.39l.25.32-.28.27c-2.66,2.54-5.15,5.24-5.43,7.76-.39,3.59,1.28,7.37,3.8,8.61l12.34,6.09,22.62,5.59,27.79,6.8c5,1.22,9.25,7.04,10.43,8.79,1.77,2.63,2.56,5.65,2.28,8.72-.31,3.37-1.89,6.57-4.44,9-8.48,8.07-19.14,9.88-27.51,10.56l-43.48-1.6-16.46-.74h-3.21s-23.45,1.39-23.45,1.39c-6.91.41-13.8,3.13-21.07,8.33-6.66,4.76-10.46,14.52-8.83,22.72,2.34,11.78,10.95,20.65,26.33,27.11,12.96,5.45,28.02,7.97,39.02,9.81,12.04,2.02,26.17,5.14,39.59,13.01,4.28,2.51,5.84,12.62,4.59,17.9-2.88,12.17-19.16,19.14-28.33,21.34-15.23,3.66-31.1,5.91-48.52,6.89-14.35.8-26.58,4.85-37.38,12.36-4.04,2.81-7.44,6.54-11.04,10.49l-.2.22c-6.72,7.37-9.96,18.46-8.66,29.68,1.23,10.61,6.02,19.46,14.24,26.28,6.78,5.63,15.86,9.78,26.25,12.01l32.78,7.02,21.6,4.47c5.81,1.2,11.35,4.46,14.8,8.72,6.71,8.27,6.58,20.81-.3,29.16-3.84,4.66-8.66,7.96-13.56,9.28l-12.89,3.46-32.21,5.65c-13.42,2.35-24.58,4.57-35.8,9.77-14.89,6.91-25.08,15.67-31.14,26.79-6.59,12.08-8.18,26.65-4.87,44.56,3.48,18.85,12.28,32.92,29.4,47.02,4.68,3.85,10.2,8.16,16.6,10.51l26.97,9.92,1.17.16,20.69,3.88c10.28,1.93,22.36,7.89,26.17,16.86,1.57,3.7,1.54,7.54-.08,11.41-4.15,9.91-11.96,13.71-17.78,15.14l-10.69,2.64-21.77,1.76-1.14.62-30.59,2.28-1.22.37-25.93,6.16c-6.01,1.43-11.68,5.7-17.44,10.33-11,8.83-15.74,23.02-17.78,33.41l-.4,1.46-.4,8.12-.02,39.64h0s0,2.09,0,2.09h-.65s.02-41.74.02-41.74l.4-8.21.42-1.58c2.96-15.04,9.2-26.75,18.05-33.85,5.82-4.68,11.55-8.99,17.68-10.45l25.91-6.16,1.23-.37,30.56-2.28,1.14-.62,21.82-1.76,10.67-2.64c5.68-1.4,13.29-5.1,17.33-14.73,1.52-3.63,1.55-7.23.08-10.69-3.68-8.68-15.89-14.6-25.68-16.44l-20.68-3.88-1.19-.17-27.06-9.94c-6.48-2.38-12.06-6.73-16.78-10.61-17.05-14.04-26.2-28.69-29.68-47.51-3.35-18.12-1.72-32.9,4.97-45.17,6.14-11.27,16.43-20.13,31.46-27.1,11.28-5.23,22.48-7.45,35.94-9.81l32.18-5.64,12.87-3.46c4.78-1.29,9.48-4.5,13.24-9.06,6.62-8.04,6.75-20.1.3-28.05-3.36-4.14-8.76-7.32-14.45-8.5l-21.61-4.47-32.79-7.02c-10.49-2.25-19.66-6.44-26.51-12.13-8.38-6.96-13.26-15.99-14.52-26.83-1.33-11.47,1.99-22.83,8.87-30.38l.2-.22c3.63-3.98,7.06-7.74,11.15-10.59,10.89-7.58,23.22-11.65,37.68-12.46,17.38-.97,33.22-3.22,48.42-6.87,9.02-2.17,25.03-8.98,27.82-20.78,1.06-4.47.02-14.46-4.24-16.96-13.35-7.82-27.4-10.93-39.4-12.94-22.61-3.79-60.46-10.12-65.9-37.53-1.69-8.52,2.24-18.66,9.14-23.59,7.37-5.26,14.36-8.02,21.37-8.44l23.47-1.39h3.23s16.47.73,16.47.73l43.45,1.6c8.24-.67,18.78-2.45,27.12-10.39,2.42-2.3,3.91-5.3,4.2-8.46.26-2.86-.48-5.67-2.14-8.13-1.15-1.7-5.26-7.34-10.05-8.51l-27.79-6.8-22.65-5.6-12.43-6.12c-2.78-1.37-4.62-5.52-4.2-9.45.29-2.71,2.73-5.44,5.39-8.01-5.21-6.5-12.27-8.71-19.1-10.85-11.33-3.54-22.92-5.69-34.14-7.76-7.33-1.35-14.91-2.76-22.42-4.54l-31.94-7.6c-8.89-2.12-17.43-7.38-24.03-14.82-7.19-8.1-11.53-18.08-12.57-28.88l-.51-21.38"/>
</svg>