<?xml version="1.0" encoding="UTF-8"?>
<svg id="Layer_1" xmlns="http://www.w3.org/2000/svg" version="1.1" viewBox="0 0 536.89 754">
  <!-- Generator: Adobe Illustrator 30.3.0, SVG Export Plug-In . SVG Version: 2.1.3 Build 182)  -->
  <defs>
    <style>
      .st0 {
        fill: none;
      }

      .st1 {
        fill: #ebc293;
      }

      .st2 {
        fill: #ecb375;
      }

      .st3 {
        fill: #e9b070;
      }

      .st4 {
        fill: #eab57c;
      }

      .st5 {
        fill: #eaba83;
      }

      .st6 {
        fill: #ebb26e;
      }

      .st7 {
        fill: #e9bc8a;
      }

      .st8 {
        fill: #f1a64c;
      }

      .st9 {
        fill: #e7c292;
      }

      .st10 {
        fill: #e8dfcd;
      }

      .st11 {
        fill: #ecbc86;
      }

      .st12 {
        stroke-miterlimit: 10;
      }

      .st12, .st13, .st14 {
        fill: #f7931b;
      }

      .st12, .st14 {
        stroke: #000;
      }

      .st14 {
        stroke-miterlimit: 10;
        stroke-width: 1px;
      }
    </style>
  </defs>
  <rect class="st13" x="-174.93" y="-5.21" width="903" height="760.95"/>
  <path d="M640.04-3.69l-.49,24.04c-1.02,10.58-5.29,20.39-12.36,28.36-6.51,7.34-14.93,12.53-23.7,14.62l-31.94,7.6c-7.49,1.78-15.07,3.18-22.39,4.54-11.23,2.07-22.84,4.22-34.2,7.78-7.03,2.2-14.3,4.47-19.66,11.39l-.25.32.28.27c2.66,2.54,5.15,5.24,5.43,7.76.39,3.59-1.28,7.37-3.8,8.61l-12.34,6.09-22.62,5.59-27.79,6.8c-5,1.22-9.25,7.04-10.43,8.79-1.77,2.63-2.56,5.65-2.28,8.72.31,3.37,1.89,6.57,4.44,9,8.48,8.07,19.14,9.88,27.51,10.56l43.48-1.6,16.46-.74h3.21l23.45,1.39c6.91.41,13.8,3.13,21.07,8.33,6.66,4.76,10.46,14.52,8.83,22.72-2.34,11.78-10.95,20.65-26.33,27.11-12.96,5.45-28.02,7.97-39.02,9.81-12.04,2.02-26.17,5.14-39.59,13.01-4.28,2.51-5.84,12.62-4.59,17.9,2.88,12.17,19.16,19.14,28.33,21.34,15.23,3.66,31.1,5.91,48.52,6.89,14.35.8,26.58,4.85,37.38,12.36,4.04,2.81,7.44,6.54,11.04,10.49l.2.22c6.72,7.37,9.96,18.46,8.66,29.68-1.23,10.61-6.02,19.46-14.24,26.28-6.78,5.63-15.86,9.78-26.25,12.01l-32.78,7.02-21.6,4.47c-5.81,1.2-11.35,4.46-14.8,8.72-6.71,8.27-6.58,20.81.3,29.16,3.84,4.66,8.66,7.96,13.56,9.28l12.89,3.46,32.21,5.65c13.42,2.35,24.58,4.57,35.8,9.77,14.89,6.91,25.08,15.67,31.14,26.79,6.59,12.08,8.18,26.65,4.87,44.56-3.48,18.85-12.28,32.92-29.4,47.02-4.68,3.85-10.2,8.16-16.6,10.51l-26.97,9.92-1.17.16-20.69,3.88c-10.28,1.93-22.36,7.89-26.17,16.86-1.57,3.7-1.54,7.54.08,11.41,4.15,9.91,11.96,13.71,17.78,15.14l10.69,2.64,21.77,1.76,1.14.62,30.59,2.28,1.22.37,25.93,6.16c6.01,1.43,11.68,5.7,17.44,10.33,11,8.83,15.74,23.02,17.78,33.41l.4,1.46.4,8.12.02,39.64h0v.79h.65l-.02-40.45-.4-8.21-.42-1.58c-2.96-15.04-9.2-26.75-18.05-33.85-5.82-4.68-11.55-8.99-17.68-10.45l-25.91-6.16-1.23-.37-30.56-2.28-1.14-.62-21.82-1.76-10.67-2.64c-5.68-1.4-13.29-5.1-17.33-14.73-1.52-3.63-1.55-7.23-.08-10.69,3.68-8.68,15.89-14.6,25.68-16.44l20.68-3.88,1.19-.17,27.06-9.94c6.48-2.38,12.06-6.73,16.78-10.61,17.05-14.04,26.2-28.69,29.68-47.51,3.35-18.12,1.72-32.9-4.97-45.17-6.14-11.27-16.43-20.13-31.46-27.1-11.28-5.23-22.48-7.45-35.94-9.81l-32.18-5.64-12.87-3.46c-4.78-1.29-9.48-4.5-13.24-9.06-6.62-8.04-6.75-20.1-.3-28.05,3.36-4.14,8.76-7.32,14.45-8.5l21.61-4.47,32.79-7.02c10.49-2.25,19.66-6.44,26.51-12.13,8.38-6.96,13.26-15.99,14.52-26.83,1.33-11.47-1.99-22.83-8.87-30.38l-.2-.22c-3.63-3.98-7.06-7.74-11.15-10.59-10.89-7.58-23.22-11.65-37.68-12.46-17.38-.97-33.22-3.22-48.42-6.87-9.02-2.17-25.03-8.98-27.82-20.78-1.06-4.47-.02-14.46,4.24-16.96,13.35-7.82,27.4-10.93,39.4-12.94,22.61-3.79,60.46-10.12,65.9-37.53,1.69-8.52-2.24-18.66-9.14-23.59-7.37-5.26-14.36-8.02-21.37-8.44l-23.47-1.39h-3.23l-16.47.73-43.45,1.6c-8.24-.67-18.78-2.45-27.12-10.39-2.42-2.3-3.91-5.3-4.2-8.46-.26-2.86.48-5.67,2.14-8.13,1.15-1.7,5.26-7.34,10.05-8.51l27.79-6.8,22.65-5.6,12.43-6.12c2.78-1.37,4.62-5.52,4.2-9.45-.29-2.71-2.73-5.44-5.39-8.01,5.21-6.5,12.27-8.71,19.1-10.85,11.33-3.54,22.92-5.69,34.14-7.76,7.33-1.35,14.91-2.76,22.42-4.54l31.94-7.6c8.89-2.12,17.43-7.38,24.03-14.82,7.19-8.1,11.53-18.08,12.57-28.88l.51-24.89"/>
  <path class="st10" d="M603.92,714.5l-.48-8.18-.5-1.51c-3.11-13.07-9.72-25.68-21.65-33.61-6.39-4.24-13.65-8.9-21.23-10.39l-31.34-6.16-1.49-.37-36.95-2.28-1.37-.62-26.33-1.76-12.93-2.64c-8.91-1.83-16.95-6.52-21.22-14.94-7.12-14.05,13.39-24.93,31.24-27.7l25.01-3.88,1.44-.17,32.64-9.93c7.43-2.26,13.78-6.21,20.17-10.56,17.65-12.03,30.93-25.87,35.71-47.27,8.27-37.03-9.53-58.67-43.78-71.81-14.1-5.41-28.47-7.63-43.36-9.79l-38.94-5.65-15.55-3.46c-6.14-1.36-11.84-4.79-16.2-9.17-7.93-7.97-8.44-20.37-.36-28.61,4.44-4.52,11.27-7.51,17.68-8.61l26.12-4.47,39.63-7.02c22.61-4.01,46.01-15.31,49.27-38.63,1.59-11.37-2.48-22.66-10.6-30.03-4.45-4.04-8.65-7.88-13.66-10.76-14.08-8.1-29.12-11.66-45.37-12.41-19.91-.92-39.19-3.02-58.59-6.88-12.56-2.49-30.66-9.59-33.94-21.06-1.39-4.87.17-14.92,5.34-17.43,15.09-7.32,31.14-10.68,47.74-12.98,26.71-3.7,72.83-10.11,79.33-37.23,2.15-8.96-2.95-18.48-10.86-23.15s-16.47-7.93-25.65-8.38l-28.35-1.39h-3.89l-18.74.7-1.17.04-37.14.6c-11.98-.8-23.7-3.15-33-10.47-5.64-4.44-7.21-11.45-2.55-17.16,2.92-3.58,7.55-7.67,12.38-8.65l18.17-5.8,27.38-5.6,14.95-6.1c3.36-1.37,5.29-5.47,4.83-9.03-.35-2.67-3.46-5.45-6.71-8.02,6.35-6.77,14.97-9.04,23.58-11.27,22.63-5.86,45.37-7.78,68.38-12.31l38.61-7.6c21.01-4.13,41.29-20.67,43.92-43.32l.61-20.97h-285.95l84.06,755.9h201.68l-.02-40.05h0Z"/>
  <path class="st10" d="M-71.07-6.65v52.42c.14,14.9,8.4,28.51,19.18,39.05,12.45,12.18,28.69,19.63,45.57,25.17,16.17,5.31,32.16,9.59,48.89,13.41,25.72,5.87,76.14,15.96,92.38,30.98,3.31,3.07,1.08,9.75-2.58,11.71-5.98,3.2-12.44,4.8-19.24,5.52l-24.75,2.63c-8.21.87-15.76,2.61-23.34,6.12s-13.39,12.15-10.05,20.24c3.34,8.09,21.48,15.81,31.25,17.36,12.77,2.03,25.35,3.05,38.44,3.19,20.32.23,41.7.15,58.86,10.87,5.94,3.71,7.47,11.98,2.13,17.23-13.45,13.21-39.75,20.22-59.28,24.49l-32.09,7.01c-24.54,5.35-59.37,13.72-76.15,30.78-9.31,9.47-11.67,22.42-6.79,34.76,5.96,15.07,19.34,20.88,34.62,23.21l1.24.27,32.11,3.58c8.73.98,17.85,2.54,25.39,6.17,8.85,4.27,12.78,13.68,10.26,22.37-2.08,7.16-5.4,13.35-12.24,16.82-7.12,3.62-14.69,7-22.72,8.99-23.79,5.88-46.84,11.47-69.76,20.71-8.94,3.6-17.28,9.32-25.05,14.96-10.29,7.46-16.41,17.46-23.86,28.08s-11.52,22.4-13.01,34.9l-.14,1.15c-.86,7.22.13,14.19,1.82,21.42,2.27,9.71,5.43,17.68,12.88,24.77,6.81,6.48,14.83,12.56,23.99,15.96,19.33,7.18,38.88,10.77,59.07,14.22l22.79,4.21c13.62,3.17,32.29,10.96,32.06,22.72-.2,9.89-11.51,15.71-22.73,17.28l-33.25,3.99-40.31,4.17-26.62,5.73c-9.78,2.11-19.49,7.36-27.32,13.85-15.87,13.15-21.56,33.04-21.71,53l-.1,12.8.34,14.6,212.26.03L220.13-6.65H-71.07Z"/>
  <path class="st10" d="M216.9-7.96l-78.27,763.68h4.36l9.01-73.45,2.4-17.47,4.37-26.51,4.26-36,.22-1.38,3.36-26.41,3.33-27.76,6.89-48.06,3.92-34.37,4.26-31.8.47-1.47,4.03-31.01,4.97-37.59,4.89-33.45,10.34-91.19c.29-2.02,2.51-3.91,3.91-4.43l1.01-1.36,2.04-12.66c-1.94-55.32,1.26-22.64.2-42.2v-18.02l-8.21-3.55c-.71-1.26-.93-5.7.13-6.84s3.62-1.99,5.93-2.75c6.8-17.44,19.96-31.64,38.75-36.26,4.71-1.15,9.72-5.66,8.87-10.84-4.7-3.3-8.93-7.35-8.4-13.53.44-5.11,3.95-10.19,10.33-12.29l.22-10.73c.03-1.67,2.26-4.44,3.78-4.52s5,2.22,4.9,3.73l-.64,10.09c6.99,2.09,11.93,7.2,11.63,14.1l-.06,1.46c-.21,4.63-2.94,8.03-7.51,11.13.08,2.55,2.19,8.71,4.88,9.81l18.17,7.43c12.02,6.93,17.89,18.37,24.81,29.58,1.74,2.57,8.13,4.9,5.16,10.4l-7.2,3.4-.13,29.53c-.28,4.08,1.9,3.59.88,5.22-.09,13.22-.18,25.51-.27,38.73.01,0,1.02,1.39,1.03,1.39.87.26,2.62.53,2.77.58l7.06,64.58,9.51,66.68,5.59,41.25,3,18.05c.3-.07.49,1.01.5,1.42l.13,5.03.2,1.19,5.71,37.45,4.61,35.24.25,1.57,8.56,58.27,3.42,22.19,1.47,14.66,2.48,16.68,5.67,36.65,5.56,41.25,4.31,31.59c-.11.04.42,1.38.49,1.9l3.7,25.67h5L325.89-6.26l-105.75-.39-3.24-1.31h0Z"/>
  <path class="st8" d="M549.29,143.09h-3.89,3.89Z"/>
  <path class="st7" d="M525.49,143.82l1.17-.04-1.17.04Z"/>
  <path class="st11" d="M-51.86,347.27l1.24.27-1.24-.27Z"/>
  <path class="st6" d="M353.09,405.65l-.5-1.42c.3-.08.49,1,.5,1.42Z"/>
  <path class="st2" d="M185.77,411.8l.47-1.47c-.06.43-.07,1.62-.47,1.47Z"/>
  <path class="st6" d="M353.42,411.88l-.2-1.19.2,1.19Z"/>
  <path class="st6" d="M363.99,486.14c-.19.2-.28-1.12-.25-1.57l.25,1.57Z"/>
  <path class="st3" d="M-149.64,505.24l.14-1.15-.14,1.15Z"/>
  <path class="st11" d="M163.79,582.64l.22-1.38-.22,1.38Z"/>
  <path class="st5" d="M579.42,580.97l1.44-.17-1.44.17Z"/>
  <path class="st5" d="M585.02,632.49l-1.37-.62,1.37.62Z"/>
  <path class="st4" d="M623.46,635.14l-1.49-.37,1.49.37Z"/>
  <path class="st7" d="M698.18,686.82l-.5-1.51.5,1.51Z"/>
  <path class="st7" d="M395.94,710.4l-.49-1.9c-.11.05.41,1.39.49,1.9Z"/>
  <path class="st1" d="M327.43,234.69l-3.11-1.03,3.11,1.03Z"/>
  <path class="st9" d="M214.38,233.67l1.01-1.36c0,.42-.62,1.22-1.01,1.36Z"/>
  <path class="st7" d="M284.85,87.49l.06-1.46-.06,1.46Z"/>
  <path d="M-81.5-3.42l.49,20.52c1.02,10.58,5.29,20.39,12.36,28.36,6.51,7.34,14.93,12.53,23.7,14.62l31.94,7.6c7.49,1.78,15.07,3.18,22.39,4.54,11.23,2.07,22.84,4.22,34.2,7.78,7.03,2.2,14.3,4.47,19.66,11.39l.25.32-.28.27c-2.66,2.54-5.15,5.24-5.43,7.76-.39,3.59,1.28,7.37,3.8,8.61l12.34,6.09,22.62,5.59,27.79,6.8c5,1.22,9.25,7.04,10.43,8.79,1.77,2.63,2.56,5.65,2.28,8.72-.31,3.37-1.89,6.57-4.44,9-8.48,8.07-19.14,9.88-27.51,10.56l-43.48-1.6-16.46-.74h-3.21l-23.45,1.39c-6.91.41-13.8,3.13-21.07,8.33-6.66,4.76-10.46,14.52-8.83,22.72,2.34,11.78,10.95,20.65,26.33,27.11,12.96,5.45,28.02,7.97,39.02,9.81,12.04,2.02,26.17,5.14,39.59,13.01,4.28,2.51,5.84,12.62,4.59,17.9-2.88,12.17-19.16,19.14-28.33,21.34-15.23,3.66-31.1,5.91-48.52,6.89-14.35.8-26.58,4.85-37.38,12.36-4.04,2.81-7.44,6.54-11.04,10.49l-.2.22c-6.72,7.37-9.96,18.46-8.66,29.68,1.23,10.61,6.02,19.46,14.24,26.28,6.78,5.63,15.86,9.78,26.25,12.01l32.78,7.02,21.6,4.47c5.81,1.2,11.35,4.46,14.8,8.72,6.71,8.27,6.58,20.81-.3,29.16-3.84,4.66-8.66,7.96-13.56,9.28l-12.89,3.46-32.21,5.65c-13.42,2.35-24.58,4.57-35.8,9.77-14.89,6.91-25.08,15.67-31.14,26.79-6.59,12.08-8.18,26.65-4.87,44.56,3.48,18.85,12.28,32.92,29.4,47.02,4.68,3.85,10.2,8.16,16.6,10.51l26.97,9.92,1.17.16,20.69,3.88c10.28,1.93,22.36,7.89,26.17,16.86,1.57,3.7,1.54,7.54-.08,11.41-4.15,9.91-11.96,13.71-17.78,15.14l-10.69,2.64-21.77,1.76-1.14.62-30.59,2.28-1.22.37-25.93,6.16c-6.01,1.43-11.68,5.7-17.44,10.33-11,8.83-15.74,23.02-17.78,33.41l-.4,1.46-.4,8.12-.02,39.64h0v2.09h-.65l.02-41.74.4-8.21.42-1.58c2.96-15.04,9.2-26.75,18.05-33.85,5.82-4.68,11.55-8.99,17.68-10.45l25.91-6.16,1.23-.37,30.56-2.28,1.14-.62,21.82-1.76,10.67-2.64c5.68-1.4,13.29-5.1,17.33-14.73,1.52-3.63,1.55-7.23.08-10.69-3.68-8.68-15.89-14.6-25.68-16.44l-20.68-3.88-1.19-.17-27.06-9.94c-6.48-2.38-12.06-6.73-16.78-10.61-17.05-14.04-26.2-28.69-29.68-47.51-3.35-18.12-1.72-32.9,4.97-45.17,6.14-11.27,16.43-20.13,31.46-27.1,11.28-5.23,22.48-7.45,35.94-9.81l32.18-5.64,12.87-3.46c4.78-1.29,9.48-4.5,13.24-9.06,6.62-8.04,6.75-20.1.3-28.05-3.36-4.14-8.76-7.32-14.45-8.5l-21.61-4.47-32.79-7.02c-10.49-2.25-19.66-6.44-26.51-12.13-8.38-6.96-13.26-15.99-14.52-26.83-1.33-11.47,1.99-22.83,8.87-30.38l.2-.22c3.63-3.98,7.06-7.74,11.15-10.59,10.89-7.58,23.22-11.65,37.68-12.46,17.38-.97,33.22-3.22,48.42-6.87,9.02-2.17,25.03-8.98,27.82-20.78,1.06-4.47.02-14.46-4.24-16.96-13.35-7.82-27.4-10.93-39.4-12.94-22.61-3.79-60.46-10.12-65.9-37.53-1.69-8.52,2.24-18.66,9.14-23.59,7.37-5.26,14.36-8.02,21.37-8.44l23.47-1.39h3.23l16.47.73,43.45,1.6c8.24-.67,18.78-2.45,27.12-10.39,2.42-2.3,3.91-5.3,4.2-8.46.26-2.86-.48-5.67-2.14-8.13-1.15-1.7-5.26-7.34-10.05-8.51l-27.79-6.8-22.65-5.6-12.43-6.12c-2.78-1.37-4.62-5.52-4.2-9.45.29-2.71,2.73-5.44,5.39-8.01-5.21-6.5-12.27-8.71-19.1-10.85-11.33-3.54-22.92-5.69-34.14-7.76-7.33-1.35-14.91-2.76-22.42-4.54l-31.94-7.6c-8.89-2.12-17.43-7.38-24.03-14.82-7.19-8.1-11.53-18.08-12.57-28.88l-.51-21.38"/>
  <path class="st0" d="M1205.98,66.71l8.35-3.61-.64-32.72-.47-32.33-1.47-1.74c-.27-.32,1.52-1.78,1.52-2.32l-.12-22.94-16.15,7.54-.93.8c-.94,1.66-.13,5.23,1.81,6.62l7.77,5.56.32,75.15h.01Z"/>
  <path class="st0" d="M1205.98,66.71l8.35-3.61-.64-32.72-.47-32.33-1.47-1.74c-.27-.32,1.52-1.78,1.52-2.32l-.12-22.94-16.15,7.54-.93.8c-.94,1.66-.13,5.23,1.81,6.62l7.77,5.56.32,75.15h.01Z"/>
  <path class="st0" d="M1205.98,66.71l8.35-3.61-.64-32.72-.47-32.33-1.47-1.74c-.27-.32,1.52-1.78,1.52-2.32l-.12-22.94-16.15,7.54-.93.8c-.94,1.66-.13,5.23,1.81,6.62l7.77,5.56.32,75.15h.01Z"/>
  <g>
    <path d="M444.01,187.28h-.62l-81.77-3.13-.07.7,81.68,3.14c.1,0,.2,0,.3.02.13,0,.26.02.37.02h.13l.02-.74h-.05.01Z"/>
    <path d="M360.13,167.84c.09.18.35.49.53.61l78.42-22.62c.28-.21.44-.43.59-.98l-78.5,22.63-1.04.37h0Z"/>
    <path d="M357.89,200.98l76.52,28.34c.1.03.19.05.27.05.18,0,.38-.07.54-.56l-77.21-28.54-.12.7h0Z"/>
    <polygon points="394.66 77.94 393.96 77.58 342.52 139.92 343.1 140.4 394.66 77.94"/>
    <path d="M353.83,153.23l68.07-45.14c-.03-.27-.11-.54-.18-.66l-1,.51-67.29,44.63.39.65h0Z"/>
    <path d="M351.17,215.35c-.15-.12-.56-.27-.77-.27h0l-.18.44,63.28,49.41.89.31c-.12-.34-.36-.84-.46-.93l-62.74-48.96h-.02Z"/>
    <path d="M74.68,187.28h20.79l81.77-3.13.07.7-81.68,3.14c-.1,0-.2,0-.3.02-.13,0-20.43.02-20.55.02h-.13l-.02-.74h.05,0Z"/>
    <path d="M178.74,167.84c-.09.18-.35.49-.53.61l-78.42-22.62c-.28-.21-.44-.43-.59-.98l78.5,22.63,1.04.37h0Z"/>
    <path d="M180.97,200.98l-76.52,28.34c-.1.03-.19.05-.27.05-.18,0-.38-.07-.54-.56l77.21-28.54.12.7h0Z"/>
    <polygon points="144.21 77.94 144.91 77.58 196.35 139.92 195.77 140.4 144.21 77.94"/>
    <path d="M185.04,153.23l-68.07-45.14c.03-.27.11-.54.18-.66l1,.51,67.29,44.63-.39.65h-.01Z"/>
    <path d="M187.7,215.35c.15-.12.56-.27.77-.27h0l.18.44-63.28,49.41-.89.31c.12-.34.36-.84.46-.93l62.74-48.96h.02,0Z"/>
    <path d="M387.58,756.23v-.67l-1.28.07-6.71-56.26-3.28-27.93-2.09-19.16h.45l-.08-.63h-.32l-.6-5.17h.31l-.13-1.07h-.66l-1.09-11.7-1.35-10.95.42.02-.15-1.24-.35-.03-4.14-32.64-1.79-15.29.59.03-.08-.7-.53-.03-2.56-20.81-17.28-151.61-8.4-73.6,16.36-9.45,2.05-2.82c2.56-2.01,5.89-3.67,8.01-6.22,2.09-2.51-.11-7.22-2.68-8.66l.22-3.04.09-42.97c.82-1.42,1.28-3.13.95-4.59-.64,1.29-1.44,2.94-2.51,3.81l-5.5,4.49-.39-11.9c2.65.92,11.14,5.4,7.34,2.51-8.08-4.49-17.19-6.76-26.19-8.74l-9.07-1.92.65,20.04c.35-2.6-.11-20.03,1-22.33l7.43-1.99c2.13-.57,3.75-3.34,2.65-5.36-1.21-2.2-3.5-4.23-5.91-5.04l-10.93-3.63.47-.2.13-30.09-.09-34.46c5.38-1.07,10-4.91,8.76-8.78-1.49-4.64-11.11-6.37-17.67-7.81-4.62-10.31-12.58-18.78-22.74-24.52-3.86-2.18-8.18-3.23-12.56-4.58l-.39-2.2c-3.03-3.27-4.34-7.54-3.34-11.98l3.76-1.86c3.91-1.94,6.53-6.37,4.97-10.66-1.78-4.9-6.43-7.56-11.61-8.01l-.09-24.66-.48.31-.14,19.39-.16,4.87c-2.36.67-5.18,1.43-7.2,2.92-4.86,3.61-6.15,10.99-1.24,14.76-1.94-3.6-3.28-6.91-1.15-10.56,3.71-6.36,12.31-7.94,18.06-3.2,3.46,2.85,4.83,7.98,1.73,11.68-1.44,1.71-4.26,2.8-6.41,4.09l-1.16-2.8c-.56,5.69-.06,10.45,2.12,15.25l-9.41.34c4.01-5.8,2.71-14.94,4.41-15.22l2.9-.48c-.78-.67-2.36-1.06-3.48-.53-.96.45-1.42,1.85-1.87,3.88l-5.75-2.41c1.32,1.66,3.38,2.56,5.9,3.44.27,5.94-2.37,8.94-4.31,13.68-11.65,2.8-21.7,9.64-28.71,19.73l-6.13,10.17c-4.57.9-8.67,1.7-12.67,3.8-2.33,1.22-5.18,4.61-3.4,7.26,1.82,2.71,5.72,4.26,8.51,6.14l.1,7.89.11,9.33.09,46.19-13.57,4.22c-1.38.43-2.71,2.2-3.1,3.29-1.7,4.79,5.12,8.59,10.31,8.05-3.15-1.03-5.6-1.86-8.71-4.02.94-1.37,2.11-2.42,3.64-3.04,6.98-2.85,14.01-4.46,21.5-5.3l16.17-1.81,5.02-.43,10.3-.33c3.99-.13,7.56-.13,11.52-.02l15.13.42c11.22.31,22.08,1.59,33.11,4.01,4.29.94,7.95,2.67,12.05,4.41-4.69-3.93-10.87-5.66-17.02-6.5l-14.86-2.03-5.98-.51-8.96-.47-33.14-.09-5.52.44-17.18,1.89c-7.7.85-15.05,2.26-22.24,5.07-1.63.64-2.92,1.93-4.15,3.33-.39-.43-.46-3.56.48-4.16,8.53-5.47,32.94-8.74,44.4-9.19l12.74-.5,14.6.02,13.45.42,6.07.47,5.92.6,16.07,2.45c6.29.96,18.64,5.1,18.03,9.61-.2,1.46-1.61,2.93-3.09,3.29l-7.2,1.75c-.65-.77-2.1-2.03-3.03-2.32l-6.81-2.1c-9.99-3.08-20.51-3.29-31.07-3.83l-26.05-.09-8.73.53-7.19.46-9.22,1.08-16.41,3.77c-1.1.25-2.76,1.33-3.42,2.14l-.1,3.86c-10.79,2.36-28.97,5.06-35.86,11.22l-.41.36c-.66.59-1.07,2.78-.4,3.37l4.31,3.8.31,13.66.26,27.66-1.61.82v-.33l-.22-11.74-.25-21.36-.33-7.65-.21-1.13c-.04-.23-.91.1-.83.32l.39,1.07.09,37.52c0,1.07.4,2.53.68,3.25.04.1.11.16.24.27-5.29,2.55-5.41,9.29-3.2,10.76l7.89,5.24c3.94,2.61,7.36,5.62,12.04,7.24l-8.9-6.16c-.18-3.59,5.93-6.2,10.47-7.44,13.41-3.66,26.93-6.36,40.87-7.13l6.65-.37,11.74-.5,27.07-.07,9.29.54,7.14.52,6,.54,5.91.59c8.98.9,17.6,2.13,26.23,4.9,6.11,1.96,17.42,6.25,13.3,8.62l-12.55,7.19-1.42.74c-.3.16-.94-.74-1.2-1.04-11.33-4.11-22.87-6.13-34.84-7.18l-7.2-.58-20.86-.48h-11.31l-15.5.47c-12.04.37-35.93,3.32-45.04,10.11l-4.01-2.25-.39.44,5.1,3.51-8.92,78.24-9.1,82.8-7.3,62.69-5.55,49.59-.03.87-2.92,26.79-.09,1.26-.84,5.22v1.1l-.79,7.35-.02.85-1.86,17.51-.09,1.06-1.8,14.09-8.16,78.36h-1.03v1.12h233l-.03.02h0ZM263.7,107.34l11.15-.29c.19.39-.45,1.95-.97,1.94l-10.22-.1.04-1.55ZM240.91,121.24c6.43-5.79,14.06-10.51,22.77-11.53l5.9-.08,6.93.3c3.81.17,7.9,1.97,11.34,3.81,9.81,5.26,17.63,13.44,22.76,23.89l-17.42-1.83-8.21-.6-27.93.11-8.19.48-5.45.58-14.8,1.86c3.18-6.09,6.91-12.15,12.31-17h0ZM211.79,148.75c-3.52-8.41,25.78-10.81,35.16-11.64l7.11-.63,34.14-.09,4.96.45,12.84,1.32,12.46,2.31c2.85.53,5.59,1.5,7.96,2.97,1.99,1.23,2.53,3.54,1.16,5.49-1.45,2.06-4.46,3.83-6.8,3.77-.49-1.54-1.4-2.96-2.94-3.42-8.18-2.45-16.35-3.71-24.9-4l-14.13-.49-17.92-.13-9.33.54-6.56.5-5.99.54c-6.48.58-12.43,2-18.73,3.6-1.06.27-2.26,1.74-3,2.83-1.7-.2-4.69-1.97-5.5-3.91h.01ZM222.34,218.82c-.03.33-1.54-.3-1.41-.37l.02-21.73c-.43-1.97-.13-3.48-.15-5.24l-.11-9.04-.09-15.48.29-11.53c1.3,4.54,1.09,8.62,1.11,13.15l.15,42.04.36,6.56-.15,1.64h-.02ZM232,216.88l-8.84,1.65-.02-49.96c2.03,2.4,6.52,5.74,6.77,4.95l-6.75-6.05-.2-14.48,8.81-1.81.21,22.81-3.78-1.11,3.6,2.79.18,24.91c-3.22.87-6.65,1.73-9.03,3.71l9.32-2.83-.27,15.43h0ZM232.51,179.3l2.57,9.17-1.97-12.79c5.6-.58,9.84-2.47,14.14-6.48-.59,5.91-.68,11.16.04,16.72l1.41,10.84,2.18,7.41c-3.6-1.94-6.77-3.84-9.88-6.39l-.43-.64c-5.29-7.48-8.15-19.72-6.77-13.8.33,4.84,3.73,10.77,6.42,14.4l.27.17.8,1.25-8.28,1.19-.23-12.02-.28-9.02h0ZM304.95,175.04c1.4,12.69-4.96,23.86-16.71,29.95l.82-9.42.59-8.7.21-18.84,2.43,1.09-7.74-7.84c-3.74-3.79-8.41-6.51-13.58-7.61l-.18-5.37,16.3.2,6.08.35,4.98.39,6.57.83.33,7.01.06,16.82c-4.99-.37-8.76-2.3-13.25-4.94,3.33,3.93,8.06,4.83,13.09,6.09h0ZM305.18,186.44l-.05,13.46-7.03-.81c3.17-4.45,5.32-8.04,7.08-12.65h0ZM255.39,160.33c-6.28,6.59-13.07,13.88-22.47,14.26l-.16-23.91,16.6-1.75,8.22-.56,12.4-.1.14,5.4c-5.71.63-10.81,2.54-14.72,6.65h-.01ZM251.8,215.4l-6.24.38-6.54.49-6.07.5.12-15.53c8.4-2.31,10.52-.66,17.55,3.87,5.91,3.81,11.89,6.22,19.07,8.77-7.84,2.02-9.16.92-14.03,1.24h0l-3.86.28h0ZM269.05,211.76c-5.6-.43-10.79-2.89-15.36-5.87-2.19-1.43-3.71-6.56-4-8.04-2.38-14.98-2.55-28.51-.81-29.57,3.42-3.81,7.31-7.94,10.42-9.99,4.63-3.06,9.02-3.95,11.31-3.72,1.35.14,7.3,1.98,11.12,5.41,1.53,1.37,7.2,6.14,7.25,7.73.19,6.18-.39,25.74-1.47,35.01-.27,2.69-1.21,3.56-3.38,4.43-4.67,2.56-9.51,5.05-15.09,4.62h.01,0ZM293.15,215.66l-6.06-.43-14.89-.34-1.75-.26c-.36-.05-.29-1.39-.21-1.73,5.62-.41,10.73-2.36,15.39-5.36l11.98-7.73,7.33,1.1.32,15.91-12.09-1.16h-.02ZM305.59,216.99c.82-5.54.9-10.43.39-16,5.82,1.84,10.03,4.63,10.84,8.16l.21-2.84-.08-.2-.14,2.75.65,2.07.2.72-.36,4.29.06,2.12-.42.36-11.34-1.42h-.01ZM317.27,153.48c-.63,4.97-.7,3.62-.18,8.46v12.52l.18,31.92.5.76c-.19-.43-2.13-2.55-3.01-3.18-2.9-2.06-8.77-3.88-8.77-3.88l-.03-13.12.17-12.06c3.23-1.1,9.05-4.62,11.39-7.76-3.54,1.99-8,6.21-11.53,6.71l.05-17.52-.29-6.12,10.14,2.46c.11.17,1.17.26,1,.6l.17.8.21-.59h0ZM319.69,218.92l-2.46-.27.28-.32.83-.2-.54-63.71.44-1.5c.42-1.43-13.06-4.15-19.01-4.57l-6.04-.42-9.52-.47-24.14.02-11.02.56c-9,.46-17.64,1.73-26.48,4.1l-.63,3.26-2.76-3.16c.84-.6,2.73-1.68,4.19-2.06,8.36-2.13,16.58-3.21,25.14-3.82l7.74-.55,28.17-.07,8.72.55,6.56.51c6.88.54,13.89,1.74,20.23,4.2l-.05,4.43.05,33.36.47,4.94.04,14.6.07,10.26-.28.32h0ZM362.64,306.7l-2.12-.72c-2.86-3.1-6.72-4.45-10.68-5.85-8.57-3.01-17.25-4.57-26.41-5.9l.49-3.87,20,3.74c6.7,1.25,20.16,5.95,18.74,12.6h-.02ZM357.73,270.79c.61-1.91.63-3.74.02-5.38v-10.15l1.61-1.22-.03,44.76c-.82.05-1.64-.75-1.63-1.51l.04-26.5h0ZM352.92,258.55l4.23-2.85.04,42.08-4.07-2.13.04-12.62c.01-4.27-.48-8.31-.05-12.53l.25-2.49c-.12-.36-.62-1.81-.6-2.43l.16-7.03h0ZM352.11,286.6l-.44,8.79c-9.03-2.96-18.08-4.54-27.61-6.18l.23-3.26,25.98,5.86c-8-3.44-16.72-4.82-25.51-6.66-.78-.16-.85-2.49-.41-3.27l-.08-23.96c6.15,1.2,12.5,2.53,18.85,5.71l-16.61,4.08c.02-3.21.1-15.61-.54-18.74-.36,3.77-.32,14.37-.38,19.56l.03.36c-.23,17.51-.34,16.6.75,16.77.44.07-.08-16.99.35-17.07,6.28-1.17,12.46-2.61,18.37-4.84l7.23,4.34-.21,18.52v-.02h0ZM345.86,263.34l6.29-3.54.04,7.01-6.33-3.48h0ZM352.12,244.95l.17,13.31-7.71,4.91-7.64-3.24-12.68-3.18.11-18.67,27.75,6.87h0ZM294.81,227.98l6.15.51c7.58.89,14.85,2.19,21.98,4.78l1.74,1.5c.47.4.51,1.88.29,2.52.18.07-1.26-.38-1.75-.3l-8.22-.65-9.57-1.17-10.64-.95v-6.25h.02ZM323.07,237.98l-.03,18.62-17.84-2.51-10.41-1.05-.03-17.86,28.31,2.8h0ZM294.71,276.46l.05-22.36,28.23,3.46.12,9.59.14,17.86-20.21-2.5-8.47-.73.14-5.32h0ZM294.47,282.87l6.93.55,7.03.61,14.75,1.85-.17,3.46-15.19-1.78-6.4-.58-7.15-.55.2-3.57h0ZM300.3,287.78l8.09.62,14.48,1.71-.25,4.13-21.32-2.31-7.01-.62-.03-3.97,6.05.44h0ZM282.24,285.92l-23.81.09-12.32.37v-3.25l7.1-.59,37.77-.05c.58,0,2.46,0,2.5.57l.25,3.25-11.49-.4h0ZM293.41,287.46v3.94l-21.88-.39h-9.52l-15.99.3.11-3.84,6.61-.51,34.91-.02,5.76.52h0ZM289.58,281.4l-34.17.09-9.4.27-.05-19.03-.09-8.5,9.87-.5,28.66-.09,9.26.39.08,27.58-4.16-.21h0ZM293.7,252.87l-10.35-.33-27.09.11-10.49.59v-17.9l5.88-.29,19.03-.35h6.58l16.51.53-.08,17.64h0ZM246.22,227.71l9.38-.39,30.29-.05,7.87.74.02,6.14-7.69-.25h-32.31l-7.93.48-.13.86.51-7.54h0,0ZM222.23,285.43l10.15-1.16,12.73-1.29-.27,3.58-29.27,2.97-.25-3.18,6.91-.92h0ZM214.93,285.21l.03-27.48c.39.95,1.04,2.91,1.04,3.93v23.55h-1.08.01ZM234.06,283.06l-16.93,1.96-.14-6.4-.21-9.28-.12-11.33,10.84-1.75,17.46-1.97.09,27.64-10.99,1.12h0ZM216.59,238.58l19.76-2.42,8.63-.79v17.82l-15.05,1.65-13.2,1.84-.14-18.1h0ZM214.77,234.05c9.91-3.49,19.58-5.06,30.23-6.21v6.49l-10.96,1.05-19.1,2.45-.37-4.83.19,1.05h.01ZM215.1,238.35c1.52,6.41,1.32,12.53.12,19.15-1.32-6.2-1.24-12.62-.12-19.15h0ZM214.39,286.73l-.25,3.09-25.83,5.45-.27-3.28,26.36-5.26h0ZM188.14,291.08l-.06-30.76,10.87,5.35,14.76,4.65.4,15.03-25.97,5.73h0ZM213.68,239.14l.19,17.79-16.23,4-.13.93,16.59-3.85-.22,11.32-7.62-2.31c-6.25-1.9-12.18-4.68-18.09-7.62l-.35-14.2c8.24-2.6,16.57-4.32,25.86-6.06h0ZM178.62,253.6c-1.06-.76-1.51-2.72-.99-3.62l.51-.44,8.84-4.12.07,12.55c0,.3-.98,1.1-.83,1.27l.8.95.25,17.68.35,17.9-4.57,1.98-.18-41.11-4.25-3.04h0ZM176.18,305.77c.13-2.04,1.43-3.99,3.52-5.55,4.83-2.54,9.74-4.57,15.18-5.58l24.4-4.53,12.61-1.56,4.9-.44,8.43-.5-.15,3.93-6.6.41-6.07.44-14.66,1.7-20.11,3.66c-7.77,1.41-14.79,3.9-21.45,8.02h0ZM322.82,303.14l-24.16-2.59-5.52-.39-12.82-.48h-20.27l-13.66.55-7.97.43-5.44.46-17.42,2.53c-8.47,1.23-16.24,3.48-23.95,6.29-2.52.92-4.08,2.71-4.76,5.4l-8.55-5.29c-6.4-3.96,10.21-9.84,18.91-11.41l19.38-3.49,19.12-2.21,6.61-.4,10.14-.51h34.89l28.8,2.36c11.84.97,23.15,2.9,34.31,6.8l9.92,4.75.68,1.95c.14.41-.61,1.27-.95,1.55l-5.95,4.71c-6.55-5.63-21.95-9.99-31.32-11h-.02,0ZM159.14,729.93l5.8-54.32,3.99-34.79,3.3-30.7,6.62-59.61,7.84-67.59,6.36-58.25,10.11-89.84,1.06-6.09,15.21-4.49,14.66-2.43,8.19-.69,7.12-.39,6.62-.35,25.92.08,12.18.51,25.79,3.65,8.09,1.66-.78-.73-18.71-3.82-13.71-1.58-4.41-.42-40.94.05-6.63.45-12.37,1.23c-8.83.88-17.15,2.73-25.54,6.52-.34-.37-.67-2.35-.18-2.79,3.5-3.13,14.27-5.48,20.54-6.26l18.88-2.33,10.47-.55,30.89-.08,8.77.53,8.66.53c11.63,1.3,22.84,3.23,33.83,7.01.38.4.76.86.54,1.01l-1,.65c-9.53-4-19.38-6.12-29.67-6.92l-18.05-1.62-35.32-.12-6.06.48-10.96,1.02-11.45,1.28-14.11,3.47c-1,.7-.18.87.64.48,7.68-2.22,15.02-3.81,22.92-4.45l7.98-.64,8.25-.51,10.9-.34,5.8-.25h13.97l9.84.58,5.93.53,6.1.53,5.44.53,9.87,1.53c5.52.85,16.93,4.63,16.89,5.89l-.05,1.68c-2.58-1.36-4.46-2.3-7.12-2.7l6.77,3.61c.21-.02.73-.11.75-.07l.43.79,3.11,27.53,8.75,75.98,10.62,93.81,6.02,51.49,8.48,70.79,9.91,84.7,2.5,20.33-36.12.24-10.75.29-.51-.39-1.29.09c-1.08.07-3.07-.1-4.36.09-2.78.4-5.35-.16-8.08-.15l-23.19.09h-38.85l-26.5-.03-12.65-.06-66.49-.14,2.54-25.23h0Z"/>
  </g>
  <path d="M232.65,175.22c-.23-3.76,4.62-14.28,5.22-15.3,2.47-4.23,8.36-11.52,14.8-12.02l.14.75c-6.04.47-11.87,8-14.08,11.78-.73,1.24-5.29,11.34-5.08,14.73l-1,.06h0Z"/>
  <path d="M305.12,174.05c-.46-10.53-6.35-20.31-15.25-25.5l.58-.68c9.2,5.36,14.97,15.05,15.44,25.92l-.77.26Z"/>
  <circle class="st14" cx="269.38" cy="179.02" r="26.49" transform="translate(14.35 377.96) rotate(-71.56)"/>
  <path class="st12" d="M260.89,183.38c-.15.38-.54.94-1.4.73.03.04-2.23-.55-2.23-.55l-1.52,3.5,3.99.99c.74.19,1.47.38,2.18.56l-1.27,5.09,3.06.76,1.26-5.03c.84.23,1.65.44,2.44.63l-1.25,5.01,3.06.76,1.27-5.08c5.22.99,9.15.59,10.8-4.13,1.33-3.8-.07-6-2.81-7.43,2-.46,3.51-1.78,3.91-4.5.55-3.71-2.27-5.71-6.14-7.04l1.25-5.03-3.06-.76-1.22,4.9c-.8-.2-1.63-.39-2.45-.58l1.23-4.93-3.06-.76-1.26,5.03-6.17-1.53-.81,3.27s2.27.52,2.22.55c1.24.31,1.46,1.13,1.43,1.78l-3.44,13.78h0ZM275.38,184.51c-.95,3.8-7.35,1.75-9.42,1.23l1.68-6.74c2.08.52,8.73,1.54,7.74,5.51h0ZM276.32,174.65c-.86,3.46-6.19,1.7-7.92,1.27l1.52-6.11c1.73.43,7.3,1.24,6.39,4.84h.01Z"/>
</svg>