<?xml version="1.0" encoding="UTF-8"?>
<svg id="Vrstva_1" xmlns="http://www.w3.org/2000/svg" version="1.1" viewBox="0 0 144 145">
  <!-- Generator: Adobe Illustrator 30.3.0, SVG Export Plug-In . SVG Version: 2.1.3 Build 182)  -->
  <defs>
    <style>
      .st0 {
        fill: #e8dfcd;
      }
    </style>
  </defs>
  <path class="st0" d="M37.49,93.47c-.61,1.52-2.17,3.8-5.67,2.94.12.18-8.99-2.24-8.99-2.24l-6.13,14.15,16.09,4.01c2.99.75,5.93,1.53,8.81,2.27l-5.11,20.54,12.35,3.08,5.07-20.32c3.38.91,6.65,1.76,9.86,2.56l-5.05,20.23,12.36,3.08,5.12-20.5c21.08,3.99,36.94,2.38,43.61-16.69,5.38-15.35-.27-24.21-11.36-29.98,8.08-1.86,14.16-7.18,15.79-18.15,2.24-14.99-9.17-23.05-24.78-28.43l5.06-20.31-12.36-3.08-4.93,19.77c-3.25-.81-6.59-1.57-9.91-2.33l4.96-19.9-12.35-3.08-5.07,20.31-24.93-6.17-3.29,13.2s9.17,2.1,8.98,2.23c5.01,1.25,5.91,4.56,5.76,7.19l-13.87,55.63ZM95.98,98.05c-3.82,15.35-29.67,7.05-38.05,4.97l6.79-27.21c8.38,2.09,35.26,6.23,31.27,22.24ZM99.79,58.22c-3.48,13.96-25,6.87-31.98,5.13l6.15-24.68c6.98,1.74,29.46,4.99,25.82,19.55Z"/>
</svg>