<?xml version="1.0" encoding="UTF-8"?>
<svg id="Layer_1" xmlns="http://www.w3.org/2000/svg" version="1.1" viewBox="0 0 30 30">
  <!-- Generator: Adobe Illustrator 30.3.0, SVG Export Plug-In . SVG Version: 2.1.3 Build 182)  -->
  <defs>
    <style>
      .st0 {
        fill: #f7931a;
      }
    </style>
  </defs>
  <path class="st0" d="M29.06,18.51c-1.94,7.76-9.8,12.49-17.57,10.55C3.73,27.12-1,19.26.94,11.5,2.88,3.73,10.74-.99,18.5.94c7.76,1.94,12.49,9.8,10.55,17.56h.01Z"/>
  <path d="M10.23,17.44c-.08.2-.28.49-.73.38.02.02-1.16-.29-1.16-.29l-.79,1.82,2.07.52c.38.1.76.2,1.13.29l-.66,2.64,1.59.4.65-2.61c.43.12.86.23,1.27.33l-.65,2.6,1.59.4.66-2.64c2.71.51,4.75.31,5.61-2.15.69-1.97-.03-3.11-1.46-3.86,1.04-.24,1.82-.92,2.03-2.33.29-1.93-1.18-2.97-3.19-3.66l.65-2.61-1.59-.4-.63,2.54c-.42-.1-.85-.2-1.27-.3l.64-2.56-1.59-.4-.65,2.61-3.21-.79-.42,1.7s1.18.27,1.15.29c.64.16.76.59.74.92,0,0-1.78,7.16-1.78,7.16ZM17.76,18.03c-.49,1.97-3.82.91-4.89.64l.87-3.5c1.08.27,4.54.8,4.02,2.86ZM18.25,12.91c-.45,1.8-3.22.88-4.11.66l.79-3.17c.9.22,3.79.64,3.32,2.52h0Z"/>
</svg>