<?xml version="1.0" encoding="UTF-8"?>
<svg id="Layer_1" xmlns="http://www.w3.org/2000/svg" version="1.1" viewBox="0 0 30 30">
  <!-- Generator: Adobe Illustrator 30.3.0, SVG Export Plug-In . SVG Version: 2.1.3 Build 182)  -->
  <defs>
    <style>
      .st0 {
        fill: #010101;
      }

      .st1 {
        fill: #f7941f;
      }
    </style>
  </defs>
  <rect class="st1" x="-.08" y="-.08" width="30.19" height="30.16"/>
  <path class="st0" d="M19.55,21.99h-.03v-5.02h1.78v-1.12h-1.69v-.02c-.03-1.21-.52-2.34-1.38-3.18-.52-.5-1.14-.87-1.82-1.08h0s-.87-3.15-.87-3.15c.38-.16.67-.49.78-.91.18-.72-.26-1.45-.98-1.63-.03,0-.07,0-.1-.01v-1.74h-.46v1.74c-.16.03-.31.08-.46.16-.31.19-.53.48-.61.83-.09.35-.03.71.15,1.02.15.25.37.43.63.54l-.87,3.15v.02s0-.02,0-.02c-.71.22-1.36.61-1.9,1.14-.83.83-1.29,1.94-1.31,3.11v.02h-1.7v1.12h1.78v4.99s0,.03,0,.03h-.03s-3.03,0-3.03,0v2.76h15.14v-2.77h-3.02Z"/>
</svg>