<?xml version="1.0" encoding="UTF-8"?>
<svg id="Layer_1" xmlns="http://www.w3.org/2000/svg" version="1.1" viewBox="0 0 707 583.01">
  <!-- Generator: Adobe Illustrator 30.3.0, SVG Export Plug-In . SVG Version: 2.1.3 Build 182)  -->
  <defs>
    <style>
      .st0, .st1 {
        fill: none;
      }

      .st2 {
        fill: #010101;
      }

      .st3 {
        fill: #f59221;
      }

      .st4 {
        fill: #e4dcca;
      }

      .st5 {
        fill: #e8dfcd;
      }

      .st1 {
        stroke: #000;
        stroke-miterlimit: 10;
      }
    </style>
  </defs>
  <path class="st5" d="M706.92,241.16c-8.08-1.12-15.97-2.7-22.93-4.24l-32.07-7.11c-24.52-5.44-59.65-12.47-82.04-4.02-12.42,4.69-20,15.45-20.75,28.7-.92,16.18,8.79,27.07,21.68,35.6l1.01.77,27.64,16.73c7.51,4.55,15.14,9.8,20.46,16.26,6.24,7.59,5.86,17.78-.08,24.61-4.89,5.63-10.5,9.85-18.17,10.13-7.98.3-16.27.19-24.4-1.38-24.06-4.65-47.33-9.25-72.01-10.48-9.63-.48-19.6,1.21-29.02,3.06-12.47,2.45-22.22,8.96-33.44,15.47-11.22,6.51-19.86,15.5-26.46,26.22l-.61.99c-3.81,6.19-5.84,12.93-7.34,20.21-2.02,9.77-2.49,18.33,1.29,27.89,3.46,8.74,8.19,17.62,15.08,24.56,14.53,14.63,30.77,26.09,47.65,37.7l18.92,13.39c11.03,8.59,24.71,23.5,19.56,34.08-4.33,8.89-17.04,9.43-27.88,6.14l-31.85-10.33-38.34-13.13-26.57-5.97c-9.76-2.19-20.78-1.5-30.61,1.1-19.92,5.27-33.44,20.94-41.95,38.99l-5.46,11.58-1.95,4.5h400.63V241.16Z"/>
  <path class="st1" d="M719.16,220.04c-8.08-1.12-40.91-9.53-47.87-11.07l-32.07-7.11c-24.52-5.44-59.65-12.47-82.04-4.02-12.42,4.69-20,15.45-20.75,28.7-.92,16.18,8.79,27.07,21.68,35.6l1.01.77,27.64,16.73c7.51,4.55,15.14,9.8,20.46,16.26,6.24,7.59,5.86,17.78-.08,24.61-4.89,5.63-10.5,9.85-18.17,10.13-7.98.3-16.27.19-24.4-1.38-24.06-4.65-47.33-9.25-72.01-10.48-9.63-.48-19.6,1.21-29.02,3.06-12.47,2.45-22.22,8.96-33.44,15.47-11.22,6.51-19.86,15.5-26.46,26.22l-.61.99c-3.81,6.19-5.84,12.93-7.34,20.21-2.02,9.77-2.49,18.33,1.29,27.89,3.46,8.74,8.19,17.62,15.08,24.56,14.53,14.63,30.77,26.09,47.65,37.7l18.92,13.39c11.03,8.59,24.71,23.5,19.56,34.08-4.33,8.89-17.04,9.43-27.88,6.14l-31.85-10.33-38.34-13.13-26.57-5.97c-9.76-2.19-20.78-1.5-30.61,1.1-19.92,5.27-33.44,20.94-41.95,38.99l-20.08,44.8-1.95,4.5,433.32.38,6.87-368.75Z"/>
  <g>
    <path class="st2" d="M465.38,29.68l.07,2.07-.06,1.26-.14,5.55v14.85l-.06,1.68-.24,6.28-.74-.56v-5.33l.06-16.58.08-17.51v-12.3l1.56,1.11-.27,1.56.05,1.38.1,1.23-.78,1.58c.4.49,1.14,1.39.71.87l-.65,2.1.69.8-.17,1.66-.12,1.21-.1,7.09s.01,0,.01,0Z"/>
    <rect class="st2" x="401.32" y="31.35" width="1.03" height="52.68" transform="translate(39.39 240.54) rotate(-34.94)"/>
    <rect class="st2" x="379.87" y="66.6" width="1.17" height="48.1" transform="translate(128.62 389.89) rotate(-63.32)"/>
    <rect class="st2" x="431.78" y="22.5" width=".87" height="41.31" transform="translate(6.57 129.74) rotate(-17.2)"/>
    <rect class="st2" x="424.55" y="16.62" width=".86" height="6.38" transform="translate(12.74 124.97) rotate(-16.98)"/>
    <path class="st2" d="M438.44,64.65l.15-.52.67,1.03c.24,1.25-.21,1.39-.77.25l-.06-.76h0Z"/>
  </g>
  <path class="st2" d="M280.63,279.43l.05,3.11-.29,1.17c-.06.25-.96-.38-.93-.42v-3.84c.27.09.89.05,1.17-.01h0Z"/>
  <polygon class="st2" points="368.38 266.09 365.83 265.07 367.73 263.65 368.38 266.09"/>
  <rect class="st2" x="366.88" y="348.78" width="1.17" height="2.93"/>
  <path class="st2" d="M367.71,283.65l-1.54-1.19c-.3-.23,1.31-.84,1.97-.98l-.43,2.17Z"/>
  <path class="st2" d="M368.1,331.18c.05,1.54-1.33,1.54-1.28,0-.05-1.54,1.33-1.54,1.28,0Z"/>
  <path class="st2" d="M368.1,335.87c.05,1.54-1.33,1.54-1.28,0-.05-1.54,1.33-1.54,1.28,0Z"/>
  <path class="st2" d="M368.1,340.57c.05,1.54-1.33,1.54-1.28,0-.05-1.54,1.33-1.54,1.28,0Z"/>
  <path class="st2" d="M368.33,322.46c-.24,1.05-1.37,1.39-1.53.42l.4-1.77c.06-.25.57.42,1.14,1.35h-.01Z"/>
  <path class="st2" d="M368.1,273.7c.05,1.54-1.33,1.54-1.28,0-.05-1.54,1.33-1.54,1.28,0Z"/>
  <path class="st2" d="M368.33,318.35c-.25,1.05-1.37,1.39-1.53.41l.4-1.77c.06-.25.57.42,1.14,1.35h-.01Z"/>
  <path class="st2" d="M368.1,355.23c.05,1.54-1.33,1.54-1.28,0-.05-1.54,1.33-1.54,1.28,0Z"/>
  <path class="st2" d="M368.1,287.19c.05,1.54-1.33,1.54-1.28,0-.05-1.54,1.33-1.54,1.28,0Z"/>
  <path class="st2" d="M368.1,256.1c.05,1.54-1.33,1.54-1.28,0-.05-1.54,1.33-1.54,1.28,0Z"/>
  <path class="st2" d="M368.1,359.92c.05,1.54-1.33,1.54-1.28,0-.05-1.54,1.33-1.54,1.28,0Z"/>
  <path class="st2" d="M368.33,251.48c-.24,1.05-1.37,1.39-1.53.42l.4-1.77c.06-.25.57.42,1.14,1.35h-.01Z"/>
  <path class="st2" d="M368.1,242.61c.05,1.54-1.33,1.54-1.28,0-.05-1.54,1.33-1.54,1.28,0Z"/>
  <path class="st2" d="M368.1,238.5c.05,1.54-1.33,1.54-1.28,0-.05-1.54,1.33-1.54,1.28,0Z"/>
  <path class="st2" d="M368.33,376.42c-.24,1.05-1.37,1.39-1.53.42l.4-1.77c.06-.25.57.42,1.14,1.35h-.01Z"/>
  <path class="st2" d="M368.1,301.27c.05,1.54-1.33,1.54-1.28,0-.05-1.54,1.33-1.54,1.28,0Z"/>
  <path class="st2" d="M368.1,310.07c.05,1.54-1.33,1.54-1.28,0-.05-1.54,1.33-1.54,1.28,0Z"/>
  <path class="st2" d="M368.1,296.57c.05,1.54-1.33,1.54-1.28,0-.05-1.54,1.33-1.54,1.28,0Z"/>
  <path class="st2" d="M367.98,305.17c.24.04.02,1.53-.21,1.44l-1.34-.56.23-1.1,1.31.22h0Z"/>
  <path class="st2" d="M368.12,292.15h-1.32c-.39-2,1.71-2,1.32,0Z"/>
  <path class="st2" d="M368.12,225.87h-1.32c-.39-2,1.71-2,1.32,0Z"/>
  <path class="st2" d="M368.12,346.11h-1.32c-.39-2,1.71-2,1.32,0Z"/>
  <path class="st2" d="M368.12,269.86h-1.32c-.39-2,1.71-2,1.32,0Z"/>
  <path class="st2" d="M368.12,394.8h-1.32c-.39-2,1.71-2,1.32,0Z"/>
  <path class="st2" d="M368.17,234.62c-.1.1-.98.64-1.04.39l-.37-1.43c.1-.1.98-.64,1.04-.39l.37,1.43Z"/>
  <path class="st2" d="M368.12,390.11h-1.32c-.39-2,1.71-2,1.32,0Z"/>
  <path class="st2" d="M368.12,385.41h-1.32c-.39-2,1.71-2,1.32,0Z"/>
  <path class="st2" d="M368.63,314c-.92,1.17-1.39,1.69-1.44,1.43l-.39-1.76,1.83.33h0Z"/>
  <path class="st2" d="M368.12,380.19c.39,2-1.71,2-1.32,0h1.32Z"/>
  <path class="st2" d="M368.12,261.06h-1.32c-.39-2,1.71-2,1.32,0Z"/>
  <path class="st2" d="M368.63,372.41l-1.83.33.39-1.77c.06-.25.52.26,1.44,1.44h0Z"/>
  <path class="st2" d="M368.63,367.38c-.92,1.17-1.39,1.69-1.44,1.44l-.39-1.77,1.83.33h0Z"/>
  <path class="st2" d="M368.12,364.3h-1.32c-.39-2,1.71-2,1.32,0Z"/>
  <path class="st2" d="M368.12,327.34h-1.32c-.39-2,1.71-2,1.32,0Z"/>
  <path class="st2" d="M368.12,247.57h-1.32c-.39-2,1.71-2,1.32,0Z"/>
  <path class="st2" d="M368.12,278.66h-1.32c-.39-2,1.71-2,1.32,0Z"/>
  <circle class="st2" cx="367.46" cy="229.71" r=".66"/>
  <path class="st2" d="M280.7,305.37c.05,1.54-1.33,1.54-1.28,0-.05-1.54,1.33-1.54,1.28,0Z"/>
  <path class="st2" d="M280.7,331.18c.05,1.54-1.33,1.54-1.28,0-.05-1.54,1.33-1.54,1.28,0Z"/>
  <path class="st2" d="M280.7,340.57c.05,1.54-1.33,1.54-1.28,0-.05-1.54,1.33-1.54,1.28,0Z"/>
  <path class="st2" d="M280.7,345.26c.05,1.54-1.33,1.54-1.28,0-.05-1.54,1.33-1.54,1.28,0Z"/>
  <path class="st2" d="M280.7,322.38c.05,1.54-1.33,1.54-1.28,0-.05-1.54,1.33-1.54,1.28,0Z"/>
  <path class="st2" d="M280.7,349.95c.05,1.54-1.33,1.54-1.28,0-.05-1.54,1.33-1.54,1.28,0Z"/>
  <path class="st2" d="M280.7,355.23c.05,1.54-1.33,1.54-1.28,0-.05-1.54,1.33-1.54,1.28,0Z"/>
  <path class="st2" d="M280.7,287.19c.05,1.54-1.33,1.54-1.28,0-.05-1.54,1.33-1.54,1.28,0Z"/>
  <path class="st2" d="M280.93,291.96c-.24,1.05-1.37,1.39-1.53.42l.4-1.76c.06-.25.57.42,1.14,1.35h-.01Z"/>
  <path class="st2" d="M280.7,300.68c.05,1.54-1.33,1.54-1.28,0-.05-1.54,1.33-1.54,1.28,0Z"/>
  <path class="st2" d="M280.7,295.99c.05,1.54-1.33,1.54-1.28,0-.05-1.54,1.33-1.54,1.28,0Z"/>
  <path class="st2" d="M280.77,310.29c-.1.1-.98.64-1.04.39l-.37-1.42c.1-.1.98-.64,1.04-.39l.37,1.42Z"/>
  <path class="st2" d="M280.77,390.06c-.1.1-.98.64-1.04.39l-.37-1.42c.1-.1.98-.64,1.04-.39l.37,1.43h0Z"/>
  <path class="st2" d="M280.77,385.37c-.1.1-.98.64-1.04.39l-.37-1.43c.1-.1.98-.64,1.04-.39l.37,1.42h0Z"/>
  <path class="st2" d="M280.55,313.19c.73,2.09-1.3,2.1-1.23.37.21-.06,1.26-.38,1.23-.37Z"/>
  <path class="st2" d="M281.23,336.63l-1.83.33.39-1.77c.06-.25.52.26,1.44,1.43h0Z"/>
  <path class="st2" d="M280.55,380.06c.73,2.08-1.3,2.1-1.23.37.21-.06,1.26-.38,1.23-.37Z"/>
  <path class="st2" d="M280.72,376.62h-1.32c-.39-2,1.71-2,1.32,0Z"/>
  <path class="st2" d="M280.55,317.3c.73,2.09-1.3,2.1-1.23.37.21-.06,1.26-.38,1.23-.37Z"/>
  <path class="st2" d="M280.72,371.39c.39,2-1.71,2-1.32,0h1.32Z"/>
  <path class="st2" d="M281.23,367.38c-.92,1.17-1.39,1.69-1.44,1.44l-.39-1.77,1.83.33h0Z"/>
  <path class="st2" d="M280.77,326.27l-.37,1.42c-.07.25-.94-.29-1.04-.39l.37-1.43c.07-.25.94.29,1.04.39h0Z"/>
  <path class="st2" d="M190.88,333.8c.73,2.09-1.3,2.1-1.23.37.21-.06,1.26-.38,1.23-.37Z"/>
  <path class="st2" d="M190.97,337.11l-.37,1.42c-.07.25-.94-.29-1.04-.39l.37-1.43c.07-.25.94.29,1.04.39h0Z"/>
  <path class="st2" d="M280.77,364.25c-.1.1-.98.64-1.04.39l-.37-1.43c.1-.1.98-.64,1.04-.39l.37,1.43Z"/>
  <path class="st2" d="M280.72,360.19h-1.32c-.39-2,1.71-2,1.32,0Z"/>
  <circle class="st2" cx="280.06" cy="393.95" r=".66"/>
  <g>
    <path class="st2" d="M191.19,345.92c-.24,1.05-1.37,1.39-1.53.42l.4-1.77c.06-.25.57.42,1.14,1.35h0Z"/>
    <path class="st2" d="M190.96,350.54c.05,1.54-1.33,1.54-1.28,0-.05-1.54,1.33-1.54,1.28,0Z"/>
    <path class="st2" d="M190.96,359.34c.05,1.54-1.33,1.54-1.28,0-.05-1.54,1.33-1.54,1.28,0Z"/>
    <path class="st2" d="M191.48,341.91l-1.83.33.39-1.77c.05-.25.52.26,1.44,1.44Z"/>
    <path class="st2" d="M190.98,394.8h-1.32c-.39-2,1.71-2,1.32,0Z"/>
    <path class="st2" d="M190.98,390.11h-1.32c-.39-2,1.71-2,1.32,0Z"/>
    <path class="st2" d="M190.98,354.38c.39,2-1.71,2-1.32,0h1.32Z"/>
    <path class="st2" d="M190.8,384.17c.73,2.09-1.3,2.1-1.23.37.21-.06,1.26-.38,1.23-.37Z"/>
    <path class="st2" d="M190.98,380.19c.39,2-1.71,2-1.32,0h1.32Z"/>
    <path class="st2" d="M190.98,376.62h-1.32c-.39-2,1.71-2,1.32,0Z"/>
    <path class="st2" d="M190.98,371.39c.39,2-1.71,2-1.32,0h1.32Z"/>
    <path class="st2" d="M190.8,367.16c.73,2.09-1.3,2.1-1.23.37.21-.06,1.26-.38,1.23-.37Z"/>
    <path class="st2" d="M190.98,364.3h-1.32c-.39-2,1.71-2,1.32,0Z"/>
  </g>
  <g>
    <path class="st2" d="M15.33,348.18l.05,4.11.02,3.51-.07,1.21.09,8.78.1,31.1.51,1.32,17.09-6.49,4.73-1.74-1.52,2.43-5.71,1.93-4.59,1.9-1.24.39-3.47,1.28-1.71.55c-1.05.34-2.39.79-3.02,1.22l-1.12.76-.03,4.34c.57.06,2.32.25,2.91.04l6.23.07,71.25.23,2.98.1c.27,0,.75-.44.78-.7l.13-1.17.04-5.38,1.13.14.26.56.02,6.41h48.68l36.33.04,2.97.11c.26.01.71-.55.71-.81l.1-6.38,1.09-.31v4.35l.2,1.28.37,1.71,3.99.18,12.94.1h.55l34.02-.11h8.82l22.27.15,1.2-.15,2.42-.16c.35-.02,1.1-.26,1.32-.52.15-.19.26-.92.26-1.17l-.1-5.16,1.14-.38.1,6.55c0,.18.57.7.76.7h57.43s17.6-.01,17.6-.01l7.61.1,2.35.06c.26,0,.71-.56.71-.82v-5.93l1.14-.6.18,1.33.27,1.15.08,4.62.57.22,2.9-.08,14.68-.05h62.19l2.93.14,8.2-.02,4.11-.11,14.08-.03,7.8-.02-1.89-1.82-.25-.09-.21-.16-.47-.37-.34-.18c-1.12-.75.31-1.31.76-.76l.32.25.47.38h.3l4.52,2.92c.17.11.75.73.73.75s-.51.63-.66.73l-2.22,1.41c-.62.14-1.24.28-1.07.24l-1.21,1.16-.51-1.07c.26.03.8.14.93-.07l.44-.72c.06-.16.18-.77-.03-.81l-.89-.16-2.96-.36-21.13.04-4.36.24.24,6.09-1.15-.03-.2-6.08-2.87-.31h-80.71l-3.51.34-.21,6.35c-.06.24-1.34-.18-1.13-.34l.09-5.09-.21-1.27-83.04.03-3.16.29.04,3.22.03,2.3-.06.44-1.17.16.02-5.15c0-.49-1.47-1.02-1.7-.87l-.53-.11-14.66-.02-1.89.1-3.35-.06-1.92.13-1.05.06-1.21.07-9.35.03-1.2-.17-1.27-.15h-9.86l-1.22.15-2.29.1c-.06-.02-.72-.29-.8-.28l-6.17.08-1.94-.02-25.72-.06c-.43,0-1.1-.05-1.23.15l-.99,1.51-.11,2.8-.18,2.58-1.04-.97.07-2.81.06-3.3-3.15-.19h-82.5l-3.27.28-.26,3.23-.24,2.97-.42-.33-.16-2.64-.19-3.25-3.3-.25-78.35-.03-3.7-.04-.29-.81c-1.4-1.56-1.54-3.88.09-5.57v-32.99l.07-201.73c-1.15.48-2.2,1.97-2.79,3.16l-1.31-.2,4.15-6.84c.15-.25,1.15-.39,1.07-.31l4.08,6.76-.79.7-2.95-4.21-.26,5.22-.1,110.13.03,68.66v-.03h.01Z"/>
    <path class="st2" d="M100.39,378.84l.44,1.62c.05.19-.57.78-.65.58l-.52-1.21.74-.99h-.01Z"/>
    <path class="st2" d="M101.03,395.38c.05,1.54-1.33,1.54-1.28,0-.05-1.54,1.33-1.54,1.28,0Z"/>
    <path class="st2" d="M101.07,392.31h-1.32c-.39-2,1.71-2,1.32,0Z"/>
    <path class="st2" d="M100.77,376.71l-1.02.02-.37-1.25c-.07-.25.88-.56.95-.31l.44,1.54Z"/>
    <path class="st2" d="M100.77,388.43l-1.02.02-.37-1.25c-.07-.25.88-.56.95-.31l.44,1.54Z"/>
    <path class="st2" d="M100.77,384.92l-1.02.02-.37-1.25c-.07-.25.88-.56.95-.31l.44,1.54Z"/>
    <path class="st2" d="M100.19,388.51c.15,1.53.16,1.64.02.26-.06-.65-.09-.88-.02-.26Z"/>
  </g>
  <path class="st2" d="M89.26,358.6c-5.19,1.52-11.24,5.53-15.82,8.8l-3.83,2.73-17.85,12.18-16.53,9.13.65,1.18,2.37-1.11c7.45-3.5,14.27-7.68,21.01-12.38l7.65-5.33,2.09-1.47,3.39-2.4,2.23-1.57c.97-.69,2.32-1.68,3.32-2.1l2.02-1.7,1.48-.9,4.99-2.43,2.98-1.11.63-.21c-.1-.48-.17-.97-.2-1.47l-.59.17h0Z"/>
  <path class="st2" d="M175.5,327.67l-10.4,8.27-8.96,8.15c-10.21,9.29-20.29,12.56-34.04,12.53l-12.92-.02c.08.47.12.94.14,1.42l15.14-.14,11.08-1.25,3.12-.61,1.56-.31.74-.61,2-.83,4.33-2.12h.46l1.7-1.34,2.13-1.4,1.63-.81,1.07-1.04,3.21-2.83,1.27-1.02,1.97-1.52,2.35-1.81.06-.56c0-.07.19-.44.26-.52l4.79-4.81.93.2.4-.71.44-.76,1.99-1.58,2.27-1.8,1.89-1.17,1.56-.84,2.9-1.43c-.11-.39-.2-.78-.27-1.18l-4.81,2.46h0Z"/>
  <path class="st2" d="M257.8,281.98l-5.59,7.35-15.49,20.27-5.68,5.46c-5.27,5.06-12.45,7.09-19.81,7.12l-12.35.06c.1.47.15.96.18,1.45l8.65-.16,7.69-.31c2.89-.12,5.92-1.31,8.71-2.09l1.43-.4,1.3-1.05,2.04-1.12,1.76-.96,2.79-2.94.63-.71.55.1,1.89-2.34,1.54-1.73,1.94-2.38,2.36-2.94,2.33-2.91,1.19-1.8,1.75-2.33,1.8-2.4,1.61-1.87,2.49-2.67,1.24-1.78.08-1.01,1.6-2.03,2.32-2.94,1.88-2.37,1.43-1.34,1.07-1.28,1.28-1.09,2.47-2.08,1.35-.71,2.02-1.4c-.17-.42-.3-.86-.41-1.31-4.33,2.65-8.94,6.59-12.02,10.65h-.02Z"/>
  <path class="st2" d="M305.05,264.28l1.06-1.04c-3.85,2.44-8.12,3.95-12.75,4.18l-4.43.22c.09.48.14.96.16,1.46l4.92-.4c4.34-.35,9.25-1.54,12.58-4.16l17.21-16.4-2.18,1.93-14.02,13.31-2.54.88v.02h-.01Z"/>
  <path class="st2" d="M444.39,93.44l-3.34,9.26-6.25,19.49-5.5,16.91-4.68,12.34c-3.63,9.59-8.41,18.41-14.22,26.78-8.23,11.87-18.78,20.13-32.28,24.75l-2.58.88c.25.42.48.86.67,1.32l.98-.36,3.54-1.31,6.02-2.64,3.35-1.85,4.46-2.75,2.75-2,4.34-3.62,4.46-4.46,1.56-1.73,1.05-1.4,2.78-3.72,1.3-1.74,1.32-2.11,1.51-2.35,1.36-2.37,1.81-2.88c4.31-9.41,8.69-19.17,11.93-28.94l3.42-10.27,2.83-8.41,4.46-14.73,3.34-9.66-.37-2.47s-.02.04-.02.04Z"/>
  <path class="st2" d="M348.1,219.76l-6.53,6.92-9.89,10.69-5.27,5.91-20.3,19.96-1.06,1.04,2.54-.88,14.02-13.31,3.02-2.87,2.2-2.32,2.15-2.42,1.62-2,1.87-2.07,4.08-4.32,1.4-1.03.17-.87.94-.91,5.93-6.44,8.71-8.71,2.91-2.5,1-.39.35-.23c-.21-.44-.4-.9-.55-1.38-3.19,2.35-6.58,5.25-9.32,8.15v-.02h.01Z"/>
  <path class="st4" d="M190.24,315.07c-4.97,0-9.02,4.05-9.02,9.02s4.05,9.02,9.02,9.02,9.02-4.05,9.02-9.02-4.05-9.02-9.02-9.02Z"/>
  <path class="st2" d="M190.24,313.89c-5.62,0-10.19,4.57-10.19,10.19,0,.58.06,1.14.15,1.69.07.4.15.8.27,1.18,1.25,4.22,5.15,7.32,9.77,7.32,5.62,0,10.19-4.57,10.19-10.19,0-.2-.02-.4-.03-.6-.03-.49-.08-.98-.18-1.45-.95-4.64-5.07-8.14-9.98-8.14h0ZM199.26,324.09c0,4.97-4.05,9.02-9.02,9.02s-9.02-4.05-9.02-9.02,4.05-9.02,9.02-9.02,9.02,4.05,9.02,9.02Z"/>
  <path class="st4" d="M279.74,260.53c-4.97,0-9.02,4.05-9.02,9.02s4.05,9.02,9.02,9.02,9.02-4.05,9.02-9.02-4.05-9.02-9.02-9.02Z"/>
  <path class="st2" d="M279.74,259.36c-5.62,0-10.19,4.57-10.19,10.19,0,.84.11,1.64.3,2.42.11.45.25.89.41,1.31,1.49,3.78,5.17,6.46,9.48,6.46,5.62,0,10.19-4.57,10.19-10.19,0-.15-.02-.29-.02-.44-.02-.5-.07-.98-.16-1.46-.89-4.72-5.04-8.29-10.01-8.29ZM288.76,269.55c0,4.97-4.05,9.02-9.02,9.02s-9.02-4.05-9.02-9.02,4.05-9.02,9.02-9.02,9.02,4.05,9.02,9.02Z"/>
  <path class="st4" d="M376.26,209.04c0-4.97-4.05-9.02-9.02-9.02s-9.02,4.05-9.02,9.02,4.05,9.02,9.02,9.02,9.02-4.05,9.02-9.02Z"/>
  <path class="st2" d="M367.24,198.85c-5.62,0-10.19,4.57-10.19,10.19,0,1.04.16,2.04.45,2.98.15.48.33.94.55,1.38,1.64,3.44,5.14,5.83,9.2,5.83,5.62,0,10.19-4.57,10.19-10.19,0-1.36-.27-2.67-.76-3.86-.19-.46-.41-.9-.67-1.32-1.78-3-5.04-5.01-8.76-5.01h0ZM358.22,209.04c0-4.97,4.05-9.02,9.02-9.02s9.02,4.05,9.02,9.02-4.05,9.02-9.02,9.02-9.02-4.05-9.02-9.02Z"/>
  <path class="st2" d="M445.42,94.13l2.01-4.82,1.35,4.96.98-.4-1.55-7.74c.1-.04-.89-.25-1.12-.07l-6.22,5.03,1.17.63c.95-.92,2.45-1.97,3.69-2.02l-4.63,12.86,1.12.4,3.19-8.83h0Z"/>
  <g>
    <path class="st2" d="M82.68,429.98v-1.16c0-.71.12-1.3.37-1.76.24-.46.59-.83,1.05-1.12s1-.53,1.65-.73l.89-.28c.4-.13.75-.28,1.03-.47.29-.19.51-.42.67-.7.16-.28.23-.6.23-.98v-.06c0-.58-.2-1.03-.59-1.36s-.9-.49-1.54-.49-1.19.18-1.59.53c-.41.35-.61.87-.61,1.55v.23h-1.52v-.22c0-.74.16-1.37.48-1.88s.77-.91,1.33-1.18c.57-.27,1.2-.41,1.91-.41s1.33.13,1.88.4.99.64,1.31,1.11c.32.48.48,1.04.48,1.69v.13c0,.67-.13,1.22-.4,1.66-.26.44-.63.8-1.09,1.08s-1,.52-1.61.72l-.87.26c-.46.14-.83.29-1.11.45s-.48.35-.62.58c-.13.23-.2.51-.2.87v.15h5.79v1.38h-7.35.03,0Z"/>
    <path class="st2" d="M95.47,430.19c-1.19,0-2.14-.34-2.85-1.02s-1.06-1.7-1.06-3.07v-2.49c0-1.34.35-2.36,1.06-3.05s1.66-1.04,2.85-1.04,2.16.35,2.87,1.04,1.06,1.71,1.06,3.05v2.49c0,1.37-.35,2.39-1.06,3.07s-1.66,1.02-2.87,1.02ZM95.47,428.81c.81,0,1.41-.23,1.8-.7.39-.46.59-1.12.59-1.96v-2.64c0-.84-.21-1.49-.63-1.94s-1.01-.68-1.76-.68-1.35.23-1.76.7c-.41.46-.62,1.11-.62,1.93v2.64c0,.86.2,1.52.59,1.97.4.46.99.68,1.78.68h.01Z"/>
    <path class="st2" d="M103.97,429.98v-9.18h-.23l-1.69,3.46h-1.63l2.27-4.55h2.82v10.26h-1.54,0Z"/>
    <path class="st2" d="M107.29,429.98v-1.16c0-.71.12-1.3.37-1.76.24-.46.59-.83,1.05-1.12s1-.53,1.65-.73l.89-.28c.4-.13.75-.28,1.03-.47.29-.19.51-.42.67-.7.16-.28.23-.6.23-.98v-.06c0-.58-.2-1.03-.59-1.36s-.9-.49-1.54-.49-1.19.18-1.59.53c-.41.35-.61.87-.61,1.55v.23h-1.52v-.22c0-.74.16-1.37.48-1.88s.77-.91,1.33-1.18c.57-.27,1.2-.41,1.91-.41s1.33.13,1.88.4.99.64,1.31,1.11c.32.48.48,1.04.48,1.69v.13c0,.67-.13,1.22-.4,1.66-.26.44-.63.8-1.09,1.08s-1,.52-1.61.72l-.87.26c-.46.14-.83.29-1.11.45s-.48.35-.62.58c-.13.23-.2.51-.2.87v.15h5.79v1.38h-7.35.03,0Z"/>
  </g>
  <g>
    <path class="st2" d="M172.68,429.98v-1.16c0-.71.12-1.3.37-1.76.24-.46.59-.83,1.05-1.12s1-.53,1.65-.73l.89-.28c.4-.13.75-.28,1.03-.47.29-.19.51-.42.67-.7s.23-.6.23-.98v-.06c0-.58-.2-1.03-.59-1.36s-.9-.49-1.54-.49-1.19.18-1.59.53c-.41.35-.61.87-.61,1.55v.23h-1.52v-.22c0-.74.16-1.37.48-1.88.32-.51.77-.91,1.33-1.18.57-.27,1.2-.41,1.91-.41s1.33.13,1.88.4.99.64,1.31,1.11c.32.48.48,1.04.48,1.69v.13c0,.67-.13,1.22-.4,1.66-.26.44-.63.8-1.09,1.08-.46.28-1,.52-1.61.72l-.87.26c-.46.14-.83.29-1.11.45s-.48.35-.62.58c-.13.23-.2.51-.2.87v.15h5.79v1.38h-7.35.03Z"/>
    <path class="st2" d="M185.47,430.19c-1.19,0-2.14-.34-2.85-1.02s-1.06-1.7-1.06-3.07v-2.49c0-1.34.35-2.36,1.06-3.05.71-.69,1.66-1.04,2.85-1.04s2.16.35,2.87,1.04c.71.69,1.06,1.71,1.06,3.05v2.49c0,1.37-.35,2.39-1.06,3.07-.71.68-1.66,1.02-2.87,1.02ZM185.47,428.81c.81,0,1.41-.23,1.8-.7.39-.46.59-1.12.59-1.96v-2.64c0-.84-.21-1.49-.63-1.94s-1.01-.68-1.76-.68-1.35.23-1.76.7c-.41.46-.62,1.11-.62,1.93v2.64c0,.86.2,1.52.59,1.97.4.46.99.68,1.78.68h0Z"/>
    <path class="st2" d="M193.97,429.98v-9.18h-.23l-1.69,3.46h-1.63l2.27-4.55h2.82v10.26h-1.54Z"/>
    <path class="st2" d="M201.14,430.19c-.74,0-1.4-.14-1.96-.43-.57-.29-1.01-.69-1.32-1.21-.31-.52-.47-1.12-.47-1.8v-3.55c0-.8.16-1.48.48-2.02.32-.55.76-.96,1.34-1.24s1.25-.42,2.01-.42,1.4.13,1.95.39.97.63,1.26,1.1.44,1.03.44,1.66h-1.55c0-.51-.17-.93-.51-1.27s-.87-.51-1.59-.51-1.3.19-1.69.58c-.4.39-.59.92-.59,1.61v1.23h.23c.17-.24.44-.46.81-.67.38-.21.91-.32,1.61-.32.61,0,1.16.13,1.67.4.51.26.92.64,1.22,1.13.31.49.46,1.08.46,1.77v.18c0,.67-.16,1.27-.48,1.78-.32.51-.77.91-1.34,1.2-.57.28-1.23.42-1.97.42h0ZM201.16,428.81c.68,0,1.23-.19,1.64-.56s.61-.87.61-1.5v-.12c0-.42-.09-.78-.28-1.09s-.45-.55-.78-.73c-.34-.18-.73-.26-1.18-.26s-.83.09-1.17.26c-.34.18-.6.42-.78.73-.19.31-.28.67-.28,1.09v.12c0,.63.2,1.12.61,1.5.41.37.95.56,1.62.56h-.01Z"/>
  </g>
  <g>
    <path class="st2" d="M262.82,429.98v-1.16c0-.71.12-1.3.37-1.76.24-.46.59-.83,1.05-1.12.45-.29,1-.53,1.65-.73l.89-.28c.4-.13.75-.28,1.03-.47.29-.19.51-.42.67-.7s.23-.6.23-.98v-.06c0-.58-.2-1.03-.59-1.36-.39-.33-.9-.49-1.54-.49s-1.19.18-1.59.53c-.41.35-.61.87-.61,1.55v.23h-1.53v-.22c0-.74.16-1.37.48-1.88s.77-.91,1.33-1.18c.57-.27,1.2-.41,1.91-.41s1.33.13,1.88.4c.55.26.99.64,1.3,1.11.32.48.48,1.04.48,1.69v.13c0,.67-.13,1.22-.4,1.66-.26.44-.63.8-1.09,1.08s-1,.52-1.61.72l-.87.26c-.46.14-.83.29-1.11.45s-.48.35-.62.58c-.13.23-.2.51-.2.87v.15h5.79v1.38h-7.35.05,0Z"/>
    <path class="st2" d="M275.6,430.19c-1.19,0-2.14-.34-2.85-1.02s-1.06-1.7-1.06-3.07v-2.49c0-1.34.35-2.36,1.06-3.05s1.66-1.04,2.85-1.04,2.16.35,2.87,1.04,1.06,1.71,1.06,3.05v2.49c0,1.37-.35,2.39-1.06,3.07s-1.66,1.02-2.87,1.02ZM275.6,428.81c.81,0,1.41-.23,1.8-.7.39-.46.59-1.12.59-1.96v-2.64c0-.84-.21-1.49-.63-1.94s-1.01-.68-1.76-.68-1.35.23-1.76.7c-.41.46-.62,1.11-.62,1.93v2.64c0,.86.2,1.52.59,1.97.4.46.99.68,1.78.68h.01Z"/>
    <path class="st2" d="M281.04,429.98v-1.16c0-.71.12-1.3.37-1.76.24-.46.59-.83,1.05-1.12.45-.29,1-.53,1.65-.73l.89-.28c.4-.13.75-.28,1.03-.47.29-.19.51-.42.67-.7s.23-.6.23-.98v-.06c0-.58-.2-1.03-.59-1.36-.39-.33-.9-.49-1.54-.49s-1.19.18-1.59.53c-.41.35-.61.87-.61,1.55v.23h-1.53v-.22c0-.74.16-1.37.48-1.88s.77-.91,1.33-1.18c.57-.27,1.2-.41,1.91-.41s1.33.13,1.88.4c.55.26.99.64,1.3,1.11.32.48.48,1.04.48,1.69v.13c0,.67-.13,1.22-.4,1.66-.26.44-.63.8-1.09,1.08s-1,.52-1.61.72l-.87.26c-.46.14-.83.29-1.11.45s-.48.35-.62.58c-.13.23-.2.51-.2.87v.15h5.79v1.38h-7.35.05,0Z"/>
    <path class="st2" d="M293.83,430.19c-1.19,0-2.14-.34-2.85-1.02s-1.06-1.7-1.06-3.07v-2.49c0-1.34.35-2.36,1.06-3.05s1.66-1.04,2.85-1.04,2.16.35,2.87,1.04,1.06,1.71,1.06,3.05v2.49c0,1.37-.35,2.39-1.06,3.07s-1.66,1.02-2.87,1.02ZM293.83,428.81c.81,0,1.41-.23,1.8-.7.39-.46.59-1.12.59-1.96v-2.64c0-.84-.21-1.49-.63-1.94s-1.01-.68-1.76-.68-1.35.23-1.76.7c-.41.46-.62,1.11-.62,1.93v2.64c0,.86.2,1.52.59,1.97.4.46.99.68,1.78.68h.01Z"/>
  </g>
  <g>
    <path class="st2" d="M351.16,429.98v-1.16c0-.71.12-1.3.37-1.76.24-.46.59-.83,1.05-1.12.45-.29,1-.53,1.65-.73l.89-.28c.4-.13.75-.28,1.03-.47.29-.19.51-.42.67-.7s.23-.6.23-.98v-.06c0-.58-.2-1.03-.59-1.36-.39-.33-.9-.49-1.54-.49s-1.19.18-1.59.53c-.41.35-.61.87-.61,1.55v.23h-1.53v-.22c0-.74.16-1.37.48-1.88s.77-.91,1.33-1.18c.57-.27,1.2-.41,1.91-.41s1.33.13,1.88.4c.55.26.99.64,1.3,1.11.32.48.48,1.04.48,1.69v.13c0,.67-.13,1.22-.4,1.66-.26.44-.63.8-1.09,1.08s-1,.52-1.61.72l-.87.26c-.46.14-.83.29-1.11.45s-.48.35-.62.58c-.13.23-.2.51-.2.87v.15h5.79v1.38h-7.35.05,0Z"/>
    <path class="st2" d="M363.95,430.19c-1.19,0-2.14-.34-2.85-1.02s-1.06-1.7-1.06-3.07v-2.49c0-1.34.35-2.36,1.06-3.05s1.66-1.04,2.85-1.04,2.16.35,2.87,1.04,1.06,1.71,1.06,3.05v2.49c0,1.37-.35,2.39-1.06,3.07s-1.66,1.02-2.87,1.02ZM363.95,428.81c.81,0,1.41-.23,1.8-.7.39-.46.59-1.12.59-1.96v-2.64c0-.84-.21-1.49-.63-1.94s-1.01-.68-1.76-.68-1.35.23-1.76.7c-.41.46-.62,1.11-.62,1.93v2.64c0,.86.2,1.52.59,1.97.4.46.99.68,1.78.68h.01Z"/>
    <path class="st2" d="M369.39,429.98v-1.16c0-.71.12-1.3.37-1.76.24-.46.59-.83,1.05-1.12.45-.29,1-.53,1.65-.73l.89-.28c.4-.13.75-.28,1.03-.47.29-.19.51-.42.67-.7s.23-.6.23-.98v-.06c0-.58-.2-1.03-.59-1.36-.39-.33-.9-.49-1.54-.49s-1.19.18-1.59.53c-.41.35-.61.87-.61,1.55v.23h-1.53v-.22c0-.74.16-1.37.48-1.88s.77-.91,1.33-1.18c.57-.27,1.2-.41,1.91-.41s1.33.13,1.88.4c.55.26.99.64,1.3,1.11.32.48.48,1.04.48,1.69v.13c0,.67-.13,1.22-.4,1.66-.26.44-.63.8-1.09,1.08s-1,.52-1.61.72l-.87.26c-.46.14-.83.29-1.11.45s-.48.35-.62.58c-.13.23-.2.51-.2.87v.15h5.79v1.38h-7.35.05,0Z"/>
    <path class="st2" d="M382.73,429.98v-2.1h-5.19v-1.79l3.93-6.38h2.8v6.8h1.73v1.36h-1.73v2.1h-1.54,0ZM379.04,426.52h3.7v-5.84h-.23l-3.46,5.63v.21h-.01Z"/>
  </g>
  <g>
    <path class="st2" d="M439.37,429.98v-1.16c0-.71.12-1.3.37-1.76.24-.46.59-.83,1.05-1.12.45-.29,1-.53,1.65-.73l.89-.28c.4-.13.75-.28,1.03-.47.29-.19.51-.42.67-.7s.23-.6.23-.98v-.06c0-.58-.2-1.03-.59-1.36-.39-.33-.9-.49-1.54-.49s-1.19.18-1.59.53c-.41.35-.61.87-.61,1.55v.23h-1.53v-.22c0-.74.16-1.37.48-1.88s.77-.91,1.33-1.18c.57-.27,1.2-.41,1.91-.41s1.33.13,1.88.4c.55.26.99.64,1.3,1.11.32.48.48,1.04.48,1.69v.13c0,.67-.13,1.22-.4,1.66-.26.44-.63.8-1.09,1.08s-1,.52-1.61.72l-.87.26c-.46.14-.83.29-1.11.45s-.48.35-.62.58c-.13.23-.2.51-.2.87v.15h5.79v1.38h-7.35.05,0Z"/>
    <path class="st2" d="M452.15,430.19c-1.19,0-2.14-.34-2.85-1.02s-1.06-1.7-1.06-3.07v-2.49c0-1.34.35-2.36,1.06-3.05s1.66-1.04,2.85-1.04,2.16.35,2.87,1.04,1.06,1.71,1.06,3.05v2.49c0,1.37-.35,2.39-1.06,3.07s-1.66,1.02-2.87,1.02ZM452.15,428.81c.81,0,1.41-.23,1.8-.7.39-.46.59-1.12.59-1.96v-2.64c0-.84-.21-1.49-.63-1.94s-1.01-.68-1.76-.68-1.35.23-1.76.7c-.41.46-.62,1.11-.62,1.93v2.64c0,.86.2,1.52.59,1.97.4.46.99.68,1.78.68h.01Z"/>
    <path class="st2" d="M457.59,429.98v-1.16c0-.71.12-1.3.37-1.76.24-.46.59-.83,1.05-1.12.45-.29,1-.53,1.65-.73l.89-.28c.4-.13.75-.28,1.03-.47.29-.19.51-.42.67-.7s.23-.6.23-.98v-.06c0-.58-.2-1.03-.59-1.36-.39-.33-.9-.49-1.54-.49s-1.19.18-1.59.53c-.41.35-.61.87-.61,1.55v.23h-1.53v-.22c0-.74.16-1.37.48-1.88s.77-.91,1.33-1.18c.57-.27,1.2-.41,1.91-.41s1.33.13,1.88.4c.55.26.99.64,1.3,1.11.32.48.48,1.04.48,1.69v.13c0,.67-.13,1.22-.4,1.66-.26.44-.63.8-1.09,1.08s-1,.52-1.61.72l-.87.26c-.46.14-.83.29-1.11.45s-.48.35-.62.58c-.13.23-.2.51-.2.87v.15h5.79v1.38h-7.35.05,0Z"/>
    <path class="st2" d="M470.15,430.19c-.79,0-1.48-.12-2.08-.35s-1.05-.57-1.38-1.02c-.33-.44-.49-.96-.49-1.56v-.16c0-.49.09-.89.29-1.21.19-.32.43-.57.7-.75.28-.18.54-.3.79-.36v-.23c-.25-.07-.49-.19-.75-.37-.25-.18-.46-.42-.62-.72s-.24-.66-.24-1.08v-.16c0-.55.16-1.02.48-1.42.32-.4.76-.71,1.33-.94.57-.22,1.23-.34,1.98-.34s1.4.11,1.96.34,1.01.54,1.33.94c.32.4.48.88.48,1.42v.16c0,.42-.08.78-.24,1.08s-.36.54-.61.72-.49.31-.75.37v.23c.25.06.52.18.79.36s.5.43.69.75.28.72.28,1.21v.16c0,.6-.16,1.12-.49,1.56-.33.45-.79.79-1.38,1.02-.59.23-1.28.35-2.06.35h-.01ZM470.15,428.81c.74,0,1.33-.14,1.75-.43.43-.29.64-.69.64-1.21v-.12c0-.53-.21-.94-.62-1.22-.42-.29-1-.43-1.77-.43s-1.35.14-1.77.43c-.42.29-.63.7-.63,1.22v.12c0,.52.21.92.64,1.21.42.29,1.01.43,1.77.43h-.01ZM470.15,424.01c.69,0,1.24-.13,1.63-.4.4-.26.59-.64.59-1.11v-.12c0-.48-.2-.85-.6-1.11-.4-.26-.94-.39-1.63-.39s-1.24.13-1.64.39c-.4.26-.6.63-.6,1.11v.12c0,.48.2.85.59,1.11.4.26.95.4,1.65.4h.01Z"/>
  </g>
  <path class="st2" d="M100.69,365.68l.05,3.11-.29,1.17c-.06.25-.96-.38-.93-.42v-3.84c.27.09.89.05,1.17-.01h0Z"/>
  <path class="st2" d="M100.76,372.27c.05,1.54-1.33,1.54-1.28,0-.05-1.54,1.33-1.54,1.28,0Z"/>
  <path class="st2" d="M367.96,218.28l.05,3.11-.29,1.17c-.06.25-.96-.38-.93-.42v-3.84c.27.09.89.05,1.17,0h0v-.02Z"/>
  <path class="st4" d="M99.96,349.06c-4.97,0-9.02,4.05-9.02,9.02s4.05,9.02,9.02,9.02,9.02-4.05,9.02-9.02-4.05-9.02-9.02-9.02Z"/>
  <path class="st2" d="M99.96,347.89c-5.62,0-10.19,4.57-10.19,10.19,0,.23.02.46.03.69.03.5.1.99.2,1.47.99,4.59,5.08,8.04,9.96,8.04,5.62,0,10.19-4.57,10.19-10.19,0-.08-.01-.16-.01-.24-.01-.48-.06-.96-.14-1.42-.8-4.83-4.99-8.53-10.05-8.53h.01ZM108.98,358.08c0,4.97-4.05,9.02-9.02,9.02s-9.02-4.05-9.02-9.02,4.05-9.02,9.02-9.02,9.02,4.05,9.02,9.02Z"/>
  <g>
    <path class="st2" d="M190.75,314.09c.05,1.54-1.33,1.54-1.28,0-.05-1.54,1.33-1.54,1.28,0Z"/>
    <path class="st2" d="M190.6,309c.73,2.09-1.3,2.1-1.23.37.21-.06,1.26-.38,1.23-.37Z"/>
    <path class="st3" d="M190.34,272.93c-7.32,0-13.28,5.96-13.28,13.28s5.96,13.28,13.28,13.28,13.28-5.96,13.28-13.28-5.96-13.28-13.28-13.28Z"/>
    <path class="st2" d="M203.77,291.99c-1.65,3.8-5.79,7.67-9.57,8.09l-3.59.4-.17,2.02c.48.14-.47-.13-.68-.2-.29-.09-.22-.55-.2-1.73l-2.05-.74c-6.85-1.42-11.41-7.15-11.2-14.14.22-7.16,5.76-13.05,12.95-13.47,4.96-.29,9.83,1.64,12.42,5.82l1.44,2.32,1.42,2.96-.11,6.77c0,.38-.5,1.54-.65,1.89h-.01ZM179.86,293.35c.14.5.53,1.61.97,1.91l2.02.95c.14.13.16.71.33.8l.91.48c5.48,2.91,12.17,1.35,15.99-3.28,4.63-5.62,3.87-13.54-1.82-18.08l-2.69-1.75-1.84-.87c-7.47-1.11-14.11,2.12-15.93,9.59-.86,3.54-.42,7.94,2.07,10.26h-.01Z"/>
    <path class="st2" d="M190.68,306.33c-.1.1-.98.64-1.04.39l-.37-1.43c.1-.1.98-.64,1.04-.39l.37,1.43Z"/>
    <path class="st2" d="M186.51,287.78c-.07.18-.25.44-.66.34,0,.02-1.04-.26-1.04-.26l-.71,1.64,1.86.46c.35.09.69.18,1.02.26l-.59,2.38,1.43.36.59-2.35c.39.11.77.2,1.14.3l-.58,2.34,1.43.36.59-2.37c2.44.46,4.27.28,5.05-1.93.62-1.78-.03-2.8-1.31-3.47.93-.22,1.64-.83,1.83-2.1.26-1.73-1.06-2.67-2.87-3.29l.59-2.35-1.43-.36-.57,2.29c-.38-.09-.76-.18-1.15-.27l.57-2.3-1.43-.36-.59,2.35-2.88-.71-.38,1.53s1.06.24,1.04.26c.58.14.68.53.67.83l-1.6,6.44h0l-.02-.02h0ZM193.27,288.31c-.44,1.78-3.43.82-4.4.58l.79-3.15c.97.24,4.08.72,3.62,2.57h0ZM193.71,283.7c-.4,1.62-2.89.79-3.7.59l.71-2.86c.81.2,3.41.58,2.99,2.26h0Z"/>
  </g>
  <path class="st2" d="M280.61,258.95c.05,1.54-1.33,1.54-1.28,0-.05-1.54,1.33-1.54,1.28,0Z"/>
  <path class="st2" d="M280.45,253.86c.73,2.09-1.3,2.1-1.23.37.21-.06,1.26-.38,1.23-.37Z"/>
  <path class="st3" d="M280.2,217.79c-7.32,0-13.28,5.96-13.28,13.28s5.96,13.28,13.28,13.28,13.28-5.96,13.28-13.28-5.96-13.28-13.28-13.28Z"/>
  <path class="st2" d="M280.53,251.19c-.1.1-.98.64-1.04.39l-.37-1.43c.1-.1.98-.64,1.04-.39l.37,1.43Z"/>
  <path class="st2" d="M276.14,232.75c-.07.18-.25.44-.66.34.01.02-1.04-.26-1.04-.26l-.71,1.64,1.86.46c.35.09.69.18,1.02.26l-.59,2.38,1.43.36.59-2.35c.39.11.77.2,1.14.3l-.58,2.34,1.43.36.59-2.37c2.44.46,4.27.28,5.05-1.93.62-1.78-.03-2.8-1.31-3.47.93-.22,1.64-.83,1.83-2.1.26-1.73-1.06-2.67-2.87-3.29l.59-2.35-1.43-.36-.57,2.29c-.38-.09-.76-.18-1.15-.27l.57-2.3-1.43-.36-.59,2.35-2.88-.71-.38,1.53s1.06.24,1.04.26c.58.14.68.53.67.83l-1.6,6.44h0l-.02-.02h0ZM282.9,233.28c-.44,1.78-3.43.82-4.4.58l.79-3.15c.97.24,4.08.72,3.62,2.57h-.01ZM283.34,228.67c-.4,1.62-2.89.79-3.7.59l.71-2.86c.81.2,3.41.58,2.99,2.26h0Z"/>
  <path class="st2" d="M367.86,198.61c.05,1.54-1.33,1.54-1.28,0-.05-1.54,1.33-1.54,1.28,0Z"/>
  <path class="st2" d="M367.7,193.52c.73,2.09-1.3,2.1-1.23.37.21-.06,1.26-.38,1.23-.37Z"/>
  <path class="st3" d="M353.1,172.62c.34,7.32,6.56,12.99,13.88,12.66,7.32-.34,12.99-6.56,12.66-13.88-.34-7.32-6.56-12.99-13.88-12.66s-12.99,6.56-12.66,13.88Z"/>
  <path class="st2" d="M367.13,157.97c4.86.22,10.09,4.5,11.7,7.95s1.27,8.3,1.27,8.3c-1.11,6.91-6.61,11.73-13.61,11.84-7.16.11-13.3-5.15-14.05-12.31-.52-4.94,1.18-9.89,5.24-12.67l2.25-1.54c-.6-.03,4.5-1.69,7.19-1.57h0ZM373.97,182.15c.49-.17,1.59-.6,1.86-1.05l.85-2.06c.13-.15.7-.19.78-.36l.44-.93c2.65-5.61.79-12.22-4.01-15.82-5.83-4.37-14.7-2.7-18.52,3.5-.69,1.11-1.87,3.79-1.87,3.79-.76,7.52,2.77,14,10.31,15.47,3.58.7,7.95.06,10.15-2.54h.01Z"/>
  <path class="st2" d="M367.79,190.85c-.1.1-.98.64-1.04.39l-.37-1.43c.1-.1.98-.64,1.04-.39l.37,1.43Z"/>
  <path class="st2" d="M362.18,174.12c-.07.18-.25.44-.66.34.01.02-1.04-.26-1.04-.26l-.71,1.64,1.86.46c.35.09.69.18,1.02.26l-.59,2.38,1.43.36.59-2.35c.39.11.77.2,1.14.3l-.58,2.34,1.43.36.59-2.37c2.44.46,4.27.28,5.05-1.93.62-1.78-.03-2.8-1.31-3.47.93-.22,1.64-.83,1.83-2.1.26-1.73-1.06-2.67-2.87-3.29l.59-2.35-1.43-.36-.57,2.29c-.38-.09-.76-.18-1.15-.27l.57-2.3-1.43-.36-.59,2.35-2.88-.71-.38,1.53s1.06.24,1.04.26c.58.14.68.53.67.83l-1.6,6.44h0l-.02-.02h0ZM368.94,174.65c-.44,1.78-3.43.82-4.4.58l.79-3.15c.97.24,4.08.72,3.62,2.57h-.01ZM369.38,170.04c-.4,1.62-2.89.79-3.7.59l.71-2.86c.81.2,3.41.58,2.99,2.26h0Z"/>
  <path class="st2" d="M100.83,347.59c.05,1.54-1.33,1.54-1.28,0-.05-1.54,1.33-1.54,1.28,0Z"/>
  <path class="st2" d="M100.67,342.51c.73,2.09-1.3,2.1-1.23.37.21-.06,1.26-.38,1.23-.37Z"/>
  <path class="st3" d="M100.42,306.44c-7.32,0-13.28,5.96-13.28,13.28s5.96,13.28,13.28,13.28,13.28-5.96,13.28-13.28-5.96-13.28-13.28-13.28Z"/>
  <path class="st2" d="M112.84,325.4c-1.65,3.8-3.94,5.59-8.19,7.32l-3.98,1.27-.17,2.02c.48.14-.47-.13-.68-.2-.29-.09-.22-.55-.2-1.73l-2.05-.74c-6.85-1.42-11.41-7.15-11.2-14.14.22-7.16,5.76-13.05,12.95-13.47,4.96-.29,9.83,1.64,12.42,5.82,0,0,3.32,4.69,2.13,10.62-.08.38-.87,2.88-1.02,3.23h0ZM90.9,328.76s2.18,1.65,2.35,1.74l.91.48c5.48,2.91,12.17,1.35,15.99-3.28,4.63-5.62,3.87-13.54-1.82-18.08l-2.69-1.75-1.84-.87c-7.47-1.11-14.11,2.12-15.93,9.59-.86,3.54-.24,8.52,3.03,12.16h0Z"/>
  <path class="st2" d="M100.75,339.83c-.1.1-.98.64-1.04.39l-.37-1.43c.1-.1.98-.64,1.04-.39l.37,1.43Z"/>
  <path class="st2" d="M96.58,321.28c-.07.18-.25.44-.66.34.01.02-1.04-.26-1.04-.26l-.71,1.64,1.86.46c.35.09.69.18,1.02.26l-.59,2.38,1.43.36.59-2.35c.39.11.77.2,1.14.3l-.58,2.34,1.43.36.59-2.37c2.44.46,4.27.28,5.05-1.93.62-1.78-.03-2.8-1.31-3.47.93-.22,1.64-.83,1.83-2.1.26-1.73-1.06-2.67-2.87-3.29l.59-2.35-1.43-.36-.57,2.29c-.38-.09-.76-.18-1.15-.27l.57-2.3-1.43-.36-.59,2.35-2.88-.71-.38,1.53s1.06.24,1.04.26c.58.14.68.53.67.83l-1.6,6.44h0l-.02-.02h0ZM103.34,321.81c-.44,1.78-3.43.82-4.4.58l.79-3.15c.97.24,4.08.72,3.62,2.57h-.01ZM103.79,317.2c-.4,1.62-2.89.79-3.7.59l.71-2.86c.81.2,3.41.58,2.99,2.26h0Z"/>
  <path class="st2" d="M292.8,236.77c-1.65,3.8-3.94,5.59-8.19,7.32l-3.98,1.27-.17,2.02c.48.14-.47-.13-.68-.2-.29-.09-.22-.55-.2-1.73l-2.05-.74c-6.85-1.42-11.41-7.15-11.2-14.14.22-7.16,5.76-13.05,12.95-13.47,4.96-.29,9.83,1.64,12.42,5.82,0,0,3.32,4.69,2.13,10.62-.08.38-.87,2.88-1.02,3.23h-.01ZM270.86,240.13s2.18,1.65,2.35,1.74l.91.48c5.48,2.91,12.17,1.35,15.99-3.28,4.63-5.62,3.87-13.54-1.82-18.08l-2.69-1.75-1.84-.87c-7.47-1.11-14.11,2.12-15.93,9.59-.86,3.54-.24,8.52,3.03,12.16h0Z"/>
  <rect class="st0" x="659.82" y="-210.74" width="531" height="459"/>
  <path class="st0" d="M1445.85,11.07l-2.39-2.24,16.9-35.89c1.61-1.05-2.06-1.49-.1-5.08l12.51-26.75,8.82-.38c5-3.75.18-8.54-.32-11.61-1.58-13.08-2.1-25.93-10.1-37.26l-13.37-14.37c-1.98-2.13-1.31-8.6-.31-10.95,5.45-.9,9.35-2.84,11.49-6.95l.67-1.3c3.17-6.14.83-12.85-4.64-17.68l4.82-8.89c.72-1.33-1.47-4.88-2.88-5.44s-4.6,1.01-5.33,2.52l-4.7,9.65c-6.67-.77-11.99,2.37-14.53,6.82-3.07,5.39-.94,10.84,1.95,15.81-.87,3.15-3.7,5.11-6.85,5.91V41.07l8.38-30Z"/>
</svg>