<?xml version="1.0" encoding="UTF-8"?>
<svg id="Layer_1" xmlns="http://www.w3.org/2000/svg" version="1.1" viewBox="0 0 390.25 749.76">
  <!-- Generator: Adobe Illustrator 30.3.0, SVG Export Plug-In . SVG Version: 2.1.3 Build 182)  -->
  <defs>
    <style>
      .st0 {
        fill: #010101;
      }

      .st1 {
        fill: #171311;
      }

      .st2 {
        fill: #f79420;
      }

      .st3 {
        fill: #f49221;
      }

      .st4 {
        fill: #e8dfcd;
      }

      .st5 {
        fill: #f7ecdb;
      }

      .st6 {
        fill: #e1d4c4;
      }

      .st7 {
        fill: #f7931b;
      }

      .st8 {
        fill: #22211c;
      }

      .st9 {
        fill: #2a1b0f;
      }
    </style>
  </defs>
  <g>
    <path class="st7" d="M117.82,601.22l-21.32-3.88-1.23-.17-27.9-9.94c-6.68-2.38-12.43-6.73-17.3-10.61-17.58-14.04-27.01-28.69-30.6-47.51-3.45-18.12-1.77-32.9,5.12-45.17,6.33-11.27,16.94-20.13,32.43-27.1,11.63-5.23,23.17-7.45,37.05-9.81l33.17-5.64,13.27-3.46c4.93-1.29,9.77-4.5,13.65-9.06,5.06-5.97,6.43-14.15,4.09-21.22-2.02,2.96-4.67,5.45-8.28,7.22-7.34,3.62-15.14,7-23.42,8.99-24.52,5.88-48.29,11.47-71.91,20.71-9.22,3.6-17.81,9.32-25.82,14.96-10.61,7.46-16.92,17.46-24.6,28.08s-11.88,22.4-13.41,34.9l-.14,1.15c-.89,7.22.13,14.19,1.88,21.42,2.34,9.71,5.6,17.68,13.28,24.77,7.02,6.48,15.29,12.56,24.73,15.96,19.93,7.18,40.08,10.77,60.89,14.22l23.49,4.21c10.38,2.34,23.6,7.21,29.69,14.34-.11-.31-.22-.62-.35-.92-3.79-8.68-16.38-14.6-26.47-16.44h0Z"/>
    <path class="st7" d="M-5.07,702.79l.43-1.58c3.05-15.04,9.48-26.75,18.61-33.85,6-4.68,11.91-8.99,18.23-10.45l21.88-5.04-5.33.53-27.44,5.73c-10.08,2.11-20.09,7.36-28.16,13.85-16.36,13.15-22.23,33.04-22.38,53l-.1,12.8.35,14.6H-5.51l.02-41.38.41-8.21h0Z"/>
    <path class="st7" d="M-4.49,16.08c1.05,10.58,5.45,20.39,12.74,28.36,6.71,7.34,15.39,12.53,24.43,14.62l32.93,7.6c7.72,1.78,15.54,3.18,23.08,4.54,11.58,2.07,23.55,4.22,35.26,7.78,7.25,2.2,14.74,4.47,20.27,11.39l.26.32-.29.27c-2.74,2.54-5.31,5.24-5.6,7.76-.4,3.59,1.32,7.37,3.92,8.61l12.72,6.09,23.32,5.59,28.65,6.8c5.15,1.22,9.54,7.04,10.75,8.79,1.82,2.63,2.64,5.65,2.35,8.72-.32,3.37-1.95,6.57-4.58,9-8.74,8.07-19.73,9.88-28.36,10.56l-7.57-.27c-5.96,2.95-12.36,4.47-19.09,5.16l-25.51,2.63c-8.46.87-16.25,2.61-24.06,6.12s-13.8,12.15-10.36,20.24c3.44,8.09,22.14,15.81,32.22,17.36,13.16,2.03,26.13,3.05,39.63,3.19,20.95.23,42.99.15,60.68,10.87,6.12,3.71,7.7,11.98,2.2,17.23-13.74,13.09-40.47,20.09-60.55,24.37-6.52,6.71-17.14,10.78-23.96,12.37-15.7,3.66-32.06,5.91-50.02,6.89-2.33.13-4.61.34-6.83.63-12.39,4.64-23.68,10.48-31.33,18.02-9.6,9.47-12.03,22.42-7,34.76,6.14,15.07,19.94,20.88,35.69,23.21l1.28.27,33.1,3.58c9,.98,18.4,2.54,26.17,6.17,9.12,4.27,13.17,13.68,10.58,22.37-.96,3.21-2.19,6.22-3.87,8.88,2.66,7.46,1.29,16.19-4.08,22.52-3.96,4.66-8.93,7.96-13.98,9.28l-13.29,3.46-33.2,5.65c-13.83,2.35-25.34,4.57-36.91,9.77-15.35,6.91-25.85,15.67-32.1,26.79-6.79,12.08-8.43,26.65-5.02,44.56,3.59,18.85,12.66,32.92,30.31,47.02,4.82,3.85,10.51,8.16,17.11,10.51l27.8,9.92,1.21.16,21.33,3.88c10.6,1.93,23.05,7.89,26.98,16.86.4.91-.46.34-.26,1.27,1.44,2.12.82,5.94.76,8.41-.21,9.65-12.78,15.97-24.06,17.7l-5.87,1.81-22.44,1.76-1.18.62-28.71,2.08-3.24.32-.85.25-26.73,6.16c-6.2,1.43-12.04,5.7-17.98,10.33-11.34,8.83-16.23,23.02-18.33,33.41l-.41,1.46-.41,8.12-.02,39.64v1.73l295.01.03v.93h100.13V-3.49H-4.97l.48,19.57ZM91.5,347.25l1.28.27-1.28-.27Z"/>
    <path class="st7" d="M215.28,151.66c2.49-2.3,4.03-5.3,4.33-8.46.27-2.86-.49-5.67-2.21-8.13-1.19-1.7-5.42-7.34-10.36-8.51l-28.65-6.8-23.35-5.6-12.81-6.12c-2.87-1.37-4.76-5.52-4.33-9.45.3-2.71,2.81-5.44,5.56-8.01-5.37-6.5-12.65-8.71-19.69-10.85-11.68-3.54-23.63-5.69-35.19-7.76-7.56-1.35-15.37-2.76-23.11-4.54l-32.93-7.6c-9.16-2.12-17.97-7.38-24.77-14.82C.35,36.91-4.13,26.93-5.2,16.13l-.48-19.62h-23.5v45.42c.14,14.9,8.66,28.51,19.77,39.05,12.83,12.18,29.58,19.63,46.98,25.17,16.67,5.31,33.15,9.59,50.4,13.41,26.51,5.87,78.49,15.96,95.23,30.98,3.2,2.88,1.38,8.93-1.98,11.29l6.1.22c8.49-.67,19.36-2.45,27.96-10.39h0Z"/>
  </g>
  <g>
    <path class="st4" d="M200.72,391.07l-.8.25.97,3.56.82-.19.33,1.21-.8.24.43,1.57.81-.2.66,2.42-.8.25.87,3.16.82-.19.55,2.01-.79.27,2.72,9.96.82-.16.22.8-.8.26,1.19,4.35.82-.18,1.1,4.03-.8.25,1.08,3.95.82-.19,1.1,4.03.8-.22-12.32-45.12-.8.22.99,3.63h0v.03h-.01ZM148.51,425.99l-1.01.94,26.29,28.12,1.01-.94-26.29-28.12ZM263.86,394.41l-8.02,37.61,1.22.26,8.02-37.61-1.22-.26h0ZM115.27,475.58l-.45,1.11,36.36,14.71.45-1.11s-36.36-14.71-36.36-14.71ZM271,677.49l.83-.1,2.46-.35,6.51-1.72c.34-.09,1.05-.54,1.24-.66l1.66-.23c.48-.07,1.43-.62,1.76-.88l1.89-.7,1.45-.89,2.46-1.66c1.79-1.21,3.44-2.75,4.48-4.6l1.42-2.53c1.52-2.71,1.58-5.9,1.3-8.81l6.67-1.92.94-.56,1.08-.73c1.01-.69,1.7-2.07,2.04-3.25,1.02-3.6-.56-7.77-4.13-9.28l-2.57-1.08,1.69-2.35c1.68-2.33,1.75-5.49.3-8l-.68-1.18c-1.41-2.44-5.12-2.81-5-3.47l.19-1.04c3.37-3.19,3.1-7.96-.37-11.36l-.69-.32-1.39-.97-.91.2-.58.26c.03-.36-.11-.76-.36-.84l-1.48-.47c1.47-2.27,2.43-4.83,1.73-7.66l-1.8-7.31c-1.26-5.14-1.77-10.36-1.36-15.54l.1-1.24c.86-7.33,2.87-14.2,6.21-20.98,7.56-14.81,10.53-31.87,7.27-47.79l-.63-3.08-1.87-6.77c-5.49-16.73-15.49-30.08-30.66-39.7l-10.52-5.45c-34.64-14.37-73.95-.14-91.32,33.48-3.3,6.38-5.29,12.83-6.56,19.83-1.72,9.5-1.43,18.97.5,28.41l1.81,6.98,2.16,5.99c2.1,5.83,5.25,10.98,8.99,15.99,5.27,7.08,11.53,13.09,18.86,17.98,6.77,4.52,13.04,9.48,17.71,16.22l1.06,1.52,1.28,2.01,1.14,2.04.84,1.57.95,1.91,1.61,3.89,2.84,9.31c.69,2.25,2.72,4.48,5.46,5.86-2.43,1.61-3.98,4.3-3.87,7.32.14,3.59,2.32,6.15,5.6,7.4l1.31.5c-2.3,2.05-3.21,4.71-2.88,7.36.37,3.12,2.42,5.67,5.48,6.65l1.19.38c.1-.34-.05.16-.15.54-1.83,1.8-2.84,4.11-2.6,6.61l.1.95.54,1.58.82,1.59c1.87,2.53,5.07,3.7,8.22,3.22l2.25-.34,1.86-.47.86-.54c.15-.1.77-.17.87-.02l.61.99c2.7,4.35,7.09,7.26,12.24,8.25,3.27.63,6.52.41,9.56.05h-.02ZM316.86,422.16l-22.78,29.1.99.78,22.78-29.1-.99-.78ZM111.03,535.24l.16,1.45,36.54-4.19-.16-1.45s-36.54,4.19-36.54,4.19ZM351.87,469.46l-33.32,14.82.58,1.3,33.32-14.82-.58-1.3ZM162.73,572.15l-28.64,20.74.75,1.03,28.64-20.74-.75-1.03ZM326.28,527.51l-.12,1.28,35.2,3.36.12-1.28-35.2-3.36ZM231.72,709.02l.15.38,2.33-.64-.06-.41,104.58-28.75-.29-1.04-109.16,30,.29,1.04,2.16-.59h0ZM253.13,711.82l66.24-18.1-.44-1.61-66.24,18.1.44,1.61h0ZM266.19,714.74l.22.8,43.51-11.89-.22-.8-43.51,11.89h0Z"/>
    <path class="st0" d="M296.52,609.38l-1.09.04-.17-.62-.79.29-2.25.26-.03-.82-.12-.37c3.03-1.26,4.06-4.8,3.11-8.27-2.49-9.02-3.97-17.5-2.51-26.56.91-5.59,2.44-11.01,4.85-16.14l2.55-5.41c6.47-13.76,8.57-29.04,5.75-43.98l-3.43-12.51c-4.46-12.45-12.04-23.08-22.21-31.32l-8.26-5.84c-10.04-5.98-20.93-9.3-32.37-9.98-25.75-1.54-50,11.16-63.73,33.04-3.45,5.51-5.96,11.12-7.75,17.39-8.64,30.32,2.97,62.95,29.04,80.9l2.75,1.9c6.38,4.39,12.09,9.29,16.55,15.57,3.32,4.69,5.87,9.81,7.6,15.31l2.42,7.74c.91,2.9,4.9,5.69,8.04,3.92l.45-.03,3.98-1.06.27,1.02-3.56.95-.51.13-3.07,1.02c-.9.3-2.29,1.43-2.92,2.29-2.06,2.78-1.76,6.4.38,9.06,1.27,1.57,3.3,2.25,5.25,2.2l1.02-.09,1.13-.32.27.71h.43l.05.35c-2.11.35-4.09,1.66-5.12,3.56s-1.11,4.14-.21,6.3c1.25,3.01,4.75,4.74,7.77,3.93l6.8-1.85,11.7-3.19,26.95-7.38,15.25-4.25.5.82-.93.6-7.53,2.07-.3-.32-9.1,2.49.12.38-2.39.65-.3-.34-3.09.84.12.37-3.68,1-.2-.34-4.84,1.29-.14.45-3.19.87-.54.14-3.99,1.11c-.11-.2-.18-.34-.3-.27l-.43.47-1.58.44-.32-.33-13.92,3.8.11.4-.74.18-.58.14-1.52.39-2.47.81c-2.37.78-3.6,3.28-3.87,5.58-.12,2.24.53,4.22,2.35,5.99,1.23,1.04,3.5,2.03,5.49,1.57l3.36-.78,49.7-13.57.5.89-43.93,12.09-2.07.61c2.18,3.82,5.4,6.5,9.41,7.99.24-.02.68-.1.85-.05l2.51.62,1.83.45.56.15,2.53-.16,3.35-.21.3.97c-3.04.36-6.28.58-9.56-.05-5.14-.99-9.54-3.91-12.24-8.25l-.61-.99c-.1-.15-.71-.08-.87.02l-.86.54-1.86.47-2.25.34c-3.14.48-6.35-.69-8.22-3.22l-.82-1.59-.54-1.58-.1-.95c-.25-2.51.77-4.82,2.6-6.61.1-.38.24-.88.15-.54l-1.19-.38c-3.06-.97-5.11-3.53-5.48-6.65-.32-2.66.58-5.32,2.88-7.36l-1.31-.5c-3.28-1.26-5.47-3.81-5.6-7.4-.12-3.02,1.43-5.71,3.87-7.32-2.73-1.38-4.77-3.62-5.46-5.86l-2.84-9.31-1.61-3.89-.95-1.91-.84-1.57-1.14-2.04-1.28-2.01-1.06-1.52c-4.68-6.74-10.94-11.71-17.71-16.22-7.32-4.88-13.59-10.9-18.86-17.98-3.73-5.01-6.89-10.16-8.99-15.99l-2.16-5.99-1.81-6.98c-1.93-9.44-2.22-18.91-.5-28.41,1.27-7,3.26-13.45,6.56-19.83,17.36-33.62,56.67-47.85,91.32-33.48l10.52,5.45c15.17,9.62,25.17,22.97,30.66,39.7l1.87,6.77.63,3.08c3.25,15.92.3,32.98-7.27,47.79-3.35,6.78-5.36,13.65-6.21,20.98l-.1,1.24c-.42,5.18.09,10.4,1.36,15.54l1.8,7.31c.7,2.84-.27,5.39-1.73,7.66l1.48.47c.25.08.4.48.36.84v.03h.07Z"/>
    <path class="st0" d="M299.4,609.9l.36.77c2.53,2.78,2.93,6.74,1,9.94l-.3.97-.19,1.04c-.12.66,3.59,1.03,5,3.47l.68,1.18c1.45,2.51,1.37,5.67-.3,8l-1.69,2.35,2.57,1.08c3.58,1.51,5.16,5.69,4.13,9.28-.34,1.19-1.02,2.57-2.04,3.25l-1.08.73-.94.56-6.67,1.92-1.07.34c.45,6.18-2.46,11.49-7.04,15.44l-.62.54-.91.67-1.51.87-1.11.63-.74.69c-.34.25-1.29.81-1.76.88l-1.66.23.97-.64-.52-.64c7.24-2.71,13.88-8.84,13.84-17.68l-.69-.68-.5-.89c.11-.25.19-.25.39-.09l7.08-2c2.96-.84,4.89-4.02,4.72-7-.27-4.52-4.94-7.39-8.42-6.44l.93-.6-.5-.82c2.71-.76,4.33-4.34,3.99-6.99-.54-4.26-3.88-6.92-8.05-6.32l-56.51,15.41.22-1.22,18.58-5.07,21.74-5.95,14.5-3.93c2.3-.62,4.22-2.03,5.07-4.1,1.34-3.28.21-6.79-2.92-9l-.32-.97.91-.2,1.39.97h.01l-.02.02h0Z"/>
    <rect class="st0" x="227.41" y="693.53" width="113.2" height="1.08" transform="translate(-173.81 100.1) rotate(-15.37)"/>
    <path class="st0" d="M318.89,693.86l-25.45,6.53c-.23-.03-.86-.1-1.06-.15l-15.78,4.34c-.82.77-2.09,1.11-3.14.9l-3.74,1.04c-1.32,1.52-3.81.09-5.16,1.71l-9.9,2.68-1.76.11-.22-.8,66.24-18.1.44,1.61-.48.13h.01Z"/>
    <rect class="st0" x="160.45" y="421.27" width="1.38" height="38.49" transform="translate(-257.44 228.82) rotate(-43.08)"/>
    <rect class="st0" x="241.23" y="412.74" width="38.46" height="1.24" transform="translate(-198.13 581.87) rotate(-77.96)"/>
    <rect class="st0" x="110.99" y="533.14" width="36.78" height="1.46" transform="translate(-59.96 18.21) rotate(-6.54)"/>
    <rect class="st0" x="317.27" y="476.79" width="36.47" height="1.42" transform="translate(-165.16 177.66) rotate(-23.99)"/>
    <rect class="st0" x="132.11" y="462.95" width="1.19" height="39.22" transform="translate(-364.41 424.66) rotate(-67.98)"/>
    <rect class="st0" x="287.48" y="436.48" width="36.97" height="1.26" transform="translate(-226.83 408.64) rotate(-51.95)"/>
    <rect class="st0" x="131.11" y="582.39" width="35.36" height="1.27" transform="translate(-313.61 198) rotate(-35.9)"/>
    <rect class="st0" x="343.17" y="512.15" width="1.29" height="35.36" transform="translate(-216.33 821.67) rotate(-84.54)"/>
    <rect class="st1" x="205.87" y="386.5" width=".84" height="46.77" transform="translate(-100.73 68.85) rotate(-15.28)"/>
    <path class="st5" d="M318.89,693.86l-65.76,17.97-.22-.8,1.76-.11,9.9-2.68c1.35-1.62,3.84-.19,5.16-1.71l3.74-1.04c1.05.21,2.31-.13,3.14-.9l15.78-4.34c.21.05.83.12,1.06.15l25.45-6.53h-.01Z"/>
    <rect class="st0" x="265.51" y="708.79" width="45.1" height=".84" transform="translate(-176.72 100.99) rotate(-15.28)"/>
    <path class="st2" d="M299.94,654.44c.27,2.91.21,6.1-1.3,8.81l-1.42,2.53c-1.04,1.85-2.7,3.39-4.48,4.6l-2.46,1.66-1.45.89-1.89.7.74-.69,1.11-.63,1.51-.87.91-.67.62-.54c4.58-3.94,7.49-9.26,7.04-15.44l1.07-.34h0Z"/>
    <path class="st8" d="M283.97,673.47l.52.64-.97.64c-.18.12-.89.56-1.24.66l-6.51,1.72-2.46.35-.23-.95,8.58-2.2,2.3-.87h.01Z"/>
    <polygon class="st5" points="204.57 405.16 207.32 415.23 206.5 415.4 203.77 405.44 204.57 405.16"/>
    <polygon class="st5" points="207.54 416.04 208.75 420.47 207.93 420.65 206.75 416.3 207.54 416.04"/>
    <polygon class="st5" points="209.85 424.5 210.95 428.53 210.13 428.71 209.05 424.76 209.85 424.5"/>
    <polygon class="st5" points="200.72 391.07 201.71 394.69 200.89 394.88 199.92 391.32 200.72 391.07"/>
    <polygon class="st5" points="203.13 399.93 204.01 403.15 203.2 403.33 202.34 400.18 203.13 399.93"/>
    <polygon class="st5" points="202.04 395.9 202.47 397.51 201.66 397.71 201.24 396.14 202.04 395.9"/>
    <polygon class="st5" points="234.14 708.35 234.21 708.76 231.88 709.4 231.72 709.02 234.14 708.35"/>
    <path class="st9" d="M273.08,676.53l.23.95-.83.1-.3-.97c.12-.1.57-.48.56-.48s.28.33.34.41h0Z"/>
    <path class="st2" d="M292.08,608.17l.12.37-.85.21-5.23,1.29-12.04,3.14-4-17.78c-1.7-7.55-1.81-15.17-1.06-22.88l.45-2.78c.84-5.23,2.11-10.41,5.31-14.66l1.98-2.62.51-.67c.1-.14-.53-.45-.84-.58-2.63,2.79-4.45,5.83-5.86,9.31-2.28,6.32-3.21,12.8-3.09,19.64.15,8.51,1.3,16.73,3.34,24.95l2.09,8.43-20.82,5.69-3.72-12.64c-1.98-6.73-4.79-12.97-8.19-19.01-3.91-6.96-10.09-13.88-17.2-17.45l-6.91-2.46-.48,1.11c15.4,3.3,24.3,18.35,29.6,32.21l4.89,15.55.79,3.01-11.97,3.3-3.98,1.06-.45.03-.91-1.17c-.76-.87-1.63-2.3-2-3.43l-3.19-9.97c-2.16-6.75-8.95-16.27-14.86-20.93l-3.52-2.78-7.97-5.77c-4.12-2.99-7.85-6.17-11.38-9.79-7.55-7.73-15.26-19.38-17.65-29.89l-2.34-10.23c-1.82-12.73-.14-25.47,4.95-37.22l2.22-4.61,2.36-4.07,1.66-2.49c4.55-6.8,10.33-12.38,16.97-17.12,5.47-3.9,11.32-6.8,17.76-9.02l10.33-2.53c7-1.26,13.9-1.3,20.95-.33l10.54,2.44,5.87,2.2,3.53,1.64c12.53,5.83,26.72,20.74,31.34,33.27l2.84,7.68c4.39,13.83,4.74,28.4.3,42.02l-2.44,7.48-.75,1.9-.94,2.2-1.04,2.45-.95,2.2-1.7,3.83-.69,1.56-1.08,3.21c-3.19,9.52-3.25,19.49-.82,29.34l1.61,6.54c.37,1.51-.41,3.72-1.06,4.97l-.32.65h0Z"/>
    <path class="st2" d="M292.47,608.68l-6.3,1.56-12.25,3.2-4.05-18c-1.54-6.87-1.9-14.37-1.06-22.95l.45-2.79c.78-4.81,2.01-10.32,5.36-14.76l2.41-3.19c-.1-.08-.31-.19-.55-.3-2.43,2.6-4.25,5.51-5.71,9.14-2.2,6.09-3.2,12.49-3.08,19.55.15,8.33,1.24,16.47,3.34,24.9l2.14,8.62-21.22,5.8-3.78-12.84c-1.85-6.28-4.52-12.49-8.17-18.97-4.31-7.66-10.7-14.15-17.11-17.36l-6.71-2.39-.3.7c12.44,2.78,22.37,13.64,29.5,32.28l4.9,15.57.84,3.23-12.17,3.35-4.03,1.07-.56.03-.97-1.26c-.69-.8-1.63-2.23-2.03-3.49l-3.19-9.97c-2.12-6.64-8.9-16.18-14.8-20.83l-3.52-2.78-7.96-5.77c-4.22-3.06-7.95-6.27-11.41-9.81-6.54-6.7-15.1-18.57-17.71-29.98l-2.34-10.23c-1.82-12.75-.1-25.66,4.96-37.35l2.22-4.63,2.37-4.09,1.67-2.49c4.33-6.47,9.9-12.09,17.02-17.17,5.31-3.8,11.14-6.76,17.81-9.04l10.34-2.54c6.83-1.23,13.7-1.33,21.04-.34l10.55,2.44,5.89,2.21,3.54,1.65c12.74,5.93,26.84,20.91,31.45,33.39l2.84,7.68c4.54,14.29,4.64,28.86.3,42.16l-2.44,7.48-.76,1.91-2.94,6.87-2.4,5.39-1.07,3.2c-3.07,9.14-3.34,18.97-.81,29.22l1.61,6.54c.37,1.52-.34,3.7-1.07,5.12l-.28.57.16.5h.04,0ZM274.24,612.93l11.84-3.09,5.86-1.45-.08-.23.36-.73c.56-1.09,1.41-3.32,1.04-4.83l-1.61-6.54c-2.55-10.33-2.27-20.24.82-29.46l1.08-3.21,2.4-5.41,2.93-6.85.75-1.89,2.44-7.46c4.31-13.21,4.21-27.7-.3-41.89l-2.83-7.67c-4.57-12.39-18.58-27.26-31.23-33.16l-3.53-1.64-5.86-2.2-10.51-2.43c-7.26-.99-14.1-.89-20.87.33l-10.31,2.53c-6.61,2.27-12.4,5.21-17.68,8.99-7.08,5.05-12.61,10.64-16.92,17.07l-1.66,2.49-2.36,4.06-2.21,4.6c-5.03,11.61-6.74,24.44-4.94,37.1l2.33,10.22c2.59,11.33,11.1,23.12,17.6,29.78,3.44,3.53,7.16,6.72,11.36,9.76l7.97,5.77,3.53,2.78c5.95,4.7,12.79,14.33,14.93,21.04l3.19,9.97c.36,1.15,1.26,2.55,1.96,3.35l.85,1.09.32-.02,3.96-1.06,11.77-3.24-.73-2.82-4.89-15.54c-7.13-18.61-17.03-29.41-29.45-32.06l-.25-.05.66-1.52,7.1,2.53c6.5,3.26,12.96,9.82,17.31,17.54,3.67,6.51,6.35,12.74,8.21,19.05l3.67,12.44,20.43-5.58-2.05-8.23c-2.1-8.47-3.2-16.64-3.35-25-.13-7.12.89-13.57,3.1-19.71,1.5-3.74,3.38-6.71,5.9-9.38l.1-.1.13.05c.41.16.9.42.97.67.02.08,0,.16-.04.23l-2.49,3.29c-3.29,4.36-4.51,9.81-5.28,14.57l-.45,2.78c-.82,8.51-.48,15.98,1.06,22.8l3.95,17.57h-.01,0Z"/>
    <path class="st2" d="M239.16,639.57l1.08-.21,56.51-15.41c4.17-.6,7.51,2.05,8.05,6.32.34,2.65-1.28,6.23-3.99,6.99l-15.25,4.25-26.95,7.38-11.7,3.19-6.8,1.85-.73-.19-2.27-1.26c-.35-.19-1.05-.97-1.26-1.33l-.69-1.21c-1.37-2.39-1.12-5.53.71-7.57l1.9-2.12c.65.55.16.14-.11-.1l-.05-.36,1.54-.23h.01Z"/>
    <path class="st0" d="M286.12,610.04l.21.95-47.16,12.88-.27-1.02,11.97-3.3-.79-3.01-4.89-15.55c-5.3-13.86-14.2-28.91-29.6-32.21l.48-1.11,6.91,2.46c7.11,3.57,13.28,10.5,17.2,17.45,3.41,6.04,6.21,12.28,8.19,19.01l3.72,12.64,20.82-5.69-2.09-8.43c-2.05-8.23-3.19-16.44-3.34-24.95-.12-6.85.81-13.32,3.09-19.64,1.41-3.48,3.23-6.52,5.86-9.31.31.13.94.44.84.58l-.51.67-1.98,2.62c-3.21,4.26-4.48,9.43-5.31,14.66l-.45,2.78c-.75,7.7-.64,15.34,1.06,22.88l4,17.78,12.04-3.14h0Z"/>
    <path class="st3" d="M286.47,611.07l-47.39,12.94-.34-1.26.12-.03,11.84-3.26-.76-2.9-4.89-15.54c-7.14-18.65-17.07-29.46-29.51-32.13l-.15-.03.58-1.36,7.02,2.51c6.47,3.25,12.92,9.79,17.26,17.51,3.66,6.5,6.34,12.73,8.2,19.04l3.69,12.52,20.59-5.63-2.07-8.31c-2.1-8.46-3.2-16.63-3.34-24.98-.13-7.11.89-13.55,3.1-19.68,1.5-3.72,3.37-6.69,5.88-9.35l.06-.06.08.03c.2.08.86.37.92.61.01.05,0,.12-.03.16l-2.49,3.29c-3.3,4.37-4.52,9.84-5.29,14.6l-.45,2.78c-.82,8.53-.48,16,1.06,22.83l3.98,17.66,12.04-3.14.25,1.19h.04,0ZM239.26,623.71l46.92-12.81-.15-.7-12.04,3.14-.03-.12-4-17.78c-1.54-6.86-1.89-14.36-1.06-22.92l.45-2.79c.77-4.8,2.01-10.29,5.34-14.71l2.46-3.25c-.08-.08-.35-.25-.68-.39-2.46,2.62-4.29,5.55-5.77,9.21-2.2,6.1-3.21,12.51-3.08,19.59.15,8.34,1.24,16.49,3.34,24.92l2.12,8.55-21.06,5.75-3.76-12.76c-1.85-6.29-4.53-12.5-8.18-18.98-4.32-7.67-10.73-14.18-17.14-17.4l-6.79-2.42-.37.87c12.46,2.74,22.4,13.59,29.54,32.26l4.9,15.56.82,3.14-.12.03-11.84,3.26.21.78h0l-.03-.03h0Z"/>
    <path class="st6" d="M235.11,624.93l.18.43c-3.93,1.48-6.04,6.09-4.11,10.1.74,1.54,2.16,2.81,3.72,3.49l.88.45-1.02.09c-1.95.05-3.98-.62-5.25-2.2-2.15-2.66-2.44-6.28-.38-9.06.64-.86,2.02-1.98,2.92-2.29l3.07-1.02h0Z"/>
    <polygon class="st0" points="291.35 608.74 291.53 609.56 286.33 610.98 286.12 610.04 291.35 608.74"/>
    <polygon class="st9" points="239.16 639.57 237.61 639.8 237.18 639.81 236.91 639.09 239.19 638.45 239.16 639.57"/>
    <path class="st9" d="M295.43,609.43l-.63.03c-.13,0-.21-.09-.33-.36l.79-.29.17.62h0Z"/>
    <polygon class="st9" points="235.29 625.37 235.11 624.93 235.62 624.81 235.29 625.37"/>
    <path class="st2" d="M243.58,654.22l.58-.14.74-.18,14.13-3.87,1.58-.44.73-.21,3.99-1.11.54-.14,3.19-.87,5.18-1.41,3.68-1,3.27-.89,2.39-.65,9.29-2.56,7.53-2.07c3.47-.95,8.16,1.92,8.42,6.44.17,2.99-1.76,6.17-4.72,7l-7.08,2c-.21-.16-.28-.16-.39.09l-49.7,13.57-3.36.78-.52-.36c-.43-.19-1.45-.65-1.8-.95-2.29-1.98-3.52-4.94-2.72-7.74.46-1.6,1.52-3.12,2.81-4.14l.73-.76,1.52-.39h-.01Z"/>
    <path class="st2" d="M297.12,655.11l.69.68c.03,8.84-6.61,14.97-13.84,17.68l-2.3.87-8.58,2.2c-.06-.08-.36-.4-.34-.41.02,0-.43.38-.56.48l-3.35.21-2.53.16-.56-.15-1.83-.45-2.51-.62c-2.15-2.05-6.54-4.56-7.75-7.37l-.45-1.17,43.93-12.09h0l-.02-.02h0Z"/>
    <path class="st6" d="M237.67,640.16c.27.23.76.65.11.1l-1.9,2.12c-1.83,2.04-2.08,5.18-.71,7.57l.69,1.21c.21.36.91,1.14,1.26,1.33l2.27,1.26.73.19c-3.01.82-6.52-.92-7.77-3.93-.9-2.16-.81-4.42.21-6.3s3.01-3.21,5.12-3.56h0Z"/>
    <path class="st6" d="M242.06,654.61l-.73.76c-1.28,1.01-2.35,2.54-2.81,4.14-.8,2.8.43,5.75,2.72,7.74.36.31,1.37.76,1.8.95l.52.36c-1.98.46-4.26-.53-5.49-1.57-1.82-1.76-2.46-3.75-2.35-5.99.27-2.31,1.5-4.81,3.87-5.58l2.47-.81h0Z"/>
    <path class="st6" d="M253.19,667.19l.45,1.17c1.22,2.81,5.6,5.31,7.75,7.37-.18-.04-.62.03-.85.05-4.01-1.48-7.23-4.15-9.41-7.99l2.07-.61h0Z"/>
    <polygon class="st9" points="259.03 650.02 244.9 653.89 244.79 653.49 258.71 649.69 259.03 650.02"/>
    <polygon class="st0" points="292.87 640.75 283.58 643.31 283.46 642.93 292.56 640.44 292.87 640.75"/>
    <polygon class="st9" points="274.25 645.84 269.07 647.25 269.21 646.8 274.05 645.5 274.25 645.84"/>
    <polygon class="st9" points="281.19 643.96 277.93 644.85 277.81 644.48 280.9 643.63 281.19 643.96"/>
    <path class="st9" d="M261.34,649.38l-.73.21.43-.47c.12-.08.19.07.3.27h0Z"/>
    <path class="st9" d="M266.3,676.96l-.56-.15.56.15Z"/>
    <path class="st9" d="M265.87,648.11l-.54.14.54-.14Z"/>
    <path class="st9" d="M244.16,654.07l-.58.14.58-.14Z"/>
    <path class="st0" d="M241.68,557.05l-7.79-1.12,1.67-11.53c-1.58-.23-3.19-.48-4.88-.75l-1.67,11.58-7.78-1.13,1.69-11.71c-.48-.08-.96-.15-1.45-.22-1.06-.16-2.13-.33-3.21-.49l-9.61-1.39,2.85-8.94.32.05c1.27.2,3.11.49,4.19.64l-.03-.04.96.13c1.66.24,2.32-.79,2.57-1.69v-.06l4.57-31.55c-.1-1.87-1.2-2.98-3.29-3.29l-.83-.12.04-.03c-1.05-.16-3-.41-4.32-.58l-.38-.05,1.2-8.27,14.2,2.03,1.67-11.58,7.78,1.13-1.64,11.34c1.62.2,3.28.41,4.9.64l1.63-11.27,7.79,1.12-1.68,11.61c6.91,1.66,15.79,5.02,15.33,14.71-.26,5.44-2.65,9.14-7.11,10.99,6.82,3.05,9.22,8.32,7.35,16.09-2.87,11.98-12.88,12.92-23.35,12.05l-1.69,11.7h0ZM234.74,555.29l6.3.91,1.69-11.66.35.03c17.36,1.5,21.27-4.61,22.9-11.45,1.87-7.78-.6-12.74-7.78-15.59l-.95-.37.97-.33c4.72-1.6,7.24-5.19,7.5-10.64.33-7.07-4.45-11.53-15.09-14.02l-.34-.08,1.67-11.54-6.3-.91-1.63,11.27-.37-.06c-1.74-.24-3.54-.47-5.29-.68l-.72-.09,1.64-11.35-6.29-.91-1.67,11.58-14.2-2.03-.98,6.77c3.15.39,4.3.55,4.74.69h0c2.43.35,3.83,1.78,3.93,4.03v.07l-4.65,32.17-.08-.04c-.35.86-1.21,2.13-3.27,1.84h0c-.47,0-1.65-.19-4.81-.69l-2.38,7.48,8.73,1.26c1.08.16,2.15.33,3.22.49.61.1,1.21.19,1.81.28l.37.06-1.69,11.7,6.29.91,1.67-11.59.38.06c1.96.32,3.8.6,5.62.86l.37.06-1.67,11.52h.01ZM244.72,536.08c-4.06.41-8.68-.32-11.64-.79-.51-.09-.98-.16-1.37-.21l-.37-.06,2.35-16.24.37.06c.48.06,1.06.13,1.72.21,4.47.54,12.79,1.54,15.99,5.72,1.11,1.45,1.53,3.16,1.25,5.1l-.05.29c-.31,1.69-1.15,3.04-2.48,4.03-1.52,1.12-3.55,1.68-5.75,1.9h-.02ZM232.18,534.39c.3.05.64.1,1.01.16,4.46.7,12.77,2.03,16.83-.97,1.25-.92,2-2.21,2.23-3.82l.05-.29c.16-1.61-.22-3.04-1.14-4.24-3-3.93-11.13-4.9-15.48-5.42-.5-.06-.96-.12-1.36-.17l-2.14,14.77h0v-.02ZM245.52,513.29c-3.33.33-7.02-.26-9.41-.64-.43-.07-.82-.14-1.15-.18l-.37-.06,2.14-14.8.37.06c.4.05.89.11,1.44.17,3.65.43,10.42,1.23,13.18,4.81.95,1.24,1.36,2.71,1.21,4.37h0l-.06.47c-.25,1.76-1.06,3.15-2.39,4.13-1.34.99-3.1,1.47-4.97,1.66h0ZM235.44,511.78l.79.13c3.61.58,10.34,1.67,13.81-.88,1.1-.81,1.78-1.94,2.05-3.36l.05-.27c.24-1.66-.1-3.1-1.01-4.28-2.56-3.33-9.14-4.1-12.67-4.52-.4-.05-.76-.09-1.08-.13l-1.92,13.33h0l-.02-.02h0Z"/>
  </g>
  <polygon class="st7" points="75 651.28 78.14 650.96 75.4 651.16 75 651.28"/>
  <path class="st4" d="M51.04,311.89l-.21.22c-6.93,7.37-10.27,18.46-8.93,29.68,1.27,10.61,6.21,19.46,14.68,26.28,6.99,5.63,16.35,9.78,27.06,12.01l33.79,7.02,22.27,4.47c5.99,1.2,11.7,4.46,15.26,8.72,1.68,2,2.93,4.26,3.77,6.65,1.69-2.66,2.91-5.67,3.87-8.88,2.6-8.69-1.45-18.1-10.58-22.37-7.77-3.63-17.17-5.19-26.17-6.17l-33.1-3.58-1.28-.27c-15.75-2.33-29.55-8.14-35.69-23.21-5.03-12.34-2.6-25.29,7-34.76,7.65-7.54,18.94-13.38,31.33-18.02-11.9,1.54-22.32,5.4-31.7,11.73-4.16,2.81-7.67,6.54-11.38,10.49h.01Z"/>
  <path class="st4" d="M125.57,160.54h-3.31l-24.17,1.39c-7.12.41-14.23,3.13-21.72,8.33-6.87,4.76-10.78,14.52-9.1,22.72,2.41,11.78,11.29,20.65,27.14,27.11,13.36,5.45,28.89,7.97,40.22,9.81,12.41,2.02,26.98,5.14,40.81,13.01,4.41,2.51,6.02,12.62,4.73,17.9-.82,3.39-2.73,6.38-5.25,8.97,20.07-4.28,46.81-11.28,60.55-24.37,5.5-5.25,3.93-13.52-2.2-17.23-17.69-10.72-39.73-10.64-60.68-10.87-13.49-.14-26.46-1.16-39.63-3.19-10.07-1.55-28.77-9.27-32.22-17.36s2.55-16.73,10.36-20.24,15.6-5.25,24.06-6.12l25.51-2.63c6.73-.69,13.13-2.21,19.09-5.16l-37.26-1.33-16.97-.74h0Z"/>
  <path class="st7" d="M157.37,628.72c-4.15,9.91-11.96,13.71-17.78,15.14l-1.04.26c10.95-1.73,21.73-7.5,21.92-17.16.05-2.48-.75-4.77-2.15-6.89.59,2.84.27,5.74-.95,8.65h0Z"/>
  <path class="st4" d="M290.17,753.34v-.93l-295.01-.03v.36h-.67v-.36h-23.49l-.35-14.6.1-12.8c.15-19.96,6.02-39.85,22.38-53,8.07-6.49,18.08-11.74,28.16-13.85l27.44-5.73,5.33-.53,4.83-1.12,1.27-.37,30.8-2.23.77-.09,1.1-.58,11.86-.93,13.93-1.62,7.71-1.85c5.86-1.4,13.7-5.1,17.87-14.73,1.43-3.31,1.57-6.59.43-9.77-6.09-7.13-19.31-12-29.69-14.34l-23.49-4.21c-20.81-3.45-40.97-7.04-60.89-14.22-9.44-3.4-17.71-9.48-24.73-15.96-7.68-7.09-10.94-15.06-13.28-24.77-1.74-7.23-2.76-14.2-1.88-21.42l.14-1.15c1.54-12.5,5.73-24.28,13.41-34.9s13.99-20.62,24.6-28.08c8.01-5.64,16.61-11.36,25.82-14.96,23.63-9.24,47.39-14.83,71.91-20.71,8.28-1.99,16.08-5.37,23.42-8.99,3.61-1.77,6.26-4.26,8.28-7.22-.81-2.46-2.07-4.78-3.78-6.83-3.46-4.14-9.03-7.32-14.9-8.5l-22.28-4.47-33.8-7.02c-10.81-2.25-20.27-6.44-27.33-12.13-8.64-6.96-13.67-15.99-14.97-26.83-1.37-11.47,2.05-22.83,9.14-30.38l.21-.22c3.74-3.98,7.28-7.74,11.49-10.59,10.34-6.98,21.94-10.98,35.35-12.2,14.76-5.2,30.75-8.79,43.88-11.57l32.27-6.84c2.87-2.7,5.05-5.86,5.94-9.5,1.09-4.47.02-14.46-4.37-16.96-13.76-7.82-28.25-10.93-40.62-12.94-23.31-3.79-62.33-10.12-67.94-37.53-1.74-8.52,2.31-18.66,9.42-23.59,7.6-5.26,14.8-8.02,22.03-8.44l24.19-1.39h3.33l16.98.73,38.69,1.38c3.35-2.36,5.18-8.41,1.98-11.29-16.74-15.02-68.72-25.11-95.23-30.98-17.25-3.82-33.73-8.1-50.4-13.41-17.4-5.54-34.14-12.99-46.98-25.17-11.11-10.54-19.63-24.15-19.77-39.05V-3.49H-5.68l-.04-1.76.73.81.02.95h395.27v-1.78H-36.63v760.95h426.93v-2.34h-100.13ZM-9.16,504.08l-.14,1.15.14-1.15Z"/>
  <path class="st4" d="M150.82,281.35c6.43-1.5,16.31-5.22,22.74-11.28l-32.27,6.84c-13.13,2.78-29.12,6.37-43.88,11.57,1.15-.11,2.32-.2,3.49-.26,17.92-.97,34.25-3.22,49.92-6.87h0Z"/>
  <polygon class="st4" points="105.9 648.06 105.15 648.15 105.83 648.1 105.9 648.06"/>
  <path d="M-4.82,711.01l.41-8.12.41-1.46c2.1-10.39,6.99-24.58,18.33-33.41,5.94-4.63,11.78-8.9,17.98-10.33l26.73-6.16.85-.25.41-.12,2.82-.2,28.71-2.08,1.18-.62,22.44-1.76,9.95-2.38,1.07-.26c6-1.43,14.05-5.23,18.33-15.14,1.26-2.92,1.59-5.82.98-8.65-.2-.93-.49-1.85-.9-2.76-3.93-8.97-16.38-14.93-26.98-16.86l-21.33-3.88-1.21-.16-27.8-9.92c-6.6-2.35-12.29-6.66-17.11-10.51-17.65-14.1-26.72-28.17-30.31-47.02-3.41-17.91-1.77-32.48,5.02-44.56,6.25-11.12,16.75-19.88,32.1-26.79,11.57-5.2,23.07-7.42,36.91-9.77l33.2-5.65,13.29-3.46c5.05-1.32,10.02-4.62,13.98-9.28,5.37-6.33,6.74-15.06,4.08-22.52-.85-2.38-2.1-4.64-3.77-6.65-3.56-4.26-9.27-7.52-15.26-8.72l-22.27-4.47-33.79-7.02c-10.71-2.23-20.07-6.38-27.06-12.01-8.47-6.82-13.41-15.67-14.68-26.28-1.34-11.22,2-22.31,8.93-29.68l.21-.22c3.71-3.95,7.22-7.68,11.38-10.49,9.38-6.33,19.8-10.19,31.7-11.73,2.23-.29,4.5-.51,6.83-.63,17.96-.98,34.32-3.23,50.02-6.89,6.81-1.59,17.45-5.66,23.96-12.37,2.52-2.59,4.41-5.58,5.25-8.97,1.29-5.28-.32-15.39-4.73-17.9-13.83-7.87-28.4-10.99-40.81-13.01-11.34-1.84-26.86-4.36-40.22-9.81-15.85-6.46-24.73-15.33-27.14-27.11-1.68-8.2,2.24-17.96,9.1-22.72,7.49-5.2,14.6-7.92,21.72-8.33l24.17-1.39h3.31l16.97.74,37.26,1.33,7.57.27c8.63-.68,19.62-2.49,28.36-10.56,2.63-2.43,4.26-5.63,4.58-9,.29-3.07-.53-6.09-2.35-8.72-1.22-1.75-5.6-7.57-10.75-8.79l-28.65-6.8-23.32-5.59-12.72-6.09c-2.6-1.24-4.32-5.02-3.92-8.61.29-2.52,2.86-5.22,5.6-7.76l.29-.27-.26-.32c-5.53-6.92-13.02-9.19-20.27-11.39-11.71-3.56-23.68-5.71-35.26-7.78-7.55-1.36-15.36-2.76-23.08-4.54l-32.93-7.6c-9.04-2.09-17.72-7.28-24.43-14.62C.97,36.46-3.44,26.65-4.49,16.07l-.48-19.57-.02-.95-.73-.81.04,1.76.48,19.62c1.07,10.8,5.55,20.78,12.96,28.88,6.8,7.44,15.61,12.7,24.77,14.82l32.93,7.6c7.74,1.78,15.56,3.19,23.11,4.54,11.57,2.07,23.51,4.22,35.19,7.76,7.04,2.14,14.32,4.35,19.69,10.85-2.74,2.57-5.26,5.3-5.56,8.01-.43,3.93,1.46,8.08,4.33,9.45l12.81,6.12,23.35,5.6,28.65,6.8c4.94,1.17,9.17,6.81,10.36,8.51,1.71,2.46,2.47,5.27,2.21,8.13-.3,3.16-1.83,6.16-4.33,8.46-8.6,7.94-19.46,9.72-27.96,10.39l-6.1-.22-38.69-1.38-16.98-.73h-3.33l-24.19,1.39c-7.23.42-14.43,3.18-22.03,8.44-7.11,4.93-11.16,15.07-9.42,23.59,5.61,27.41,44.63,33.74,67.94,37.53,12.37,2.01,26.85,5.12,40.62,12.94,4.39,2.5,5.46,12.49,4.37,16.96-.89,3.64-3.07,6.8-5.94,9.5-6.43,6.05-16.31,9.78-22.74,11.28-15.67,3.65-32,5.9-49.92,6.87-1.19.06-2.34.16-3.49.26-13.41,1.22-25.01,5.22-35.35,12.2-4.22,2.85-7.75,6.61-11.49,10.59l-.21.22c-7.09,7.55-10.51,18.91-9.14,30.38,1.3,10.84,6.33,19.87,14.97,26.83,7.06,5.69,16.51,9.88,27.33,12.13l33.8,7.02,22.28,4.47c5.87,1.18,11.43,4.36,14.9,8.5,1.71,2.05,2.97,4.37,3.78,6.83,2.34,7.07.97,15.25-4.09,21.22-3.88,4.56-8.72,7.77-13.65,9.06l-13.27,3.46-33.17,5.64c-13.88,2.36-25.42,4.58-37.05,9.81-15.49,6.97-26.1,15.83-32.43,27.1-6.9,12.27-8.58,27.05-5.12,45.17,3.59,18.82,13.02,33.47,30.6,47.51,4.87,3.88,10.62,8.23,17.3,10.61l27.9,9.94,1.23.17,21.32,3.88c10.09,1.84,22.68,7.76,26.47,16.44.13.31.24.62.35.92,1.13,3.17.99,6.46-.43,9.77-4.16,9.63-12.01,13.33-17.87,14.73l-7.71,1.85-3.29.79-10.64.83-11.86.93-1.1.58-.07.04-.7.05-30.8,2.23-1.27.37-4.83,1.12-21.88,5.04c-6.32,1.46-12.23,5.77-18.23,10.45-9.12,7.1-15.56,18.81-18.61,33.85l-.43,1.58-.41,8.21-.02,41.38v.36h.67v-2.09l.02-39.64h0Z"/>
</svg>