<?xml version="1.0" encoding="UTF-8"?>
<svg id="Layer_1" xmlns="http://www.w3.org/2000/svg" version="1.1" viewBox="0 0 390.25 602.76">
  <!-- Generator: Adobe Illustrator 30.3.0, SVG Export Plug-In . SVG Version: 2.1.3 Build 182)  -->
  <defs>
    <style>
      .st0 {
        fill: #010101;
      }

      .st1 {
        fill: #171311;
      }

      .st2 {
        fill: #f79420;
      }

      .st3 {
        fill: #f49221;
      }

      .st4 {
        fill: #e8dfcd;
      }

      .st5 {
        fill: #f7ecdb;
      }

      .st6 {
        fill: #e1d4c4;
      }

      .st7 {
        fill: #f7931b;
      }

      .st8 {
        fill: #22211c;
      }

      .st9 {
        fill: #2a1b0f;
      }
    </style>
  </defs>
  <g>
    <path class="st7" d="M117.82,371.22l-21.32-3.88-1.23-.17-27.9-9.94c-6.68-2.38-12.43-6.73-17.3-10.61-17.58-14.04-27.01-28.69-30.6-47.51-3.45-18.12-1.77-32.9,5.12-45.17,6.33-11.27,16.94-20.13,32.43-27.1,11.63-5.23,23.17-7.45,37.05-9.81l33.17-5.64,13.27-3.46c4.93-1.29,9.77-4.5,13.65-9.06,5.06-5.97,6.43-14.15,4.09-21.22-2.02,2.96-4.67,5.45-8.28,7.22-7.34,3.62-15.14,7-23.42,8.99-24.52,5.88-48.29,11.47-71.91,20.71-9.22,3.6-17.81,9.32-25.82,14.96-10.61,7.46-16.92,17.46-24.6,28.08s-11.88,22.4-13.41,34.9l-.14,1.15c-.89,7.22.13,14.19,1.88,21.42,2.34,9.71,5.6,17.68,13.28,24.77,7.02,6.48,15.29,12.56,24.73,15.96,19.93,7.18,40.08,10.77,60.89,14.22l23.49,4.21c10.38,2.34,23.6,7.21,29.69,14.34-.11-.31-.22-.62-.35-.92-3.79-8.68-16.38-14.6-26.47-16.44h.01Z"/>
    <path class="st7" d="M-5.07,472.79l.43-1.58c3.05-15.04,9.48-26.75,18.61-33.85,6-4.68,11.91-8.99,18.23-10.45l21.88-5.04-5.33.53-27.44,5.73c-10.08,2.11-20.09,7.36-28.16,13.85-16.36,13.15-22.23,33.04-22.38,53l-.1,12.8.35,14.6H-5.51l.02-41.38.41-8.21h.01Z"/>
    <path class="st7" d="M-4.49-213.92c1.05,10.58,5.45,20.39,12.74,28.36,6.71,7.34,15.39,12.53,24.43,14.62l32.93,7.6c7.72,1.78,15.54,3.18,23.08,4.54,11.58,2.07,23.55,4.22,35.26,7.78,7.25,2.2,14.74,4.47,20.27,11.39l.26.32-.29.27c-2.74,2.54-5.31,5.24-5.6,7.76-.4,3.59,1.32,7.37,3.92,8.61l12.72,6.09,23.32,5.59,28.65,6.8c5.15,1.22,9.54,7.04,10.75,8.79,1.82,2.63,2.64,5.65,2.35,8.72-.32,3.37-1.95,6.57-4.58,9-8.74,8.07-19.73,9.88-28.36,10.56l-7.57-.27c-5.96,2.95-12.36,4.47-19.09,5.16l-25.51,2.63c-8.46.87-16.25,2.61-24.06,6.12s-13.8,12.15-10.36,20.24c3.44,8.09,22.14,15.81,32.22,17.36,13.16,2.03,26.13,3.05,39.63,3.19,20.95.23,42.99.15,60.68,10.87,6.12,3.71,7.7,11.98,2.2,17.23-13.74,13.09-40.47,20.09-60.55,24.37-6.52,6.71-17.14,10.78-23.96,12.37-15.7,3.66-32.06,5.91-50.02,6.89-2.33.13-4.61.34-6.83.63-12.39,4.64-23.68,10.48-31.33,18.02-9.6,9.47-12.03,22.42-7,34.76,6.14,15.07,19.94,20.88,35.69,23.21l1.28.27,33.1,3.58c9,.98,18.4,2.54,26.17,6.17,9.12,4.27,13.17,13.68,10.58,22.37-.96,3.21-2.19,6.22-3.87,8.88,2.66,7.46,1.29,16.19-4.08,22.52-3.96,4.66-8.93,7.96-13.98,9.28l-13.29,3.46-33.2,5.65c-13.83,2.35-25.34,4.57-36.91,9.77-15.35,6.91-25.85,15.67-32.1,26.79-6.79,12.08-8.43,26.65-5.02,44.56,3.59,18.85,12.66,32.92,30.31,47.02,4.82,3.85,10.51,8.16,17.11,10.51l27.8,9.92,1.21.16,21.33,3.88c10.6,1.93,23.05,7.89,26.98,16.86.4.91-.46.34-.26,1.27,1.44,2.12.82,5.94.76,8.41-.21,9.65-12.78,15.97-24.06,17.7l-5.87,1.81-22.44,1.76-1.18.62-28.71,2.08-3.24.32-.85.25-26.73,6.16c-6.2,1.43-12.04,5.7-17.98,10.33-11.34,8.83-16.23,23.02-18.33,33.41l-.41,1.46-.41,8.12-.02,39.64v1.73l295.01.03v.93h100.13V-233.49H-4.97l.48,19.57h0ZM91.5,117.25l1.28.27-1.28-.27Z"/>
    <path class="st7" d="M215.28-78.34c2.49-2.3,4.03-5.3,4.33-8.46.27-2.86-.49-5.67-2.21-8.13-1.19-1.7-5.42-7.34-10.36-8.51l-28.65-6.8-23.35-5.6-12.81-6.12c-2.87-1.37-4.76-5.52-4.33-9.45.3-2.71,2.81-5.44,5.56-8.01-5.37-6.5-12.65-8.71-19.69-10.85-11.68-3.54-23.63-5.69-35.19-7.76-7.56-1.35-15.37-2.76-23.11-4.54l-32.93-7.6c-9.16-2.12-17.97-7.38-24.77-14.82-7.42-8.1-11.9-18.08-12.97-28.88l-.48-19.62h-23.5v45.42c.14,14.9,8.66,28.51,19.77,39.05,12.83,12.18,29.58,19.63,46.98,25.17,16.67,5.31,33.15,9.59,50.4,13.41,26.51,5.87,78.49,15.96,95.23,30.98,3.2,2.88,1.38,8.93-1.98,11.29l6.1.22c8.49-.67,19.36-2.45,27.96-10.39h0Z"/>
  </g>
  <polygon class="st7" points="75 421.28 78.14 420.96 75.4 421.16 75 421.28"/>
  <path class="st4" d="M51.04,81.89l-.21.22c-6.93,7.37-10.27,18.46-8.93,29.68,1.27,10.61,6.21,19.46,14.68,26.28,6.99,5.63,16.35,9.78,27.06,12.01l33.79,7.02,22.27,4.47c5.99,1.2,11.7,4.46,15.26,8.72,1.68,2,2.93,4.26,3.77,6.65,1.69-2.66,2.91-5.67,3.87-8.88,2.6-8.69-1.45-18.1-10.58-22.37-7.77-3.63-17.17-5.19-26.17-6.17l-33.1-3.58-1.28-.27c-15.75-2.33-29.55-8.14-35.69-23.21-5.03-12.34-2.6-25.29,7-34.76,7.65-7.54,18.94-13.38,31.33-18.02-11.9,1.54-22.32,5.4-31.7,11.73-4.16,2.81-7.67,6.54-11.38,10.49h.01Z"/>
  <path class="st4" d="M125.57-69.46h-3.31l-24.17,1.39c-7.12.41-14.23,3.13-21.72,8.33-6.87,4.76-10.78,14.52-9.1,22.72,2.41,11.78,11.29,20.65,27.14,27.11C107.77-4.46,123.3-1.94,134.63-.1c12.41,2.02,26.98,5.14,40.81,13.01,4.41,2.51,6.02,12.62,4.73,17.9-.82,3.39-2.73,6.38-5.25,8.97,20.07-4.28,46.81-11.28,60.55-24.37,5.5-5.25,3.93-13.52-2.2-17.23-17.69-10.72-39.73-10.64-60.68-10.87-13.49-.14-26.46-1.16-39.63-3.19-10.07-1.55-28.77-9.27-32.22-17.36s2.55-16.73,10.36-20.24,15.6-5.25,24.06-6.12l25.51-2.63c6.73-.69,13.13-2.21,19.09-5.16l-37.26-1.33-16.97-.74h.04Z"/>
  <path class="st7" d="M157.37,398.72c-4.15,9.91-11.96,13.71-17.78,15.14l-1.04.26c10.95-1.73,21.73-7.5,21.92-17.16.05-2.48-.75-4.77-2.15-6.89.59,2.84.27,5.74-.95,8.65h0Z"/>
  <path class="st4" d="M290.17,523.34v-.93l-295.01-.03v.36h-.67v-.36h-23.49l-.35-14.6.1-12.8c.15-19.96,6.02-39.85,22.38-53,8.07-6.49,18.08-11.74,28.16-13.85l27.44-5.73,5.33-.53,4.83-1.12,1.27-.37,30.8-2.23.77-.09,1.1-.58,11.86-.93,13.93-1.62,7.71-1.85c5.86-1.4,13.7-5.1,17.87-14.73,1.43-3.31,1.57-6.59.43-9.77-6.09-7.13-19.31-12-29.69-14.34l-23.49-4.21c-20.81-3.45-40.97-7.04-60.89-14.22-9.44-3.4-17.71-9.48-24.73-15.96-7.68-7.09-10.94-15.06-13.28-24.77-1.74-7.23-2.76-14.2-1.88-21.42l.14-1.15c1.54-12.5,5.73-24.28,13.41-34.9,7.68-10.62,13.99-20.62,24.6-28.08,8.01-5.64,16.61-11.36,25.82-14.96,23.63-9.24,47.39-14.83,71.91-20.71,8.28-1.99,16.08-5.37,23.42-8.99,3.61-1.77,6.26-4.26,8.28-7.22-.81-2.46-2.07-4.78-3.78-6.83-3.46-4.14-9.03-7.32-14.9-8.5l-22.28-4.47-33.8-7.02c-10.81-2.25-20.27-6.44-27.33-12.13-8.64-6.96-13.67-15.99-14.97-26.83-1.37-11.47,2.05-22.83,9.14-30.38l.21-.22c3.74-3.98,7.28-7.74,11.49-10.59,10.34-6.98,21.94-10.98,35.35-12.2,14.76-5.2,30.75-8.79,43.88-11.57l32.27-6.84c2.87-2.7,5.05-5.86,5.94-9.5,1.09-4.47.02-14.46-4.37-16.96-13.76-7.82-28.25-10.93-40.62-12.94-23.31-3.79-62.33-10.12-67.94-37.53-1.74-8.52,2.31-18.66,9.42-23.59,7.6-5.26,14.8-8.02,22.03-8.44l24.19-1.39h3.33l16.98.73,38.69,1.38c3.35-2.36,5.18-8.41,1.98-11.29-16.74-15.02-68.72-25.11-95.23-30.98-17.25-3.82-33.73-8.1-50.4-13.41-17.4-5.54-34.14-12.99-46.98-25.17-11.11-10.54-19.63-24.15-19.77-39.05v-45.42H-5.68l-.04-1.76.73.81.02.95h395.27v-1.78H-36.63v760.95h426.93v-2.34h-100.13,0ZM-9.16,274.08l-.14,1.15.14-1.15Z"/>
  <path class="st4" d="M150.82,51.35c6.43-1.5,16.31-5.22,22.74-11.28l-32.27,6.84c-13.13,2.78-29.12,6.37-43.88,11.57,1.15-.11,2.32-.2,3.49-.26,17.92-.97,34.25-3.22,49.92-6.87h0Z"/>
  <polygon class="st4" points="105.9 418.06 105.15 418.15 105.83 418.1 105.9 418.06"/>
  <path d="M-4.82,481.01l.41-8.12.41-1.46c2.1-10.39,6.99-24.58,18.33-33.41,5.94-4.63,11.78-8.9,17.98-10.33l26.73-6.16.85-.25.41-.12,2.82-.2,28.71-2.08,1.18-.62,22.44-1.76,9.95-2.38,1.07-.26c6-1.43,14.05-5.23,18.33-15.14,1.26-2.92,1.59-5.82.98-8.65-.2-.93-.49-1.85-.9-2.76-3.93-8.97-16.38-14.93-26.98-16.86l-21.33-3.88-1.21-.16-27.8-9.92c-6.6-2.35-12.29-6.66-17.11-10.51-17.65-14.1-26.72-28.17-30.31-47.02-3.41-17.91-1.77-32.48,5.02-44.56,6.25-11.12,16.75-19.88,32.1-26.79,11.57-5.2,23.07-7.42,36.91-9.77l33.2-5.65,13.29-3.46c5.05-1.32,10.02-4.62,13.98-9.28,5.37-6.33,6.74-15.06,4.08-22.52-.85-2.38-2.1-4.64-3.77-6.65-3.56-4.26-9.27-7.52-15.26-8.72l-22.27-4.47-33.79-7.02c-10.71-2.23-20.07-6.38-27.06-12.01-8.47-6.82-13.41-15.67-14.68-26.28-1.34-11.22,2-22.31,8.93-29.68l.21-.22c3.71-3.95,7.22-7.68,11.38-10.49,9.38-6.33,19.8-10.19,31.7-11.73,2.23-.29,4.5-.51,6.83-.63,17.96-.98,34.32-3.23,50.02-6.89,6.81-1.59,17.45-5.66,23.96-12.37,2.52-2.59,4.41-5.58,5.25-8.97,1.29-5.28-.32-15.39-4.73-17.9C161.61,5.03,147.04,1.91,134.63-.11c-11.34-1.84-26.86-4.36-40.22-9.81-15.85-6.46-24.73-15.33-27.14-27.11-1.68-8.2,2.24-17.96,9.1-22.72,7.49-5.2,14.6-7.92,21.72-8.33l24.17-1.39h3.31l16.97.74,37.26,1.33,7.57.27c8.63-.68,19.62-2.49,28.36-10.56,2.63-2.43,4.26-5.63,4.58-9,.29-3.07-.53-6.09-2.35-8.72-1.22-1.75-5.6-7.57-10.75-8.79l-28.65-6.8-23.32-5.59-12.72-6.09c-2.6-1.24-4.32-5.02-3.92-8.61.29-2.52,2.86-5.22,5.6-7.76l.29-.27-.26-.32c-5.53-6.92-13.02-9.19-20.27-11.39-11.71-3.56-23.68-5.71-35.26-7.78-7.55-1.36-15.36-2.76-23.08-4.54l-32.93-7.6c-9.04-2.09-17.72-7.28-24.43-14.62-7.29-7.97-11.7-17.78-12.75-28.36l-.48-19.57-.02-.95-.73-.81.04,1.76.48,19.62c1.07,10.8,5.55,20.78,12.96,28.88,6.8,7.44,15.61,12.7,24.77,14.82l32.93,7.6c7.74,1.78,15.56,3.19,23.11,4.54,11.57,2.07,23.51,4.22,35.19,7.76,7.04,2.14,14.32,4.35,19.69,10.85-2.74,2.57-5.26,5.3-5.56,8.01-.43,3.93,1.46,8.08,4.33,9.45l12.81,6.12,23.35,5.6,28.65,6.8c4.94,1.17,9.17,6.81,10.36,8.51,1.71,2.46,2.47,5.27,2.21,8.13-.3,3.16-1.83,6.16-4.33,8.46-8.6,7.94-19.46,9.72-27.96,10.39l-6.1-.22-38.69-1.38-16.98-.73h-3.33l-24.19,1.39c-7.23.42-14.43,3.18-22.03,8.44-7.11,4.93-11.16,15.07-9.42,23.59C72.18-9.46,111.2-3.13,134.51.66c12.37,2.01,26.85,5.12,40.62,12.94,4.39,2.5,5.46,12.49,4.37,16.96-.89,3.64-3.07,6.8-5.94,9.5-6.43,6.05-16.31,9.78-22.74,11.28-15.67,3.65-32,5.9-49.92,6.87-1.19.06-2.34.16-3.49.26-13.41,1.22-25.01,5.22-35.35,12.2-4.22,2.85-7.75,6.61-11.49,10.59l-.21.22c-7.09,7.55-10.51,18.91-9.14,30.38,1.3,10.84,6.33,19.87,14.97,26.83,7.06,5.69,16.51,9.88,27.33,12.13l33.8,7.02,22.28,4.47c5.87,1.18,11.43,4.36,14.9,8.5,1.71,2.05,2.97,4.37,3.78,6.83,2.34,7.07.97,15.25-4.09,21.22-3.88,4.56-8.72,7.77-13.65,9.06l-13.27,3.46-33.17,5.64c-13.88,2.36-25.42,4.58-37.05,9.81-15.49,6.97-26.1,15.83-32.43,27.1-6.9,12.27-8.58,27.05-5.12,45.17,3.59,18.82,13.02,33.47,30.6,47.51,4.87,3.88,10.62,8.23,17.3,10.61l27.9,9.94,1.23.17,21.32,3.88c10.09,1.84,22.68,7.76,26.47,16.44.13.31.24.62.35.92,1.13,3.17.99,6.46-.43,9.77-4.16,9.63-12.01,13.33-17.87,14.73l-7.71,1.85-3.29.79-10.64.83-11.86.93-1.1.58-.07.04-.7.05-30.8,2.23-1.27.37-4.83,1.12-21.88,5.04c-6.32,1.46-12.23,5.77-18.23,10.45-9.12,7.1-15.56,18.81-18.61,33.85l-.43,1.58-.41,8.21-.02,41.38v.36h.67v-2.09l.02-39.64h-.03Z"/>
  <rect class="st7" x="-31.4" y="513.52" width="448.38" height="256.38"/>
  <g>
    <path class="st4" d="M157.34,148.15l-1.09.34,1.32,4.86,1.12-.26.45,1.65-1.09.33.59,2.14,1.11-.27.9,3.3-1.09.34,1.19,4.31,1.12-.26.75,2.74-1.08.37,3.71,13.59,1.12-.22.3,1.09-1.09.35,1.62,5.94,1.12-.25,1.5,5.5-1.09.34,1.47,5.39,1.12-.26,1.5,5.5,1.09-.3-16.81-61.57-1.09.3,1.35,4.95h0v.04h0v.02ZM86.1,195.8l-1.38,1.28,35.87,38.37,1.38-1.28-35.87-38.37h0ZM243.5,152.71l-10.94,51.32,1.66.35,10.94-51.32-1.66-.35h0ZM40.74,263.47l-.61,1.51,49.61,20.07.61-1.51s-49.61-20.07-49.61-20.07ZM253.24,538.98l1.13-.14,3.36-.48,8.88-2.35c.46-.12,1.43-.74,1.69-.9l2.27-.31c.65-.1,1.95-.85,2.4-1.2l2.58-.96,1.98-1.21,3.36-2.27c2.44-1.65,4.69-3.75,6.11-6.28l1.94-3.45c2.07-3.7,2.16-8.05,1.77-12.02l9.1-2.62,1.28-.76,1.47-1c1.38-.94,2.32-2.82,2.78-4.43,1.39-4.91-.76-10.6-5.64-12.66l-3.51-1.47,2.31-3.21c2.29-3.18,2.39-7.49.41-10.92l-.93-1.61c-1.92-3.33-6.99-3.83-6.82-4.73l.26-1.42c4.6-4.35,4.23-10.86-.5-15.5l-.94-.44-1.9-1.32-1.24.27-.79.35c.04-.49-.15-1.04-.49-1.15l-2.02-.64c2.01-3.1,3.32-6.59,2.36-10.45l-2.46-9.97c-1.72-7.01-2.42-14.14-1.86-21.2l.14-1.69c1.17-10,3.92-19.38,8.47-28.63,10.32-20.21,14.37-43.49,9.92-65.21l-.86-4.2-2.55-9.24c-7.49-22.83-21.14-41.04-41.84-54.17l-14.35-7.44c-47.27-19.61-100.91-.19-124.61,45.68-4.5,8.71-7.22,17.51-8.95,27.06-2.35,12.96-1.95,25.88.68,38.77l2.47,9.52,2.95,8.17c2.87,7.96,7.16,14.98,12.27,21.82,7.19,9.66,15.73,17.86,25.73,24.53,9.24,6.17,17.79,12.94,24.17,22.13l1.45,2.07,1.75,2.74,1.56,2.78,1.15,2.14,1.3,2.61,2.2,5.31,3.88,12.7c.94,3.07,3.71,6.11,7.45,8-3.32,2.2-5.43,5.87-5.28,9.99.19,4.9,3.17,8.39,7.64,10.1l1.79.68c-3.14,2.8-4.38,6.43-3.93,10.04.5,4.26,3.3,7.74,7.48,9.07l1.62.52c.14-.46-.07.22-.2.74-2.5,2.46-3.88,5.61-3.55,9.02l.14,1.3.74,2.16,1.12,2.17c2.55,3.45,6.92,5.05,11.22,4.39l3.07-.46,2.54-.64,1.17-.74c.2-.14,1.05-.23,1.19-.03l.83,1.35c3.68,5.94,9.67,9.91,16.7,11.26,4.46.86,8.9.56,13.04.07h-.05ZM315.82,190.58l-31.08,39.71,1.35,1.06,31.08-39.71-1.35-1.06h0ZM34.96,344.87l.22,1.98,49.86-5.72-.22-1.98-49.86,5.72ZM363.59,255.12l-45.47,20.22.79,1.77,45.47-20.22-.79-1.77h0ZM105.5,395.24l-39.08,28.3,1.02,1.41,39.08-28.3-1.02-1.41h0ZM328.67,334.33l-.16,1.75,48.03,4.58.16-1.75-48.03-4.58ZM199.64,582l.2.52,3.18-.87-.08-.56,142.7-39.23-.4-1.42-148.95,40.94.4,1.42,2.95-.81h0ZM228.86,585.82l90.38-24.7-.6-2.2-90.38,24.7.6,2.2h0ZM246.68,589.8l.3,1.09,59.37-16.22-.3-1.09-59.37,16.22h0Z"/>
    <path class="st0" d="M288.06,446.04l-1.49.05-.23-.85-1.08.4-3.07.35-.04-1.12-.16-.5c4.13-1.72,5.54-6.55,4.24-11.28-3.4-12.31-5.42-23.88-3.42-36.24,1.24-7.63,3.33-15.02,6.62-22.02l3.48-7.38c8.83-18.78,11.69-39.63,7.85-60.01l-4.68-17.07c-6.09-16.99-16.43-31.49-30.31-42.74l-11.27-7.97c-13.7-8.16-28.56-12.69-44.17-13.62-35.14-2.1-68.23,15.23-86.96,45.08-4.71,7.52-8.13,15.17-10.57,23.73-11.79,41.37,4.05,85.9,39.63,110.39l3.75,2.59c8.71,5.99,16.5,12.68,22.58,21.25,4.53,6.4,8.01,13.39,10.37,20.89l3.3,10.56c1.24,3.96,6.69,7.76,10.97,5.35l.61-.04,5.43-1.45.37,1.39-4.86,1.3-.7.18-4.19,1.39c-1.23.41-3.12,1.95-3.98,3.12-2.81,3.79-2.4,8.73.52,12.36,1.73,2.14,4.5,3.07,7.16,3l1.39-.12,1.54-.44.37.97h.59l.07.48c-2.88.48-5.58,2.27-6.99,4.86s-1.51,5.65-.29,8.6c1.71,4.11,6.48,6.47,10.6,5.36l9.28-2.52,15.96-4.35,36.77-10.07,20.81-5.8.68,1.12-1.27.82-10.27,2.82-.41-.44-12.42,3.4.16.52-3.26.89-.41-.46-4.22,1.15.16.5-5.02,1.36-.27-.46-6.6,1.76-.19.61-4.35,1.19-.74.19-5.44,1.51c-.15-.27-.25-.46-.41-.37l-.59.64-2.16.6-.44-.45-18.99,5.19.15.55-1.01.25-.79.19-2.07.53-3.37,1.11c-3.23,1.06-4.91,4.48-5.28,7.61-.16,3.06.72,5.76,3.21,8.17,1.68,1.42,4.78,2.77,7.49,2.14l4.58-1.06,67.82-18.52.68,1.21-59.94,16.5-2.82.83c2.97,5.21,7.37,8.87,12.84,10.9.33-.03.93-.14,1.16-.07l3.42.85,2.5.61.76.2,3.45-.22,4.57-.29.41,1.32c-4.15.49-8.57.79-13.04-.07-7.01-1.35-13.02-5.34-16.7-11.26l-.83-1.35c-.14-.2-.97-.11-1.19.03l-1.17.74-2.54.64-3.07.46c-4.28.65-8.66-.94-11.22-4.39l-1.12-2.17-.74-2.16-.14-1.3c-.34-3.42,1.05-6.58,3.55-9.02.14-.52.33-1.2.2-.74l-1.62-.52c-4.18-1.32-6.97-4.82-7.48-9.07-.44-3.63.79-7.26,3.93-10.04l-1.79-.68c-4.48-1.72-7.46-5.2-7.64-10.1-.16-4.12,1.95-7.79,5.28-9.99-3.73-1.88-6.51-4.94-7.45-8l-3.88-12.7-2.2-5.31-1.3-2.61-1.15-2.14-1.56-2.78-1.75-2.74-1.45-2.07c-6.39-9.2-14.93-15.98-24.17-22.13-9.99-6.66-18.54-14.87-25.73-24.53-5.09-6.84-9.4-13.86-12.27-21.82l-2.95-8.17-2.47-9.52c-2.63-12.88-3.03-25.8-.68-38.77,1.73-9.55,4.45-18.35,8.95-27.06,23.69-45.87,77.33-65.29,124.61-45.68l14.35,7.44c20.7,13.13,34.34,31.34,41.84,54.17l2.55,9.24.86,4.2c4.43,21.72.41,45-9.92,65.21-4.57,9.25-7.31,18.63-8.47,28.63l-.14,1.69c-.57,7.07.12,14.19,1.86,21.2l2.46,9.97c.96,3.88-.37,7.35-2.36,10.45l2.02.64c.34.11.55.65.49,1.15v.04h.1l.04.03Z"/>
    <path class="st0" d="M291.99,446.75l.49,1.05c3.45,3.79,4,9.2,1.36,13.56l-.41,1.32-.26,1.42c-.16.9,4.9,1.41,6.82,4.73l.93,1.61c1.98,3.42,1.87,7.74-.41,10.92l-2.31,3.21,3.51,1.47c4.88,2.06,7.04,7.76,5.64,12.66-.46,1.62-1.39,3.51-2.78,4.43l-1.47,1-1.28.76-9.1,2.62-1.46.46c.61,8.43-3.36,15.68-9.61,21.07l-.85.74-1.24.91-2.06,1.19-1.51.86-1.01.94c-.46.34-1.76,1.11-2.4,1.2l-2.27.31,1.32-.87-.71-.87c9.88-3.7,18.94-12.06,18.88-24.12l-.94-.93-.68-1.21c.15-.34.26-.34.53-.12l9.66-2.73c4.04-1.15,6.67-5.49,6.44-9.55-.37-6.17-6.74-10.08-11.49-8.79l1.27-.82-.68-1.12c3.7-1.04,5.91-5.92,5.44-9.54-.74-5.81-5.29-9.44-10.98-8.62l-77.11,21.03.3-1.66,25.35-6.92,29.66-8.12,19.79-5.36c3.14-.85,5.76-2.77,6.92-5.59,1.83-4.48.29-9.26-3.98-12.28l-.44-1.32,1.24-.27,1.9,1.32h.01l-.03.03h0Z"/>
    <rect class="st0" x="193.75" y="560.86" width="154.46" height="1.47" transform="translate(-139.16 91.91) rotate(-15.37)"/>
    <path class="st0" d="M318.59,561.31l-34.73,8.91c-.31-.04-1.17-.14-1.45-.2l-21.53,5.92c-1.12,1.05-2.85,1.51-4.28,1.23l-5.1,1.42c-1.8,2.07-5.2.12-7.04,2.33l-13.51,3.66-2.4.15-.3-1.09,90.38-24.7.6,2.2-.65.18h.01Z"/>
    <rect class="st0" x="102.39" y="189.34" width="1.88" height="52.52" transform="translate(-119.4 128.7) rotate(-43.08)"/>
    <rect class="st0" x="212.62" y="177.72" width="52.48" height="1.69" transform="translate(14.4 374.92) rotate(-77.96)"/>
    <rect class="st0" x="34.9" y="342" width="50.19" height="1.99" transform="translate(-38.68 9.06) rotate(-6.54)"/>
    <rect class="st0" x="316.37" y="265.12" width="49.76" height="1.94" transform="translate(-78.71 161.73) rotate(-23.99)"/>
    <rect class="st0" x="63.72" y="246.23" width="1.62" height="53.52" transform="translate(-212.74 230.46) rotate(-67.98)"/>
    <rect class="st0" x="275.72" y="210.12" width="50.45" height="1.72" transform="translate(-50.68 317.93) rotate(-51.95)"/>
    <rect class="st0" x="62.33" y="409.21" width="48.25" height="1.73" transform="translate(-224.03 128.59) rotate(-35.9)"/>
    <rect class="st0" x="351.71" y="313.37" width="1.76" height="48.25" transform="translate(-16.92 656.37) rotate(-84.54)"/>
    <rect class="st1" x="164.36" y="141.9" width="1.15" height="63.82" transform="translate(-39.97 49.61) rotate(-15.28)"/>
    <path class="st5" d="M318.59,561.31l-89.73,24.52-.3-1.09,2.4-.15,13.51-3.66c1.84-2.21,5.24-.26,7.04-2.33l5.1-1.42c1.43.29,3.15-.18,4.28-1.23l21.53-5.92c.29.07,1.13.16,1.45.2l34.73-8.91h-.01,0Z"/>
    <rect class="st0" x="245.75" y="581.68" width="61.54" height="1.15" transform="translate(-143.67 93.46) rotate(-15.28)"/>
    <path class="st2" d="M292.73,507.52c.37,3.97.29,8.32-1.77,12.02l-1.94,3.45c-1.42,2.52-3.68,4.63-6.11,6.28l-3.36,2.27-1.98,1.21-2.58.96,1.01-.94,1.51-.86,2.06-1.19,1.24-.91.85-.74c6.25-5.38,10.22-12.64,9.61-21.07l1.46-.46h0v-.02Z"/>
    <path class="st8" d="M270.94,533.49l.71.87-1.32.87c-.25.16-1.21.76-1.69.9l-8.88,2.35-3.36.48-.31-1.3,11.71-3,3.14-1.19h.01v.02Z"/>
    <polygon class="st5" points="162.6 167.38 166.35 181.12 165.23 181.35 161.5 167.76 162.6 167.38"/>
    <polygon class="st5" points="166.65 182.23 168.3 188.27 167.18 188.52 165.57 182.58 166.65 182.23"/>
    <polygon class="st5" points="169.8 193.77 171.3 199.27 170.18 199.51 168.71 194.12 169.8 193.77"/>
    <polygon class="st5" points="157.34 148.15 158.69 153.09 157.57 153.35 156.25 148.49 157.34 148.15"/>
    <polygon class="st5" points="160.63 160.24 161.83 164.64 160.73 164.88 159.55 160.58 160.63 160.24"/>
    <polygon class="st5" points="159.14 154.74 159.73 156.94 158.62 157.21 158.05 155.07 159.14 154.74"/>
    <polygon class="st5" points="202.94 581.08 203.04 581.64 199.86 582.52 199.64 582 202.94 581.08"/>
    <path class="st9" d="M256.08,537.67l.31,1.3-1.13.14-.41-1.32c.16-.14.78-.65.76-.65s.38.45.46.56h0v-.03Z"/>
    <path class="st2" d="M282,444.39l.16.5-1.16.29-7.14,1.76-16.43,4.28-5.46-24.26c-2.32-10.3-2.47-20.7-1.45-31.22l.61-3.79c1.15-7.14,2.88-14.2,7.25-20l2.7-3.58.7-.91c.14-.19-.72-.61-1.15-.79-3.59,3.81-6.07,7.96-8,12.7-3.11,8.62-4.38,17.47-4.22,26.8.2,11.61,1.77,22.83,4.56,34.04l2.85,11.5-28.41,7.76-5.08-17.25c-2.7-9.18-6.54-17.7-11.18-25.94-5.34-9.5-13.77-18.94-23.47-23.81l-9.43-3.36-.65,1.51c21.01,4.5,33.16,25.04,40.39,43.95l6.67,21.22,1.08,4.11-16.33,4.5-5.43,1.45-.61.04-1.24-1.6c-1.04-1.19-2.22-3.14-2.73-4.68l-4.35-13.6c-2.95-9.21-12.21-22.2-20.28-28.56l-4.8-3.79-10.88-7.87c-5.62-4.08-10.71-8.42-15.53-13.36-10.3-10.55-20.82-26.44-24.08-40.79l-3.19-13.96c-2.48-17.37-.19-34.75,6.75-50.79l3.03-6.29,3.22-5.55,2.27-3.4c6.21-9.28,14.1-16.89,23.16-23.36,7.46-5.32,15.45-9.28,24.23-12.31l14.1-3.45c9.55-1.72,18.97-1.77,28.59-.45l14.38,3.33,8.01,3,4.82,2.24c17.1,7.96,36.46,28.3,42.76,45.4l3.88,10.48c5.99,18.87,6.47,38.75.41,57.34l-3.33,10.21-1.02,2.59-1.28,3-1.42,3.34-1.3,3-2.32,5.23-.94,2.13-1.47,4.38c-4.35,12.99-4.43,26.59-1.12,40.03l2.2,8.92c.5,2.06-.56,5.08-1.45,6.78l-.44.89h-.01v.02Z"/>
    <path class="st2" d="M282.54,445.08l-8.6,2.13-16.72,4.37-5.53-24.56c-2.1-9.37-2.59-19.61-1.45-31.32l.61-3.81c1.06-6.56,2.74-14.08,7.31-20.14l3.29-4.35c-.14-.11-.42-.26-.75-.41-3.32,3.55-5.8,7.52-7.79,12.47-3,8.31-4.37,17.04-4.2,26.68.2,11.37,1.69,22.47,4.56,33.98l2.92,11.76-28.95,7.91-5.16-17.52c-2.52-8.57-6.17-17.04-11.15-25.88-5.88-10.45-14.6-19.31-23.35-23.69l-9.16-3.26-.41.96c16.97,3.79,30.52,18.61,40.25,44.05l6.69,21.25,1.15,4.41-16.61,4.57-5.5,1.46-.76.04-1.32-1.72c-.94-1.09-2.22-3.04-2.77-4.76l-4.35-13.6c-2.89-9.06-12.14-22.08-20.19-28.42l-4.8-3.79-10.86-7.87c-5.76-4.18-10.85-8.56-15.57-13.39-8.92-9.14-20.6-25.34-24.17-40.91l-3.19-13.96c-2.48-17.4-.14-35.01,6.77-50.96l3.03-6.32,3.23-5.58,2.28-3.4c5.91-8.83,13.51-16.5,23.22-23.43,7.25-5.19,15.2-9.22,24.3-12.34l14.11-3.47c9.32-1.68,18.69-1.81,28.71-.46l14.4,3.33,8.04,3.02,4.83,2.25c17.38,8.09,36.62,28.53,42.91,45.56l3.88,10.48c6.19,19.5,6.33,39.38.41,57.53l-3.33,10.21-1.04,2.61-4.01,9.37-3.27,7.35-1.46,4.37c-4.19,12.47-4.56,25.88-1.11,39.87l2.2,8.92c.5,2.07-.46,5.05-1.46,6.99l-.38.78.22.68h.05v-.04ZM257.66,450.88l16.16-4.22,8-1.98-.11-.31.49-1c.76-1.49,1.92-4.53,1.42-6.59l-2.2-8.92c-3.48-14.1-3.1-27.62,1.12-40.2l1.47-4.38,3.27-7.38,4-9.35,1.02-2.58,3.33-10.18c5.88-18.03,5.74-37.8-.41-57.16l-3.86-10.47c-6.24-16.91-25.35-37.2-42.61-45.25l-4.82-2.24-8-3-14.34-3.32c-9.91-1.35-19.24-1.21-28.48.45l-14.07,3.45c-9.02,3.1-16.92,7.11-24.12,12.27-9.66,6.89-17.21,14.52-23.09,23.29l-2.27,3.4-3.22,5.54-3.02,6.28c-6.86,15.84-9.2,33.35-6.74,50.62l3.18,13.95c3.53,15.46,15.15,31.55,24.02,40.64,4.69,4.82,9.77,9.17,15.5,13.32l10.88,7.87,4.82,3.79c8.12,6.41,17.45,19.55,20.37,28.71l4.35,13.6c.49,1.57,1.72,3.48,2.67,4.57l1.16,1.49.44-.03,5.4-1.45,16.06-4.42-1-3.85-6.67-21.2c-9.73-25.39-23.24-40.13-40.18-43.75l-.34-.07.9-2.07,9.69,3.45c8.87,4.45,17.68,13.4,23.62,23.93,5.01,8.88,8.66,17.38,11.2,25.99l5.01,16.97,27.88-7.61-2.8-11.23c-2.87-11.56-4.37-22.71-4.57-34.11-.18-9.72,1.21-18.52,4.23-26.89,2.05-5.1,4.61-9.16,8.05-12.8l.14-.14.18.07c.56.22,1.23.57,1.32.91.03.11,0,.22-.05.31l-3.4,4.49c-4.49,5.95-6.15,13.39-7.2,19.88l-.61,3.79c-1.12,11.61-.65,21.8,1.45,31.11l5.39,23.97h-.01.01v.04Z"/>
    <path class="st2" d="M209.79,487.23l1.47-.29,77.11-21.03c5.69-.82,10.25,2.8,10.98,8.62.46,3.62-1.75,8.5-5.44,9.54l-20.81,5.8-36.77,10.07-15.96,4.35-9.28,2.52-1-.26-3.1-1.72c-.48-.26-1.43-1.32-1.72-1.81l-.94-1.65c-1.87-3.26-1.53-7.55.97-10.33l2.59-2.89c.89.75.22.19-.15-.14l-.07-.49,2.1-.31h0v.02Z"/>
    <path class="st0" d="M273.87,446.94l.29,1.3-64.35,17.57-.37-1.39,16.33-4.5-1.08-4.11-6.67-21.22c-7.23-18.91-19.38-39.45-40.39-43.95l.65-1.51,9.43,3.36c9.7,4.87,18.12,14.33,23.47,23.81,4.65,8.24,8.47,16.76,11.18,25.94l5.08,17.25,28.41-7.76-2.85-11.5c-2.8-11.23-4.35-22.43-4.56-34.04-.16-9.35,1.11-18.18,4.22-26.8,1.92-4.75,4.41-8.9,8-12.7.42.18,1.28.6,1.15.79l-.7.91-2.7,3.58c-4.38,5.81-6.11,12.87-7.25,20l-.61,3.79c-1.02,10.51-.87,20.93,1.45,31.22l5.46,24.26,16.43-4.28h0l-.02-.02Z"/>
    <path class="st3" d="M274.35,448.34l-64.66,17.66-.46-1.72.16-.04,16.16-4.45-1.04-3.96-6.67-21.2c-9.74-25.45-23.29-40.2-40.27-43.84l-.2-.04.79-1.86,9.58,3.42c8.83,4.43,17.63,13.36,23.55,23.89,4.99,8.87,8.65,17.37,11.19,25.98l5.04,17.08,28.1-7.68-2.82-11.34c-2.87-11.54-4.37-22.69-4.56-34.09-.18-9.7,1.21-18.49,4.23-26.85,2.05-5.08,4.6-9.13,8.02-12.76l.08-.08.11.04c.27.11,1.17.5,1.26.83.01.07,0,.16-.04.22l-3.4,4.49c-4.5,5.96-6.17,13.43-7.22,19.92l-.61,3.79c-1.12,11.64-.65,21.83,1.45,31.15l5.43,24.1,16.43-4.28.34,1.62h.05-.02ZM209.93,465.59l64.02-17.48-.2-.96-16.43,4.28-.04-.16-5.46-24.26c-2.1-9.36-2.58-19.59-1.45-31.27l.61-3.81c1.05-6.55,2.74-14.04,7.29-20.07l3.36-4.43c-.11-.11-.48-.34-.93-.53-3.36,3.58-5.85,7.57-7.87,12.57-3,8.32-4.38,17.07-4.2,26.73.2,11.38,1.69,22.5,4.56,34l2.89,11.67-28.74,7.85-5.13-17.41c-2.52-8.58-6.18-17.06-11.16-25.9-5.89-10.47-14.64-19.35-23.39-23.74l-9.26-3.3-.5,1.19c17,3.74,30.56,18.54,40.31,44.02l6.69,21.23,1.12,4.28-.16.04-16.16,4.45.29,1.06h0l-.04-.04h-.02Z"/>
    <path class="st6" d="M204.27,467.26l.25.59c-5.36,2.02-8.24,8.31-5.61,13.78,1.01,2.1,2.95,3.83,5.08,4.76l1.2.61-1.39.12c-2.66.07-5.43-.85-7.16-3-2.93-3.63-3.33-8.57-.52-12.36.87-1.17,2.76-2.7,3.98-3.12l4.19-1.39h-.02Z"/>
    <polygon class="st0" points="281.01 445.17 281.25 446.28 274.16 448.22 273.87 446.94 281.01 445.17"/>
    <polygon class="st9" points="209.79 487.23 207.68 487.55 207.09 487.56 206.72 486.58 209.83 485.71 209.79 487.23"/>
    <path class="st9" d="M286.57,446.11l-.86.04c-.18,0-.29-.12-.45-.49l1.08-.4.23.85h0Z"/>
    <polygon class="st9" points="204.51 467.86 204.27 467.26 204.96 467.09 204.51 467.86"/>
    <path class="st2" d="M215.82,507.22l.79-.19,1.01-.25,19.28-5.28,2.16-.6,1-.29,5.44-1.51.74-.19,4.35-1.19,7.07-1.92,5.02-1.36,4.46-1.21,3.26-.89,12.68-3.49,10.27-2.82c4.73-1.3,11.13,2.62,11.49,8.79.23,4.08-2.4,8.42-6.44,9.55l-9.66,2.73c-.29-.22-.38-.22-.53.12l-67.82,18.52-4.58,1.06-.71-.49c-.59-.26-1.98-.89-2.46-1.3-3.12-2.7-4.8-6.74-3.71-10.56.63-2.18,2.07-4.26,3.83-5.65l1-1.04,2.07-.53h0,0Z"/>
    <path class="st2" d="M288.88,508.44l.94.93c.04,12.06-9.02,20.43-18.88,24.12l-3.14,1.19-11.71,3c-.08-.11-.49-.55-.46-.56.03,0-.59.52-.76.65l-4.57.29-3.45.22-.76-.2-2.5-.61-3.42-.85c-2.93-2.8-8.92-6.22-10.57-10.06l-.61-1.6,59.94-16.5h0l-.03-.03h-.02Z"/>
    <path class="st6" d="M207.76,488.04c.37.31,1.04.89.15.14l-2.59,2.89c-2.5,2.78-2.84,7.07-.97,10.33l.94,1.65c.29.49,1.24,1.56,1.72,1.81l3.1,1.72,1,.26c-4.11,1.12-8.9-1.26-10.6-5.36-1.23-2.95-1.11-6.03.29-8.6s4.11-4.38,6.99-4.86h0l-.02.02Z"/>
    <path class="st6" d="M213.75,507.76l-1,1.04c-1.75,1.38-3.21,3.47-3.83,5.65-1.09,3.82.59,7.85,3.71,10.56.49.42,1.87,1.04,2.46,1.3l.71.49c-2.7.63-5.81-.72-7.49-2.14-2.48-2.4-3.36-5.12-3.21-8.17.37-3.15,2.05-6.56,5.28-7.61l3.37-1.11h0Z"/>
    <path class="st6" d="M228.94,524.92l.61,1.6c1.66,3.83,7.64,7.25,10.57,10.06-.25-.05-.85.04-1.16.07-5.47-2.02-9.87-5.66-12.84-10.9l2.82-.83h0,0Z"/>
    <polygon class="st9" points="236.91 501.49 217.63 506.77 217.48 506.23 236.47 501.04 236.91 501.49"/>
    <polygon class="st0" points="283.08 488.84 270.4 492.34 270.24 491.82 282.66 488.42 283.08 488.84"/>
    <polygon class="st9" points="257.67 495.79 250.61 497.71 250.8 497.1 257.4 495.32 257.67 495.79"/>
    <polygon class="st9" points="267.14 493.22 262.7 494.44 262.53 493.93 266.75 492.77 267.14 493.22"/>
    <path class="st9" d="M240.06,500.62l-1,.29.59-.64c.16-.11.26.1.41.37h0v-.02Z"/>
    <path class="st9" d="M246.83,538.25l-.76-.2.76.2Z"/>
    <path class="st9" d="M246.24,498.89l-.74.19.74-.19Z"/>
    <path class="st9" d="M216.62,507.02l-.79.19.79-.19Z"/>
    <path class="st0" d="M213.23,374.63l-10.63-1.53,2.28-15.73c-2.16-.31-4.35-.65-6.66-1.02l-2.28,15.8-10.62-1.54,2.31-15.98c-.65-.11-1.31-.2-1.98-.3-1.45-.22-2.91-.45-4.38-.67l-13.11-1.9,3.89-12.2.44.07c1.73.27,4.24.67,5.72.87l-.04-.05,1.31.18c2.27.33,3.17-1.08,3.51-2.31v-.08l6.24-43.05c-.14-2.55-1.64-4.07-4.49-4.49l-1.13-.16.05-.04c-1.43-.22-4.09-.56-5.89-.79l-.52-.07,1.64-11.28,19.38,2.77,2.28-15.8,10.62,1.54-2.24,15.47c2.21.27,4.48.56,6.69.87l2.22-15.38,10.63,1.53-2.29,15.84c9.43,2.27,21.55,6.85,20.92,20.07-.35,7.42-3.62,12.47-9.7,15,9.31,4.16,12.58,11.35,10.03,21.95-3.92,16.35-17.57,17.63-31.86,16.44l-2.31,15.96h-.03ZM203.76,372.23l8.6,1.24,2.31-15.91.48.04c23.69,2.05,29.02-6.29,31.25-15.62,2.55-10.62-.82-17.38-10.62-21.27l-1.3-.5,1.32-.45c6.44-2.18,9.88-7.08,10.23-14.52.45-9.65-6.07-15.73-20.59-19.13l-.46-.11,2.28-15.75-8.6-1.24-2.22,15.38-.5-.08c-2.37-.33-4.83-.64-7.22-.93l-.98-.12,2.24-15.49-8.58-1.24-2.28,15.8-19.38-2.77-1.34,9.24c4.3.53,5.87.75,6.47.94h0c3.32.48,5.23,2.43,5.36,5.5v.1l-6.34,43.9-.11-.05c-.48,1.17-1.65,2.91-4.46,2.51h0c-.64,0-2.25-.26-6.56-.94l-3.25,10.21,11.91,1.72c1.47.22,2.93.45,4.39.67.83.14,1.65.26,2.47.38l.5.08-2.31,15.96,8.58,1.24,2.28-15.81.52.08c2.67.44,5.19.82,7.67,1.17l.5.08-2.28,15.72h0v-.03ZM217.38,346.02c-5.54.56-11.84-.44-15.88-1.08-.7-.12-1.34-.22-1.87-.29l-.5-.08,3.21-22.16.5.08c.65.08,1.45.18,2.35.29,6.1.74,17.45,2.1,21.82,7.8,1.51,1.98,2.09,4.31,1.71,6.96l-.07.4c-.42,2.31-1.57,4.15-3.38,5.5-2.07,1.53-4.84,2.29-7.85,2.59h-.04ZM200.27,343.71c.41.07.87.14,1.38.22,6.09.96,17.42,2.77,22.96-1.32,1.71-1.26,2.73-3.02,3.04-5.21l.07-.4c.22-2.2-.3-4.15-1.56-5.79-4.09-5.36-15.19-6.69-21.12-7.4-.68-.08-1.31-.16-1.86-.23l-2.92,20.15h0v-.03h0ZM218.47,314.92c-4.54.45-9.58-.35-12.84-.87-.59-.1-1.12-.19-1.57-.25l-.5-.08,2.92-20.19.5.08c.55.07,1.21.15,1.96.23,4.98.59,14.22,1.68,17.98,6.56,1.3,1.69,1.86,3.7,1.65,5.96h0l-.08.64c-.34,2.4-1.45,4.3-3.26,5.64-1.83,1.35-4.23,2.01-6.78,2.27h.02ZM204.72,312.86l1.08.18c4.93.79,14.11,2.28,18.84-1.2,1.5-1.11,2.43-2.65,2.8-4.58l.07-.37c.33-2.27-.14-4.23-1.38-5.84-3.49-4.54-12.47-5.59-17.29-6.17-.55-.07-1.04-.12-1.47-.18l-2.62,18.19h0l-.03-.03h0Z"/>
  </g>
</svg>