<?xml version="1.0" encoding="UTF-8"?>
<svg id="Layer_1" xmlns="http://www.w3.org/2000/svg" version="1.1" viewBox="0 0 300 266">
  <!-- Generator: Adobe Illustrator 30.3.0, SVG Export Plug-In . SVG Version: 2.1.3 Build 182)  -->
  <defs>
    <style>
      .st0 {
        fill: #f38f20;
      }

      .st1 {
        fill: #58524a;
      }

      .st2 {
        fill: #e3dacc;
      }
    </style>
  </defs>
  <path d="M271.94,28.32c.34-.31.32-.89-.03-1.02l.03,1.02Z"/>
  <path class="st0" d="M168.45,123.75c-8.52-17.17-12.28-39.69-6.92-58.27l12.95-44.88,19.82-.67c16.14-.56,31.58-3.83,47.64-7.61l26.17,24.29,26.01,19.03-13.01,44.04c-3.51,11.97-10.19,22.15-18.66,31.01-3.4,3.75-6.93,6.85-11.03,9.76-15.6,11.92-34.07,18.22-53.33,21.81-8.79-8.11-16.8-16.4-22.87-26.5l-4.26-7.12c-.27-.95-.91-1.48-1.72-1.45.31-.34.22-.94-.13-1.01-.59-.59-.18-1.5-.68-2.43h0v-.02s.01,0,.01,0h0ZM277.2,100.01l12.72-42.72-16.52-11.63-26.23-23.09-6.55-6.17c-13.82,3.07-27.28,6.18-41.4,6.87l-22.06,1.07-2.53,7.75-8.46,29.09c-7.12,24.49-2.47,49.11,10.87,70.41.61.98.97,1.86,1.93,2.08-.07.22-.13.77.16,1.15l12.37,15.75,7.57,7.86c9.62-1.72,18.3-4.48,27.2-7.95.91-.36,1.51-.7,1.71-1.47.95.37,1.47-.06,1.54-.64.75.33,1.43.11,2.27-.35l10.67-5.81,1.45-1.96c.75,0,1.43-.19,1.41-1.01,1.3.48,2.55-.28,2.91-1.8,2.9.86,23.63-19.4,29.01-37.47h0v.05s-.02,0-.02,0h0Z"/>
  <path d="M167.8,123.79c-.59-.59-.18-1.5-.68-2.43-8.52-17.17-12.28-39.69-6.92-58.27l12.95-44.88,19.82-.67c16.14-.56,31.58-3.83,47.64-7.61l26.17,24.29,26.01,19.03-13.01,44.04c-3.51,11.97-10.19,22.15-18.66,31.01-3.4,3.75-6.93,6.85-11.03,9.76-15.6,11.92-34.07,18.22-53.33,21.81-8.79-8.11-16.8-16.4-22.87-26.5l-4.26-7.12c-.27-.95-.91-1.48-1.72-1.45.07.16-.12.81-.05,1.13l5.42,9.04c6.1,10.16,14.27,18.47,22.89,26.69,19.25-3.62,37.23-9.97,53.31-21.36,14.11-10.21,25.91-23.42,30.98-40.36l12.71-42.42c.51-1.76,1.34-3.24.99-5.09-11.97-7.65-23.28-15.55-33.51-25.37l-19.47-18.72-40.7,7.06-28.57,1.47-13.28,46c-3.22,11.14-2.95,22.47-1.12,33.8,1.56,9,4.43,17.21,8.36,25.4.45.94.78,1.48,1.9,1.72h0v-.02s0,.02,0,.02h0Z"/>
  <rect class="st1" x="191.96" y="143.84" width="1.55" height="56.73" transform="translate(-26.65 308.84) rotate(-73.69)"/>
  <rect class="st1" x="190.95" y="160.11" width="1.55" height="36.53" transform="translate(-33.3 312.3) rotate(-73.69)"/>
  <rect x="188.63" y="173.36" width="1.55" height="23.31" transform="translate(-41.34 314.86) rotate(-73.69)"/>
  <path d="M228.19,145.99c.75.33,1.43.11,2.27-.35l10.67-5.81,1.45-1.96c-.33.38-1.31.41-2.09.86l-10.62,5.84c-.65.36-1.25.57-1.67,1.42Z"/>
  <path d="M242.58,137.88c.75,0,1.43-.19,1.41-1.01-.24.25-.94.43-1.41,1.01h0Z"/>
  <path d="M226.63,146.62c.95.37,1.47-.06,1.54-.64-.09.09-.58-.37-1-.1-.26.17-.46.42-.56.74h.02Z"/>
  <path d="M177.65,131.28c-.07.22-.13.77.16,1.15l12.37,15.75,7.57,7.86c9.62-1.72,18.3-4.48,27.2-7.95.91-.36,1.51-.7,1.71-1.47-.69-.25-1.41,0-2.3.34-8.52,3.43-16.99,5.85-26.07,7.73-6.94-6.81-13.02-13.63-18.46-21.5-.53-.78-.93-1.56-2.16-1.94h0v.02s-.01,0-.01,0h0Z"/>
  <path d="M177.65,131.28c.13-.46.12-1.03-.33-1.72-12.59-19.63-18.44-44.69-11.86-67.38l11.32-39.03,28.94-1.89,33.31-5.92,25.63,23.72,22.33,16.47-12.13,41.15c-6.8,23.1-27.54,36.64-27.97,38.41,2.9.86,23.63-19.4,29.01-37.47l12.72-42.72-16.52-11.63-26.23-23.09-6.55-6.17c-13.82,3.07-27.28,6.18-41.4,6.87l-22.06,1.07-2.53,7.75-8.46,29.09c-7.12,24.49-2.47,49.11,10.87,70.41.61.98.97,1.86,1.93,2.08v.04s-.03-.03-.03-.03h0s0,0,0,0Z"/>
  <path class="st2" d="M217.78,119.15c-.48,1.63-1.07,3.38-2.95,3.83-3.98,1-6.59-2.38-8.52-6.92-.67-1.58.98-3.12,2.48-3.23,3.23-.23,4.52-2.07,3.87-2.75l-3.23-3.36c-.85-.89.09-3.76,1.29-3.97l3.93-.65c.75-.13.81-1.43.71-1.82-.09-.33-.21-.59-.65-.82l-1.58.51c-1.32,2.2-4.14.04-4.73,1.85l-1.84,5.43,3.41,2.18c1.11,2.9-4.27,1.09-4.73,2.56l-1.21,4.11,4.89,7.22c1.19,1.74,8.48,2.24,9.38-.84l11.82-39.67c4.48-.69,8.43-2.5,11.55-6.17,6.89-8.1,6.05-20.43-2.45-27.32-9.55-7.72-24.07-4.12-29.09,6.93-3.6,7.87-1.63,16.5,4.72,22.24l-2.37,8.79-.94,4.13c-.54,2.33-3.36,6.91-1.16,7.32.22.04.44-.08.55-.37h0c-.02-.68.8-.93,1.1-1.22l.99-4.56c.41-1.91,1.07-3.05,1.52-4.69l2.17-8.06"/>
  <path d="M243.97,136.84c1.3.48,2.55-.28,2.91-1.8-1.37-.15-2.06.87-2.91,1.8Z"/>
  <path d="M208.41,97.32c0-.7.8-.95,1.1-1.24l.99-4.56c.41-1.91,1.07-3.05,1.52-4.69l2.17-8.06c1.21.79,2.47,1.47,3.69,1.73.34-.53.41-1.19.2-1.34-5.36-3.14-8.66-6.86-9.94-12.81-1.95-9.06,3.8-17.53,12.58-19.88,6.21-1.65,12.2-.17,16.67,4.53,4.15,4.36,5.69,10.48,4.12,16.45-1.88,7.09-7.76,12.09-15.01,12.47l-1.88,6.85-9.25,31.3c-.48,1.63-1.07,3.38-2.95,3.83-3.98,1-6.59-2.38-8.52-6.92-.67-1.58.98-3.12,2.48-3.23,3.23-.23,4.52-2.07,3.87-2.75l-3.23-3.36c-.85-.89.09-3.76,1.29-3.97l3.93-.65c.75-.13.81-1.43.71-1.82-.09-.33-.21-.59-.65-.82l-1.58.51c-1.32,2.2-4.14.04-4.73,1.85l-1.84,5.43,3.41,2.18c1.11,2.9-4.27,1.09-4.73,2.56l-1.21,4.11,4.89,7.22c1.19,1.74,8.48,2.24,9.38-.84l11.82-39.67c4.48-.69,8.43-2.5,11.55-6.17,6.89-8.1,6.05-20.43-2.45-27.32-9.55-7.72-24.07-4.12-29.09,6.93-3.6,7.87-1.63,16.5,4.72,22.24l-2.37,8.79-.94,4.13c-.54,2.33-3.36,6.91-1.16,7.32.22.04.44-.08.55-.37h-.07s0,.02,0,.02h0Z"/>
  <path class="st1" d="M209.51,96.07c-.3.28-1.1.52-1.1,1.24,1.14-.22,2,.57,2.25,1.64l1.58-.51c-.31-1.21-1.55-1.88-2.72-2.37h0Z"/>
  <path class="st0" d="M225.97,60.42c2.7.78,5.51-.74,6.29-3.44s-.74-5.51-3.44-6.29-5.51.74-6.29,3.44.74,5.51,3.44,6.29ZM215.02,89.73l.62-4.19c-1.2-.43-1.66-.12-2.28.47.63,2.02.14,3.57-1.9,5.72,1.98,1.15,3.32-.4,3.56-1.99h0v-.02Z"/>
  <path d="M228.82,50.68c2.7.78,4.24,3.61,3.44,6.29s-3.61,4.24-6.29,3.44c-2.69-.8-4.24-3.61-3.44-6.29s3.61-4.24,6.29-3.44ZM226.38,59c1.91.57,3.94-.55,4.51-2.46s-.55-3.94-2.46-4.51-3.94.55-4.51,2.46c-.57,1.91.55,3.94,2.46,4.51Z"/>
  <circle class="st2" cx="227.4" cy="55.52" r="3.62"/>
  <g>
    <path class="st2" d="M29.54,174.35l-14.23-36.96-1.93-5.31,14.85-11.87c9.41-7.52,17.23-16.32,25.21-25.35l8.55-9.67c.76-.86,2.52-.07,3.29.04l14.87,1.77c16.37,1.96,32.46,2.07,48.95.86.92-.05,1.66,1.5,1.74,2.19.32,3.47,2.06,5.83,3.21,8.86l12.15,31.93c3.62,9.52,4.65,19.25,4.26,29.28-1.05,27.36-14.64,51.13-32.84,70.84-16.78-1.88-34.04-6.07-48.41-13.85-17.12-9.26-32.66-24.59-39.68-42.81h0v.02h0ZM145.83,170.16l1-10.99c.07-9.22-.67-18.2-3.99-27.03l-15.31-40.47c-21.75,1.9-42.7.04-63.87-2.77l-16.05,17.86c-8.92,9.95-18.75,18.43-29.59,26.51.11,2.04,1.25,3.67,1.98,5.65l12.69,33.39,6.43,12.61c4.88,7.98,11.35,14.48,18.58,20.28l2,.92c.54,1.35,1.39,1.96,2.35,1.5.12.76.69,1.31,1.58,1.81l3.83,2.31c.42.24.95.11,1.36.02.39,1.38,4.65,3.75,6.21,3.65.17.43.71.41.89.5l1.08.47,1.02.44.99.45.97.47c.49.24.78.25,1.22.1.42,1.05,3.99,2.67,5.62,2.29.23.48.84.35,1.03.5,1.05.86,3.32,1.87,4.8,1.21.83,1.71,16.41,4.67,23.47,5.46l12.35-15.59c.58-.73.92-1.36.97-2.28,1.52-.87,4.74-6.03,4.26-7.69,1.37-.22,2.73-3.1,3.06-5.75l.34-1.1c.27-.27.34-.62.47-1.01.07-.28.21-.79.56-.9.65-.16.97-.62.91-.88l-.24-1.25.55-.96c2.91-3.51,2.04-5.18,2.2-5,.46-.23.35-.84.5-1.05.64-.78,1.3-2.55.84-3.59,1.43-.82,1.16-1.93.64-2.95,1.13-.62,1.97-3.93,1.1-5.51.82-.04,1.1-.65,1.18-1.64h.04s.01.05.01.05h-.02s0,0,0,0Z"/>
    <path class="st2" d="M89.96,226.38l23.99,4.42c19.44-21.61,33.39-46.26,33.63-75.98.09-10.68-1.97-20.61-5.79-30.51l-10.41-27.06c-1.24-3.22-3-6.19-3.45-9.46-.14-.93-1.11-3.05-1.93-3.35-12.38,1.09-24.48,1.85-36.87.47l-31.68-3.53-9.42,10.58-14.42,15.24c-7.99,8.45-16.74,15.57-26.15,22.42l2.11,6.39,13.26,34.8,4.04,8.68,4.75,8.2c6.08,10.49,15.27,18.05,25.79,24.81,10.47,6.43,21.01,10.87,32.56,13.92h-.02s.01-.01.01-.01Z"/>
    <rect class="st2" x="88.85" y="240.47" width="57.51" height="1.55" transform="translate(-77.98 57.46) rotate(-20.79)"/>
    <rect class="st2" x="101.94" y="246.14" width="36.53" height="1.55" transform="translate(-79.83 58.76) rotate(-20.79)"/>
    <path class="st2" d="M128.94,251.31c1.63-.56,4.09.2,4.11-2.64l-20.1,7.62c-.58.22-.87.38-.95,1l16.92-5.98h.02s0,0,0,0Z"/>
    <path d="M31.63,187.69l-4.75-8.2-4.04-8.68-13.26-34.8-2.11-6.39c9.42-6.86,18.14-13.96,26.15-22.42l14.42-15.24,9.42-10.58,31.68,3.53c12.39,1.38,24.49.64,36.87-.47.79.3,1.79,2.41,1.93,3.35.45,3.26,2.22,6.23,3.45,9.46l10.41,27.06c3.82,9.91,5.86,19.83,5.79,30.51-.24,29.71-14.2,54.37-33.63,75.98l-23.99-4.42c-11.52-3.05-22.11-7.44-32.56-13.92-10.51-6.76-19.71-14.32-25.79-24.81h.02s-.01.01-.01.01ZM113.29,229.06c18.2-19.71,31.79-43.5,32.84-70.84.39-10.03-.65-19.79-4.26-29.28l-12.15-31.93c-1.15-3-2.88-5.38-3.21-8.86-.06-.7-.81-2.25-1.74-2.19-16.51,1.18-32.58,1.09-48.95-.86l-14.87-1.77c-.77-.1-2.53-.88-3.29-.04l-8.55,9.67c-7.96,9.03-15.8,17.81-25.21,25.35l-14.85,11.87,1.93,5.31,14.23,36.96c7,18.24,22.57,33.55,39.68,42.81,14.39,7.77,31.6,11.96,48.41,13.85h0v-.02h0Z"/>
    <rect class="st1" x="88.89" y="240.44" width="57.51" height="1.55" transform="translate(-77.97 57.48) rotate(-20.79)"/>
    <rect class="st1" x="101.94" y="246.1" width="36.53" height="1.55" transform="translate(-79.81 58.76) rotate(-20.79)"/>
    <path d="M112,257.29l16.92-5.98c1.63-.56,4.09.2,4.11-2.64l-20.1,7.62c-.58.22-.87.38-.95,1h.02s0,0,0,0Z"/>
    <path class="st2" d="M53.43,201.73l-9.7-9.21-5.41-6.79-2.49-3.9-2.97-4.63-2.82-6.67-12.65-33.38c-.66-1.75-1.95-3.02-2.1-5.23,11.1-8.41,21.03-17.68,30.45-27.85l7.53-8.13,6.41-7.59,11.58,1.4,27.29,2.03c8.06.61,15.78-.03,23.75-.61l1.97,5.42,12.96,34.11c1.69,4.43,2.82,8.89,3.34,13.55l.48,4.37.13,7.95-1.09,11.03c-.08.79-.15,1.55.24,2.26-.94.76-1.63,4.42-1.1,5.51-.15.38-.78.48-.95.72-.23.37-.41,1.34.29,2.24-1.15.54-1.61,2.21-.84,3.59l-.5,1.05c-2.08,1.03-2.08,4.79-2.2,5l-.55.96c-.33.78-.87,1.11-.67,2.16-.29.2-.52.55-.56.9-.27.28-.49.57-.47,1.01-.3.3-.41.71-.34,1.1-1.77,1.65-3.35,4.81-3.06,5.75-.67.46-1.17,1.01-1.7,1.88l-2.63,4.28c-.29.46-.42.94.08,1.51-.94.55-1.52.85-2.18,1.72l-11.67,14.74c-7.46-.85-14.24-2.24-21.28-4.24-.55-.15-1.09-.08-1.68.18-1.01-1.48-3.31-1.96-4.8-1.21-.15-.5-.57-.82-1.03-.5-.65-1.5-4.3-2.73-5.62-2.29-.31-.16-.53-.4-1.22-.1-.24-.17-.6-.44-.97-.47l-.99-.45-1.02-.44-1.08-.47c-.11-.24-.33-.82-.89-.5-.71-1.62-5.17-3.9-6.21-3.65-.48-.57-.98-1.15-1.82-1.71l-3.31-2.14c-.46-.29-.92-.52-1.62-.28-.09-.54-.25-1.11-.78-1.54-.39-.3-1.11-.28-1.57.05-.21-1.03-1.03-1.59-1.94-2.46h-.02s.01-.06.01-.06h0s0,0,0,0ZM112.55,175.42c3.76-1.43,5.4-6.69,4.03-10.23l-10.28-26.48c-1.28-3.32-5.78-4.53-9.25-3.52l-4.05-9.72c-1.53-3.71-4.64-6.38-8.33-8-10.61-4.72-22.79,1.25-25.55,12.55-.83,3.35-.17,6.74.92,10.04l2.72,8.06c-2.96,1.54-5.93,5.45-4.54,9.1l10.32,27.22c1.24,3.31,5.98,5.44,9.53,4.07l34.43-13.1h.04s0,0,0,0Z"/>
    <path d="M76.82,215.91c-.31-.16-.53-.4-1.22-.1.49.24.78.25,1.22.1Z"/>
    <path d="M132.39,194.08l.34-1.1c-.3.3-.41.71-.34,1.1Z"/>
    <path d="M55.35,204.19c-.21-1.03-1.03-1.59-1.94-2.46l-9.7-9.21-5.41-6.79-2.49-3.9-2.97-4.63-2.82-6.67-12.65-33.38c-.66-1.75-1.95-3.02-2.1-5.23,11.1-8.41,21.03-17.68,30.45-27.85l7.53-8.13,6.41-7.59,11.58,1.4,27.29,2.03c8.06.61,15.78-.03,23.75-.61l1.97,5.42,12.96,34.11c1.69,4.43,2.82,8.89,3.34,13.55l.48,4.37.13,7.95-1.09,11.03c-.08.79-.15,1.55.24,2.26.82-.04,1.1-.65,1.18-1.64l1-10.99c.07-9.22-.67-18.2-3.99-27.03l-15.31-40.47c-21.75,1.9-42.7.04-63.87-2.77l-16.05,17.86c-8.92,9.95-18.75,18.43-29.59,26.51.11,2.04,1.25,3.67,1.98,5.65l12.69,33.39,6.43,12.61c4.88,7.98,11.35,14.48,18.58,20.28l2,.92h.02s0,0,0,0Z"/>
    <path d="M137.69,181.91c.64-.78,1.3-2.55.84-3.59-1.15.54-1.61,2.21-.84,3.59Z"/>
    <path d="M134.99,187.95c2.91-3.51,2.04-5.18,2.2-5-2.08,1.03-2.08,4.79-2.2,5Z"/>
    <path d="M134.46,188.91l.55-.96-.55.96Z"/>
    <path d="M133.78,191.07c.65-.16.97-.62.91-.88l-.24-1.25c-.33.78-.87,1.11-.67,2.16v-.02h0,0Z"/>
    <path d="M64.45,209.82c.39,1.38,4.65,3.75,6.21,3.65-.71-1.62-5.17-3.9-6.21-3.65Z"/>
    <path d="M71.57,213.98c-.11-.24-.33-.82-.89-.5.17.43.71.41.89.5Z"/>
    <path d="M72.62,214.44l-1.08-.47,1.08.47Z"/>
    <path d="M55.35,204.19c.54,1.35,1.39,1.96,2.35,1.5-.09-.54-.25-1.11-.78-1.54-.39-.3-1.11-.28-1.57.05h0Z"/>
    <path d="M88.25,219.91c.83,1.71,16.41,4.67,23.47,5.46l12.35-15.59c.58-.73.92-1.36.97-2.28-.94.55-1.52.85-2.18,1.72l-11.67,14.74c-7.46-.85-14.24-2.24-21.28-4.24-.55-.15-1.09-.08-1.68.18h.02s0,0,0,0Z"/>
    <path d="M83.46,218.7c1.05.86,3.32,1.87,4.8,1.21-1.01-1.48-3.31-1.96-4.8-1.21Z"/>
    <path d="M83.46,218.7c-.15-.5-.57-.82-1.03-.5.23.48.84.35,1.03.5Z"/>
    <path d="M125.07,207.51c1.52-.87,4.74-6.03,4.26-7.69-.67.46-1.17,1.01-1.7,1.88l-2.63,4.28c-.29.46-.42.94.08,1.51h0v.02s0,0,0,0h0Z"/>
    <path d="M133.22,191.97c.07-.28.21-.79.56-.9-.29.2-.52.55-.56.9Z"/>
    <path d="M138.53,178.33c1.43-.82,1.16-1.93.64-2.95-.15.38-.78.48-.95.72-.23.37-.41,1.34.29,2.24h.02Z"/>
    <path d="M76.82,215.91c.42,1.05,3.99,2.67,5.62,2.29-.65-1.5-4.3-2.73-5.62-2.29Z"/>
    <path d="M73.64,214.88l-1.02-.44,1.02.44Z"/>
    <path d="M129.32,199.85c1.37-.22,2.73-3.1,3.06-5.75-1.77,1.65-3.35,4.81-3.06,5.75Z"/>
    <path d="M57.72,205.69c.12.76.69,1.31,1.58,1.81l3.83,2.31c.42.24.95.11,1.36.02-.48-.57-.98-1.15-1.82-1.71l-3.31-2.14c-.46-.29-.92-.52-1.62-.28h-.03s0,0,0,0Z"/>
    <path d="M132.75,192.98c.27-.27.34-.62.47-1.01-.27.28-.49.57-.47,1.01Z"/>
    <path d="M75.62,215.81c-.24-.17-.6-.44-.97-.47l.97.47Z"/>
    <path d="M74.61,215.36l-.99-.45.99.45Z"/>
    <path class="st0" d="M65.32,183.46l-8.54-22.55c-1.28-3.34-.73-6.85,2.35-8.92l13.16-5.11,10.71-4.05,11.78-4.32c3.82-.01,6.28,2.51,7.58,5.94l8.23,21.82c1.44,3.8.34,7.8-3.21,9.86l-31.58,12.1c-4.86,1.86-8.85-.36-10.49-4.72v-.04s.03,0,.03,0h-.02s0-.01,0-.01ZM89.39,171.92c1.37-1.82-2.66-6.6-1.67-8.28,1.72-2.88,1.6-5.79-.87-8.04-1.66-1.52-3.73-2.11-6.01-1.39-2.97.93-4.82,3.39-4.74,5.96.09,3.22,1.94,5.72,5.29,6.39l3.08,7.35c1.82-.11,3.95-.66,4.94-2h-.02s0,.02,0,.02Z"/>
    <path d="M137.19,182.95c.46-.23.35-.84.5-1.05l-.5,1.05Z"/>
    <path d="M68.59,184.41l-10.32-27.22c-1.39-3.64,1.58-7.58,4.54-9.1l-2.72-8.06c-1.11-3.27-1.75-6.69-.92-10.04,2.78-11.29,14.92-17.25,25.55-12.55,3.69,1.64,6.77,4.32,8.33,8l4.05,9.72c3.44-1.01,7.95.2,9.25,3.52l10.28,26.48c1.35,3.53-.27,8.81-4.03,10.23l-34.43,13.1c-3.55,1.35-8.26-.78-9.53-4.07h-.04s0,0,0,0ZM70.85,122.54c3.83-1.98,7.87-2.07,11.47-.53,3.6,1.55,6.1,4.95,7.7,9.19l2.17,5.75,3.09-1.21-3.53-9.42c-2.51-6.68-10.17-9.58-16.48-8.97-10.68,1.04-17.33,12.28-14.52,19.91l3.75,10.15c1.21-.14,1.99-.38,2.98-1.05l-3.17-9.1c-2.1-6.04,1.16-11.97,6.51-14.72h.02s0,0,0,0ZM84.24,140.17l6.8-2.56-2.04-5.17c-1.51-3.85-3.27-7.28-6.75-8.91-3.54-1.68-7.95-1.8-11.62.57-8.09,5.27-5.65,13.38-1.34,21.86l8.04-3.16,6.87-2.63h.05s0,0,0,0ZM111.31,174.15c3.54-2.04,4.65-6.05,3.21-9.86l-8.23-21.82c-1.32-3.43-3.75-5.97-7.58-5.94l-11.78,4.32-10.71,4.05-13.16,5.11c-3.08,2.07-3.62,5.59-2.35,8.92l8.54,22.55c1.65,4.38,5.65,6.58,10.49,4.72l31.58-12.1v.04s-.03,0-.03,0h.02s0,.01,0,.01Z"/>
    <path class="st2" d="M77.36,142.8l6.87-2.63,6.8-2.56-2.04-5.17c-1.51-3.85-3.27-7.28-6.75-8.91-3.54-1.68-7.95-1.8-11.62.57-8.09,5.27-5.65,13.38-1.34,21.86l8.04-3.16h.05s0,0,0,0Z"/>
    <path class="st2" d="M64.33,137.27c-2.1-6.04,1.16-11.97,6.51-14.72,3.83-1.98,7.87-2.07,11.47-.53s6.1,4.95,7.7,9.19l2.17,5.75,3.09-1.21-3.53-9.42c-2.51-6.68-10.17-9.58-16.48-8.97-10.68,1.04-17.33,12.28-14.52,19.91l3.75,10.15c1.21-.14,1.99-.38,2.98-1.05l-3.17-9.1h.02s0,0,0,0Z"/>
    <path d="M85.24,164.59c-3.35-.67-5.21-3.17-5.29-6.39-.06-2.59,1.77-5.02,4.74-5.96,2.27-.72,4.37-.1,6.01,1.39,2.46,2.25,2.59,5.16.87,8.04-.98,1.66,3.04,6.46,1.67,8.28-1.02,1.32-3.12,1.87-4.94,2l-3.08-7.35h.02s0-.02,0-.02ZM91.9,168.86l-2.3-7.1c.83-1.69,1.96-3.05,1.35-4.78-.64-1.84-2.08-3.26-4.43-3.35s-4.6,1.86-4.83,3.72c-.36,2.81,1.47,5.1,4.38,5.43l3.2,7.26c.31.71,2.91-.41,2.64-1.26h.02s-.01.06-.01.06h-.01Z"/>
    <path class="st2" d="M89.26,170.09c.31.71,2.91-.41,2.64-1.26l-2.3-7.1c.83-1.69,1.96-3.05,1.35-4.78-.64-1.84-2.08-3.26-4.43-3.35-2.36-.09-4.6,1.86-4.83,3.72-.36,2.81,1.47,5.1,4.38,5.43l3.2,7.26h.02s-.01.06-.01.06h-.01Z"/>
  </g>
</svg>