<?xml version="1.0" encoding="UTF-8"?>
<svg id="Layer_1" xmlns="http://www.w3.org/2000/svg" version="1.1" viewBox="0 0 300 300">
  <!-- Generator: Adobe Illustrator 30.3.0, SVG Export Plug-In . SVG Version: 2.1.3 Build 182)  -->
  <defs>
    <style>
      .st0 {
        fill: #f38f20;
      }

      .st1 {
        fill: #f4901f;
      }

      .st2 {
        fill: #58524a;
      }

      .st3 {
        fill: #e3dacc;
      }
    </style>
  </defs>
  <path class="st3" d="M227.89,195.31c-8-5.8-15.11-15.19-17.11-24.96l-4.83-23.6,8.89-5.05c7.24-4.12,13.51-9.31,19.94-14.88l17.77,4.83,16.44,2.47,4.6,23.23c1.26,6.31.65,12.56-1.1,18.63-.65,2.53-1.53,4.79-2.7,7.1-4.27,9.18-11.2,16.48-19.14,22.73-5.96-1.6-11.6-3.47-16.79-6.63l-3.65-2.23c-.35-.37-.77-.46-1.13-.25.06-.23-.12-.48-.3-.43-.41-.13-.44-.64-.89-.95h0Z"/>
  <path d="M262.96,144.11c.14-.19.07-.48-.12-.51l.12.51Z"/>
  <g>
    <path class="st3" d="M34.45,300.57l14.3.6,10.24-17.21,3.93-6.09c5.37-6.19,13.2-10.93,21.32-11.93,4.38-.54,8.76-.52,13.13.16l7.68,2.44,6.09,2.22,1.63.66c.15-.14,0-.28-.12-.41-.66-.85-1.61-.74-2.23-1.09l-4.39-2.4-5.98-2.9-15.53-4.94c-1.62-.51-3.24-.79-4.88-.66l-6.9.51c-5.8.43-12.75,4.38-16.88,8.53l-3.46,3.49-1.43,1.53s-16.53,27.47-16.53,27.47Z"/>
    <path d="M33.55,300.53l.81.49,16.63-27.92,1.43-1.53,3.46-3.49c4.13-4.15,11.08-8.1,16.88-8.53l6.9-.51c1.65-.12,3.27.15,4.88.66l15.53,4.94,5.98,2.9,4.39,2.4c.63.35,1.57.24,2.23,1.09.12.12.27.27.12.41.68.27,1.39.26,2.26.64l2.28.98c1.8.78,3.55,1.25,5.19,2.52l1.91.73,7,3.58,5.7,1.49c7.64,2.13,16.61-1.81,17.25-8.19.64-6.39-3.76-13.41-8.81-17.89l-6.66-5.91c-1.85-1.65-3.49-3.27-5.06-5.21l-8.2-10.24c-1.66-2.08-3.14-4.14-4.03-6.63l-3.28-9.12-1.61-7.5c-2.11-9.86,1.84-23.85,7.48-32.45l1.32-2.01c2.69-4.1,6.44-7.2,10.64-9.69,8.82-5.23,19.63-5.19,29.6-3.23,4.75.93,9.1,2.46,13.66,4.2l21.26,8.13,9.68,2.7c2.2.61,4.67.15,6.84-.38,8.31-2.01,12.96-10.43,10.34-18.53-.97-2.97-2.95-5.22-5.27-7.38l-23.89-22.39c-8.87-8.32-14.09-19.55-9.41-31.15,2.21-5.47,5.89-9.97,11.01-12.82,2.14-1.19,4.41-1.76,6.72-2.4,8.44-2.35,18.51-.87,26.47,2.88l2.59,1.22,12.99,6.36c.27.13.54.28.62.39.47-.16.88.16,1.27.39l1.04.62c.06-.18.29-.27.54-.12l1.03.62c.58.35,1.23.47,1.96.73l7.35,2.57c5.67,1.99,12.56,2.62,18.22.64,2.52-.88,5.51-3.32,6.38-5.59l1.14-2.94c1.13-2.93.13-5.1-1.49-7.47l-2.88-4.25c-2.94-4.33-6.76-7.77-10.65-11.32l-12.56-11.49c-4.34-3.97-9.52-11.39-11.38-17.12-3.18-9.74,1.73-20.04,11.02-21.44,4.38-.66,9.01-.51,12.94,1.5l11.64,5.99,5.2,3.12,11.9,7.6c.43.26.72.1.92-.02.05-.14.05-.38-.15-.5l-15.42-9.67-10.2-5.4-3.89-1.88c-2.58-1.24-5.37-1.53-8.21-1.62-6.24-.19-11.24,1.69-14.82,6.98-.67,1-1.28,1.73-1.55,2.94l-.41,1.89c-1.44,6.61.43,12.54,4.04,18.25,2.29,3.63,4.81,7.02,8,9.94l11.31,10.37,9.5,9.35c3.05,3.01,5.15,6.75,7.12,10.44.06,2.32-.63,4.14-1.6,6.07l-1.03,2.08c-1.82,2.4-4.21,3.93-7.17,4.26l-5.13.57c-2.94.33-5.99-.35-8.85-1.41l-14.85-5.48-3.24-1.44-3.29-1.54-4.68-2.33-3.34-1.85-3-1.15c-5.88-2.25-11.92-3.59-18.15-3.38l-4.6.52-5.19,1.29c-2.88.72-5.43,2.02-7.78,3.89-7.8,6.17-11.51,16.36-8.9,25.96,1.81,6.65,5.29,11.89,10.37,16.68l24.75,23.32c4.55,4.29,6.54,10.05,4.13,15.72-.4.95-1.34,1.73-1.44,2.85-2.18,3.07-5.11,5.16-8.72,5.7l-2.28.35c-1.33.2-2.74.25-4.14-.17l-9.43-2.73-21.61-8.34c-9.89-3.82-19.8-6.14-30.38-4.87-3.02.36-5.98.96-8.74,2.2l-2.66,1.19c-10.49,4.73-17.48,17.32-20.39,28.55-2.2,8.5-1.36,20.02,1.88,27.84l3.72,8.99,3.16,4.45,3.39,4.13,6.71,8.25,9.95,8.97c4.18,3.78,8.09,9.71,8.16,15.25.09,7.23-9.09,11.52-16.71,9.09l-6.67-2.13-3.93-1.97c-1-.5-1.7-.82-2.64-1.29l-3.5-1.77-2.74-.99-16.48-8.27-15.75-4.99c-1.91-.6-3.75-.92-5.74-.88-3.93-.02-7.74.51-11.56,1.58-5.28,1.49-11.72,6.06-15.56,10.28l-1.12,1.23-1.41,1.53-16.53,27.5h0Z"/>
    <path class="st3" d="M251.69,95.09l-1.04-.62c-.43.37-.99,0-1.27-.39-.08-.12-.35-.27-.62-.39l-12.99-6.36-2.59-1.22c-7.97-3.75-18.03-5.23-26.47-2.88-2.31.65-4.58,1.21-6.72,2.4-5.12,2.85-8.81,7.35-11.01,12.82-4.68,11.6.55,22.84,9.41,31.15l23.89,22.39c2.32,2.18,4.31,4.41,5.27,7.38,2.63,8.11-2.03,16.53-10.34,18.53-2.17.52-4.65.99-6.84.38l-9.68-2.7-21.26-8.13c-4.55-1.74-8.91-3.27-13.66-4.2-9.96-1.95-20.78-2-29.6,3.23-4.2,2.49-7.95,5.59-10.64,9.69l-1.32,2.01c-5.64,8.6-9.59,22.58-7.48,32.45l1.61,7.5,3.28,9.12c.89,2.48,2.37,4.54,4.03,6.63l8.2,10.24c1.56,1.94,3.2,3.57,5.06,5.21l6.66,5.91c5.05,4.48,9.48,11.21,8.81,17.89s-9.62,10.33-17.25,8.19l-5.7-1.49,2.99,1.7,3.44,1.83,3.01,1.25,14.65,7.32,6.69,2.41c3.03,1.09,6.25,1.92,9.32,1.26l3.05-.66c1.48-.32,2.69-1.02,3.96-1.83,7.93-5.06-.11-17.65-6.54-23.12l-4.84-4.11-8.87-7.5-11.21-12.29c-2.1-2.3-4.18-4.46-5.79-7.11-2.89-4.75-5.11-9.65-6.95-14.89l-2.56-10.15c-1.29-5.13,0-15.83,2.41-20.79l3.72-7.64c6.11-10.09,15.03-14.68,26.59-15.4l7.67.14c6.22.54,12.18,1.86,18.11,3.87l5.1,1.73,14.05,5.82,17.27,7.2,11.39,11.09c2.27.77,4.44-6.78,6.79-6.94,2.63-.18,5.06-1.17,7.2-2.7,4.38-3.11,6.01-8.48,4.41-13.58-1.27-4.03-3.86-7.06-7.09-9.9l-31.35-27.58c-3.38-2.98-6.08-6.21-8.53-9.87-6.31-9.45-7.5-20.37-.29-29.53,2.57-3.26,5.96-5.35,9.83-6.72l3.61-.81c2.9-.65,5.77-1.13,8.78-1.02,4.11.15,8.2.33,12.1,1.61l7.31,2.41c.47.15.97.17,1.26.5.16-.38-.17-.59-.47-.77h0Z"/>
    <path class="st3" d="M253.25,95.59l-.18.37,4.6,2.34,9.83,5.16,22.21,9.71c7.38,3.23,21.78,6.11,27.13.16,2.44-2.72,4.09-7.61,2.36-10.37-3.29-5.26-7.09-9.97-11.77-14.02l-11.54-9.98-4.91-4.04c-5.22-4.3-9.9-8.85-14.23-14.03-3.36-4.02-6.09-8.32-7.71-13.25-2.49-7.56-.54-15.69,6.9-18.69,2.54-1.02,5.17-1.43,7.88-1.12l4.84.55c.58.06,1.04.36,1.5.11l-5.2-3.12-11.64-5.99c-3.93-2.02-8.55-2.17-12.94-1.5-9.3,1.41-14.2,11.7-11.02,21.44,1.87,5.73,7.04,13.14,11.38,17.12l12.56,11.49c3.9,3.57,7.72,7.01,10.65,11.32l2.88,4.25c1.62,2.38,2.62,4.55,1.49,7.47l-1.14,2.94c-.88,2.27-3.87,4.7-6.38,5.59-5.66,1.99-12.55,1.35-18.22-.64l-7.35-2.57c-.74-.26-1.38-.39-1.96-.73v.02Z"/>
    <path class="st1" d="M251.69,95.09c.3.18.63.4.47.77.24.27.66.17.92.1l.18-.37-1.03-.62c-.25-.15-.47-.06-.54.12h0Z"/>
    <path class="st1" d="M249.39,94.08c.28.39.84.76,1.27.39-.4-.23-.81-.55-1.27-.39Z"/>
  </g>
  <path class="st3" d="M231.61,194.95c-10.45-5.95-19.12-16-21.55-27.94l-4.17-20.54,12.77-7.79,13.8-10.68,17.39,4.7,14.14,2.18,4.31,21.7c2.42,12.18-3.81,23.33-3.58,24.24-.66.26-.73.89-.9,1.52-.05.17-.33.42-.4.8-.06.25-.5.5-.75.89l-3.45,5.21c-.21.32-.43.56-.42,1.05-.02.06-.35-.03-.48.19-.08.14-.11.3-.08.47-.38.05-.64.34-.97.71-3.07,3.61-6.36,6.74-10.06,9.77-4.8-1.45-9.21-3.11-13.58-5.4-.43-.23-.8-.49-1.45-.37-.05-.24-.19-.5-.56-.71h.01ZM237.78,174.97l.46,2.92,2.08.18c1.2,1.06-1.69,1.52-1.55,2.3l.43,2.17,3.96,2.13c.96.51,4.41-1.01,4.08-2.63l-4.1-20.95c1.88-1.39,3.25-3.16,3.8-5.58,1.21-5.35-2.13-10.78-7.66-11.89-6.21-1.24-11.98,3.88-11.63,10.13.24,4.46,3.21,7.93,7.48,9.03l1.02,4.58.56,2.11c.31,1.19.12,3.96,1.22,3.62.11-.03.18-.14.16-.3.47-.37,1.05-.22,1.42.21-.08,1.32-1.88,1.01-1.72,1.98h0Z"/>
  <path class="st0" d="M226.17,194.42c-8-5.8-15.11-15.19-17.11-24.96l-4.83-23.6,8.89-5.05c7.24-4.12,13.51-9.31,19.94-14.88l17.77,4.83,16.44,2.47,4.6,23.23c1.26,6.31.65,12.56-1.1,18.63-.65,2.53-1.53,4.79-2.7,7.1-4.27,9.18-11.2,16.48-19.14,22.73-5.96-1.6-11.6-3.47-16.79-6.63l-3.65-2.23c-.35-.37-.77-.46-1.13-.25.06-.23-.12-.48-.3-.43-.41-.13-.44-.64-.89-.95h0ZM270.16,157.54l-4.42-22.56-10.33-1.36-17.51-4.27-4.47-1.25c-5.58,4.71-10.98,9.35-17.27,13.05l-9.82,5.77.7,4.15,3.1,15.31c2.61,12.89,10.63,23.02,21.82,29.56.51.3.89.62,1.38.49.02.12.12.38.35.49l9.42,4.23,5.34,1.78c3.98-3.09,7.29-6.43,10.52-10.14.33-.38.52-.68.43-1.08.52-.06.66-.38.55-.66.42-.03.68-.29.95-.7l3.48-5.21.19-1.24c.34-.18.61-.43.4-.8.71-.09,1.1-.74.9-1.52,1.53-.3,6.15-14.52,4.28-24.06h0Z"/>
  <path d="M225.88,194.59c-.41-.13-.44-.64-.89-.95-8-5.8-15.11-15.19-17.11-24.96l-4.83-23.6,8.89-5.05c7.24-4.12,13.51-9.31,19.94-14.88l17.77,4.83,16.44,2.47,4.6,23.23c1.26,6.31.65,12.56-1.1,18.63-.65,2.53-1.53,4.79-2.7,7.1-4.27,9.18-11.2,16.48-19.14,22.73-5.96-1.6-11.6-3.47-16.79-6.63l-3.65-2.23c-.35-.37-.77-.46-1.13-.25.07.06.14.4.25.53l4.64,2.83c5.22,3.18,10.94,5.02,16.85,6.71,7.93-6.26,14.62-13.47,19.24-22.52,4-8.04,6.23-16.9,4.49-25.85l-4.35-22.42c-.19-.93-.16-1.8-.77-2.56-7.3-.63-14.36-1.53-21.38-3.57l-13.38-3.89-16.9,12.97-12.7,7.51,4.95,24.19c1.2,5.86,4.03,10.97,7.58,15.71,2.87,3.74,6.14,6.8,9.9,9.6.43.32.71.49,1.28.33h0Z"/>
  <rect class="st2" x="234.23" y="210.34" width="29.26" height=".8" transform="translate(-36.61 53.1) rotate(-11.35)"/>
  <rect class="st2" x="240.45" y="213.4" width="18.84" height=".8" transform="translate(-37.19 53.36) rotate(-11.35)"/>
  <rect x="244.39" y="216.99" width="12.02" height=".8" transform="translate(-37.88 53.53) rotate(-11.35)"/>
  <path d="M258.78,190.28c.42-.03.68-.29.95-.7l3.48-5.21.19-1.24c-.06.25-.5.5-.75.89l-3.45,5.21c-.21.32-.43.56-.42,1.05Z"/>
  <path d="M263.41,183.13c.34-.18.61-.43.4-.8-.05.17-.33.42-.4.8Z"/>
  <path d="M258.22,190.94c.52-.06.66-.38.55-.66-.02.06-.35-.03-.48.19-.08.14-.11.3-.08.47h0Z"/>
  <path d="M232.17,195.66c.02.12.12.38.35.49l9.42,4.23,5.34,1.78c3.98-3.09,7.29-6.43,10.52-10.14.33-.38.52-.68.43-1.08-.38.05-.64.34-.97.71-3.07,3.61-6.36,6.74-10.06,9.77-4.8-1.45-9.21-3.11-13.58-5.4-.43-.23-.8-.49-1.45-.37h0Z"/>
  <path d="M232.17,195.66c-.05-.24-.19-.5-.56-.71-10.45-5.95-19.12-16-21.55-27.94l-4.17-20.54,12.77-7.79,13.8-10.68,17.39,4.7,14.14,2.18,4.31,21.7c2.42,12.18-3.81,23.33-3.58,24.24,1.53-.3,6.15-14.52,4.28-24.06l-4.42-22.56-10.33-1.36-17.51-4.27-4.47-1.25c-5.58,4.71-10.98,9.35-17.27,13.05l-9.82,5.77.7,4.15,3.1,15.31c2.61,12.89,10.63,23.02,21.82,29.56.51.3.89.62,1.38.49v.02Z"/>
  <path class="st0" d="M247.6,180.51c.17.86.32,1.8-.43,2.46-1.58,1.41-3.58.49-5.55-1.12-.68-.56-.3-1.66.36-2.07,1.42-.88,1.57-2.03,1.11-2.18l-2.28-.76c-.6-.2-.86-1.74-.36-2.12l1.64-1.24c.31-.24.03-.85-.11-1-.12-.13-.24-.22-.49-.22l-.6.61c-.08,1.32-1.88,1.01-1.72,1.98l.46,2.92,2.08.18c1.2,1.06-1.69,1.52-1.55,2.3l.43,2.17,3.96,2.13c.96.51,4.41-1.01,4.08-2.63l-4.1-20.95c1.88-1.39,3.25-3.16,3.8-5.58,1.21-5.35-2.13-10.78-7.66-11.89-6.21-1.24-11.98,3.88-11.63,10.13.24,4.46,3.21,7.93,7.48,9.03l1.02,4.58.56,2.11c.31,1.19.12,3.96,1.22,3.62.11-.03.18-.14.16-.3h0c-.17-.31.14-.62.21-.82l-.64-2.32c-.27-.97-.24-1.65-.43-2.51l-.94-4.2"/>
  <path d="M263.8,182.32c.71-.09,1.1-.74.9-1.52-.66.26-.73.89-.9,1.52Z"/>
  <path d="M238.09,172.78c-.17-.32.14-.63.21-.83l-.64-2.32c-.27-.97-.24-1.65-.43-2.51l-.94-4.2c.74.07,1.48.08,2.1-.09.03-.32-.1-.64-.23-.66-3.2-.15-5.6-1.06-7.61-3.47-3.06-3.67-2.46-8.92.99-12.09,2.44-2.24,5.53-3,8.7-1.92,2.94,1,5.11,3.42,5.82,6.53.84,3.69-.65,7.38-3.87,9.29l.78,3.58,3.27,16.51c.17.86.32,1.8-.43,2.46-1.58,1.41-3.58.49-5.55-1.12-.68-.56-.3-1.66.36-2.07,1.42-.88,1.57-2.03,1.11-2.18l-2.28-.76c-.6-.2-.86-1.74-.36-2.12l1.64-1.24c.31-.24.03-.85-.11-1-.12-.13-.24-.22-.49-.22l-.6.61c-.08,1.32-1.88,1.01-1.72,1.98l.46,2.92,2.08.18c1.2,1.06-1.69,1.52-1.55,2.3l.43,2.17,3.96,2.13c.96.51,4.41-1.01,4.08-2.63l-4.1-20.95c1.88-1.39,3.25-3.16,3.8-5.58,1.21-5.35-2.13-10.78-7.66-11.89-6.21-1.24-11.98,3.88-11.63,10.13.24,4.46,3.21,7.93,7.48,9.03l1.02,4.58.56,2.11c.31,1.19.12,3.96,1.22,3.62.11-.03.18-.14.16-.3h0Z"/>
  <path class="st2" d="M238.3,171.95c-.07.2-.38.5-.21.83.47-.37,1.05-.22,1.42.21l.6-.61c-.43-.48-1.16-.49-1.81-.43h0Z"/>
  <path class="st0" d="M237.28,151.72c1.42-.29,2.34-1.66,2.05-3.08s-1.66-2.34-3.08-2.05-2.34,1.66-2.05,3.08,1.66,2.34,3.08,2.05ZM239.3,167.73l-.72-2.06c-.65.09-.79.34-.93.76.77.77.92,1.6.5,3.07,1.18.05,1.42-.98,1.15-1.76h0Z"/>
  <path d="M236.25,146.59c1.42-.29,2.8.63,3.08,2.05s-.63,2.8-2.05,3.08-2.8-.63-3.08-2.05.63-2.8,2.05-3.08ZM237.13,150.97c1.01-.2,1.67-1.19,1.47-2.2s-1.19-1.67-2.2-1.47-1.67,1.19-1.47,2.2,1.19,1.67,2.2,1.47Z"/>
  <circle class="st3" cx="236.76" cy="149.14" r="1.87"/>
  <g>
    <path class="st3" d="M155.05,242.38l-10.92-17.26-1.51-2.49,6.32-7.5c4-4.75,7.07-9.99,10.2-15.36l3.35-5.75c.3-.51,1.27-.29,1.67-.31l7.7-.6c8.48-.66,16.63-2.22,24.85-4.49.46-.12.99.59,1.1.93.51,1.72,1.63,2.74,2.52,4.16l9.36,14.93c2.79,4.45,4.29,9.27,5.1,14.38,2.22,13.95-2.26,27.34-9.48,39.14-8.68.74-17.83.36-25.88-2.13-9.59-2.96-19-9.15-24.38-17.66h0ZM213.45,228.55l-.6-5.66c-.89-4.67-2.17-9.14-4.74-13.27l-11.82-18.93c-10.81,3.15-21.59,4.32-32.59,5.03l-6.32,10.65c-3.51,5.93-7.63,11.21-12.3,16.39.26,1.02,1,1.73,1.57,2.66l9.78,15.61,4.52,5.73c3.27,3.55,7.2,6.18,11.44,8.39l1.1.26c.41.63.9.85,1.34.52.14.37.48.59.98.76l2.17.78c.24.08.49-.04.69-.13.34.66,2.73,1.43,3.51,1.22.13.2.4.14.5.16l.59.13.56.12.55.13.54.14c.27.07.42.05.63-.07.32.49,2.29.95,3.07.59.16.22.46.09.57.15.62.33,1.87.61,2.55.13.59.78,8.77.71,12.42.4l4.68-9.13c.22-.43.33-.78.26-1.25.68-.59,1.79-3.53,1.38-4.32.67-.25,1.07-1.84.97-3.22l.06-.59c.11-.16.11-.35.14-.56.01-.15.03-.42.19-.51.31-.15.43-.41.37-.54l-.25-.61.18-.54c1.12-2.07.51-2.83.61-2.75.21-.16.09-.46.15-.58.25-.46.4-1.42.06-1.9.64-.56.39-1.09.03-1.56.51-.43.6-2.19,0-2.9.41-.1.49-.44.43-.95h.02Z"/>
    <path class="st3" d="M190.85,262.61l12.58-.18c7.66-12.89,12.23-26.76,9.36-41.82-1.03-5.41-3.07-10.23-6-14.85l-7.99-12.64c-.95-1.5-2.14-2.83-2.7-4.44-.16-.46-.87-1.43-1.31-1.5-6.15,1.8-12.2,3.4-18.6,3.95l-16.38,1.4-3.7,6.3-5.76,9.16c-3.19,5.08-6.9,9.56-10.97,13.97l1.71,3.02,10.21,16.27,2.92,3.98,3.23,3.67c4.13,4.69,9.54,7.59,15.54,9.95,5.94,2.2,11.72,3.38,17.87,3.76h0Z"/>
    <rect class="st3" x="191.5" y="266.94" width="29.66" height=".8" transform="translate(-110.42 150.24) rotate(-32.05)"/>
    <rect class="st3" x="198.79" y="269.56" width="18.84" height=".8" transform="translate(-111.52 151.63) rotate(-32.05)"/>
    <path class="st3" d="M213.08,271.3c.77-.45,2.09-.31,1.81-1.75l-9.4,5.88c-.27.17-.4.28-.38.6l7.96-4.73h0Z"/>
    <path d="M157.45,248.91l-3.23-3.67-2.92-3.98-10.21-16.27-1.71-3.02c4.07-4.42,7.77-8.89,10.97-13.97l5.76-9.16,3.7-6.3,16.38-1.4c6.41-.55,12.45-2.14,18.6-3.95.43.07,1.15,1.04,1.31,1.5.56,1.6,1.75,2.93,2.7,4.44l7.99,12.64c2.93,4.63,4.96,9.44,6,14.85,2.87,15.05-1.71,28.93-9.36,41.82l-12.58.18c-6.13-.38-11.93-1.54-17.87-3.76-6-2.36-11.41-5.26-15.54-9.95h0ZM202.92,261.62c7.22-11.8,11.7-25.2,9.48-39.14-.81-5.11-2.32-9.94-5.1-14.38l-9.36-14.93c-.88-1.4-2-2.43-2.52-4.16-.1-.35-.64-1.06-1.1-.93-8.23,2.26-16.37,3.83-24.85,4.49l-7.7.6c-.4.03-1.37-.19-1.67.31l-3.35,5.75c-3.12,5.37-6.2,10.6-10.2,15.36l-6.32,7.5,1.51,2.49,10.92,17.26c5.38,8.52,14.79,14.7,24.38,17.66,8.06,2.48,17.19,2.87,25.88,2.13h0Z"/>
    <rect class="st2" x="191.52" y="266.92" width="29.66" height=".8" transform="translate(-110.41 150.25) rotate(-32.05)"/>
    <rect class="st2" x="198.8" y="269.53" width="18.84" height=".8" transform="translate(-111.51 151.64) rotate(-32.05)"/>
    <path d="M205.11,276.03l7.96-4.73c.77-.45,2.09-.31,1.81-1.75l-9.4,5.88c-.27.17-.4.28-.38.6h0Z"/>
    <path class="st3" d="M169.89,253.82l-5.83-3.68-3.42-2.89-1.65-1.72-1.97-2.04-2.1-3.09-9.76-15.61c-.51-.82-1.29-1.33-1.59-2.43,4.77-5.37,8.86-11.06,12.6-17.15l2.99-4.87,2.48-4.48,6-.46,14.01-1.72c4.14-.5,7.98-1.6,11.95-2.7l1.54,2.54,9.99,15.95c1.3,2.07,2.32,4.21,3.05,6.52l.68,2.16.87,4.01.56,5.69c.04.41.08.8.35,1.12-.4.48-.38,2.4,0,2.9-.04.21-.35.32-.41.46-.08.21-.07.72.37,1.1-.53.39-.59,1.28-.06,1.9l-.15.58c-.95.73-.57,2.63-.61,2.75l-.18.54c-.09.43-.33.65-.12,1.16-.13.13-.21.33-.19.51-.11.17-.19.34-.14.56-.12.18-.14.4-.06.59-.73,1.01-1.21,2.77-.97,3.22-.29.3-.49.63-.67,1.12l-.9,2.43c-.1.26-.12.52.19.76-.42.37-.68.58-.93,1.09l-4.42,8.63c-3.86.32-7.43.3-11.19,0-.29-.02-.56.07-.83.26-.66-.65-1.87-.66-2.55-.13-.13-.24-.37-.36-.57-.15-.48-.69-2.45-.95-3.07-.59-.17-.05-.31-.15-.63.07-.14-.06-.35-.16-.54-.14l-.55-.13-.56-.12-.59-.13c-.08-.11-.25-.38-.5-.16-.52-.75-3.01-1.45-3.51-1.22-.3-.24-.61-.48-1.09-.68l-1.89-.75c-.26-.1-.52-.17-.85.02-.1-.26-.24-.54-.55-.7-.23-.11-.59-.03-.79.18-.21-.5-.68-.7-1.23-1.05h-.01ZM197.15,234.56c1.76-1.1,2.06-3.93,1.01-5.58l-7.87-12.36c-.98-1.55-3.38-1.71-5.03-.85l-3.03-4.51c-1.15-1.72-2.99-2.76-5.02-3.21-5.84-1.32-11.4,2.93-11.66,8.92-.08,1.78.59,3.43,1.48,4.99l2.19,3.8c-1.34,1.08-2.45,3.35-1.38,5.06l7.96,12.73c.96,1.55,3.57,2.15,5.23,1.1l16.1-10.09h0Z"/>
    <path d="M183.15,258.64c-.17-.05-.31-.15-.63.07.27.07.42.05.63-.07Z"/>
    <path d="M209.06,242l.06-.59c-.12.18-.14.4-.06.59Z"/>
    <path d="M171.11,254.87c-.21-.5-.68-.7-1.23-1.05l-5.83-3.68-3.42-2.89-1.65-1.72-1.97-2.04-2.1-3.09-9.76-15.61c-.51-.82-1.29-1.33-1.59-2.43,4.77-5.37,8.86-11.06,12.6-17.15l2.99-4.87,2.48-4.48,6-.46,14.01-1.72c4.14-.5,7.98-1.6,11.95-2.7l1.54,2.54,9.99,15.95c1.3,2.07,2.32,4.21,3.05,6.52l.68,2.16.87,4.01.56,5.69c.04.41.08.8.35,1.12.41-.1.49-.44.43-.95l-.6-5.66c-.89-4.67-2.17-9.14-4.74-13.27l-11.82-18.93c-10.81,3.15-21.59,4.32-32.59,5.03l-6.32,10.65c-3.51,5.93-7.63,11.21-12.3,16.39.26,1.02,1,1.73,1.57,2.66l9.78,15.61,4.52,5.73c3.27,3.55,7.2,6.18,11.44,8.39l1.1.26h0Z"/>
    <path d="M210.52,235.31c.25-.46.4-1.42.06-1.9-.53.39-.59,1.28-.06,1.9Z"/>
    <path d="M209.76,238.64c1.12-2.07.51-2.83.61-2.75-.95.73-.57,2.63-.61,2.75Z"/>
    <path d="M209.59,239.18l.18-.54-.18.54Z"/>
    <path d="M209.46,240.34c.31-.15.43-.41.37-.54l-.25-.61c-.09.43-.33.65-.12,1.16Z"/>
    <path d="M176.28,256.8c.34.66,2.73,1.43,3.51,1.22-.52-.75-3.01-1.45-3.51-1.22Z"/>
    <path d="M180.3,258.19c-.08-.11-.25-.38-.5-.16.13.2.4.14.5.16Z"/>
    <path d="M180.88,258.32l-.59-.13.59.13Z"/>
    <path d="M171.11,254.87c.41.63.9.85,1.34.52-.1-.26-.24-.54-.55-.7-.23-.11-.59-.03-.79.18h0Z"/>
    <path d="M189.33,259.51c.59.78,8.77.71,12.42.4l4.68-9.13c.22-.43.33-.78.26-1.25-.42.37-.68.58-.93,1.09l-4.42,8.63c-3.86.32-7.43.3-11.19,0-.29-.02-.56.07-.83.26h0Z"/>
    <path d="M186.79,259.38c.62.33,1.87.61,2.55.13-.66-.65-1.87-.66-2.55-.13Z"/>
    <path d="M186.79,259.38c-.13-.24-.37-.36-.57-.15.16.22.46.09.57.15Z"/>
    <path d="M206.71,249.53c.68-.59,1.79-3.53,1.38-4.32-.29.3-.49.63-.67,1.12l-.9,2.43c-.1.26-.12.52.19.76h0Z"/>
    <path d="M209.27,240.85c.01-.15.03-.42.19-.51-.13.13-.21.33-.19.51Z"/>
    <path d="M210.58,233.42c.64-.56.39-1.09.03-1.56-.04.21-.35.32-.41.46-.08.21-.07.72.37,1.1h0Z"/>
    <path d="M183.15,258.64c.32.49,2.29.95,3.07.59-.48-.69-2.45-.95-3.07-.59Z"/>
    <path d="M181.44,258.44l-.56-.12.56.12Z"/>
    <path d="M208.09,245.23c.67-.25,1.07-1.84.97-3.22-.73,1.01-1.21,2.77-.97,3.22Z"/>
    <path d="M172.46,255.39c.14.37.48.59.98.76l2.17.78c.24.08.49-.04.69-.13-.3-.24-.61-.48-1.09-.68l-1.89-.75c-.26-.1-.52-.17-.85.02Z"/>
    <path d="M209.13,241.41c.11-.16.11-.35.14-.56-.11.17-.19.34-.14.56Z"/>
    <path d="M182.53,258.71c-.14-.06-.35-.16-.54-.14l.54.14Z"/>
    <path d="M181.98,258.58l-.55-.13.55.13Z"/>
    <path class="st0" d="M174.07,243.38l-6.59-10.55c-.98-1.56-1.06-3.39.29-4.75l6.14-3.91,5.01-3.13,5.52-3.37c1.93-.39,3.43.64,4.43,2.24l6.36,10.21c1.11,1.78.96,3.91-.63,5.31l-14.76,9.3c-2.27,1.43-4.51.71-5.78-1.33v-.02ZM185.08,235.12c.51-1.06-2.01-3.07-1.68-4.02.58-1.63.23-3.09-1.25-3.98-.99-.6-2.1-.69-3.18-.1-1.41.77-2.1,2.2-1.8,3.49.37,1.62,1.56,2.7,3.32,2.7l2.3,3.41c.91-.24,1.93-.73,2.3-1.51h0Z"/>
    <path d="M210.37,235.89c.21-.16.09-.46.15-.58l-.15.58Z"/>
    <path d="M175.82,243.53l-7.96-12.73c-1.07-1.7.04-3.99,1.38-5.06l-2.19-3.8c-.89-1.54-1.56-3.21-1.48-4.99.27-5.99,5.81-10.23,11.66-8.92,2.03.46,3.86,1.5,5.02,3.21l3.03,4.51c1.64-.86,4.04-.7,5.03.85l7.87,12.36c1.04,1.65.75,4.48-1.01,5.58l-16.1,10.09c-1.66,1.04-4.26.44-5.23-1.1h0ZM170.73,212.01c1.74-1.39,3.77-1.84,5.75-1.42s3.58,1.89,4.82,3.87l1.68,2.69,1.44-.92-2.73-4.41c-1.94-3.13-6.11-3.82-9.24-2.88-5.3,1.6-7.53,7.96-5.34,11.53l2.92,4.76c.6-.19.97-.39,1.4-.83l-2.52-4.28c-1.67-2.84-.62-6.17,1.81-8.1h0ZM179.28,219.58l3.18-1.98-1.55-2.41c-1.15-1.8-2.39-3.35-4.31-3.83-1.96-.49-4.2-.11-5.82,1.46-3.56,3.48-1.51,7.34,1.52,11.19l3.75-2.41,3.21-2.02h0ZM196.39,234.04c1.59-1.39,1.74-3.53.63-5.31l-6.36-10.21c-1.01-1.6-2.5-2.64-4.43-2.24l-5.52,3.37-5.01,3.13-6.14,3.91c-1.35,1.36-1.27,3.19-.29,4.75l6.59,10.55c1.28,2.05,3.52,2.76,5.78,1.33l14.76-9.3v.02Z"/>
    <path class="st3" d="M176.06,221.6l3.21-2.02,3.18-1.98-1.55-2.41c-1.15-1.8-2.39-3.35-4.31-3.83-1.96-.49-4.2-.11-5.82,1.46-3.56,3.48-1.51,7.34,1.52,11.19l3.75-2.41h0Z"/>
    <path class="st3" d="M168.92,220.12c-1.67-2.84-.62-6.17,1.81-8.1,1.74-1.39,3.77-1.84,5.75-1.42s3.58,1.89,4.82,3.87l1.68,2.69,1.44-.92-2.73-4.41c-1.94-3.13-6.11-3.82-9.24-2.88-5.3,1.6-7.53,7.96-5.34,11.53l2.92,4.76c.6-.19.97-.39,1.4-.83l-2.52-4.28h0Z"/>
    <path d="M182.24,231.83c-1.76,0-2.95-1.08-3.32-2.7-.29-1.3.39-2.72,1.8-3.49,1.08-.59,2.2-.49,3.18.1,1.47.89,1.83,2.35,1.25,3.98-.33.94,2.19,2.96,1.68,4.02-.38.77-1.39,1.26-2.3,1.51l-2.3-3.41h0ZM186.04,233.32l-1.88-3.36c.25-.94.68-1.74.2-2.55-.51-.87-1.38-1.44-2.58-1.25s-2.14,1.4-2.07,2.37c.1,1.46,1.26,2.43,2.76,2.31l2.35,3.35c.23.33,1.43-.5,1.21-.9h.01Z"/>
    <path class="st3" d="M184.83,234.21c.23.33,1.43-.5,1.21-.9l-1.88-3.36c.25-.94.68-1.74.2-2.55-.51-.87-1.38-1.44-2.58-1.25s-2.14,1.4-2.07,2.37c.1,1.46,1.26,2.43,2.76,2.31l2.35,3.35h.01Z"/>
  </g>
</svg>