<?xml version="1.0" encoding="UTF-8"?>
<svg id="Layer_1" xmlns="http://www.w3.org/2000/svg" version="1.1" viewBox="0 0 500 249.27">
  <!-- Generator: Adobe Illustrator 30.3.0, SVG Export Plug-In . SVG Version: 2.1.3 Build 182)  -->
  <defs>
    <style>
      .st0, .st1 {
        fill: #010101;
      }

      .st2 {
        fill: #e9b070;
      }

      .st3 {
        fill: #ec8623;
      }

      .st1 {
        stroke: #000;
        stroke-miterlimit: 10;
        stroke-width: .4px;
      }

      .st4 {
        fill: #36200f;
      }

      .st5 {
        fill: #2b2824;
      }

      .st6 {
        fill: #f28c20;
      }

      .st7 {
        fill: #e1d5c5;
      }

      .st8 {
        fill: #e2d8c9;
      }

      .st9 {
        fill: #ebbc86;
      }
    </style>
  </defs>
  <path class="st8" d="M369.48,167.29c-.01.09,5.29,1.49,5.48,1.55l-2.44,1.62-3.04,1.42-31.04,12.56-14.55,5.8-21.5,8.55-51.85,20.72-7.43,2.88-1.3-.24-14.54-5.78-14.9-5.92-28.35-11.32-39.48-15.78-25.36-10.34-4.91-2.07c.02-.42-5.01-2.08-4.68-2.2l9.29-3.66,64.27-20.78,7.6-.09c.07,0,.57-.05.64-.02l4.73,1.81,7.79,2.97,32.36,12.27c3.31,1.25,6.45,2.91,9.5,1.78l9.17-3.38,2.58-.97,4.45-1.69,11.39-4.34,13.68-5.18,2.53-.96,1.62-.56,2.38-.99,3.2-1.61-.04,1.02,1.59.45,4.31.71c.63.24,1.21.62,1.83.76l2.4.59,3.39,1.27,59.22,19.13v.02h0Z"/>
  <g>
    <path class="st3" d="M373.24,170.76l1.72.15c-.16,2.64.05,12.02-.12,14.62-2.5,1-5.6,2.4-8.11,3.3l-11.38,4.77s-40,17.33-47.45,20.08c0,0-28.02,11.68-39.4,16.53l-.65-.21c.35-4.26-1.15-9.76-3.44-13.62,30.67-13.1,78.21-32.59,108.83-45.61h0Z"/>
    <path class="st0" d="M268.52,230.71l-1.17-.38.03-.38c.33-4.02-1.03-9.39-3.38-13.34l-.28-.47.5-.21c16.21-6.92,37.33-15.72,57.76-24.23,18.84-7.84,36.63-15.25,51.06-21.38l.11-.05,2.3.2-.03.46c-.08,1.3-.07,4.31-.06,7.22.01,2.99.02,6.07-.06,7.4l-.02.3-.28.11c-.88.35-1.83.76-2.81,1.17-1.81.76-3.68,1.55-5.32,2.14l-11.36,4.76c-.39.17-40.09,17.36-47.47,20.08-.26.11-28.13,11.72-39.38,16.52l-.16.07h.02ZM268.35,229.65l.12.04c11.35-4.84,38.96-16.35,39.24-16.47,7.37-2.72,47.04-19.9,47.44-20.07l11.39-4.77c1.64-.58,3.5-1.37,5.3-2.12.88-.37,1.74-.73,2.54-1.06.07-1.43.05-4.28.04-7.04-.01-2.74-.02-5.35.03-6.82l-1.15-.1c-14.42,6.13-32.17,13.52-50.96,21.34-20.22,8.42-41.13,17.12-57.26,24.01,2.2,3.93,3.49,9.06,3.26,13.06h0Z"/>
  </g>
  <path class="st6" d="M112.14,172.01c-.03.17.49.06.67.12l.94.32,1.69.61,3.69,1.58,3.32,1.41,3.33,1.41,2.04.86,3,1.27,2.94,1.24,2.69,1.12,3.36,1.33,5.98,2.62,2.34.99,1.71.71,2.69,1.11,2.37.97,2.36.97,3.66,1.52,2.04.85,3.66,1.52,2.04.85,3.66,1.52,2.04.84,2.36.98,3.66,1.52,2.04.85,3.66,1.52,2.04.85,3.66,1.52,2.05.84,2.35.97,3,1.28,2.94,1.25,3,1.28,2.03.85,3.66,1.53,2.36.95,1.79.7,1.53.67,2.35,1.3c-.48,2.66-2.2,5.08-2.61,9.15l-.42,4.2-24.4-10.26-22.14-9.26-27.09-11.36-31.85-13.3-.02-7.2.02-5.76c0-.5-.07-1.38.29-1.38h1.22l.3.59v-.02h0Z"/>
  <path class="st3" d="M294.43,220.25l-50.54,20.43-.02-15.13c0-1.32.13-2.56,1.28-2.88l1.69-.47c.2-.05.71-.46.99-.68l56.16-22.45,69.98-28.12,2.28-.79c.22-.08,1.11.41,1.11.74l-.13,11.53-.11,4.53-6.91,2.77-19.99,8-37.23,15.03-18.55,7.49h-.01Z"/>
  <path class="st6" d="M243.13,223.14l-.25,17.6-51.64-20.79-27.95-11.22-27.16-10.97-22.78-9.22-4.27-1.87-.34-16.36c.82.09-.48-2.67,3.97.21l6.45,3.24,123.96,49.4v-.02h0Z"/>
  <path class="st0" d="M302.02,218.69l-3.27,1.35-3.27,1.35-2.15.88-3.19,1.29-4.41,1.77-4.42,1.78-2.83,1.15-3.18,1.29-4.06,1.65-2.16.87-3.19,1.29-4.41,1.77-4.42,1.77-3.18,1.29-2.51,1.03-4.27,1.75h-.04l-1.97.57c-.7.2-2.57.11-3.32-.19l-10.8-4.31-33.64-13.58-18.49-7.46-1.46-.5c-.09-.03-.18-.03-.27,0l-67.23-27.23c-.74-.3-1.43-1.25-1.53-2.12l-.3-2.69v-.06l.08-9.27.22-5.46c.01-.26,1.19-1,1.4-1.12l.42,1.05s-.7.69-.7.73v1.34c0,.14-.05.27-.14.36l-.2.2c-.09.09-.14.22-.14.36v14.38c0,.14.05.27.14.36l.34.35.43.19,3.19,1.36,22.78,9.22,27.16,10.97,27.95,11.22,51.04,20.55c.29.12.6-.12.6-.46l.06-16.61v-.52l1.65-.1-.29-.38c-.2-.26-.05-.28.25-.39l7.61-2.98,51-20.77,21.5-8.55,14.55-5.8,31.04-12.56,3.04-1.42.84-.35,1.16-.48c.38-.16,3.21.02,3.22.91l.25,13.16.09,3.38c.02.67-.9,1.98-1.48,2.21l-5.18,1.98-5.46,2.19-5.1,2.04-2.16.87-3.19,1.29-4.06,1.65-2.16.88-3.18,1.28-4.87,1.91-2.08.83-4.07,1.64-2.14.89-2.48,1.02-4.79,1.89-2.16.88-3.14,1.31M294.14,219.99l18.55-7.49,37.23-15.03,19.99-8,6.62-2.66c.17-.07.29-.25.29-.45l.1-4.19.13-11.53c0-.33-.88-.82-1.11-.74l-2.28.79-69.98,28.12-56.1,22.42s-.07.03-.1.06c-.29.23-.76.59-.95.64l-1.69.47c-1.15.32-1.28,1.57-1.28,2.88v14.43c.02.34.32.58.61.46l49.94-20.19h.03Z"/>
  <polygon class="st0" points="242.1 221.98 212.71 210.3 184.36 198.98 144.88 183.2 119.53 172.86 110.32 168.47 108.94 168.92 119.17 173.74 144.53 184.08 184.01 199.86 212.35 211.19 241.79 222.88 243.13 223.14 242.55 222.07 242.1 221.98"/>
  <path class="st1" d="M500.74,128.57l-13.59-.85c-7.04-.08-13.68,1.42-19.22,4.35-5.1,2.69-8.85,6.4-10.57,10.44l-6.24,14.71c-1.46,3.45-2.67,6.96-3.85,10.36-1.79,5.21-3.66,10.59-6.44,15.77-1.72,3.21-3.45,8.53-6.91,8.74-.76.05-1.45.28-3.2-.66-.49-.33-2.69-2.11-3.49-2.41-6.21-2.34-10.33,6.86-10.33,6.86l-4.55,10.41s-3.09,9.52-5.55,12.79-5.32,4.34-6.02,4.57c-1.81.7-4.02.81-6.04.52-2.22-.33-4.27-1.24-5.78-2.58-5.02-4.44-6.14-9.58-5.94-13.58.25-5.16,2.7-20.49,2.7-20.49l.33-2.29.56-3.58s2.47-14.62-4.39-24.98c-2.47-2.92-9.21-5.72-14.69-5.38-7.88.48-13.67,3.88-18.52,10.82-4.09,5.85-6.54,12.98-8.49,17.98-3.02,7.74-4.43,13.06-10.01,18.44-2.31,2.23-8.54,1.9-11.98,1.02-7.94-2.01-11.93-10.08-13.04-14.54-1.84-7.4-2.73-15.03-2.72-23.33.01-6.83-2.2-12.84-6.76-18.34-1.71-2.06-4.04-3.87-6.52-5.78l-.14-.11c-4.62-3.57-11.83-5.69-19.3-5.67-7.06.02-13.1,1.82-17.92,5.35-3.98,2.91-7.07,6.99-8.94,11.79l-5.88,15.14-3.77,9.99c-1.01,2.69-3.38,5.14-6.33,6.54-5.72,2.74-14.01,2.01-19.27-1.69-1.47-1.03-2.87-2.21-3.92-3.67-1.79-2.46-1.75-3.53-2.4-5.9-.51-1.85-1.56-7.52-1.86-9.42-.83-5.23-1.63-10.46-2.92-15.6-2.27-8.96-6.29-17.86-13.47-23.68-7.35-5.96-17.13-8.01-26.58-8.57-11.04-.66-22.41.52-32.41,5.22-10.82,5.09-19.64,14.3-24.25,25.33-2.92,6.99-4.63,15.22-10.85,19.53-5.95,4.12-15.06,2.64-19.4-3.16-2.34-3.13-3.29-7.08-3.82-10.96-2.04-14.77.64-31.37-8.34-43.26-6.2-8.22-16.69-12.06-26.88-13.56s-20.6-1.11-30.73-2.96c10.34,1.62,20.91,1.15,31.26,2.71,10.35,1.56,20.97,5.61,27.13,14.07,8.52,11.69,6.13,27.68,7.84,42.04.57,4.8,1.77,9.8,5.13,13.28,3.92,4.07,10.57,5.19,15.61,2.62,7.87-4.01,9.68-14.13,13.26-22.21,4.61-10.4,13.43-18.66,23.7-23.53,10.27-4.87,21.93-6.47,33.27-5.61,11.81.9,24.07,4.84,31.64,13.95,4.14,4.98,6.53,11.08,8.06,17.31s2.38,13.07,3.57,19.6c.55,3.06,1.17,6.12,2.05,9.11s3.3,5.4,5.74,7.12c5.07,3.56,13.04,4.26,18.54,1.63,2.87-1.37,5.17-3.76,6.17-6.39l3.77-9.99,5.88-15.15c1.89-4.85,5-8.96,9.03-11.9,4.92-3.6,11.08-5.43,18.29-5.45,7.64-.02,15.02,2.15,19.75,5.81l.14.11c2.49,1.93,4.85,3.75,6.58,5.84,4.6,5.56,6.82,11.61,6.81,18.49-.02,8.28.87,15.89,2.71,23.28,1.09,4.38,4.99,12.32,12.69,14.27,2.92.74,9.56.77,11.38-1.11,5.68-5.9,5.46-6.42,10.05-17.96,4.07-10.24,8.98-28.08,27.31-29.2,5.7-.35,12.25,2.05,15.25,5.57,5.83,7.13,4.8,21.74,4.8,21.74l-.12,1.53-1.11,7.76s-2.41,15.02-2.66,20.18c-.19,3.94.87,9.32,5.8,13.68,1.43,1.27,3.36,2.13,5.44,2.44,1.88.27,3.77.07,5.46-.58,1.17-.45,4.36-1.83,6.01-4.31,1.93-2.91,5.69-12.94,5.69-12.94l4.42-10.27s4.03-9.69,10.76-7.02c1.91.78,3.16,2.65,5.26,2.94,4.93.68,6.1-5.19,7.9-8.47,2.77-5.17,4.63-10.55,6.42-15.75,1.17-3.4,2.39-6.91,3.85-10.37l6.24-14.71c1.74-4.1,5.54-7.86,10.71-10.59,5.63-2.97,12.39-4.5,19.57-4.42l14.16.89"/>
  <path class="st8" d="M363.29,106.45l-2.91,1.24-29.76,10.96-13.95,5.06-20.62,7.46-7.15,3.94-49.69,16.65-1.25-.21-13.94-5.04-14.29-5.17-27.18-9.88-37.86-13.77-24.32-9.02-4.71-1.81c.02-.37-2.72-1.44-2.4-1.55l70-22.14,4.96-.76c.07,0,2.19.65,2.26.67l5.63,1.9,11.53,3.97,24.97,8.68c3.17,1.09,6.3,2.66,9.22,1.68l8.84-3.16,3.91-1.3,10.51-3.53,12.37-4.28,2.51-.84,4.19-1.49,8.09-2.7.36.07c2.47,1.19,5.6,1.81,5.6,1.81l7.06,2.86,61.2,18.04-3.19,1.65h.01Z"/>
  <path class="st0" d="M376.99,168.39c-.07-.03-.33-.09-1.8-.46-1.29-.32-3.51-.88-4.36-1.12v-.04l-3.94-.96-1.9-.63-2.7-.93-3.34-1.23-2.98-1.07-5.35-1.75-1.93-.56-1.67-.46-3.49-1.05-8.71-3.04-4.28-1.1-3.8-1.28-4.45-1.59-2.71-.91-2.72-.81-4.8-1.75-3.3-1.17-2.26-.49c-.44-.09-1.12-.36-1.67-.58-.17-.07-.34-.13-.49-.19l-4.44-1.68-.94-.27-1.26.59v.04l1.9.54,4.4,1.67c.14.05.31.12.48.19.61.24,1.3.51,1.82.62l2.17.47,3.27,1.16,4.82,1.75,2.73.81,2.69.9,4.45,1.59,3.84,1.29,4.28,1.1,8.69,3.03,3.52,1.06,1.68.46,1.91.56,5.32,1.74,6.32,2.29,2.72.94,1.94.64,3.57.87v-.03c.55.23,1.82.54,4.76,1.28h.04l-1.16.33-.06.03,4.12.27-.89-1.09-.04.02h0Z"/>
  <polygon class="st8" points="245.03 148.96 242.24 152.39 113.57 105.98 115.31 104.28 125.1 104.46 245.03 148.96"/>
  <path class="st6" d="M164.94,56.52c23.63,8,50.93,17.44,77.23,26.53l.13,15.87c-39.09-13.1-86.14-29.64-124.76-43.3l.31-14.97c1.54.09,44.66,15.08,47.09,15.87h0Z"/>
  <polygon class="st0" points="184.56 142.82 184.64 143.77 151.65 154.6 123.07 163.96 120.69 164.74 120.61 163.91 121.41 163.34 182.36 143.39 184.56 142.82"/>
  <polygon class="st0" points="120.61 163.91 120.69 164.74 112.38 167.53 109.57 168.4 109.36 167.72 112.25 166.42 119.17 164.22 120.61 163.91"/>
  <polygon class="st0" points="186.26 82.34 186.34 83.17 154.7 92.62 127.3 100.79 125 101.46 124.93 100.74 125.7 100.25 184.14 82.84 186.26 82.34"/>
  <polygon class="st0" points="124.93 100.74 125 101.46 117.04 103.9 115.46 104.29 114.57 105.59 113.48 105.44 114.9 103.76 116.92 102.93 123.55 101.01 124.93 100.74"/>
  <path class="st7" d="M192.94,83.11l-3.21.96-9.51,2.82-11.64,3.45-2.5.75-1.9.57-3.22.96-5.61,1.66-10.92,3.31-7.6,2.32-3.31.98-2.91.84-2.54.74-3.01.95-4.45,1.53c-.32.11-.98,1.12-1,1.49l-3.27-1.12c-.26-.09-.77-.23-.82-.4l-.05-.62,1.58-.39,7.96-2.44,2.29-.67,27.4-8.17,31.64-9.45,3.73-1.05c.75-.21,2.49.62,2.88.99h-.01Z"/>
  <polygon class="st5" points="114.5 120.87 114.04 120.44 114.04 107.52 114.51 107.09 114.5 120.87"/>
  <path class="st9" d="M253.11,198.09l-.19.59.19-.59Z"/>
  <path class="st2" d="M146.44,150.17l.78.08-.78-.08Z"/>
  <path class="st0" d="M128.96,35.93l.14.92-10.65,2.74,3.53,1.31,1.43.42,32.84,11.28,57.1,19.7,1.51.52,12.73,4.32,6.73,2.29,6.82,2.37c.87.3,2.37.36,3.15.09l2.93-1,20.56-7.04,14.54-4.99,34.99-11.94,35.04-11.89,11.71-4.09,2.85-.97-.07-.32-1.16-.37.07-.8,2.44.67c.49.13.81,1.44.81,1.96l-.55.83.07,2.03c0,.14-.49.55-.47.5l-.23-3.79-10.33,3.59-18.02,6.21-24.47,8.3-8.81,2.99-27.29,9.33-23.72,8.11-12.1,4.14.07,15.42,8.61-2.96,13.34-4.59,16.69-5.76,12.68-4.39,9.52-3.33,26.11-9.02,35.04-11.86,2.84-1,.99-.12.02-14.2-.03-.99-.05,16.03-.94.2s-72.3,24.53-71.97,24.63c2.76.86,3.42,2.27-1.39.43l-51.04,17.61c-1.85.25-3.51-.58-6.68-1.67l-29.53-10.31-7.68-2.66-6.29-2.15c-.07-.03-1.14-.43-1.21-.42-.79-.36-1.41-.32-2.15-.11l-3.73,1.05-.08-.83c.38-.09,2.73-.68,3.63-.9l-1.58-.55-15.75-5.5-16.34-5.5-36.55-12.7c-.82-.28-2.15-.93-2.67-1.49l.22-15.75c.3-.35.68-1.15,1.06-1.25l3.33-.87,7.36-1.91h.03,0ZM118.31,55.87c-.08,0,1.65.68,2.03.81l11.74,4.01,10.88,3.85,29.61,10.15,9.18,3.19,13.54,4.64,45.85,15.88,1.1.12-.02-14.71c.02-.12-.32-.81-.57-.9l-4.51-1.54-2.09-.77-18.46-6.26-16.62-5.71-15.19-5.22-14.19-4.86-1.99-.73-9.97-3.45-10.51-3.62c-.41-.14-1.21-.28-1.6-.3-.15-.18-.79-.42-1-.5l-2.45-.9-2.03-.76-19.57-6.56-2.19-.7-1.45-.38v14.71l.46.52h.02Z"/>
  <polygon class="st0" points="365.76 38.45 365.7 39.25 338 32.25 322 28.26 300.63 22.93 274.85 16.57 260.28 13.12 258.36 12.68 256.46 12.23 254.55 11.76 252.65 11.29 250.75 10.82 248.85 10.35 246.95 9.87 245.03 9.39 243.2 8.87 241.2 8.22 240.45 7.94 239.78 8.06 219.39 13.41 208.49 16.26 177.61 24.28 158.31 29.31 129.1 36.85 128.96 35.93 199.58 17.62 238.82 7.33 240.58 7.22 249.76 9.51 271.58 14.82 298.63 21.48 320.97 27.08 345.65 33.24 363.95 37.97 365.76 38.45"/>
  <path class="st0" d="M371.58,105.13l-.87-.07-16.47-5.2-45.2-13.44-8.49-2.52-3.87-1.26c.1-.29,1.06-.58,1.35-.5l8.87,2.64,49.71,14.78s7.51,2.19,9.98,3.03c6.26,2.13,4.99,2.53,4.99,2.53h0Z"/>
  <path class="st4" d="M369.02,41.52l-.02,14.2-.99.12.06-11.4s.47-.36.47-.5l-.07-2.03.55-.83v.44Z"/>
  <path class="st8" d="M363.74,40.84l-11.71,4.09-35.04,11.89-34.99,11.94-14.54,4.99-20.56,7.04-2.93,1c-.78.27-2.28.21-3.15-.09l-6.82-2.37-6.73-2.29-12.73-4.32-1.51-.52-57.1-19.7-32.84-11.28c.26-.66,1.43-1.44,1.98-1.58l1.62-.39,7.46-2.06,2.35-.55,14.68-3.82,12.8-3.32,6.41-1.68,12.72-3.34,1.97-.43,3.81-1,9.81-2.58,4.43-1.21,10.28-2.64,8.55-2.26,6.43-1.68,10.39-2.71c.3-.08.93-.54.9-.54l.84-.27.98.02,1.83.53,4.81,1.35,2.75.65,1.91.45,1.91.46,1.9.46,1.91.46,1.83.46,3.7,1.09,4.04,1.19,1.85.44,8.55,1.94,5.76,1.77,2.31.47,3.28.61,3.69,1.03,6.84,1.7,6.92,1.72,6.68,1.74,2.66.68,5.28,1.33,2.32.57,3.78.92,7.78,1.87,5.25,1.33,3.77,1.02,4.03,1.12,1.97.38,5.3,1.22,6.44,2.16,1.23.5-.04.04h0Z"/>
  <polygon class="st3" points="368.07 44.44 368.01 55.83 365.17 56.84 330.13 68.69 304.01 77.71 294.49 81.04 281.82 85.43 265.13 91.19 251.79 95.78 243.18 98.74 243.11 83.32 255.2 79.18 278.92 71.07 306.21 61.74 315.02 58.74 339.49 50.45 357.51 44.24 367.84 40.65 368.07 44.44"/>
  <polygon class="st8" points="365.7 39.25 366.85 39.62 366.93 39.94 364.08 40.91 362.85 40.41 356.41 38.25 351.11 37.03 349.14 36.65 345.11 35.53 341.34 34.51 336.1 33.18 328.32 31.31 324.53 30.39 322.22 29.82 316.94 28.49 314.28 27.81 307.6 26.07 300.68 24.35 293.84 22.65 290.15 21.61 286.87 21 284.57 20.53 278.81 18.76 270.25 16.82 268.4 16.38 264.36 15.19 260.66 14.09 258.83 13.63 256.93 13.18 255.02 12.72 253.11 12.26 251.21 11.81 248.46 11.16 243.65 9.81 241.82 9.28 238.58 8.34 240.45 7.94 243.2 8.87 245.03 9.39 246.95 9.87 248.85 10.35 250.75 10.82 252.65 11.29 254.55 11.76 256.46 12.23 258.36 12.68 260.28 13.12 274.85 16.57 300.63 22.93 322 28.26 338 32.25 365.7 39.25"/>
  <path class="st8" d="M296.68,82.65l3.87,1.26,8.49,2.52,45.2,13.44,13.31,4.02,2.64,1.01-2.17.82c-.13-.38-.59-.91-.93-.98l-.85-.17-1.04-.39-1.48-.34-3.42-.76-1.82-.55-2.6-.82-3.2-1.07-2.85-.93-2.22-.67-2.9-.85-1.84-.49-1.62-.4-3.37-.92-2.12-.67-6.2-1.97-2.31-.54-1.83-.43-3.65-1.12-4.26-1.38-2.59-.79-2.64-.71-4.6-1.52-3.16-1.02-2.11-.41c-.6-.12-1.52-.48-2.13-.69l-4.22-1.45-1.52-.39.03-.89,2.09.28.02-.03h0Z"/>
  <g>
    <path class="st3" d="M290.46,149.9l-48.46,17.83v-13.2c-.02-1.15.11-2.24,1.21-2.52l1.62-.41c.19-.05.68-.4.95-.59l53.85-19.58,67.1-24.53,2.63-1.09c.21-.07,1.75-.63,1.74-.34l-.07,11.19-.07,3.89-7.86,2.73-19.17,6.98-35.7,13.11-17.79,6.54h.02Z"/>
    <path class="st0" d="M241.7,168.11l-.2-13.59c0-.84,0-2.57,1.59-2.98l1.62-.41c.13-.05.63-.4.79-.52l.12-.06,53.85-19.58,67.1-24.53,2.77-1.14c1.27-.43,1.72-.49,2.02-.28.14.1.23.27.22.44l-.07,11.19-.07,4.22-8.17,2.83-19.16,6.98-53.49,19.65-48.61,17.88-.31-.1h0ZM246,151.43c-.53.37-.84.57-1.06.63l-1.62.41c-.64.16-.87.7-.87,2.05v12.52l47.84-17.59,53.49-19.65,19.17-6.98,7.55-2.62.06-3.56.06-10.74c-.2.05-.5.14-.98.3l-.14.05-2.59,1.07-67.12,24.54-53.8,19.56h.01ZM370.64,105.46h0Z"/>
  </g>
  <g>
    <path class="st6" d="M131.57,111.96l2.47,1.15,3.99,1.47,2.07.77,3.08,1.15,3.93,1.46,2.09.78,3.06,1.14,4.72,1.68,2.02.72,2.52.89,1.8.63,2.01.76,3.65,1.25,1.54.47,1.56.73,1.71.61,1.94.53,1.38.71,3.8,1.32,3.13,1.16,1.76.66,2.06.78,1.74.61,1.92.58,1.36.67,3.79,1.37,1.71.64,1.75.61,1.95.59,1.58.76,1.74.61,1.96.55,1.53.77,2.28.74,3.81,1.28,1.37.68,1.9.57,4.87,1.66,1.34.62,1.42.6,3.86,1.35,1.51.46,1.59.68,1.75.69,2.02.76,3.69,1.36,1.91.38-.06,15.38-49.93-18.47-27.03-9.97-26.26-9.75-22.02-8.19-3.09-1.2.09-14.2c.79.08,1.8.24,2.32.44l5,1.87,2.07.77,3.1,1.16,3.26,1.13,1.87.61h.04Z"/>
    <path class="st0" d="M242.28,168.04l-.27.17-49.93-18.47-27.03-9.97-26.26-9.75-22.02-8.19-3.4-1.33.1-15.05.52.06c.39.04,1.73.2,2.44.46l10.17,3.81,3.25,1.12,1.92.62,2.47,1.15,18.19,6.75,11.04,3.92,2.02.76,3.64,1.25,1.58.49,1.56.73,1.67.59,2,.56,1.35.7,3.77,1.31,6.96,2.6,1.73.61,1.98.6,1.34.66,7.22,2.6,2,.61,1.55.75,1.72.6,2.02.57,1.5.75,2.25.73,3.88,1.31,1.34.66,1.86.56,4.93,1.69,1.34.62,1.41.6,3.83,1.34,1.54.47,1.59.69,1.74.68,2.02.76,3.65,1.34,2.26.45-.14,15.91-.29.15h0ZM114.34,119.86l2.78,1.09,22.01,8.19,26.26,9.75,27.03,9.97,49.29,18.23.05-14.31-1.6-.32-5.72-2.12-1.76-.69-1.58-.68-1.48-.45-3.88-1.36-1.45-.62-1.34-.62-4.85-1.65-1.96-.6-1.34-.67-6.12-2.04-1.49-.75-1.92-.54-1.82-.64-1.54-.75-1.92-.58-1.77-.62-1.72-.64-3.83-1.39-1.33-.66-1.89-.57-1.76-.62-6.96-2.6-3.85-1.34-1.34-.69-1.9-.52-1.74-.62-1.57-.73-1.51-.46-3.66-1.26-2.02-.76-11.04-3.92-18.23-6.77-2.48-1.15-1.84-.6-3.27-1.13-10.18-3.81c-.32-.12-.95-.25-1.68-.35l-.08,13.34v.03h0Z"/>
  </g>
  <path class="st6" d="M243.2,8.87s-3.8,1.12-4.1,1.2l-10.39,2.71-6.43,1.68-8.55,2.26-10.28,2.64-4.43,1.21-9.81,2.58-3.81,1-1.97.43-12.72,3.34-6.41,1.68-12.8,3.32-14.68,3.82-2.35.55-7.46,2.06-1.62.39c-.55.13-1.72.92-1.98,1.58l-1.43-.42-3.53-1.31,10.65-2.74,29.21-7.54,19.3-5.03,30.88-8.02,10.91-2.85,20.76-5.63,3.05,1.09h-.01Z"/>
</svg>