<?xml version="1.0" encoding="UTF-8"?>
<svg id="Layer_1" xmlns="http://www.w3.org/2000/svg" version="1.1" viewBox="0 0 534.92 823.46">
  <!-- Generator: Adobe Illustrator 30.3.0, SVG Export Plug-In . SVG Version: 2.1.3 Build 182)  -->
  <defs>
    <style>
      .st0 {
        fill: none;
      }

      .st1 {
        fill: #f4921f;
        stroke: #000;
        stroke-miterlimit: 10;
        stroke-width: .6px;
      }

      .st2 {
        fill: #e8dfcd;
      }

      .st3 {
        fill: #56534c;
      }
    </style>
  </defs>
  <path class="st0" d="M620.86,495.25l3.31-1.43-.25-12.99-.19-12.83-.58-.69c-.11-.13.6-.71.6-.92l-.05-9.1-6.41,2.99-.37.32c-.37.66-.05,2.08.72,2.63l3.08,2.21.13,29.82h.01Z"/>
  <path class="st0" d="M620.86,495.25l3.31-1.43-.25-12.99-.19-12.83-.58-.69c-.11-.13.6-.71.6-.92l-.05-9.1-6.41,2.99-.37.32c-.37.66-.05,2.08.72,2.63l3.08,2.21.13,29.82h.01Z"/>
  <path class="st0" d="M620.86,495.25l3.31-1.43-.25-12.99-.19-12.83-.58-.69c-.11-.13.6-.71.6-.92l-.05-9.1-6.41,2.99-.37.32c-.37.66-.05,2.08.72,2.63l3.08,2.21.13,29.82h.01Z"/>
  <path class="st3" d="M51.97,766.37l-.85-.05.85.05Z"/>
  <path d="M988.81,537.11c.12,2.47.23,2.03,0,0h0Z"/>
  <path class="st2" d="M481.2,601.4c-35.09-8.16,5.09-20.64,2.34-41.32-6.44-48.44-41.87-29.64-41.87-29.64-5.28,2.68-75.62,16.79-47.32-16.53,31.96-37.63,36.95-66.4,15.35-89.63-21.14-22.73-41.87-24.72-91.39,5.93-1.84,1.14-15.85,11.56-30.86,5.68-6.14-3.02-9.12-12.93-6.33-19.27l1.99-4.78,4.14-5.22.89-1.52c1.38-1.06,2.01-2.52,2.94-3.91l1.18-1.77c.45-.69.49.21.82-.33-.1-.23-.23-.56.07-.87l.65-.69,3.24-3.39,2.59-3.17,4.64-5.8c2.34-2.92,2.93-7.21,2.7-11.56-.49-9.25-10.02-17.73-19.8-18.44-5.75-.41-13.45,1.64-17.73,4.21l-12.37,7.44c-3.84,2.31-7.55,4.59-12.03,5.71l-4.4,1.1c-2.47.62-4.68.73-7.41-1.43l-2.75-2.17c-2.13-1.68-4.21-5.4-4.83-8.1-1.4-6.05-.11-12.27,2.36-16.84l3.2-5.93c.33-.59.51-1.14.9-1.56l.7-.73c.17-.17.1-.41-.07-.55l.7-.73c.27-.27.62-.54.5-1.04.13-.03.3-.23.45-.43l7.41-9.78,1.43-1.97c4.4-6.05,6.81-14.93,5.32-23.74-.4-2.4-.73-4.75-1.69-7.21-2.29-5.88-6.3-11.03-11.42-15.17-10.83-8.77-22.25-8.11-31.18-2.94l-94.04,13.93c-2.33,1.35-4.7,2.37-7.69,2.15-8.13-.59-15.88-8.14-17.03-16.69-.3-2.23-.51-4.72.29-6.55l3.55-8.05,9.93-16.86c2.12-3.61,4.01-7.13,5.38-11.22,2.85-8.6,3.92-18.74-.32-28.97-2.02-4.88-4.68-9.56-8.41-13.63l-1.83-2c-7.81-8.53-21.04-17.52-30.83-19.27l-7.44-1.33-9.19-.37c-2.51-.1-4.64.5-6.83,1.28l-10.74,3.82c-2.04.73-3.77,1.65-5.55,2.77l-6.38,4.01c-4.84,3.03-11.8,4.66-18.23,1.5-6.14-3.02-9.12-12.93-6.33-19.27l1.99-4.78,4.14-5.22.89-1.52c1.38-1.06,2.01-2.52,2.94-3.91l1.18-1.77c.45-.69.5-1.35.84-1.89.11.18.27.1.41.03.89-.31.88-1.24,1.27-1.69l2.76-3.2,3.39-4.51,6.28-12.7c.65-1.32,1.08-2.73,1.11-4.32l.16-6.66c.13-5.6-3.04-13.6-6.69-19.05l-3.05-4.56-1.35-1.92-24-25.09,5.4,790.14,570.62,1.08v-260.01c-27.13-5.23-64.34,17.96-79.66,14.39Z"/>
  <path d="M530.83,572.98l-11.9.09-6.06,1.28-5.68,1.62-11.34,3.18-12.66,5.94c-5.33,2.49-13.37,3.91-20.43,1.89-9.2-2.64-13.53-12.88-9.48-19.1l3.54-5.44,3-2.94c.76-.75,1.26-1.28,1.98-1.98l2.7-2.62,1.6-2.2,4.75-4.29,1.86-1.51,8.14-7.53,2.88-2.94c1.9-1.96,2.62-4.46,3.09-7.09,1.07-6.12-.97-11.8-8.18-17.47-1.05-.81-2.21-1.54-3.5-2.14l-1.26-.59c-8.24-3.84-16.01-4.34-23.73-3.11-4.9.78-9.55,1.86-13.64,3.74l-14.61,6.69-13.09,5.38c-4.2,1.73-9.24,2.28-14.18,2.72-2.95-.81-5.2-2.16-7.53-3.79l-2.51-1.75c-2.83-2.61-4.48-5.43-4.52-8.34l-.09-5.03c-.04-2.88,1.2-5.49,2.89-7.77l8.82-11.86,2.23-2.51,2.37-2.51,3.55-3.51,2.78-2.42,1.85-2.38c3.61-4.67,6.05-9.81,6.56-15.74l-.11-4.02-.38-3.5c-.55-2.97-2.5-8.21-4.59-11.11-6.87-9.64-1.41-1.86,1.58,4.02,1.26,2.46,1.69,4.8,2.21,7.21,1.95,8.81-1.2,17.68-6.97,23.74l-1.87,1.97-9.7,9.78c-.2.21-.42.4-.59.43.14.5-.3.77-.65,1.04l-.92.73c.22.14.31.38.09.55l-.92.73c-.51.41-.75.96-1.18,1.56l-4.19,5.93c-3.23,4.56-4.91,10.79-3.09,16.84.81,2.7,3.54,6.42,6.32,8.1l3.6,2.17c3.57,2.16,6.47,2.05,9.7,1.43l5.76-1.1c5.87-1.12,10.72-3.4,15.75-5.71l16.2-7.44c5.6-2.57,15.69-4.62,23.21-4.21,12.81.71,25.28,9.19,25.92,18.44.3,4.36-.46,8.65-3.54,11.56l-6.08,5.8-3.39,3.17-4.24,3.39-.85.69c-.39.31-.22.64-.09.87-.43.54-.5-.35-1.07.33l-1.55,1.77c-1.22,1.4-2.04,2.85-3.85,3.91l-1.17,1.52-5.42,5.22-2.61,4.78c-3.65,6.35.24,16.25,8.29,19.27,8.42,3.16,17.53,1.53,23.87-1.5l8.35-4.01c2.32-1.12,4.6-2.04,7.27-2.77l14.06-3.82c2.85-.78,5.66-1.38,8.94-1.28l12.03.37,9.74,1.33c4.87.67,10.39,2.38,15.93,4.71v-.61c-9.75-3.86-21.41-6.33-30.03-6.26Z"/>
  <path d="M410.74,453.25c-.14,4.94-.62-4.06-1.13-5.79-4.52-15.46-15.42-24.66-26.06-31.63-8.05-5.27-20.9-8.85-28.81-8.77,0,0-4.65-.2-7.52.1-1.19.12-4.63,1.28-4.63,1.28l-4.34,1.62-8.66,3.18-9.67,5.94c-4.07,2.49-10.21,3.91-15.6,1.89-7.03-2.64-10.33-12.88-7.24-19.1l2.7-5.44,2.29-2.94c.58-.75.96-1.28,1.51-1.98l2.06-2.62,1.22-2.2,3.63-4.29,1.42-1.51,6.22-7.53,2.2-2.94c1.45-1.96,2-4.46,2.36-7.09.82-6.12-.74-11.8-6.25-17.47-.8-.81-1.69-1.54-2.67-2.14l-.96-.59c-6.29-3.84-12.23-4.34-18.12-3.11-3.74.78-7.29,1.86-10.42,3.74l-11.16,6.69-10,5.38c-3.21,1.73-7.06,2.28-10.83,2.72-2.25-.81-3.97-2.16-5.75-3.79l-1.92-1.75c-2.16-2.61-3.42-5.43-3.45-8.34l-.07-5.03c-.03-2.88.92-5.49,2.21-7.77l6.74-11.86,1.7-2.51,1.81-2.51,2.71-3.51,2.12-2.42,1.41-2.38c2.76-4.67,4.62-9.81,5.01-15.74l-.07-4.51-.77-5.35c-.42-2.97-1.45-5.86-3.04-8.76-5.25-9.64-14.8-16.97-24.4-18.16-6.63-.81-12.06.47-17.2,3.42l-25.03,14.39c-4.61,2.65-80.4,2.33-85.68-2.07-.89-.74-1.56-1.91-2.64-2.44-2.78-3.2-4.52-6.74-4.71-10.33l-.11-2.26c-.07-1.32.02-2.65.56-3.82l3.55-7.81,10.17-17.11c2.87-49.24,10.76-89.54,1.68-27.19-.07-2.97,5.61-5.42,4.66-8.48l-.92-2.94c-3.6-11.62-15.17-22.93-25.81-29.9-8.05-5.27-19.33-8.84-27.24-8.76l-9.09.09-4.63,1.28-4.34,1.62-8.66,3.18-9.67,5.94c-4.07,2.49-10.21,3.91-15.6,1.89-7.03-2.64-10.33-12.88-7.24-19.1l2.7-5.44,2.29-2.94c.58-.75.96-1.28,1.51-1.98l2.06-2.62,1.22-2.2,9.61-12.33,6.36-12.88c.78-1.57,1.26-3.17,1.4-5.04.39-3.68.24-7.45-.43-11.44-.94-5.51-4.77-13.27-8.51-18.47l-1.09-1.52-1.35-1.9L-2.3,37.17l-.55.57,26.96,28.18,1.35,1.92,3.05,4.56c3.65,5.44,6.82,13.44,6.69,19.05l-.16,6.66c-.03,1.59-.46,3.01-1.11,4.32l-6.28,12.7-3.39,4.51-2.76,3.2c-.39.46-.38,1.38-1.27,1.69-.14.07-.3.15-.41-.03-.33.54-.39,1.2-.84,1.89l-1.18,1.77c-.93,1.4-1.56,2.85-2.94,3.91l-.89,1.52-4.14,5.22-1.99,4.78c-2.79,6.35.18,16.25,6.33,19.27,6.43,3.16,13.39,1.53,18.23-1.5l6.38-4.01c1.77-1.12,3.51-2.04,5.55-2.77l10.74-3.82c2.18-.78,4.32-1.38,6.83-1.28l9.19.37,7.44,1.33c9.79,1.75,23.01,10.74,30.83,19.27l1.83,2c3.73,4.07,6.38,8.75,8.41,13.63,4.24,10.24-6.15,24.93-9,33.53-1.36,4.1,6.06,3.05,3.94,6.66l-9.93,16.86-3.55,8.05c-.8,1.83-.58,4.32-.29,6.55,1.16,8.54,78.9,16.09,87.03,16.69,2.99.22,5.35-.8,7.69-2.15l24.04-13.93c8.93-5.17,20.35-5.83,31.18,2.94,5.11,4.14,9.13,9.29,11.42,15.17.96,2.46,1.29,4.8,1.69,7.21,1.49,8.81-.92,17.68-5.32,23.74l-1.43,1.97-7.41,9.78c-.15.21-.32.4-.45.43.11.5-.23.77-.5,1.04l-.7.73c.17.14.24.38.07.55l-.7.73c-.39.41-.57.96-.9,1.56l-3.2,5.93c-2.47,4.56-3.75,10.79-2.36,16.84.62,2.7,2.7,6.42,4.83,8.1l2.75,2.17c2.73,2.16,4.94,2.05,7.41,1.43l4.4-1.1c4.48-1.12,8.19-3.4,12.03-5.71l12.37-7.44c4.28-2.57,11.98-4.62,17.73-4.21,9.78.71,19.31,9.19,19.8,18.44.23,4.36-.35,8.65-2.7,11.56l-4.64,5.8-2.59,3.17-3.24,3.39-.65.69c-.3.31-.17.64-.07.87-.33.54-.38-.35-.82.33l-1.18,1.77c-.93,1.4-1.56,2.85-2.94,3.91l-.89,1.52-4.14,5.22-1.99,4.78c-2.79,6.35.18,16.25,6.33,19.27,6.43,3.16,13.39,1.53,18.23-1.5l6.38-4.01c1.77-1.12,3.51-2.04,5.55-2.77l10.74-3.82c2.73-1.62,10.86-1.49,16.02-.91,1.88.21,7.35,1.52,10.03,2.31,9.54,2.79,20.42,9.76,28.24,18.29l1.83,2c3.73,4.07,6.38,8.75,8.41,13.63,3.5,8.76,2.66,15.89,2.37,11.87l.21-2.75Z"/>
  <path class="st1" d="M65.66,232.6c-1.36,3.4-4.85,8.49-12.67,6.57.27.4-20.08-5-20.08-5l-13.69,31.61,35.95,8.96c6.68,1.68,13.25,3.42,19.68,5.07l-11.42,45.89,27.59,6.88,11.33-45.4c7.55,2.03,14.86,3.93,22.03,5.72l-11.28,45.19,27.61,6.88,11.44-45.8c47.09,8.91,82.52,5.32,97.43-37.29,12.02-34.29-.6-54.09-25.38-66.98,18.05-4.16,31.63-16.04,35.28-40.55,5-33.49-20.49-51.49-55.36-63.51l11.3-45.37-27.61-6.88-11.01,44.17c-7.26-1.81-14.72-3.51-22.14-5.21l11.08-44.46-27.59-6.88-11.33,45.37-55.69-13.78-7.35,29.49s20.49,4.69,20.06,4.98c11.19,2.79,13.2,10.19,12.87,16.06l-30.99,124.28-.04-.02h-.02ZM196.33,242.83c-8.53,34.29-66.28,15.75-85,11.1l15.17-60.79c18.72,4.67,78.77,13.92,69.86,49.68h-.03ZM204.84,153.85c-7.77,31.19-55.85,15.35-71.44,11.46l13.74-55.14c15.59,3.89,65.81,11.15,57.68,43.68h.02,0Z"/>
</svg>