<?xml version="1.0" encoding="UTF-8"?>
<svg id="Layer_1" xmlns="http://www.w3.org/2000/svg" version="1.1" viewBox="0 0 534.92 1044.52">
  <!-- Generator: Adobe Illustrator 30.3.0, SVG Export Plug-In . SVG Version: 2.1.3 Build 182)  -->
  <defs>
    <style>
      .st0, .st1 {
        fill: none;
      }

      .st2 {
        fill: #f18e21;
      }

      .st3 {
        fill: #f1a64c;
      }

      .st4 {
        fill: #f4921f;
        stroke-width: .6px;
      }

      .st4, .st1, .st5 {
        stroke: #000;
      }

      .st4, .st5 {
        stroke-miterlimit: 10;
      }

      .st6 {
        fill: #e8dfcd;
      }

      .st1 {
        stroke-linecap: round;
        stroke-linejoin: round;
      }

      .st1, .st5 {
        stroke-width: .7px;
      }

      .st7 {
        fill: #58524a;
      }

      .st5 {
        fill: #f5921a;
      }

      .st8 {
        fill: #f7931b;
      }

      .st9 {
        fill: #e1d9cb;
      }
    </style>
  </defs>
  <path class="st0" d="M220.04,392.65c-5.99,2.75-11.77,5.47-18.77,6.8l-6.86,1.31c-3.85.74-7.31.87-11.56-1.7l-4.29-2.59c-3.31-2-6.56-6.43-7.53-9.65-2.17-7.21-.17-14.64,3.68-20.07l4.99-7.07c.52-.72.8-1.37,1.41-1.86l1.1-.87c.26-.21.15-.49-.11-.66l1.1-.87c.41-.32.94-.64.77-1.24.2-.03.46-.26.7-.51l11.56-11.65,2.23-2.35c6.88-7.22,10.63-17.79,8.31-28.29-.22-1.02-.43-2.02-.67-3.03-.35-1.13-.76-2.29-1.23-3.48-.79-1.89-1.67-3.76-2.63-5.59-1.04-1.83-2.09-3.57-2.84-4.81-1.35-2.03-2.86-3.99-4.55-5.84l-2.18-2.38c-9.32-10.17-22.28-18.48-33.65-21.8-3.19-.94-9.71-2.5-11.95-2.75-6.15-.7-15.84-.85-19.09,1.08l-12.8,4.55c-2.43.87-4.5,1.97-6.61,3.3l-7.6,4.78c-3.26,2.04-7.34,3.55-11.65,3.8v168.27h162.4v-67.41c-4.73.93-9.17,2.25-12.36,3.72l-19.31,8.87h-.01Z"/>
  <path d="M258.09,290.14l-9.09,4.05c-2.52,1.13-4.98,2.03-7.83,2.67l-15.02,3.33c-3.88,1.62-14.95.56-21.94-.72-2.54-.46-9.88-2.63-13.45-3.87-12.74-4.38-26.89-13.88-36.72-24.89l-2.3-2.58c-1.79-2-3.35-4.1-4.73-6.25-1.06-1.65-2-3.35-2.85-5.06-.95-1.91-1.8-3.85-2.55-5.82-.45-1.23-.82-2.43-1.13-3.59-.37-1.39-.65-2.71-.86-3.93.07,1.44.16,2.76.31,3.37,1.06,4.3,2.63,8.24,4.55,11.9,6.49,12.36,17.23,21.29,27.91,28.59,10.46,7.16,27.64,12.86,38.43,13.65,0,0,6.32.76,10.26.72,1.64,0,6.44-1.01,6.44-1.01l6.07-1.44,12.12-2.81,13.76-5.97c3.4-1.47,7.75-2.41,12.2-2.34l.06-.69c-4.96-.16-9.75.96-13.65,2.69h.01Z"/>
  <polygon points="207.97 315.77 207.97 315.77 207.97 315.77 207.97 315.77"/>
  <path d="M207.69,319.02c.19,2.57.56,1.31.22-2.03.02-.28.04-.68.06-1.22l-.02-.03h0l-.07.88c-.14-1.24-.37-2.74-.75-4.41.27,2.45.51,5.23.68,5.31l-.11,1.51h0Z"/>
  <path class="st6" d="M673.88,865.8v-.06h.01v-182.46c-32.33-6.23-76.67,21.4-94.93,17.15-41.82-9.72,6.07-24.6,2.79-49.24-7.67-57.73-49.9-35.32-49.9-35.32-6.29,3.19-90.12,20.01-56.39-19.7,38.09-44.84,44.03-79.13,18.29-106.81-25.19-27.09-49.9-29.46-108.91,7.07-2.19,1.36-18.89,13.78-36.78,6.77-7.32-3.6-10.87-15.41-7.54-22.96l2.37-5.7,4.93-6.22,1.06-1.81c1.64-1.26,2.4-3,3.5-4.66l1.41-2.11c.54-.82.58.25.98-.39-.12-.27-.27-.67.08-1.04l.77-.82,3.86-4.04,3.09-3.78,5.53-6.91c2.79-3.48,3.49-8.59,3.22-13.78-.58-11.02-11.94-21.13-23.6-21.98-6.85-.49-16.03,1.95-21.13,5.02l-14.74,8.87c-4.58,2.75-9,5.47-14.34,6.8l-5.24,1.31c-2.94.74-5.58.87-8.83-1.7l-3.28-2.59c-2.54-2-5.02-6.44-5.76-9.65-1.67-7.21-.13-14.62,2.81-20.07l3.81-7.07c.39-.7.61-1.36,1.07-1.86l.83-.87c.2-.2.12-.49-.08-.66l.83-.87c.32-.32.74-.64.6-1.24.15-.04.36-.27.54-.51l8.83-11.65,1.7-2.35c5.24-7.21,8.12-17.79,6.34-28.29-.48-2.86-.87-5.66-2.01-8.59-2.73-7.01-7.51-13.14-13.61-18.08-7.6-6.15-15.44-8.4-22.78-7.96-15.66-1.65-96.64,25.55-126.28,9.01-55.46-30.93,16.51-79.84-3.97-69.85.51-6.67-.28-13.72-3.21-20.81-2.41-5.82-5.58-11.39-10.02-16.24l-2.18-2.38c-9.31-10.17-25.07-20.88-36.74-22.96l-8.87-1.58-10.95-.44c-2.99-.12-5.53.6-8.14,1.53l-12.8,4.55c-2.43.87-4.49,1.97-6.61,3.3l-7.6,4.78c-5.77,3.61-14.06,5.55-21.72,1.79-7.32-3.6-10.87-15.41-7.54-22.96l2.37-5.7,4.93-6.22,1.06-1.81c1.64-1.26,2.4-3,3.5-4.66l1.41-2.11c.54-.82.6-1.61,1-2.25.13.21.32.12.49.04,1.06-.37,1.05-1.48,1.51-2.01l3.29-3.81,4.04-5.37,7.48-15.13c.77-1.57,1.29-3.25,1.32-5.15l.19-7.94c.15-6.67-3.62-16.21-7.97-22.7l-3.63-5.43-1.61-2.29-28.6-29.9,5.58,815.51h-4.95v375.84h686.7v-375.84h-.88,0Z"/>
  <path d="M635.01,677.8l-14.18.11-7.22,1.53-6.77,1.93-13.51,3.79-15.09,7.08c-6.35,2.97-15.93,4.66-24.35,2.25-10.96-3.15-16.12-15.35-11.3-22.76l4.22-6.48,3.58-3.5c.91-.89,1.5-1.53,2.36-2.36l3.22-3.12,1.91-2.62,5.66-5.11,2.22-1.8,9.7-8.97,3.43-3.5c2.26-2.34,3.12-5.32,3.68-8.45,1.28-7.29-1.16-14.06-9.75-20.82-1.25-.97-2.63-1.84-4.17-2.55l-1.5-.7c-9.82-4.58-19.08-5.17-28.28-3.71-5.84.93-11.38,2.22-16.26,4.46l-17.41,7.97-15.6,6.41c-5.01,2.06-11.01,2.72-16.9,3.24-3.52-.97-6.2-2.57-8.97-4.52l-2.99-2.09c-3.37-3.11-5.34-6.47-5.39-9.94l-.11-5.99c-.05-3.43,1.43-6.54,3.44-9.26l10.51-14.13,2.66-2.99,2.82-2.99,4.23-4.18,3.31-2.88,2.2-2.84c4.3-5.57,7.21-11.69,7.82-18.76l-.13-4.79-.45-4.17c-.66-3.54-2.98-9.78-5.47-13.24-8.19-11.49-1.68-2.22,1.88,4.79,1.5,2.93,2.01,5.72,2.63,8.59,2.32,10.5-1.43,21.07-8.31,28.29l-2.23,2.35-11.56,11.65c-.24.25-.5.48-.7.51.17.6-.36.92-.77,1.24l-1.1.87c.26.17.37.45.11.66l-1.1.87c-.61.49-.89,1.14-1.41,1.86l-4.99,7.07c-3.85,5.43-5.85,12.86-3.68,20.07.97,3.22,4.22,7.65,7.53,9.65l4.29,2.59c4.25,2.57,7.71,2.44,11.56,1.7l6.86-1.31c7-1.33,12.78-4.05,18.77-6.8l19.31-8.87c6.67-3.06,18.7-5.51,27.66-5.02,15.27.85,30.13,10.95,30.89,21.98.36,5.2-.55,10.31-4.22,13.78l-7.25,6.91-4.04,3.78-5.05,4.04-1.01.82c-.46.37-.26.76-.11,1.04-.51.64-.6-.42-1.28.39l-1.85,2.11c-1.45,1.67-2.43,3.4-4.59,4.66l-1.39,1.81-6.46,6.22-3.11,5.7c-4.35,7.57.29,19.37,9.88,22.96,10.03,3.77,20.89,1.82,28.45-1.79l9.95-4.78c2.76-1.33,5.48-2.43,8.66-3.3l16.76-4.55c3.4-.93,6.75-1.64,10.65-1.53l14.34.44,11.61,1.59c5.8.8,12.38,2.84,18.98,5.61v-.73c-11.62-4.6-25.51-7.54-35.79-7.46h.06Z"/>
  <path d="M491.89,535.12c-.17,5.89-.74-4.84-1.35-6.9-5.39-18.42-18.38-29.39-31.06-37.69-9.59-6.28-24.91-10.55-34.33-10.45,0,0-5.54-.24-8.96.12-1.42.14-5.52,1.53-5.52,1.53l-5.17,1.93-10.32,3.79-11.52,7.08c-4.85,2.97-12.17,4.66-18.59,2.25-8.38-3.15-12.31-15.35-8.63-22.76l3.22-6.48,2.73-3.5c.69-.89,1.14-1.53,1.8-2.36l2.45-3.12,1.45-2.62,4.33-5.11,1.69-1.8,7.41-8.97,2.62-3.5c1.73-2.34,2.38-5.32,2.81-8.45.98-7.29-.88-14.06-7.45-20.82-.95-.97-2.01-1.84-3.18-2.55l-1.14-.7c-7.5-4.58-14.57-5.17-21.59-3.71-4.46.93-8.69,2.22-12.42,4.46l-13.3,7.97-11.92,6.41c-3.83,2.06-8.41,2.72-12.91,3.24-2.68-.97-4.73-2.57-6.85-4.52l-2.29-2.09c-2.57-3.11-4.08-6.47-4.11-9.94l-.08-5.99c-.04-3.43,1.1-6.54,2.63-9.26l8.03-14.13,2.03-2.99,2.16-2.99,3.23-4.18,2.53-2.88,1.68-2.84c3.29-5.57,5.51-11.69,5.97-18.76l-.08-5.37-.92-6.38c-.5-3.54-1.73-6.98-3.62-10.44-6.26-11.49-17.64-20.22-29.08-21.64-7.9-.97-14.37.56-20.5,4.08l-29.83,17.15c-5.49,3.16-95.81,2.78-102.11-2.47-1.06-.88-1.86-2.28-3.15-2.91-3.31-3.81-5.39-8.03-5.61-12.31l-.13-2.69c-.08-1.57.02-3.16.67-4.55l4.23-9.31,12.12-20.39c3.42-58.68,12.82-106.71,2-32.4-.08-3.54,6.69-6.46,5.55-10.11l-1.1-3.5c-4.29-13.85-18.08-27.33-30.76-35.63-9.59-6.28-23.04-10.53-32.46-10.44l-10.83.11-5.52,1.53-5.17,1.93-10.32,3.79-11.52,7.08c-4.85,2.97-12.17,4.66-18.59,2.25-8.38-3.15-12.31-15.35-8.63-22.76l3.22-6.48,2.73-3.5c.69-.89,1.14-1.53,1.8-2.36l2.45-3.12,1.45-2.62,11.45-14.69,7.58-15.35c.93-1.87,1.5-3.78,1.67-6.01.46-4.39.29-8.88-.51-13.63-1.12-6.57-5.68-15.81-10.14-22.01l-1.3-1.81-1.61-2.26L-.33,39.27l-.66.68,32.13,33.58,1.61,2.29,3.63,5.43c4.35,6.48,8.13,16.02,7.97,22.7l-.19,7.94c-.04,1.89-.55,3.59-1.32,5.15l-7.48,15.13-4.04,5.37-3.29,3.81c-.46.55-.45,1.64-1.51,2.01-.17.08-.36.18-.49-.04-.39.64-.46,1.43-1,2.25l-1.41,2.11c-1.11,1.67-1.86,3.4-3.5,4.66l-1.06,1.81-4.93,6.22-2.37,5.7c-3.32,7.57.21,19.37,7.54,22.96,7.66,3.77,15.96,1.82,21.72-1.79l7.6-4.78c2.11-1.33,4.18-2.43,6.61-3.3l12.8-4.55c2.6-.93,5.15-1.64,8.14-1.53l10.95.44,8.87,1.58c11.67,2.09,27.42,12.8,36.74,22.96l2.18,2.38c4.45,4.85,7.6,10.43,10.02,16.24,5.05,12.2-7.33,29.71-10.73,39.96-1.62,4.89,7.22,3.63,4.7,7.94l-11.83,20.09-4.23,9.59c-.95,2.18-.69,5.15-.35,7.81,1.38,10.18,94.03,19.17,103.71,19.89,3.56.26,6.38-.95,9.16-2.56l28.65-16.6c10.64-6.16,24.25-6.95,37.16,3.5,6.09,4.93,10.88,11.07,13.61,18.08,1.14,2.93,1.54,5.72,2.01,8.59,1.78,10.5-1.1,21.07-6.34,28.29l-1.7,2.35-8.83,11.65c-.18.25-.38.48-.54.51.13.6-.27.92-.6,1.24l-.83.87c.2.17.29.45.08.66l-.83.87c-.46.49-.68,1.14-1.07,1.86l-3.81,7.07c-2.94,5.43-4.47,12.86-2.81,20.07.74,3.22,3.22,7.65,5.76,9.65l3.28,2.59c3.25,2.57,5.89,2.44,8.83,1.7l5.24-1.31c5.34-1.33,9.76-4.05,14.34-6.8l14.74-8.87c5.1-3.06,14.28-5.51,21.13-5.02,11.65.85,23.01,10.95,23.6,21.98.27,5.2-.42,10.31-3.22,13.78l-5.53,6.91-3.09,3.78-3.86,4.04-.77.82c-.36.37-.2.76-.08,1.04-.39.64-.45-.42-.98.39l-1.41,2.11c-1.11,1.67-1.86,3.4-3.5,4.66l-1.06,1.81-4.93,6.22-2.37,5.7c-3.32,7.57.21,19.37,7.54,22.96,7.66,3.77,15.96,1.82,21.72-1.79l7.6-4.78c2.11-1.33,4.18-2.43,6.61-3.3l12.8-4.55c3.25-1.93,12.94-1.78,19.09-1.08,2.24.25,8.76,1.81,11.95,2.75,11.37,3.32,24.33,11.63,33.65,21.8l2.18,2.38c4.45,4.85,7.6,10.43,10.02,16.24,4.17,10.44,3.17,18.94,2.82,14.15l.25-3.28h.01l.02.03h0Z"/>
  <line class="st1" x1="287.69" y1="877.16" x2="232.33" y2="1049.51"/>
  <line class="st1" x1="289.74" y1="872.39" x2="230.32" y2="861.76"/>
  <line class="st1" x1="231.05" y1="939.39" x2="140.92" y2="942.89"/>
  <line class="st1" x1="135.57" y1="1057.9" x2="112.65" y2="1006.92"/>
  <line class="st1" x1="60.48" y1="1008.15" x2="110.97" y2="1006.37"/>
  <line class="st1" x1="43.04" y1="929.41" x2="137.93" y2="943.32"/>
  <line class="st1" x1="224.58" y1="823.87" x2="232.75" y2="862"/>
  <line class="st1" x1="150.09" y1="831.1" x2="141.31" y2="813.69"/>
  <line class="st1" x1="225.44" y1="822.15" x2="148.99" y2="830.14"/>
  <line class="st1" x1="232.58" y1="864.64" x2="148.99" y2="830.14"/>
  <line class="st1" x1="229.26" y1="938.38" x2="148.99" y2="830.14"/>
  <line class="st1" x1="232.58" y1="864.64" x2="229.26" y2="938.38"/>
  <line class="st1" x1="289.45" y1="874.1" x2="229.26" y2="938.38"/>
  <line class="st1" x1="232.89" y1="1057.19" x2="229.26" y2="938.38"/>
  <line class="st1" x1="136.99" y1="1058.84" x2="232.4" y2="1053.85"/>
  <line class="st1" x1="110.97" y1="1006.37" x2="229.26" y2="938.38"/>
  <line class="st1" x1="116.38" y1="1007.22" x2="232.4" y2="1053.85"/>
  <line class="st1" x1="135.57" y1="1057.9" x2="60.48" y2="1008.15"/>
  <line class="st1" x1="140.92" y1="942.89" x2="60.48" y2="1008.15"/>
  <line class="st1" x1="110.97" y1="1006.37" x2="140.92" y2="942.89"/>
  <line class="st1" x1="148.99" y1="830.14" x2="140.92" y2="942.89"/>
  <line class="st1" x1="40.88" y1="929.48" x2="148.99" y2="830.14"/>
  <line class="st1" x1="49.38" y1="841.28" x2="40.88" y2="929.48"/>
  <line class="st1" x1="40.91" y1="927.8" x2="-29.63" y2="981.42"/>
  <line class="st1" x1="59.26" y1="1009.42" x2="-25.01" y2="982.05"/>
  <line class="st1" x1="62.41" y1="1006.31" x2="7.63" y2="1075.96"/>
  <line class="st1" x1="140.92" y1="942.89" x2="49.65" y2="843.3"/>
  <line class="st1" x1="141.31" y1="813.69" x2="49.65" y2="843.3"/>
  <line class="st1" x1="40.88" y1="929.48" x2="142.14" y2="812.37"/>
  <line class="st1" x1="62.79" y1="1009.12" x2="40.88" y2="929.48"/>
  <line class="st1" x1="289.45" y1="874.1" x2="224.58" y2="823.87"/>
  <circle class="st5" cx="141.31" cy="813.69" r="5.42"/>
  <circle class="st5" cx="49.65" cy="843.3" r="5.42"/>
  <circle class="st5" cx="140.92" cy="942.89" r="5.42"/>
  <circle class="st5" cx="60.48" cy="1008.15" r="5.42"/>
  <circle class="st5" cx="135.57" cy="1057.9" r="5.42"/>
  <circle class="st5" cx="229.26" cy="938.38" r="5.42"/>
  <circle class="st5" cx="224.58" cy="823.87" r="5.42"/>
  <circle class="st5" cx="232.75" cy="862" r="6.49"/>
  <circle class="st5" cx="148.99" cy="830.14" r="6.49"/>
  <circle class="st5" cx="40.88" cy="929.48" r="6.49"/>
  <circle class="st5" cx="232.4" cy="1053.85" r="6.49"/>
  <circle class="st5" cx="112.65" cy="1006.92" r="6.49"/>
  <circle class="st5" cx="289.45" cy="874.1" r="6.49"/>
  <path class="st0" d="M742.3,585.17l3.94-1.7-.3-15.48-.23-15.29-.69-.82c-.13-.15.71-.85.71-1.1l-.06-10.84-7.64,3.56-.44.38c-.44.79-.06,2.48.86,3.13l3.67,2.63.15,35.54h.03,0Z"/>
  <path class="st0" d="M742.3,585.17l3.94-1.7-.3-15.48-.23-15.29-.69-.82c-.13-.15.71-.85.71-1.1l-.06-10.84-7.64,3.56-.44.38c-.44.79-.06,2.48.86,3.13l3.67,2.63.15,35.54h.03,0Z"/>
  <path class="st0" d="M742.3,585.17l3.94-1.7-.3-15.48-.23-15.29-.69-.82c-.13-.15.71-.85.71-1.1l-.06-10.84-7.64,3.56-.44.38c-.44.79-.06,2.48.86,3.13l3.67,2.63.15,35.54h.03,0Z"/>
  <path d="M988.81,537.11c.12,2.47.23,2.03,0,0h0Z"/>
  <path class="st4" d="M80.66,272.17c-1.62,4.05-5.78,10.12-15.1,7.83.32.48-23.93-5.96-23.93-5.96l-16.31,37.67,42.84,10.68c7.96,2,15.79,4.08,23.45,6.04l-13.61,54.69,32.88,8.2,13.5-54.1c9,2.42,17.71,4.68,26.25,6.82l-13.44,53.85,32.9,8.2,13.63-54.58c56.12,10.62,98.34,6.34,116.11-44.44,14.32-40.86-.72-64.46-30.25-79.82,21.51-4.96,37.69-19.12,42.04-48.32,5.96-39.91-24.42-61.36-65.97-75.69l13.47-54.07-32.9-8.2-13.12,52.64c-8.65-2.16-17.54-4.18-26.38-6.21l13.2-52.98-32.88-8.2-13.5,54.07-66.37-16.42-8.76,35.14s24.42,5.59,23.91,5.93c13.34,3.32,15.73,12.14,15.34,19.14l-36.93,148.11-.05-.02h-.02ZM236.38,284.36c-10.17,40.86-78.99,18.77-101.3,13.23l18.08-72.44c22.31,5.57,93.87,16.59,83.25,59.2h-.04,0ZM246.52,178.32c-9.26,37.17-66.56,18.29-85.14,13.66l16.37-65.71c18.58,4.64,78.43,13.29,68.74,52.05h.03Z"/>
  <path class="st4" d="M210.24,856.51c.48,3.59-.05,9.68-7.72,11.82.43.21-19.73,5.46-19.73,5.46l3.58,33.9,35.35-9.76c6.58-1.8,13.09-3.49,19.42-5.21l12.48,45.11,27.12-7.48-12.32-44.64c7.5-1.92,14.72-3.84,21.77-5.78l12.26,44.44,27.15-7.5-12.42-45.03c44.92-15.23,73.71-35.55,65.84-79.52-6.32-35.41-26.83-46.33-54.45-45.38,13.54-12.37,19.46-29.21,10.69-52.11-11.98-31.29-42.7-34.42-78.61-27.81l-12.32-44.61-27.15,7.5,11.99,43.43c-7.14,1.97-14.4,4.14-21.62,6.28l-12.07-43.71-27.12,7.48,12.3,44.62-54.7,15.21,8.01,28.99s19.94-5.92,19.71-5.47c11-3.04,16.34,2.36,18.9,7.58l33.74,122.19h-.06v.02l-.02-.02h0ZM327.84,801.78c9.33,33.7-49.47,45.81-67.87,50.91l-16.49-59.78c18.41-5.08,74.66-26.31,84.37,8.84h-.02v.02h.01,0ZM291.9,720.95c8.47,30.66-40.67,40.4-56,44.63l-14.98-54.21c15.33-4.23,62.15-22.4,70.95,9.59h.03Z"/>
  <g>
    <path d="M461.25,587.18c.24-.27.17-.71-.11-.79l.11.79Z"/>
    <path class="st2" d="M390.2,669.57c-8.06-12.43-12.93-29.39-10.46-44.13l5.99-35.61,15.16-2.26c12.34-1.85,23.91-5.73,35.91-10.04l22.23,16.34,21.65,12.32-6.1,34.96c-1.64,9.49-5.88,17.91-11.59,25.46-2.27,3.18-4.71,5.87-7.6,8.47-10.93,10.53-24.56,17-39.03,21.46-7.47-5.46-14.35-11.11-19.89-18.32l-3.89-5.09c-.29-.71-.83-1.06-1.44-.96.22-.28.09-.74-.18-.77-.5-.4-.27-1.14-.73-1.81h0l-.02-.02h-.01ZM471.61,641.75l6-33.92-13.71-7.48-22.18-15.42-5.57-4.16c-10.34,3.58-20.39,7.15-31.19,8.93l-16.85,2.76-1.26,6.18-3.93,23.08c-3.31,19.43,2.44,37.93,14.56,53.11.55.7.91,1.34,1.67,1.43-.04.17-.03.6.23.86l10.89,11,6.5,5.37c7.24-2.17,13.66-5.06,20.18-8.51.67-.35,1.1-.66,1.18-1.27.77.2,1.12-.18,1.12-.63.6.19,1.1-.04,1.72-.48l7.68-5.4.94-1.64c.58-.06,1.09-.27.99-.89,1.04.26,1.94-.44,2.07-1.64,2.3.39,16.43-16.98,18.96-31.33h0v.04h-.03v.03l.02-.02h.01Z"/>
    <path d="M389.7,669.67c-.5-.4-.27-1.14-.73-1.81-8.06-12.43-12.93-29.39-10.46-44.13l5.99-35.61,15.16-2.26c12.34-1.85,23.91-5.73,35.91-10.04l22.23,16.34,21.65,12.32-6.1,34.96c-1.64,9.49-5.88,17.91-11.59,25.46-2.27,3.18-4.71,5.87-7.6,8.47-10.93,10.53-24.56,17-39.03,21.46-7.47-5.46-14.35-11.11-19.89-18.32l-3.89-5.09c-.29-.71-.83-1.06-1.44-.96.07.11-.02.63.07.88l4.97,6.46c5.58,7.26,12.59,12.93,19.93,18.48,14.46-4.47,27.71-10.94,39.05-21.1,9.93-9.09,17.83-20.27,20.23-33.72l6.02-33.7c.24-1.4.74-2.61.31-3.99-9.87-4.82-19.25-9.89-27.97-16.53l-16.6-12.66-30.63,9.01-21.81,3.65-6.14,36.49c-1.5,8.84-.28,17.51,2.12,26.05,1.98,6.77,4.93,12.83,8.66,18.77.44.68.74,1.07,1.62,1.16h.02v-.02h-.03l-.03-.02h0Z"/>
    <rect class="st7" x="412.55" y="682.76" width="1.2" height="43.84" transform="translate(-351.37 992.39) rotate(-80.24)"/>
    <rect class="st7" x="412.31" y="695.39" width="1.2" height="28.23" transform="translate(-356.32 996.16) rotate(-80.24)"/>
    <rect x="411.12" y="705.79" width="1.2" height="18.02" transform="translate(-362.53 999.39) rotate(-80.24)"/>
    <path d="M438.03,681.38c.6.19,1.1-.04,1.72-.48l7.68-5.4.94-1.64c-.22.32-.97.43-1.53.84l-7.64,5.41c-.47.33-.9.54-1.15,1.24h0v.03h-.02Z"/>
    <path d="M448.36,673.89c.58-.06,1.09-.27.99-.89-.16.2-.68.41-.99.89h0Z"/>
    <path d="M436.9,682c.77.2,1.12-.18,1.12-.63-.06.08-.47-.24-.78.02-.17.15-.32.36-.36.62h.02Z"/>
    <path d="M397.93,674.55c-.04.17-.03.6.23.86l10.89,11,6.5,5.37c7.24-2.17,13.66-5.06,20.18-8.51.67-.35,1.1-.66,1.18-1.27-.55-.12-1.08.13-1.74.46-6.24,3.38-12.53,5.99-19.34,8.24-5.93-4.62-11.2-9.32-16.07-14.88-.47-.56-.85-1.12-1.82-1.29h0v.02h-.01Z"/>
    <path d="M397.93,674.55c.05-.36,0-.8-.4-1.3-11.39-13.97-18.1-32.69-15.05-50.7l5.25-30.97,22.06-4,25.06-7.49,21.78,15.96,18.59,10.67-5.69,32.67c-3.18,18.33-17.92,30.56-18.09,31.96,2.3.39,16.43-16.98,18.96-31.33l6-33.92-13.71-7.48-22.18-15.42-5.57-4.16c-10.34,3.58-20.39,7.15-31.19,8.93l-16.85,2.76-1.26,6.18-3.93,23.08c-3.31,19.43,2.44,37.93,14.56,53.11.55.7.91,1.34,1.67,1.43v.04h-.01v-.02h0Z"/>
    <path class="st8" d="M427.67,661.69c-.22,1.29-.52,2.69-1.92,3.2-2.97,1.12-5.28-1.25-7.16-4.57-.66-1.15.47-2.48,1.62-2.71,2.46-.46,3.29-1.98,2.72-2.46l-2.78-2.3c-.74-.61-.26-2.89.64-3.16l2.95-.86c.56-.16.5-1.16.38-1.45-.09-.24-.21-.44-.57-.56l-1.18.53c-.82,1.8-3.17.4-3.47,1.84l-.94,4.33,2.8,1.37c1.12,2.12-3.19,1.21-3.4,2.37l-.56,3.27,4.39,5.12c1.07,1.23,6.71.97,7.13-1.47l5.57-31.51c3.38-.93,6.26-2.66,8.32-5.75,4.57-6.82,2.84-16.22-4.29-20.77-8.01-5.08-18.85-1.03-21.72,7.89-2.08,6.36.21,12.81,5.59,16.65l-1.04,6.96-.36,3.26c-.22,1.83-1.98,5.6-.25,5.73.18.01.34-.1.38-.33h0c-.08-.52.53-.79.74-1.04l.36-3.59c.15-1.51.55-2.43.75-3.73l.95-6.38"/>
    <path d="M449.35,672.96c1.04.26,1.94-.44,2.07-1.64-1.06,0-1.5.84-2.07,1.64Z"/>
    <path d="M418.55,645.75c-.05-.55.53-.8.74-1.05l.36-3.59c.15-1.51.55-2.43.75-3.73l.95-6.38c1,.5,2.02.91,2.99,1.01.21-.43.2-.95.03-1.05-4.4-1.94-7.25-4.51-8.76-8.96-2.29-6.78,1.37-13.8,7.91-16.38,4.63-1.81,9.35-1.21,13.2,2,3.57,2.98,5.29,7.54,4.61,12.27-.82,5.61-4.89,9.97-10.42,10.91l-.83,5.43-4.34,24.84c-.22,1.29-.52,2.69-1.92,3.2-2.97,1.12-5.28-1.25-7.16-4.57-.66-1.15.47-2.48,1.62-2.71,2.46-.46,3.29-1.98,2.72-2.46l-2.78-2.3c-.74-.61-.26-2.89.64-3.16l2.95-.86c.56-.16.5-1.16.38-1.45-.09-.24-.21-.44-.57-.56l-1.18.53c-.82,1.8-3.17.4-3.47,1.84l-.94,4.33,2.8,1.37c1.12,2.12-3.19,1.21-3.4,2.37l-.56,3.27,4.39,5.12c1.07,1.23,6.71.97,7.13-1.47l5.57-31.51c3.38-.93,6.26-2.66,8.32-5.75,4.57-6.82,2.84-16.22-4.29-20.77-8.01-5.08-18.85-1.03-21.72,7.89-2.08,6.36.21,12.81,5.59,16.65l-1.04,6.96-.36,3.26c-.22,1.83-1.98,5.6-.25,5.73.18.01.34-.1.38-.33l-.08.02.05.03h-.01Z"/>
    <path class="st7" d="M419.29,644.69c-.2.25-.8.49-.74,1.05.85-.27,1.58.26,1.87,1.06l1.18-.53c-.35-.91-1.36-1.3-2.29-1.58h-.02Z"/>
    <path class="st2" d="M428.78,615.86c2.13.36,4.16-1.06,4.53-3.2s-1.06-4.16-3.2-4.53-4.16,1.06-4.53,3.2,1.06,4.16,3.2,4.53ZM422.96,639.34l.1-3.27c-.96-.23-1.29.05-1.71.56.65,1.5.42,2.73-.95,4.55,1.62.71,2.52-.61,2.56-1.85h0Z"/>
    <path d="M430.12,608.14c2.13.36,3.57,2.4,3.2,4.53s-2.4,3.57-4.53,3.2-3.57-2.4-3.2-4.53,2.4-3.57,4.53-3.2ZM428.97,614.75c1.51.27,2.98-.76,3.24-2.28s-.76-2.98-2.28-3.24-2.98.76-3.24,2.28c-.27,1.51.76,2.98,2.28,3.24Z"/>
    <circle class="st9" cx="429.44" cy="611.98" r="2.8"/>
  </g>
  <g>
    <path class="st9" d="M373.41,833.64l-3.72-30.39-.45-4.35,13.37-6.1c8.47-3.87,15.98-9,23.67-14.26l8.22-5.64c.73-.5,1.91.42,2.45.64l10.82,4.12c11.91,4.55,23.94,7.66,36.54,9.86.7.13.97,1.44.89,1.97-.42,2.66.45,4.75.74,7.25l3.1,26.22c.92,7.82-.13,15.3-2.31,22.75-5.93,20.32-20.59,35.57-37.94,46.93-12.23-4.56-24.38-10.95-33.69-19.48-11.09-10.17-19.87-24.57-21.7-39.55h0v.04h.01,0ZM461.38,852.36l2.81-8.06c1.79-6.9,2.92-13.78,2.1-21.01l-3.86-33.23c-16.66-2.67-32.02-8-47.36-14.09l-15.4,10.37c-8.56,5.78-17.52,10.28-27.17,14.31-.3,1.55.25,2.99.42,4.61l3.23,27.42,2.44,10.67c2.16,6.9,5.78,12.99,10.12,18.7l1.32,1.06c.15,1.11.68,1.73,1.48,1.56-.05.6.27,1.11.85,1.66l2.43,2.45c.27.26.69.26,1.01.27.04,1.11,2.78,3.68,3.97,3.91.05.36.45.44.57.55l.73.56.68.52.66.52.64.54c.32.27.54.33.89.31.12.87,2.49,2.75,3.78,2.78.08.41.56.42.68.57.62.85,2.13,2.03,3.37,1.81.3,1.44,11.43,6.59,16.56,8.51l12.19-9.37c.57-.44.94-.85,1.16-1.53,1.3-.37,4.68-3.63,4.64-4.97,1.07.1,2.63-1.81,3.37-3.73l.46-.76c.25-.15.37-.41.55-.67.11-.2.31-.55.58-.57.51,0,.85-.29.85-.49l.06-.98.6-.62c2.84-2.09,2.5-3.5,2.59-3.34.39-.08.42-.56.57-.69.63-.46,1.45-1.67,1.31-2.54,1.23-.35,1.23-1.23,1.04-2.09.97-.25,2.22-2.57,1.86-3.92.62.12.94-.29,1.19-1.01h.04v.05h-.01v-.07.03h0Z"/>
    <path class="st9" d="M408.92,884l17.15,7.83c18.64-12.55,33.74-28.4,39.51-50.64,2.07-7.98,2.4-15.83,1.39-23.97l-2.72-22.25c-.32-2.65-1.08-5.21-.81-7.75.07-.73-.26-2.49-.82-2.87-9.49-1.51-18.7-3.22-27.73-6.58l-23.08-8.6-9.06,6.16-13.68,8.71c-7.58,4.83-15.48,8.52-23.82,11.89l.38,5.18,3.4,28.58,1.39,7.27,2.01,7.04c2.59,9.01,8.06,16.4,14.67,23.45,6.64,6.79,13.7,12.1,21.8,16.56h-.01v-.02h.04-.01Z"/>
    <rect class="st9" x="404.66" y="899.75" width="44.45" height="1.2" transform="translate(-102.28 56.05) rotate(-6.71)"/>
    <rect class="st9" x="413.64" y="904.46" width="28.23" height="1.2" transform="translate(-102.82 56.18) rotate(-6.71)"/>
    <path class="st9" d="M433.46,910.03c1.32-.12,3.03.92,3.58-1.2l-16.51,1.93c-.48.06-.73.12-.91.57l13.81-1.3h.03Z"/>
    <path d="M372.46,844.03l-2.01-7.04-1.39-7.27-3.4-28.58-.38-5.18c8.35-3.37,16.22-7.05,23.82-11.89l13.68-8.71,9.06-6.16,23.08,8.6c9.03,3.36,18.25,5.09,27.73,6.58.54.37.89,2.15.82,2.87-.27,2.53.49,5.09.81,7.75l2.72,22.25c1,8.15.67,15.97-1.39,23.97-5.77,22.23-20.87,38.09-39.51,50.64l-17.15-7.83c-8.07-4.46-15.17-9.74-21.8-16.56-6.6-7.04-12.08-14.44-14.67-23.45h.01v.02h-.04.01ZM425.91,890.4c17.35-11.36,32.01-26.63,37.94-46.93,2.18-7.45,3.23-14.96,2.31-22.75l-3.1-26.22c-.3-2.47-1.14-4.58-.74-7.25.08-.54-.18-1.84-.89-1.97-12.6-2.22-24.63-5.32-36.54-9.86l-10.82-4.12c-.56-.21-1.73-1.13-2.45-.64l-8.22,5.64c-7.66,5.27-15.19,10.38-23.67,14.26l-13.37,6.1.45,4.35,3.72,30.39c1.81,14.99,10.61,29.4,21.7,39.55,9.33,8.53,21.44,14.91,33.69,19.48h0v-.04h-.01,0Z"/>
    <rect class="st7" x="404.69" y="899.71" width="44.45" height="1.2" transform="translate(-102.27 56.05) rotate(-6.71)"/>
    <rect class="st7" x="413.66" y="904.44" width="28.23" height="1.2" transform="translate(-102.82 56.18) rotate(-6.71)"/>
    <path d="M419.63,911.33l13.81-1.3c1.32-.12,3.03.92,3.58-1.2l-16.51,1.93c-.48.06-.73.12-.91.57h.03Z"/>
    <path d="M401.04,873.68c-.2-.18-.32-.41-.89-.31.32.27.54.33.89.31Z"/>
    <path d="M446.8,867.77l.46-.76c-.29.17-.44.45-.46.76Z"/>
    <path d="M387.15,860.86c.04-.81-.48-1.38-.99-2.2l-5.54-8.72-2.78-6.11-1.13-3.4-1.36-4.03-.86-5.53-3.21-27.41c-.17-1.44-.89-2.63-.6-4.31,9.9-4.22,19.09-9.3,28.06-15.15l7.17-4.68,6.23-4.48,8.41,3.23,20.08,6.65c5.92,1.98,11.83,2.94,17.92,4l.45,4.43,3.3,28.01c.43,3.63.44,7.2-.05,10.79l-.46,3.36-1.39,5.98-2.9,8.07c-.21.57-.41,1.13-.25,1.74.62.12.94-.29,1.19-1.01l2.81-8.06c1.79-6.9,2.92-13.78,2.1-21.01l-3.86-33.23c-16.66-2.67-32.02-8-47.36-14.09l-15.4,10.37c-8.56,5.78-17.52,10.28-27.17,14.31-.3,1.55.25,2.99.42,4.61l3.23,27.42,2.44,10.67c2.16,6.9,5.78,12.99,10.12,18.7l1.32,1.06h.01-.02l.04.02h.03,0Z"/>
    <path d="M453.07,859.64c.63-.46,1.45-1.67,1.31-2.54-.97.19-1.62,1.36-1.31,2.54Z"/>
    <path d="M449.9,863.66c2.84-2.09,2.5-3.5,2.59-3.34-1.75.38-2.45,3.21-2.59,3.34Z"/>
    <path d="M449.33,864.28l.6-.62-.6.62Z"/>
    <path d="M448.41,865.78c.51,0,.85-.29.85-.49l.06-.98c-.39.52-.86.67-.91,1.49h0v-.02h0Z"/>
    <path d="M392.91,866.8c.04,1.11,2.78,3.68,3.97,3.91-.23-1.35-3.15-3.9-3.97-3.91Z"/>
    <path d="M397.47,871.25c-.04-.2-.1-.68-.57-.55.05.36.45.44.57.55Z"/>
    <path d="M398.17,871.79l-.73-.56.73.56Z"/>
    <path d="M387.15,860.86c.15,1.11.68,1.73,1.48,1.56.04-.42.02-.88-.3-1.3-.24-.3-.77-.42-1.19-.26h.01,0Z"/>
    <path d="M408.86,878.83c.3,1.44,11.43,6.59,16.56,8.51l12.19-9.37c.57-.44.94-.85,1.16-1.53-.81.24-1.3.35-1.95.88l-11.52,8.85c-5.43-2.04-10.25-4.36-15.16-7.19-.38-.21-.8-.26-1.3-.18h.02v.03Z"/>
    <path d="M405.49,877.03c.62.85,2.13,2.03,3.37,1.81-.48-1.3-2.11-2.1-3.37-1.81Z"/>
    <path d="M405.49,877.03c-.02-.41-.27-.73-.68-.57.08.41.56.42.68.57Z"/>
    <path d="M438.79,876.46c1.3-.37,4.68-3.63,4.64-4.97-.58.21-1.07.54-1.63,1.08l-2.78,2.72c-.31.29-.49.63-.23,1.14h0v.02h0Z"/>
    <path d="M447.83,866.34c.11-.2.31-.55.58-.57-.25.1-.49.31-.58.57Z"/>
    <path d="M454.37,857.12c1.23-.35,1.23-1.23,1.04-2.09-.18.26-.68.21-.85.36-.24.24-.56.93-.2,1.73h.01Z"/>
    <path d="M401.04,873.68c.12.87,2.49,2.75,3.78,2.78-.2-1.25-2.71-2.86-3.78-2.78Z"/>
    <path d="M398.85,872.31l-.68-.52.68.52Z"/>
    <path d="M443.42,871.51c1.07.1,2.63-1.81,3.37-3.73-1.63.91-3.42,2.98-3.37,3.73Z"/>
    <path d="M388.64,862.43c-.05.6.27,1.11.85,1.66l2.43,2.45c.27.26.69.26,1.01.27-.25-.51-.52-1.05-1.05-1.62l-2.07-2.23c-.29-.31-.6-.56-1.16-.51h-.02v-.02h0Z"/>
    <path d="M447.28,867.01c.25-.15.37-.41.55-.67-.25.15-.48.33-.55.67Z"/>
    <path d="M400.16,873.39c-.14-.17-.37-.44-.64-.54l.64.54Z"/>
    <path d="M399.48,872.86l-.66-.52.66.52Z"/>
    <path class="st2" d="M398.51,847.19l-2.16-18.51c-.33-2.74.74-5.27,3.44-6.24l10.83-1.36,8.79-1.02,9.64-1.02c2.86.71,4.23,3.06,4.56,5.88l2.06,17.91c.37,3.12-1.22,5.91-4.27,6.79l-25.96,3.13c-3.99.48-6.57-1.93-6.97-5.51v-.04h.04-.02.02,0ZM418.74,843.07c1.37-1.11-.75-5.45.31-6.52,1.84-1.84,2.29-4.04.86-6.2-.95-1.45-2.4-2.29-4.24-2.17-2.41.14-4.25,1.63-4.67,3.58-.54,2.43.38,4.65,2.76,5.78l.93,6.09c1.38.26,3.09.25,4.08-.57h-.03,0Z"/>
    <path d="M452.5,860.34c.39-.08.42-.56.57-.69l-.57.69Z"/>
    <path d="M400.79,848.53l-2.62-22.34c-.36-2.99,2.61-5.39,5.11-5.97l-.52-6.55c-.21-2.66-.06-5.34,1.2-7.7,4.21-7.94,14.43-10.13,21.51-4.6,2.45,1.92,4.27,4.52,4.74,7.57l1.2,8.04c2.76-.11,5.92,1.64,6.27,4.37l2.73,21.78c.35,2.9-1.86,6.55-4.95,6.91l-28.28,3.35c-2.92.35-6.04-2.13-6.38-4.84h-.04v-.02h.03ZM414.13,802.56c3.24-.76,6.29-.07,8.7,1.76s3.65,4.86,4.04,8.34l.55,4.72,2.54-.32-.87-7.72c-.62-5.48-5.83-9.09-10.67-9.82-8.2-1.23-15.3,5.95-14.63,12.19l.91,8.32c.93.12,1.56.1,2.43-.23l-.67-7.41c-.44-4.92,3.12-8.76,7.65-9.81h.01v-.02h.01ZM420.85,818.3l5.58-.64-.56-4.25c-.41-3.17-1.08-6.08-3.38-7.95-2.34-1.93-5.62-2.85-8.82-1.76-7.05,2.43-6.76,8.97-5.11,16.14l6.63-.86,5.65-.68h.04-.03ZM434.75,848.86c3.04-.86,4.62-3.66,4.27-6.79l-2.06-17.91c-.35-2.82-1.69-5.18-4.56-5.88l-9.64,1.02-8.79,1.02-10.83,1.36c-2.69.98-3.77,3.52-3.44,6.24l2.16,18.51c.42,3.6,3,5.99,6.97,5.51l25.96-3.13v.04h-.04.02-.02,0Z"/>
    <path class="st9" d="M415.2,818.98l5.65-.68,5.58-.64-.56-4.25c-.41-3.17-1.08-6.08-3.38-7.95-2.34-1.93-5.62-2.85-8.82-1.76-7.05,2.43-6.76,8.97-5.11,16.14l6.63-.86h.04-.03Z"/>
    <path class="st9" d="M406.46,812.38c-.44-4.92,3.12-8.76,7.65-9.81,3.24-.76,6.29-.07,8.7,1.76s3.65,4.86,4.04,8.34l.55,4.72,2.54-.32-.87-7.72c-.62-5.48-5.83-9.09-10.67-9.82-8.2-1.23-15.3,5.95-14.63,12.19l.91,8.32c.93.12,1.56.1,2.43-.23l-.67-7.41h.01v-.02h.01Z"/>
    <path d="M417,836.8c-2.38-1.13-3.31-3.36-2.76-5.78.44-1.95,2.28-3.43,4.67-3.58,1.84-.11,3.29.75,4.24,2.17,1.42,2.15.97,4.35-.86,6.2-1.05,1.06,1.06,5.41-.31,6.52-1.01.8-2.69.81-4.08.57l-.93-6.09h.03,0ZM421.19,841.24l-.39-5.76c.94-1.11,2.04-1.92,1.91-3.32-.13-1.5-.94-2.84-2.69-3.35s-3.8.52-4.33,1.88c-.8,2.04.14,4.1,2.26,4.9l1.04,6.04c.1.6,2.26.24,2.22-.45h.01l-.02.05h-.01Z"/>
    <path class="st9" d="M418.98,841.67c.1.6,2.26.24,2.22-.45l-.39-5.76c.94-1.11,2.04-1.92,1.91-3.32-.13-1.5-.94-2.84-2.69-3.35s-3.8.52-4.33,1.88c-.8,2.04.14,4.1,2.26,4.9l1.04,6.04h.01l-.02.05h-.01Z"/>
  </g>
  <path class="st3" d="M60.19,1246.14l-.69-2.41.69,2.41Z"/>
  <rect class="st6" x="-1082.67" y="899.93" width="686.7" height="61.98"/>
</svg>